<?xml version="1.0" encoding="utf-8"?>
<!-- Generator: Adobe Illustrator 23.0.4, SVG Export Plug-In . SVG Version: 6.00 Build 0)  -->
<svg version="1.1" id="Layer_1" xmlns="http://www.w3.org/2000/svg" xmlns:xlink="http://www.w3.org/1999/xlink" x="0px" y="0px"
	 viewBox="0 0 184.89 187.55" style="enable-background:new 0 0 184.89 187.55;" xml:space="preserve">
<style type="text/css">
	.st0{fill:url(#SVGID_1_);}
	.st1{fill:#FFFFFF;}
</style>
<linearGradient id="SVGID_1_" gradientUnits="userSpaceOnUse" x1="92.0162" y1="172.7466" x2="92.0162" y2="16.028">
	<stop  offset="0" style="stop-color:#F7931E"/>
	<stop  offset="0.3778" style="stop-color:#F47723"/>
	<stop  offset="0.7556" style="stop-color:#F26127"/>
	<stop  offset="1" style="stop-color:#F15928"/>
</linearGradient>
<circle class="st0" cx="92.02" cy="94.39" r="78.36"/>
<path class="st1" d="M66.97,50.75l0.04,0.09c-0.59,2.53-1.6,4.44-3.03,5.73c-1.43,1.29-3.36,1.94-5.79,1.94
	c-2.34,0-4.22-0.82-5.63-2.47c-1.41-1.65-1.86-3.73-1.36-6.23l0.89-4.43c0.55-2.78,1.63-4.93,3.23-6.44
	c1.6-1.51,3.58-2.27,5.94-2.27c2.41,0,4.26,0.7,5.56,2.1c1.3,1.4,1.79,3.3,1.47,5.7l-0.03,0.07H63.5c0.23-1.36,0.15-2.38-0.26-3.06
	c-0.41-0.68-1.21-1.02-2.41-1.02c-0.89,0-1.69,0.45-2.38,1.35c-0.7,0.9-1.19,2.08-1.48,3.54l-0.89,4.46
	c-0.32,1.57-0.27,2.79,0.14,3.64c0.41,0.85,1.16,1.28,2.25,1.28c0.99,0,1.79-0.33,2.39-0.98c0.6-0.65,1.06-1.65,1.37-2.99H66.97z"/>
<path class="st1" d="M73.59,54.41h8.38l-0.76,3.79H67.95l4.24-21.23h4.88L73.59,54.41z"/>
<path class="st1" d="M88.33,58.21h-4.86l4.24-21.23h4.86L88.33,58.21z"/>
<path class="st1" d="M108.7,50.75l0.04,0.09c-0.59,2.53-1.6,4.44-3.03,5.73c-1.43,1.29-3.36,1.94-5.79,1.94
	c-2.34,0-4.22-0.82-5.63-2.47c-1.41-1.65-1.86-3.73-1.36-6.23l0.89-4.43c0.55-2.78,1.63-4.93,3.23-6.44
	c1.6-1.51,3.58-2.27,5.94-2.27c2.41,0,4.27,0.7,5.56,2.1c1.3,1.4,1.79,3.3,1.47,5.7L110,44.54h-4.77c0.23-1.36,0.15-2.38-0.26-3.06
	c-0.41-0.68-1.21-1.02-2.41-1.02c-0.89,0-1.69,0.45-2.38,1.35c-0.7,0.9-1.19,2.08-1.48,3.54l-0.89,4.46
	c-0.32,1.57-0.27,2.79,0.14,3.64c0.41,0.85,1.16,1.28,2.25,1.28c0.99,0,1.79-0.33,2.39-0.98c0.6-0.65,1.06-1.65,1.37-2.99H108.7z"/>
<path class="st1" d="M117.85,49.78h-1.53l-1.68,8.43h-4.88L114,36.97h4.88l-1.68,8.4h1.5l4.87-8.4h6.43l-7.65,10.47L126,58.21h-5.61
	L117.85,49.78z"/>
<path class="st1" d="M73.7,83.47h-4.86l1.71-8.54h-6.91l-1.71,8.54h-4.88l4.24-21.23h4.88l-1.78,8.9h6.91l1.78-8.9h4.86L73.7,83.47z
	"/>
<path class="st1" d="M91.07,74.39h-7.6l-1.05,5.29h8.97l-0.76,3.79H76.78l4.24-21.23H94.9l-0.76,3.79h-9l-0.92,4.56h7.6L91.07,74.39
	z"/>
<path class="st1" d="M99.23,75.34l-1.62,8.14h-4.9l4.24-21.23h7.7c2.16,0,3.83,0.58,5.02,1.73c1.19,1.16,1.6,2.7,1.22,4.64
	c-0.24,1.19-0.71,2.16-1.39,2.92c-0.68,0.76-1.62,1.38-2.79,1.86c1.09,0.39,1.83,1.02,2.22,1.89c0.39,0.88,0.47,1.92,0.23,3.14
	l-0.26,1.34c-0.12,0.57-0.17,1.21-0.15,1.91c0.02,0.7,0.18,1.2,0.5,1.5l-0.06,0.29h-5.02c-0.3-0.3-0.43-0.82-0.39-1.57
	c0.04-0.74,0.13-1.47,0.26-2.17l0.26-1.28c0.21-1.08,0.15-1.87-0.21-2.37c-0.35-0.5-0.99-0.75-1.91-0.75H99.23z M99.99,71.55h2.86
	c0.77,0,1.44-0.23,2.02-0.69c0.58-0.46,0.95-1.11,1.12-1.93c0.17-0.92,0.08-1.64-0.27-2.14s-0.96-0.75-1.81-0.75h-2.8L99.99,71.55z"
	/>
<path class="st1" d="M125.49,74.39h-7.6l-1.05,5.29h8.97l-0.76,3.79H111.2l4.24-21.23h13.88l-0.76,3.79h-9l-0.92,4.56h7.6
	L125.49,74.39z"/>
<path class="st1" d="M35.4,94.98l0.14,1.63c0.38-0.58,0.84-1.03,1.4-1.36c0.55-0.32,1.17-0.48,1.86-0.48c1.15,0,2.05,0.36,2.69,1.08
	c0.64,0.72,0.97,1.85,0.97,3.4v7.11h-3.08v-7.11c0-0.77-0.16-1.31-0.46-1.63c-0.31-0.32-0.78-0.48-1.4-0.48
	c-0.41,0-0.77,0.08-1.09,0.25c-0.32,0.17-0.59,0.4-0.81,0.7v8.27h-3.07V94.98H35.4z"/>
<path class="st1" d="M49.33,106.57c-1.64,0-2.95-0.53-3.93-1.58c-0.98-1.05-1.47-2.39-1.47-4.01v-0.42c0-1.69,0.46-3.08,1.39-4.17
	c0.93-1.09,2.17-1.64,3.74-1.63c1.53,0,2.73,0.46,3.57,1.39c0.85,0.93,1.27,2.18,1.27,3.75v1.67h-6.79l-0.02,0.06
	c0.06,0.75,0.31,1.36,0.75,1.84c0.44,0.48,1.05,0.72,1.81,0.72c0.68,0,1.24-0.07,1.69-0.21c0.45-0.14,0.94-0.35,1.47-0.65l0.83,1.9
	c-0.46,0.38-1.07,0.7-1.82,0.94C51.08,106.45,50.25,106.57,49.33,106.57z M49.06,97.13c-0.57,0-1.02,0.22-1.35,0.65
	c-0.33,0.43-0.53,1.01-0.61,1.71l0.03,0.05h3.76v-0.27c0-0.65-0.15-1.17-0.46-1.56C50.14,97.32,49.67,97.13,49.06,97.13z"/>
<path class="st1" d="M65.13,102.28h0.06l1.48-7.31h2.88l-2.89,11.37H64.1l-2.11-6.77h-0.06l-2.11,6.77h-2.55l-2.89-11.37h2.88
	l1.5,7.29h0.06l2.12-7.29h2.05L65.13,102.28z"/>
<path class="st1" d="M80.31,104.21c0.55,0,0.98-0.16,1.31-0.48c0.33-0.32,0.49-0.74,0.49-1.27h2.79l0.03,0.06
	c0.03,1.15-0.4,2.11-1.3,2.89s-2,1.16-3.33,1.16c-1.7,0-3-0.54-3.92-1.61s-1.38-2.45-1.38-4.13v-0.32c0-1.68,0.46-3.05,1.37-4.13
	s2.22-1.62,3.92-1.62c1.4,0,2.53,0.4,3.39,1.2c0.86,0.8,1.27,1.85,1.25,3.15l-0.02,0.06h-2.8c0-0.59-0.16-1.08-0.48-1.47
	c-0.32-0.39-0.77-0.58-1.34-0.58c-0.81,0-1.39,0.32-1.72,0.94s-0.5,1.44-0.5,2.44v0.32c0,1.01,0.17,1.83,0.5,2.45
	S79.49,104.21,80.31,104.21z"/>
<path class="st1" d="M92.91,106.35c-0.11-0.26-0.21-0.53-0.29-0.82s-0.14-0.58-0.17-0.88c-0.32,0.55-0.73,1.01-1.25,1.38
	c-0.52,0.36-1.13,0.55-1.84,0.55c-1.19,0-2.11-0.31-2.75-0.92c-0.65-0.61-0.97-1.45-0.97-2.51c0-1.11,0.43-1.98,1.29-2.59
	s2.11-0.92,3.76-0.92h1.71v-0.9c0-0.55-0.14-0.97-0.43-1.27S91.25,97,90.69,97c-0.5,0-0.88,0.12-1.15,0.36
	c-0.27,0.24-0.4,0.58-0.4,1l-2.96-0.01l-0.01-0.06c-0.05-0.96,0.37-1.79,1.25-2.49c0.88-0.7,2.04-1.05,3.48-1.05
	c1.36,0,2.46,0.35,3.31,1.04s1.27,1.67,1.27,2.95v4.7c0,0.53,0.04,1.03,0.12,1.5s0.21,0.94,0.38,1.4H92.91z M90.1,104.3
	c0.54,0,1.02-0.13,1.44-0.4c0.42-0.27,0.7-0.57,0.85-0.93v-1.61h-1.71c-0.65,0-1.15,0.16-1.48,0.49s-0.5,0.72-0.5,1.18
	c0,0.38,0.13,0.68,0.38,0.91C89.32,104.18,89.66,104.3,90.1,104.3z"/>
<path class="st1" d="M107.6,100.98c0,1.68-0.39,3.03-1.17,4.06s-1.86,1.53-3.26,1.53c-0.6,0-1.12-0.11-1.59-0.33
	c-0.46-0.22-0.86-0.55-1.19-0.97v5.46h-3.06V94.98h2.76l0.18,1.35c0.34-0.5,0.74-0.88,1.21-1.15c0.47-0.27,1.02-0.4,1.66-0.4
	c1.41,0,2.5,0.55,3.28,1.65s1.17,2.55,1.17,4.34V100.98z M104.53,100.74c0-1.07-0.18-1.94-0.54-2.61c-0.36-0.67-0.9-1-1.64-1
	c-0.46,0-0.86,0.09-1.18,0.28c-0.33,0.19-0.58,0.46-0.77,0.81v4.99c0.19,0.32,0.45,0.57,0.77,0.74s0.73,0.25,1.2,0.25
	c0.74,0,1.29-0.29,1.63-0.87c0.35-0.58,0.52-1.37,0.52-2.37V100.74z"/>
<path class="st1" d="M119.93,97.61l-1.12-0.03c-0.46,0-0.83,0.09-1.12,0.28c-0.29,0.19-0.52,0.46-0.67,0.8v7.68h-3.06V94.98h2.85
	l0.14,1.68c0.27-0.6,0.61-1.06,1.04-1.39s0.91-0.5,1.47-0.5c0.15,0,0.3,0.01,0.43,0.04c0.13,0.02,0.26,0.05,0.39,0.09L119.93,97.61z
	"/>
<path class="st1" d="M127.71,106.35c-0.11-0.26-0.21-0.53-0.29-0.82c-0.08-0.29-0.14-0.58-0.17-0.88c-0.32,0.55-0.73,1.01-1.25,1.38
	c-0.52,0.36-1.13,0.55-1.85,0.55c-1.19,0-2.11-0.31-2.75-0.92c-0.65-0.61-0.97-1.45-0.97-2.51c0-1.11,0.43-1.98,1.29-2.59
	s2.11-0.92,3.76-0.92h1.71v-0.9c0-0.55-0.14-0.97-0.43-1.27S126.06,97,125.5,97c-0.5,0-0.88,0.12-1.15,0.36
	c-0.27,0.24-0.4,0.58-0.4,1l-2.96-0.01l-0.01-0.06c-0.05-0.96,0.37-1.79,1.25-2.49c0.88-0.7,2.04-1.05,3.48-1.05
	c1.36,0,2.46,0.35,3.31,1.04c0.85,0.69,1.27,1.67,1.27,2.95v4.7c0,0.53,0.04,1.03,0.12,1.5c0.08,0.47,0.21,0.94,0.38,1.4H127.71z
	 M124.91,104.3c0.54,0,1.02-0.13,1.44-0.4c0.42-0.27,0.7-0.57,0.85-0.93v-1.61h-1.71c-0.65,0-1.15,0.16-1.48,0.49
	c-0.34,0.33-0.5,0.72-0.5,1.18c0,0.38,0.13,0.68,0.38,0.91C124.13,104.18,124.47,104.3,124.91,104.3z"/>
<path class="st1" d="M135.8,92.19v2.79h1.91v2.16h-1.91v5.79c0,0.44,0.09,0.76,0.27,0.95s0.43,0.28,0.74,0.28
	c0.16,0,0.3-0.01,0.42-0.03c0.12-0.02,0.25-0.05,0.4-0.09l0.26,2.22c-0.31,0.11-0.61,0.18-0.9,0.24c-0.29,0.05-0.61,0.08-0.96,0.08
	c-1.06,0-1.87-0.29-2.44-0.87c-0.57-0.58-0.86-1.5-0.86-2.76v-5.8h-1.66v-2.16h1.66v-2.79H135.8z"/>
<path class="st1" d="M144.25,106.57c-1.64,0-2.95-0.53-3.93-1.58c-0.98-1.05-1.47-2.39-1.47-4.01v-0.42c0-1.69,0.46-3.08,1.39-4.17
	c0.93-1.09,2.17-1.64,3.74-1.63c1.53,0,2.73,0.46,3.57,1.39s1.27,2.18,1.27,3.75v1.67h-6.79l-0.02,0.06
	c0.06,0.75,0.31,1.36,0.75,1.84c0.45,0.48,1.05,0.72,1.81,0.72c0.68,0,1.24-0.07,1.69-0.21s0.94-0.35,1.47-0.65l0.83,1.9
	c-0.46,0.38-1.07,0.7-1.82,0.94C146,106.45,145.17,106.57,144.25,106.57z M143.98,97.13c-0.57,0-1.02,0.22-1.35,0.65
	c-0.33,0.43-0.53,1.01-0.61,1.71l0.03,0.05h3.76v-0.27c0-0.65-0.15-1.17-0.46-1.56C145.05,97.32,144.59,97.13,143.98,97.13z"/>
<path class="st1" d="M34.46,120.69h3.78v2.65h-3.78v4.35h-2.9v-4.35h-3.81v-2.65h3.81v-4.14h2.9V120.69z"/>
<path class="st1" d="M52.65,123.85c0,1.68-0.39,3.03-1.17,4.06c-0.78,1.02-1.86,1.53-3.26,1.53c-0.6,0-1.12-0.11-1.59-0.33
	c-0.46-0.22-0.86-0.55-1.19-0.97v5.46h-3.06v-15.75h2.76l0.18,1.35c0.34-0.5,0.74-0.88,1.21-1.15c0.47-0.27,1.02-0.4,1.66-0.4
	c1.41,0,2.5,0.55,3.28,1.65s1.17,2.55,1.17,4.34V123.85z M49.58,123.62c0-1.07-0.18-1.94-0.54-2.61c-0.36-0.67-0.9-1-1.64-1
	c-0.46,0-0.86,0.09-1.18,0.28c-0.33,0.19-0.58,0.46-0.77,0.81v4.99c0.19,0.32,0.45,0.57,0.77,0.74c0.33,0.17,0.73,0.25,1.2,0.25
	c0.74,0,1.29-0.29,1.63-0.87c0.35-0.58,0.52-1.37,0.52-2.37V123.62z"/>
<path class="st1" d="M60.07,120.49l-1.12-0.03c-0.46,0-0.83,0.09-1.12,0.28s-0.52,0.46-0.67,0.8v7.68h-3.06v-11.37h2.85l0.14,1.68
	c0.27-0.6,0.61-1.06,1.04-1.39c0.42-0.33,0.91-0.5,1.47-0.5c0.15,0,0.3,0.01,0.43,0.04c0.13,0.02,0.26,0.05,0.39,0.09L60.07,120.49z
	"/>
<path class="st1" d="M64.4,115.13h-3.07v-2.3h3.07V115.13z M64.4,129.23h-3.07v-11.37h3.07V129.23z"/>
<path class="st1" d="M71.25,127.08c0.55,0,0.98-0.16,1.31-0.48c0.33-0.32,0.49-0.74,0.49-1.27h2.79l0.03,0.06
	c0.03,1.15-0.4,2.11-1.3,2.89s-2,1.16-3.33,1.16c-1.7,0-3-0.54-3.92-1.61c-0.92-1.07-1.38-2.45-1.38-4.13v-0.32
	c0-1.68,0.46-3.05,1.37-4.13c0.91-1.08,2.22-1.62,3.92-1.62c1.4,0,2.53,0.4,3.39,1.2c0.86,0.8,1.27,1.85,1.25,3.15l-0.02,0.06h-2.8
	c0-0.59-0.16-1.08-0.48-1.47c-0.32-0.39-0.77-0.58-1.34-0.58c-0.81,0-1.39,0.32-1.72,0.94c-0.33,0.63-0.5,1.44-0.5,2.44v0.32
	c0,1.01,0.17,1.83,0.5,2.45S70.43,127.08,71.25,127.08z"/>
<path class="st1" d="M80.39,115.13h-3.07v-2.3h3.07V115.13z M80.39,129.23h-3.07v-11.37h3.07V129.23z"/>
<path class="st1" d="M85.27,117.85l0.14,1.63c0.38-0.58,0.84-1.03,1.4-1.36c0.55-0.32,1.17-0.48,1.86-0.48
	c1.15,0,2.05,0.36,2.69,1.08c0.64,0.72,0.97,1.85,0.97,3.4v7.11h-3.08v-7.11c0-0.77-0.16-1.31-0.46-1.63
	c-0.31-0.32-0.78-0.48-1.4-0.48c-0.41,0-0.77,0.08-1.09,0.25c-0.32,0.17-0.59,0.4-0.81,0.7v8.27h-3.07v-11.37H85.27z"/>
<path class="st1" d="M93.69,123.63c0-1.79,0.39-3.24,1.17-4.34c0.78-1.1,1.88-1.65,3.29-1.65c0.64,0,1.2,0.14,1.68,0.43
	s0.9,0.7,1.24,1.23l0.24-1.45h2.65v11.32c0,1.48-0.49,2.62-1.46,3.43c-0.97,0.81-2.32,1.21-4.05,1.21c-0.58,0-1.19-0.08-1.83-0.24
	c-0.65-0.16-1.24-0.37-1.79-0.65l0.57-2.29c0.47,0.22,0.95,0.39,1.43,0.51c0.49,0.12,1.02,0.17,1.59,0.17
	c0.84,0,1.46-0.17,1.86-0.53c0.4-0.35,0.59-0.9,0.59-1.64v-1.03c-0.34,0.43-0.73,0.75-1.19,0.98c-0.46,0.22-0.98,0.34-1.57,0.34
	c-1.4,0-2.48-0.51-3.26-1.54c-0.78-1.03-1.17-2.38-1.17-4.05V123.63z M96.76,123.86c0,1,0.17,1.79,0.5,2.36
	c0.34,0.57,0.88,0.86,1.64,0.86c0.47,0,0.87-0.09,1.19-0.26c0.33-0.17,0.59-0.42,0.78-0.76v-4.97c-0.2-0.35-0.46-0.61-0.78-0.8
	s-0.72-0.29-1.17-0.29c-0.75,0-1.3,0.34-1.65,1.01c-0.35,0.67-0.52,1.54-0.52,2.62V123.86z"/>
<path class="st1" d="M114.42,115.07v2.79h1.91v2.16h-1.91v5.79c0,0.44,0.09,0.76,0.27,0.95c0.18,0.19,0.43,0.28,0.74,0.28
	c0.16,0,0.3-0.01,0.42-0.03c0.12-0.02,0.25-0.05,0.4-0.09l0.26,2.22c-0.31,0.11-0.61,0.18-0.9,0.24c-0.29,0.05-0.61,0.08-0.96,0.08
	c-1.06,0-1.87-0.29-2.44-0.87c-0.57-0.58-0.86-1.5-0.86-2.76v-5.8h-1.66v-2.16h1.66v-2.79H114.42z"/>
<path class="st1" d="M121.07,115.13H118v-2.3h3.07V115.13z M121.07,129.23H118v-11.37h3.07V129.23z"/>
<path class="st1" d="M125.99,117.85l0.13,1.5c0.36-0.55,0.82-0.97,1.37-1.27c0.55-0.3,1.19-0.45,1.91-0.45
	c0.73,0,1.35,0.16,1.87,0.48c0.52,0.32,0.91,0.81,1.18,1.46c0.35-0.61,0.81-1.09,1.37-1.43c0.56-0.34,1.22-0.52,1.98-0.52
	c1.12,0,2.01,0.39,2.65,1.16c0.65,0.77,0.97,1.95,0.97,3.54v6.89h-3.07v-6.91c0-0.86-0.14-1.46-0.42-1.8
	c-0.28-0.34-0.7-0.51-1.25-0.51c-0.43,0-0.81,0.1-1.13,0.29c-0.32,0.19-0.57,0.46-0.76,0.81c0,0.13,0,0.25,0.01,0.34
	c0.01,0.1,0.01,0.19,0.01,0.29v7.49h-3.06v-6.91c0-0.84-0.14-1.44-0.42-1.79c-0.28-0.35-0.7-0.52-1.26-0.52
	c-0.41,0-0.78,0.08-1.09,0.24c-0.31,0.16-0.57,0.38-0.77,0.67v8.31h-3.06v-11.37H125.99z"/>
<path class="st1" d="M146.35,129.45c-1.64,0-2.95-0.53-3.93-1.58c-0.98-1.05-1.47-2.39-1.47-4.01v-0.42c0-1.69,0.46-3.08,1.39-4.17
	c0.93-1.09,2.17-1.64,3.74-1.63c1.53,0,2.73,0.46,3.57,1.39c0.85,0.93,1.27,2.18,1.27,3.75v1.67h-6.79l-0.02,0.06
	c0.06,0.75,0.31,1.36,0.75,1.84c0.44,0.48,1.05,0.72,1.81,0.72c0.68,0,1.24-0.07,1.69-0.21c0.45-0.14,0.94-0.35,1.47-0.65l0.83,1.9
	c-0.46,0.38-1.07,0.7-1.82,0.94C148.1,129.32,147.27,129.45,146.35,129.45z M146.08,120.01c-0.57,0-1.02,0.22-1.35,0.65
	c-0.33,0.43-0.53,1.01-0.61,1.71l0.03,0.05h3.76v-0.27c0-0.65-0.15-1.17-0.46-1.56C147.15,120.2,146.69,120.01,146.08,120.01z"/>
<path class="st1" d="M71.12,148.97c0-0.34-0.16-0.63-0.49-0.87c-0.33-0.25-0.93-0.46-1.81-0.65c-1.35-0.27-2.36-0.68-3.04-1.21
	c-0.68-0.54-1.03-1.27-1.03-2.19c0-0.98,0.41-1.81,1.24-2.5c0.82-0.68,1.93-1.02,3.31-1.02c1.45,0,2.61,0.34,3.46,1.02
	c0.86,0.68,1.27,1.54,1.24,2.58l-0.02,0.06H71c0-0.46-0.15-0.83-0.44-1.11c-0.29-0.29-0.72-0.43-1.28-0.43
	c-0.5,0-0.89,0.12-1.17,0.36c-0.28,0.24-0.43,0.55-0.43,0.91c0,0.35,0.15,0.64,0.45,0.86c0.3,0.22,0.9,0.42,1.81,0.6
	c1.4,0.28,2.44,0.69,3.12,1.24c0.68,0.54,1.02,1.29,1.02,2.24c0,1.02-0.44,1.86-1.31,2.51c-0.88,0.65-2.03,0.97-3.47,0.97
	c-1.51,0-2.71-0.38-3.59-1.15c-0.88-0.77-1.3-1.64-1.26-2.62l0.02-0.06h2.81c0.02,0.61,0.22,1.05,0.6,1.32
	c0.38,0.27,0.87,0.41,1.48,0.41c0.57,0,1-0.11,1.3-0.34S71.12,149.35,71.12,148.97z"/>
<path class="st1" d="M80.65,152.32c-1.64,0-2.95-0.53-3.93-1.58c-0.98-1.05-1.47-2.39-1.47-4.01v-0.42c0-1.69,0.46-3.08,1.39-4.17
	c0.93-1.09,2.17-1.64,3.74-1.63c1.53,0,2.73,0.46,3.57,1.39s1.27,2.18,1.27,3.75v1.67h-6.79l-0.02,0.06
	c0.06,0.75,0.31,1.36,0.75,1.84c0.45,0.48,1.05,0.72,1.81,0.72c0.68,0,1.24-0.07,1.69-0.21c0.45-0.14,0.94-0.35,1.47-0.65l0.83,1.9
	c-0.46,0.38-1.07,0.7-1.82,0.94S81.57,152.32,80.65,152.32z M80.38,142.88c-0.57,0-1.02,0.22-1.35,0.65s-0.53,1.01-0.61,1.71
	l0.03,0.05h3.76v-0.27c0-0.65-0.15-1.17-0.46-1.56S81,142.88,80.38,142.88z"/>
<path class="st1" d="M92.54,143.37l-1.12-0.03c-0.46,0-0.83,0.09-1.12,0.28s-0.52,0.46-0.67,0.8v7.68h-3.06v-11.37h2.85l0.14,1.68
	c0.27-0.6,0.61-1.06,1.04-1.39s0.91-0.5,1.47-0.5c0.15,0,0.3,0.01,0.43,0.04c0.13,0.02,0.26,0.05,0.39,0.09L92.54,143.37z"/>
<path class="st1" d="M96.88,138h-3.07v-2.3h3.07V138z M96.88,152.1h-3.07v-11.37h3.07V152.1z"/>
<path class="st1" d="M103.98,152.32c-1.64,0-2.95-0.53-3.93-1.58c-0.98-1.05-1.47-2.39-1.47-4.01v-0.42c0-1.69,0.46-3.08,1.39-4.17
	c0.93-1.09,2.17-1.64,3.74-1.63c1.53,0,2.73,0.46,3.57,1.39c0.85,0.93,1.27,2.18,1.27,3.75v1.67h-6.79l-0.02,0.06
	c0.06,0.75,0.31,1.36,0.75,1.84c0.44,0.48,1.05,0.72,1.81,0.72c0.68,0,1.24-0.07,1.69-0.21c0.45-0.14,0.94-0.35,1.47-0.65l0.83,1.9
	c-0.46,0.38-1.07,0.7-1.82,0.94C105.73,152.2,104.9,152.32,103.98,152.32z M103.71,142.88c-0.57,0-1.02,0.22-1.35,0.65
	c-0.33,0.43-0.53,1.01-0.61,1.71l0.03,0.05h3.76v-0.27c0-0.65-0.15-1.17-0.46-1.56S104.33,142.88,103.71,142.88z"/>
<path class="st1" d="M116.04,148.97c0-0.34-0.16-0.63-0.49-0.87c-0.33-0.25-0.93-0.46-1.81-0.65c-1.35-0.27-2.36-0.68-3.04-1.21
	c-0.68-0.54-1.03-1.27-1.03-2.19c0-0.98,0.41-1.81,1.24-2.5c0.82-0.68,1.93-1.02,3.31-1.02c1.45,0,2.6,0.34,3.46,1.02
	c0.86,0.68,1.27,1.54,1.24,2.58l-0.02,0.06h-2.96c0-0.46-0.15-0.83-0.44-1.11c-0.29-0.29-0.72-0.43-1.28-0.43
	c-0.5,0-0.89,0.12-1.17,0.36c-0.28,0.24-0.43,0.55-0.43,0.91c0,0.35,0.15,0.64,0.45,0.86c0.3,0.22,0.9,0.42,1.81,0.6
	c1.4,0.28,2.44,0.69,3.12,1.24c0.68,0.54,1.02,1.29,1.02,2.24c0,1.02-0.44,1.86-1.31,2.51c-0.88,0.65-2.03,0.97-3.47,0.97
	c-1.51,0-2.71-0.38-3.59-1.15c-0.88-0.77-1.3-1.64-1.26-2.62l0.02-0.06h2.81c0.02,0.61,0.22,1.05,0.6,1.32s0.87,0.41,1.48,0.41
	c0.57,0,1-0.11,1.3-0.34C115.89,149.66,116.04,149.35,116.04,148.97z"/>
</svg>
