<svg xmlns="http://www.w3.org/2000/svg" viewBox="0 0 52 52"><defs><style>.cls-1{fill:#eef0f2;}.cls-2{fill:#fcfcfc;stroke:#f0f0f0;stroke-miterlimit:10;}.cls-3{fill:#2065ad;}</style></defs><title>butPeerFinderOn</title><g id="Layer_2" data-name="Layer 2"><g id="Layer_2-2" data-name="Layer 2"><rect class="cls-1" width="52" height="52" rx="7.36" ry="7.36"/><rect class="cls-2" x="3.5" y="4.05" width="44" height="43" rx="5.17" ry="5.17"/><path class="cls-3" d="M17.05,42.45a4,4,0,0,1-3.33-1.77H11.23a2.51,2.51,0,0,1-1.66-.6A2.55,2.55,0,0,1,8.68,38a2.73,2.73,0,0,1,.72-1.88,2.46,2.46,0,0,1,1.8-.77h2.52a3.93,3.93,0,0,1,3.33-1.79,4,4,0,0,1,3.35,1.79H40.91a2.69,2.69,0,0,1,1.87.69,2.5,2.5,0,0,1,.8,2,2.92,2.92,0,0,1-.72,1.91,2.19,2.19,0,0,1-1.8.77H20.41A4,4,0,0,1,17.05,42.45ZM13,38.92a4,4,0,0,1-.11-.91,3.65,3.65,0,0,1,.11-.88H11.2a.81.81,0,0,0-.62.26.79.79,0,0,0-.21.63,1.34,1.34,0,0,0,.21.66.63.63,0,0,0,.62.26Zm4.08,1.77a2.37,2.37,0,0,0,.7-.11l.16-.06a1.8,1.8,0,0,0,.62-.34,2.06,2.06,0,0,0,.89-1.25,2.71,2.71,0,0,0,.16-.91,2.48,2.48,0,0,0-.16-.88,2.3,2.3,0,0,0-.34-.73,2.47,2.47,0,0,0-.52-.56,2.11,2.11,0,0,0-.64-.34.4.4,0,0,1-.16-.06,3.19,3.19,0,0,0-.7-.09,2.85,2.85,0,0,0-.67.09l-.16.06a2.14,2.14,0,0,0-.64.34,2.52,2.52,0,0,0-.52.56,2.32,2.32,0,0,0-.33.73,2.63,2.63,0,0,0-.16.88,2.88,2.88,0,0,0,.16.91,2.57,2.57,0,0,0,.33.71,1.81,1.81,0,0,0,.55.54,1.83,1.83,0,0,0,.62.34l.16.06a2.38,2.38,0,0,0,.7.11Zm24-1.77a.81.81,0,0,0,.62-.26.92.92,0,0,0,.24-.66.82.82,0,0,0-.24-.63,1,1,0,0,0-.62-.26H21.16a3.83,3.83,0,0,1,.11.88,4.2,4.2,0,0,1-.11.91Z"/><path class="cls-3" d="M13.53,11h2.85c1.45,0,2,.93,2,2.4,0,.91-.25,2.35-2.11,2.35H15.11V19H13.53Zm1.58,3.52H16c.47,0,.8-.54.8-1.08s-.17-1.21-.88-1.21h-.8Z"/><path class="cls-3" d="M19.87,19V11H24v1.23H21.45v2H23.8v1.23H21.45v2.34h2.63V19Z"/><path class="cls-3" d="M25.63,19V11h4.13v1.23H27.21v2h2.35v1.23H27.21v2.34h2.63V19Z"/><path class="cls-3" d="M32.95,19H31.36V11h2.92c1.08,0,1.77.73,1.77,2.1,0,1-.38,1.79-1.4,2v0A1.38,1.38,0,0,1,36,16.61,11.58,11.58,0,0,0,36.2,19H34.65a3.88,3.88,0,0,1-.17-1.55c0-1,.08-1.76-1.13-1.76h-.41Zm0-4.55h.7c.63,0,.81-.67.81-1.18,0-.77-.3-1.05-.81-1.05h-.7Z"/><path class="cls-3" d="M9.44,30.58v-8h3.93v1.23H11v2.05h2.24v1.23H11v3.49Z"/><path class="cls-3" d="M14.65,30.58v-8h1.58v8Z"/><path class="cls-3" d="M18.1,30.58v-8h2.14l2,5.55h0V22.57h1.48v8H21.66L19.6,24.73h0v5.86Z"/><path class="cls-3" d="M25.63,22.57h2.64c2.08,0,2.46,1.46,2.46,4,0,1.23.18,4-2.53,4H25.63Zm1.58,6.78H28c1,0,1.15-.77,1.15-2.77,0-1.47,0-2.77-1.1-2.77h-.82Z"/><path class="cls-3" d="M32.53,30.58v-8h4.13v1.23H34.11v2h2.35V27H34.11v2.34h2.63v1.23Z"/><path class="cls-3" d="M39.84,30.58H38.26v-8h2.92c1.08,0,1.77.73,1.77,2.1,0,1-.38,1.79-1.4,2v0a1.38,1.38,0,0,1,1.37,1.58,11.58,11.58,0,0,0,.18,2.35H41.55A3.87,3.87,0,0,1,41.38,29c0-1,.08-1.76-1.13-1.76h-.41Zm0-4.55h.7c.63,0,.81-.67.81-1.18,0-.77-.3-1.05-.81-1.05h-.7Z"/></g></g></svg>