<?xml version="1.0" encoding="utf-8"?>
<!-- Generator: Adobe Illustrator 19.1.0, SVG Export Plug-In . SVG Version: 6.00 Build 0)  -->
<svg version="1.1" id="Layer_1" xmlns="http://www.w3.org/2000/svg" xmlns:xlink="http://www.w3.org/1999/xlink" x="0px" y="0px"
	 viewBox="0 0 43 29" style="enable-background:new 0 0 43 29;" xml:space="preserve">
<style type="text/css">
	.st0{fill:#F2F2F2;}
	.st1{fill:#3073BB;stroke:#F0F0F0;stroke-miterlimit:10;}
	.st2{opacity:0.38;fill:#E5E3DF;stroke:#FFFFFF;stroke-miterlimit:10;}
	.st3{fill:#3073BB;}
	.st4{opacity:0.35;}
	.st5{fill:#FCFCFC;stroke:#F0F0F0;stroke-miterlimit:10;}
	.st6{opacity:0.38;fill:#DD5F13;stroke:#E5E3DF;stroke-miterlimit:10;}
</style>
<ellipse class="st0" cx="7.4" cy="4.8" rx="2.3" ry="2.2"/>
<ellipse class="st0" cx="11.5" cy="11.8" rx="2.3" ry="2.2"/>
<ellipse class="st0" cx="20.7" cy="10.8" rx="2.3" ry="2.2"/>
<ellipse class="st0" cx="24.8" cy="17.8" rx="2.3" ry="2.2"/>
<ellipse class="st0" cx="31.9" cy="15.8" rx="2.3" ry="2.2"/>
<ellipse class="st0" cx="36" cy="23.8" rx="2.3" ry="2.2"/>
<g>
	<path class="st1" d="M-16.6,23.4c0,2.9-2.3,5.2-5.2,5.2h-33.7c-2.9,0-5.2-2.3-5.2-5.2V3.7c0-2.9,2.3-5.2,5.2-5.2h33.7
		c2.9,0,5.2,2.3,5.2,5.2V23.4z"/>
	<g>
		<path class="st2" d="M-31.6,14.6c0,5.5-4.5,10-10,10h-3c-5.5,0-10-4.5-10-10v-3c0-5.5,4.5-10,10-10h3c5.5,0,10,4.5,10,10V14.6z"/>
		<path class="st2" d="M-35.6,5.9c0,3.1-2.5,5.7-5.7,5.7h-0.7c-3.1,0-5.7-2.5-5.7-5.7V5.2c0-3.1,2.5-5.7,5.7-5.7h0.7
			c3.1,0,5.7,2.5,5.7,5.7V5.9z"/>
		<path class="st2" d="M-25.6,12.9c0,3.1-2.5,5.7-5.7,5.7h-0.7c-3.1,0-5.7-2.5-5.7-5.7v-0.7c0-3.1,2.5-5.7,5.7-5.7h0.7
			c3.1,0,5.7,2.5,5.7,5.7V12.9z"/>
		<path class="st2" d="M-35.6,20.9c0,3.1-2.5,5.7-5.7,5.7h-0.7c-3.1,0-5.7-2.5-5.7-5.7v-0.7c0-3.1,2.5-5.7,5.7-5.7h0.7
			c3.1,0,5.7,2.5,5.7,5.7V20.9z"/>
		<path class="st2" d="M-48.6,11.9c0,1.5-1.2,2.6-2.6,2.6h-0.7c-1.5,0-2.6-1.2-2.6-2.6v-0.7c0-1.5,1.2-2.6,2.6-2.6h0.7
			c1.5,0,2.6,1.2,2.6,2.6V11.9z"/>
	</g>
</g>
<path class="st3" d="M39.9,58.9c0,2.9-2.3,5.2-5.2,5.2H1.1c-2.9,0-5.2-2.3-5.2-5.2V39.2c0-2.9,2.3-5.2,5.2-5.2h33.7
	c2.9,0,5.2,2.3,5.2,5.2V58.9z"/>
<circle class="st0" cx="5.5" cy="37.8" r="2.2"/>
<circle class="st0" cx="9.5" cy="44.8" r="2.2"/>
<circle class="st0" cx="18.5" cy="43.8" r="2.2"/>
<circle class="st0" cx="22.5" cy="50.8" r="2.2"/>
<circle class="st0" cx="29.5" cy="48.8" r="2.2"/>
<circle class="st0" cx="33.5" cy="56.8" r="2.2"/>
<g class="st4">
	<path class="st5" d="M-19.6,57.4c0,2.9-2.3,5.2-5.2,5.2h-33.7c-2.9,0-5.2-2.3-5.2-5.2V37.7c0-2.9,2.3-5.2,5.2-5.2h33.7
		c2.9,0,5.2,2.3,5.2,5.2V57.4z"/>
	<g>
		<path class="st6" d="M-34.6,48.6c0,5.5-4.5,10-10,10h-3c-5.5,0-10-4.5-10-10v-3c0-5.5,4.5-10,10-10h3c5.5,0,10,4.5,10,10V48.6z"/>
		<path class="st6" d="M-38.6,39.9c0,3.1-2.5,5.7-5.7,5.7h-0.7c-3.1,0-5.7-2.5-5.7-5.7v-0.7c0-3.1,2.5-5.7,5.7-5.7h0.7
			c3.1,0,5.7,2.5,5.7,5.7V39.9z"/>
		<path class="st6" d="M-28.6,46.9c0,3.1-2.5,5.7-5.7,5.7h-0.7c-3.1,0-5.7-2.5-5.7-5.7v-0.7c0-3.1,2.5-5.7,5.7-5.7h0.7
			c3.1,0,5.7,2.5,5.7,5.7V46.9z"/>
		<path class="st6" d="M-38.6,54.9c0,3.1-2.5,5.7-5.7,5.7h-0.7c-3.1,0-5.7-2.5-5.7-5.7v-0.7c0-3.1,2.5-5.7,5.7-5.7h0.7
			c3.1,0,5.7,2.5,5.7,5.7V54.9z"/>
		<path class="st6" d="M-51.6,45.9c0,1.5-1.2,2.6-2.6,2.6h-0.7c-1.5,0-2.6-1.2-2.6-2.6v-0.7c0-1.5,1.2-2.6,2.6-2.6h0.7
			c1.5,0,2.6,1.2,2.6,2.6V45.9z"/>
	</g>
</g>
</svg>
