<?xml version="1.0" encoding="utf-8"?>
<!-- Generator: Adobe Illustrator 19.2.0, SVG Export Plug-In . SVG Version: 6.00 Build 0)  -->
<svg version="1.1" xmlns="http://www.w3.org/2000/svg" xmlns:xlink="http://www.w3.org/1999/xlink" x="0px" y="0px"
	 viewBox="0 0 28 22" style="enable-background:new 0 0 28 22;" xml:space="preserve">
<style type="text/css">
	.st0{display:none;}
	.st1{display:inline;fill:#FCFCFC;}
	.st2{fill:#3073BB;}
</style>
<g id="Live_Trends_and_Trades" class="st0">
	<path class="st1" d="M6.8,20c3,0,5.4-2.4,5.4-5.4H6.8V9.2c-3,0-5.4,2.4-5.4,5.4S3.8,20,6.8,20L6.8,20z"/>
	<polygon class="st1" points="15.8,7.4 15.8,9.2 17.6,9.2 17.6,7.4 15.8,7.4 	"/>
	<polygon class="st1" points="19.4,7.4 19.4,9.2 26.6,9.2 26.6,7.4 19.4,7.4 	"/>
	<polygon class="st1" points="1.4,2 1.4,3.8 26.6,3.8 26.6,2 1.4,2 	"/>
	<polygon class="st1" points="15.8,12.8 15.8,14.6 17.6,14.6 17.6,12.8 15.8,12.8 	"/>
	<polygon class="st1" points="19.4,12.8 19.4,14.6 26.6,14.6 26.6,12.8 19.4,12.8 	"/>
	<polygon class="st1" points="15.8,18.2 15.8,20 17.6,20 17.6,18.2 15.8,18.2 	"/>
	<rect x="19.4" y="18.2" class="st1" width="7.2" height="1.8"/>
</g>
<g id="Dead_Trends_and_trades">
	<g>
		<path class="st2" d="M6.8,20c3,0,5.4-2.4,5.4-5.4H6.8V9.2c-3,0-5.4,2.4-5.4,5.4S3.8,20,6.8,20L6.8,20z"/>
		<polygon class="st2" points="15.8,7.4 15.8,9.2 17.6,9.2 17.6,7.4 15.8,7.4 		"/>
		<polygon class="st2" points="19.4,7.4 19.4,9.2 26.6,9.2 26.6,7.4 19.4,7.4 		"/>
		<polygon class="st2" points="1.4,2 1.4,3.8 26.6,3.8 26.6,2 1.4,2 		"/>
		<polygon class="st2" points="15.8,12.8 15.8,14.6 17.6,14.6 17.6,12.8 15.8,12.8 		"/>
		<polygon class="st2" points="19.4,12.8 19.4,14.6 26.6,14.6 26.6,12.8 19.4,12.8 		"/>
		<polygon class="st2" points="15.8,18.2 15.8,20 17.6,20 17.6,18.2 15.8,18.2 		"/>
		<rect x="19.4" y="18.2" class="st2" width="7.2" height="1.8"/>
	</g>
</g>
</svg>
