<?xml version="1.0" encoding="utf-8"?>
<!-- Generator: Adobe Illustrator 19.2.0, SVG Export Plug-In . SVG Version: 6.00 Build 0)  -->
<svg version="1.1" xmlns="http://www.w3.org/2000/svg" xmlns:xlink="http://www.w3.org/1999/xlink" x="0px" y="0px"
	 viewBox="0 0 47 22" style="enable-background:new 0 0 47 22;" xml:space="preserve">
<style type="text/css">
	.st0{fill:#3073BB;}
</style>
<g id="Players_Inactive">
	<g>
		<ellipse class="st0" cx="23.3" cy="5.5" rx="5.7" ry="3.4"/>
		<path class="st0" d="M32.3,15.2c0-3-4.1-5.4-9.1-5.4s-9.1,2.4-9.1,5.4v5h18.2V15.2z"/>
		<ellipse class="st0" cx="34.3" cy="8.9" rx="3.9" ry="2.3"/>
		<path class="st0" d="M40.4,15.4c0-2-2.8-3.7-6.3-3.7s-6.3,1.7-6.3,3.7v2.2h12.5V15.4z"/>
		<ellipse class="st0" cx="41.8" cy="11" rx="2.6" ry="1.5"/>
		<path class="st0" d="M45.9,15.4c0-1.4-1.9-2.4-4.1-2.4s-4.1,1.1-4.1,2.4v0.1L45.9,15.4L45.9,15.4z"/>
		<g>
			<ellipse class="st0" cx="12.5" cy="8.9" rx="3.9" ry="2.3"/>
			<path class="st0" d="M6.3,15.6c0-2,2.8-3.7,6.3-3.7s6.3,1.7,6.3,3.7v2.2H6.3V15.6z"/>
			<ellipse class="st0" cx="5" cy="11" rx="2.6" ry="1.5"/>
			<path class="st0" d="M0.9,15.4c0-1.4,1.9-2.4,4.1-2.4s4.1,1.1,4.1,2.4v0.1L0.9,15.4L0.9,15.4z"/>
		</g>
	</g>
</g>
<g id="Players_Active_1_">
</g>
</svg>
