<svg id="Layer_1" data-name="Layer 1" xmlns="http://www.w3.org/2000/svg" viewBox="0 0 30 50"><defs><style>.cls-1{fill:#05417c;}</style></defs><title>Artboard 1</title><path class="cls-1" d="M2.68,39.76l1.66,6.79h0l1.68-6.79H8.41V49H6.61V46.31l.15-3.59h0L5,49H3.76L2,42.77H2l.16,3.54V49H.34V39.76Z"/><path class="cls-1" d="M16,45.68a3.51,3.51,0,0,1-.88,2.54,3.11,3.11,0,0,1-2.35.91,3.09,3.09,0,0,1-2.34-.91,3.52,3.52,0,0,1-.87-2.54V43.09a3.55,3.55,0,0,1,.87-2.54,3.07,3.07,0,0,1,2.34-.92,3.11,3.11,0,0,1,2.35.92A3.52,3.52,0,0,1,16,43.09Zm-1.8-2.61a2.54,2.54,0,0,0-.37-1.5,1.24,1.24,0,0,0-1.07-.51,1.22,1.22,0,0,0-1.07.5,2.61,2.61,0,0,0-.36,1.5v2.61a2.58,2.58,0,0,0,.36,1.51,1.23,1.23,0,0,0,1.07.5,1.24,1.24,0,0,0,1.07-.5,2.55,2.55,0,0,0,.37-1.51Z"/><path class="cls-1" d="M19,45.32V49h-1.8V39.76h3a3,3,0,0,1,2.14.72,2.59,2.59,0,0,1,.78,2,2.33,2.33,0,0,1-.32,1.25,2.28,2.28,0,0,1-.95.83,1.77,1.77,0,0,1,1,.8,2.82,2.82,0,0,1,.31,1.4v.65a4.07,4.07,0,0,0,.09.82,1.11,1.11,0,0,0,.31.63V49H21.72a1,1,0,0,1-.28-.66,7.52,7.52,0,0,1-.06-.93v-.63a1.77,1.77,0,0,0-.28-1.07,1,1,0,0,0-.81-.38Zm0-1.44h1.21a1,1,0,0,0,.84-.34,1.43,1.43,0,0,0,.29-1,1.62,1.62,0,0,0-.29-1,1,1,0,0,0-.83-.37H19Z"/><path class="cls-1" d="M29.46,44.94h-3.1v2.62H30V49H24.55V39.76H30V41.2H26.36v2.3h3.1Z"/><rect class="cls-1" y="1.25" width="30" height="6"/><rect class="cls-1" y="14.25" width="30" height="6"/><rect class="cls-1" y="27.25" width="30" height="6"/></svg>