<?xml version="1.0" encoding="utf-8"?>
<!-- Generator: Adobe Illustrator 19.1.0, SVG Export Plug-In . SVG Version: 6.00 Build 0)  -->
<svg version="1.1" id="Layer_1" xmlns="http://www.w3.org/2000/svg" xmlns:xlink="http://www.w3.org/1999/xlink" x="0px" y="0px"
	 viewBox="0 0 43 29" style="enable-background:new 0 0 43 29;" xml:space="preserve">
<style type="text/css">
	.st0{fill:#3073BB;stroke:#F0F0F0;stroke-miterlimit:10;}
	.st1{opacity:0.38;fill:#E5E3DF;stroke:#FFFFFF;stroke-miterlimit:10;}
	.st2{fill:#3073BB;}
	.st3{fill:#F2F2F2;}
	.st4{fill:#FCFCFC;stroke:#F0F0F0;stroke-miterlimit:10;}
</style>
<path class="st0" d="M-16.6,23.4c0,2.9-2.3,5.2-5.2,5.2h-33.7c-2.9,0-5.2-2.3-5.2-5.2V3.7c0-2.9,2.3-5.2,5.2-5.2h33.7
	c2.9,0,5.2,2.3,5.2,5.2V23.4z"/>
<g>
	<path class="st1" d="M30.4,15.6c0,5.5-4.5,10-10,10h-3c-5.5,0-10-4.5-10-10v-3c0-5.5,4.5-10,10-10h3c5.5,0,10,4.5,10,10V15.6z"/>
	<path class="st1" d="M26.4,6.9c0,3.1-2.5,5.7-5.7,5.7h-0.7c-3.1,0-5.7-2.5-5.7-5.7V6.2c0-3.1,2.5-5.7,5.7-5.7h0.7
		c3.1,0,5.7,2.5,5.7,5.7V6.9z"/>
	<path class="st1" d="M36.4,13.9c0,3.1-2.5,5.7-5.7,5.7h-0.7c-3.1,0-5.7-2.5-5.7-5.7v-0.7c0-3.1,2.5-5.7,5.7-5.7h0.7
		c3.1,0,5.7,2.5,5.7,5.7V13.9z"/>
	<path class="st1" d="M26.4,21.9c0,3.1-2.5,5.7-5.7,5.7h-0.7c-3.1,0-5.7-2.5-5.7-5.7v-0.7c0-3.1,2.5-5.7,5.7-5.7h0.7
		c3.1,0,5.7,2.5,5.7,5.7V21.9z"/>
	<path class="st1" d="M13.4,12.9c0,1.5-1.2,2.6-2.6,2.6h-0.7c-1.5,0-2.6-1.2-2.6-2.6v-0.7c0-1.5,1.2-2.6,2.6-2.6h0.7
		c1.5,0,2.6,1.2,2.6,2.6V12.9z"/>
</g>
<path class="st2" d="M39.9,58.9c0,2.9-2.3,5.2-5.2,5.2H1.1c-2.9,0-5.2-2.3-5.2-5.2V39.2c0-2.9,2.3-5.2,5.2-5.2h33.7
	c2.9,0,5.2,2.3,5.2,5.2V58.9z"/>
<circle class="st3" cx="5.5" cy="37.8" r="2.2"/>
<circle class="st3" cx="9.5" cy="44.8" r="2.2"/>
<circle class="st3" cx="18.5" cy="43.8" r="2.2"/>
<circle class="st3" cx="22.5" cy="50.8" r="2.2"/>
<circle class="st3" cx="29.5" cy="48.8" r="2.2"/>
<circle class="st3" cx="33.5" cy="56.8" r="2.2"/>
<path class="st4" d="M-19.6,57.4c0,2.9-2.3,5.2-5.2,5.2h-33.7c-2.9,0-5.2-2.3-5.2-5.2V37.7c0-2.9,2.3-5.2,5.2-5.2h33.7
	c2.9,0,5.2,2.3,5.2,5.2V57.4z"/>
</svg>
