<svg id="Layer_5_copy_2" data-name="Layer 5 copy 2" xmlns="http://www.w3.org/2000/svg" viewBox="0 0 46 45"><defs><style>.cls-1{fill:none;stroke:#dd5f13;stroke-miterlimit:10;}.cls-2{fill:#dd5f13;}.cls-3{fill:#fff;}</style></defs><title>Artboard 1</title><circle class="cls-1" cx="23.04" cy="22.7" r="21.5"/><ellipse class="cls-2" cx="23.31" cy="22.7" rx="17.45" ry="17.34"/><path class="cls-3" d="M11.64,22.09a1.24,1.24,0,0,0-.15-.77.88.88,0,0,0-.6-.23.83.83,0,0,0-.8.41c0,.06-.15.19-.15,1.1V24c0,1.3.43,1.46.95,1.46.21,0,.83-.07.84-1.11h.7c0,1.68-1.15,1.68-1.5,1.68-.66,0-1.68,0-1.68-2.1v-1.5c0-1.5.66-1.93,1.71-1.93s1.46.54,1.39,1.57Z"/><path class="cls-3" d="M13,24V22.25a1.54,1.54,0,0,1,1.67-1.74,1.54,1.54,0,0,1,1.67,1.74V24c0,1.47-.54,2.05-1.67,2.05S13,25.46,13,24Zm2.65,0V22.23c0-1.11-.76-1.15-1-1.15s-1,0-1,1.15V24c0,1.16.34,1.46,1,1.46S15.64,25.18,15.64,24Z"/><path class="cls-3" d="M17.78,25.93h-.63V20.62h1.1l1.34,4.46h0l1.35-4.46h1.12v5.31h-.68V21.21h0l-1.49,4.72h-.64l-1.46-4.72h0Z"/><path class="cls-3" d="M23,25.93V20.62h1.57A1.33,1.33,0,0,1,26,22.14a1.37,1.37,0,0,1-1.49,1.46h-.89v2.34ZM23.66,23h.74a.84.84,0,0,0,.94-.9c0-.81-.6-.89-.75-.89h-.93Z"/><path class="cls-3" d="M27.44,20.62h.86L30,25.93h-.76l-.38-1.27H26.84l-.4,1.27h-.68Zm.41.63h0L27,24.08h1.7Z"/><path class="cls-3" d="M34,20.62v5.31h-.93L31,21.33h0v4.6h-.6V20.62h1l2.07,4.55h0V20.62Z"/><path class="cls-3" d="M37.24,20.62h.68l-1.45,3.29v2h-.68v-2l-1.43-3.29h.76l1,2.57Z"/></svg>