<?xml version="1.0" encoding="utf-8"?>
<!-- Generator: Adobe Illustrator 19.1.0, SVG Export Plug-In . SVG Version: 6.00 Build 0)  -->
<svg version="1.1" id="Layer_1" xmlns="http://www.w3.org/2000/svg" xmlns:xlink="http://www.w3.org/1999/xlink" x="0px" y="0px"
	 viewBox="0 0 43 29" style="enable-background:new 0 0 43 29;" xml:space="preserve">
<style type="text/css">
	.st0{fill:#E87D1E;}
	.st1{fill:#06B8F1;}
	.st2{fill:#02ABA8;}
	.st3{fill:#B0B2B5;}
	.st4{fill:#CEBA96;}
	.st5{fill:#3073BB;stroke:#F0F0F0;stroke-miterlimit:10;}
	.st6{opacity:0.38;fill:#E5E3DF;stroke:#FFFFFF;stroke-miterlimit:10;}
</style>
<ellipse class="st0" cx="7.4" cy="4.8" rx="2.3" ry="2.2"/>
<ellipse class="st1" cx="11.5" cy="11.8" rx="2.3" ry="2.2"/>
<ellipse class="st2" cx="20.7" cy="10.8" rx="2.3" ry="2.2"/>
<ellipse cx="24.8" cy="17.8" rx="2.3" ry="2.2"/>
<ellipse class="st3" cx="31.9" cy="15.8" rx="2.3" ry="2.2"/>
<ellipse class="st4" cx="36" cy="23.8" rx="2.3" ry="2.2"/>
<g>
	<path class="st5" d="M-16.6,23.4c0,2.9-2.3,5.2-5.2,5.2h-33.7c-2.9,0-5.2-2.3-5.2-5.2V3.7c0-2.9,2.3-5.2,5.2-5.2h33.7
		c2.9,0,5.2,2.3,5.2,5.2V23.4z"/>
	<g>
		<path class="st6" d="M-31.6,14.6c0,5.5-4.5,10-10,10h-3c-5.5,0-10-4.5-10-10v-3c0-5.5,4.5-10,10-10h3c5.5,0,10,4.5,10,10V14.6z"/>
		<path class="st6" d="M-35.6,5.9c0,3.1-2.5,5.7-5.7,5.7h-0.7c-3.1,0-5.7-2.5-5.7-5.7V5.2c0-3.1,2.5-5.7,5.7-5.7h0.7
			c3.1,0,5.7,2.5,5.7,5.7V5.9z"/>
		<path class="st6" d="M-25.6,12.9c0,3.1-2.5,5.7-5.7,5.7h-0.7c-3.1,0-5.7-2.5-5.7-5.7v-0.7c0-3.1,2.5-5.7,5.7-5.7h0.7
			c3.1,0,5.7,2.5,5.7,5.7V12.9z"/>
		<path class="st6" d="M-35.6,20.9c0,3.1-2.5,5.7-5.7,5.7h-0.7c-3.1,0-5.7-2.5-5.7-5.7v-0.7c0-3.1,2.5-5.7,5.7-5.7h0.7
			c3.1,0,5.7,2.5,5.7,5.7V20.9z"/>
		<path class="st6" d="M-48.6,11.9c0,1.5-1.2,2.6-2.6,2.6h-0.7c-1.5,0-2.6-1.2-2.6-2.6v-0.7c0-1.5,1.2-2.6,2.6-2.6h0.7
			c1.5,0,2.6,1.2,2.6,2.6V11.9z"/>
	</g>
</g>
</svg>
