<svg xmlns="http://www.w3.org/2000/svg" width="258.44" height="20.712" viewBox="0 0 258.44 20.712">
  <g id="RCAnywhere_Logo" transform="translate(-8.69 -8.47)">
    <path id="Path_1059" data-name="Path 1059" d="M28.23,28.92H21.69l-1.58-3.59a15.07,15.07,0,0,0-1.58-2.87,3.36,3.36,0,0,0-1.36-1.17A4.83,4.83,0,0,0,15.46,21h-.68v7.88H8.69V8.74H19a7.63,7.63,0,0,1,4.11,1,6.12,6.12,0,0,1,2.31,2.48,6.34,6.34,0,0,1,.7,2.77,5.13,5.13,0,0,1-.59,2.58,4.84,4.84,0,0,1-1.24,1.54,12.75,12.75,0,0,1-1.47.91,6,6,0,0,1,1.61,1.35,17.32,17.32,0,0,1,1.72,3.15ZM20,15.11a2.1,2.1,0,0,0-1-1.95,6,6,0,0,0-3-.55H14.78v4.86h1.31A6.52,6.52,0,0,0,19.14,17,2,2,0,0,0,20,15.11Z" fill="#ea7f1d"/>
    <path id="Path_1060" data-name="Path 1060" d="M55,27.4a14.08,14.08,0,0,1-2.56,1.05,16.34,16.34,0,0,1-2.64.56,22.48,22.48,0,0,1-2.76.17,14.19,14.19,0,0,1-4.73-.73,10.07,10.07,0,0,1-3.62-2.15A9.1,9.1,0,0,1,36.41,23a11.21,11.21,0,0,1-.76-4.17,10.79,10.79,0,0,1,.9-4.56A9,9,0,0,1,39.08,11a10.76,10.76,0,0,1,3.7-1.91,14.94,14.94,0,0,1,4.37-.62A23.82,23.82,0,0,1,54.94,10v5.36a20.07,20.07,0,0,0-3-1.55,8.66,8.66,0,0,0-3.44-.62,7.71,7.71,0,0,0-3.29.7,6,6,0,0,0-2.46,2,5,5,0,0,0-.94,3,5.12,5.12,0,0,0,.82,2.8,5.79,5.79,0,0,0,2.26,2,7,7,0,0,0,3.27.75A10.43,10.43,0,0,0,51,24.12a12.94,12.94,0,0,0,2.21-.79,20.6,20.6,0,0,0,1.84-1Z" fill="#ea7f1d"/>
    <path id="Path_1061" data-name="Path 1061" d="M87.25,28.92H81l-1.65-4.09H70.61l-1.68,4.09H62.7L71.63,8.74h6.72ZM78,21.32,75,14l-3,7.37Z" fill="#ea7f1d"/>
    <path id="Path_1062" data-name="Path 1062" d="M114,8.58V28.92h-1.3L97.26,11.14V28.92H95.69V8.58H97l15.43,17.77V8.58Z" fill="#fff"/>
    <path id="Path_1063" data-name="Path 1063" d="M139.7,8.58,131.79,18V28.92h-1.57V18l-7.91-9.42h1.9l6.8,8,6.77-8Z" fill="#fff"/>
    <path id="Path_1064" data-name="Path 1064" d="M161.06,12l-6.82,17.17h-.42L145.63,8.58h1.62L154,25.45l6.83-16.87h.49l6.79,16.87,6.76-16.87h1.61l-8.2,20.54h-.38Z" fill="#fff"/>
    <path id="Path_1065" data-name="Path 1065" d="M201.45,8.58V28.92h-1.58V19.28H186.29v9.64h-1.57V8.58h1.57V18h13.58V8.58Z" fill="#fff"/>
    <path id="Path_1066" data-name="Path 1066" d="M223.26,8.58V9.89h-9.52V18H223v1.32h-9.27v8.26h9.75v1.31H212.16V8.58Z" fill="#fff"/>
    <path id="Path_1067" data-name="Path 1067" d="M232.72,8.58h5.21a7.79,7.79,0,0,1,5,1.41,4.73,4.73,0,0,1,1.73,3.84q0,3.53-3.87,5a9.24,9.24,0,0,1,2.71,3.1l4.6,7h-1.86l-3.55-5.58a13.6,13.6,0,0,0-2.76-3.49,5.07,5.07,0,0,0-2.9-.69h-2.75v9.76h-1.57Zm1.57,1.31v8h3.38a6.42,6.42,0,0,0,3.94-1A3.51,3.51,0,0,0,243,13.86a3.48,3.48,0,0,0-1.38-2.93,6.51,6.51,0,0,0-4-1Z" fill="#fff"/>
    <path id="Path_1068" data-name="Path 1068" d="M266.9,8.58V9.89h-9.52V18h9.27v1.32h-9.27v8.26h9.75v1.31H255.81V8.58Z" fill="#fff"/>
  </g>
</svg>
