<svg xmlns="http://www.w3.org/2000/svg" viewBox="0 0 36.64 31.39"><defs><style>.cls-1{fill:#fff;}</style></defs><title>iconTNT_1</title><g id="Layer_2" data-name="Layer 2"><g id="Layer_3" data-name="Layer 3"><path class="cls-1" d="M10.3,31.39c5.69,0,10.3-4.91,10.3-11H10.3v-11C4.61,9.45,0,14.36,0,20.42s4.61,11,10.3,11Z"/><polygon class="cls-1" points="24.09 9.62 24.09 11.46 25.26 11.46 25.26 9.62 24.09 9.62 24.09 9.62"/><polygon class="cls-1" points="28.27 9.62 28.27 11.46 36.64 11.46 36.64 9.62 28.27 9.62 28.27 9.62"/><polygon class="cls-1" points="0 0 0 1.84 36.64 1.84 36.64 0 0 0 0 0"/><polygon class="cls-1" points="24.09 19.24 24.09 21.08 25.26 21.08 25.26 19.24 24.09 19.24 24.09 19.24"/><polygon class="cls-1" points="28.27 19.24 28.27 21.08 36.64 21.08 36.64 19.24 28.27 19.24 28.27 19.24"/><polygon class="cls-1" points="24.09 28.86 24.09 30.7 25.26 30.7 25.26 28.86 24.09 28.86 24.09 28.86"/><rect class="cls-1" x="28.27" y="28.87" width="8.37" height="1.84"/></g></g></svg>