<svg xmlns="http://www.w3.org/2000/svg" viewBox="0 0 39.76 47.76"><defs><style>.cls-1,.cls-2{fill:#fff;}.cls-2,.cls-5{stroke:#fff;}.cls-2,.cls-4,.cls-5{stroke-miterlimit:10;}.cls-2{stroke-width:3px;}.cls-3{fill:#2065ad;}.cls-4,.cls-5{fill:none;stroke-width:2px;}.cls-4{stroke:#2065ad;}</style></defs><title>iconInsights</title><g id="Layer_2" data-name="Layer 2"><g id="nav"><ellipse class="cls-1" cx="19.19" cy="17.86" rx="19.19" ry="15.85"/><path class="cls-1" d="M9.5,26.21V32s0,3.92,5.78,4.39a35.16,35.16,0,0,0,10.64-.59A3.69,3.69,0,0,0,28.5,32V25.38Z"/><line class="cls-2" x1="14.62" y1="43.61" x2="28.75" y2="37.83"/><path class="cls-1" d="M16.49,43.65a1.72,1.72,0,0,0-1.83-1.58,1.75,1.75,0,0,0-1.91,1.51,1.72,1.72,0,0,0,1.83,1.58A1.75,1.75,0,0,0,16.49,43.65Z"/><path class="cls-1" d="M30.48,37.93a1.72,1.72,0,0,0-1.83-1.58,1.75,1.75,0,0,0-1.91,1.51,1.72,1.72,0,0,0,1.83,1.58A1.75,1.75,0,0,0,30.48,37.93Z"/><line class="cls-2" x1="13.61" y1="38.71" x2="25.58" y2="33.95"/><path class="cls-1" d="M15.48,38.74a1.72,1.72,0,0,0-1.83-1.58,1.75,1.75,0,0,0-1.91,1.51,1.72,1.72,0,0,0,1.83,1.58A1.75,1.75,0,0,0,15.48,38.74Z"/><line class="cls-2" x1="19.89" y1="46.22" x2="24.88" y2="44.18"/><path class="cls-1" d="M21.76,46.25a1.72,1.72,0,0,0-1.83-1.58A1.75,1.75,0,0,0,18,46.18a1.72,1.72,0,0,0,1.83,1.58A1.75,1.75,0,0,0,21.76,46.25Z"/><path class="cls-1" d="M26.79,44.19A1.72,1.72,0,0,0,25,42.61,1.75,1.75,0,0,0,23,44.13a1.72,1.72,0,0,0,1.83,1.58A1.75,1.75,0,0,0,26.79,44.19Z"/><polygon class="cls-3" points="6.23 28.07 11.08 28.07 11.08 12.68 6.23 14.74 6.23 28.07"/><polygon class="cls-3" points="26.35 28.07 31.2 28.07 31.2 9.56 26.35 11.86 26.35 28.07"/><polygon class="cls-3" points="13.06 28.07 17.91 28.07 17.91 12.12 15.48 11.09 13.06 12.05 13.06 28.07"/><polygon class="cls-3" points="19.62 28.07 24.47 28.07 24.47 12.74 22.05 13.98 19.62 12.92 19.62 28.07"/><polyline class="cls-4" points="4.5 12.36 15.48 7.2 21.75 10.51 34.33 4.21 34.33 4.21"/><line class="cls-5" x1="34.8" y1="3.08" x2="35.49" y2="2.65"/><polygon class="cls-1" points="36.46 6.15 39.76 0 32.78 0.22 36.46 6.15"/></g></g></svg>