<svg xmlns="http://www.w3.org/2000/svg" viewBox="0 0 42 42"><defs><style>.cls-1{fill:#f3f5f4;}.cls-2{fill:#2065ad;}</style></defs><title>iconRCACPPI_3</title><g id="Layer_2" data-name="Layer 2"><g id="nav"><path class="cls-1" d="M21,0h0a21,21,0,0,0,0,42h0A21,21,0,0,0,21,0Z"/><path class="cls-2" d="M12.3,13.45V17.7H10.22V7h3.49a3.51,3.51,0,0,1,2.48.83,3,3,0,0,1,.9,2.32,2.69,2.69,0,0,1-.37,1.44,2.63,2.63,0,0,1-1.09,1,2,2,0,0,1,1.19.93,3.26,3.26,0,0,1,.36,1.62v.76a4.71,4.71,0,0,0,.1.94,1.29,1.29,0,0,0,.36.73v.15H15.47a1.2,1.2,0,0,1-.32-.76,8.7,8.7,0,0,1-.07-1.08v-.73a2.05,2.05,0,0,0-.33-1.24,1.1,1.1,0,0,0-.94-.44Zm0-1.67h1.4a1.2,1.2,0,0,0,1-.39A1.67,1.67,0,0,0,15,10.29a1.88,1.88,0,0,0-.33-1.17,1.14,1.14,0,0,0-1-.43H12.3Z"/><path class="cls-2" d="M25.45,14.26l0,0A3.68,3.68,0,0,1,24.63,17a3.31,3.31,0,0,1-2.51.9,3.53,3.53,0,0,1-2.65-1,4,4,0,0,1-1-2.88V10.76a4.06,4.06,0,0,1,1-2.88,3.35,3.35,0,0,1,2.57-1,3.4,3.4,0,0,1,2.57.91,3.86,3.86,0,0,1,.9,2.69l0,0h-2A2.5,2.5,0,0,0,23.16,9,1.32,1.32,0,0,0,22,8.52a1.23,1.23,0,0,0-1.08.55,3,3,0,0,0-.37,1.67V14a2.87,2.87,0,0,0,.4,1.68,1.36,1.36,0,0,0,1.17.55,1.18,1.18,0,0,0,1.05-.44,2.61,2.61,0,0,0,.26-1.49Z"/><path class="cls-2" d="M31.54,15.42H28.72l-.57,2.28H26L29.05,7h2.17l3,10.69H32.12Zm-2.39-1.67h2l-1-3.78h0Z"/><path class="cls-2" d="M14.47,30.15l0,0a3.68,3.68,0,0,1-.84,2.66,3.31,3.31,0,0,1-2.51.9,3.53,3.53,0,0,1-2.65-1,4,4,0,0,1-1-2.88V26.65a4.06,4.06,0,0,1,1-2.88,3.35,3.35,0,0,1,2.57-1,3.4,3.4,0,0,1,2.57.91,3.86,3.86,0,0,1,.9,2.69l0,0h-2a2.5,2.5,0,0,0-.29-1.52A1.32,1.32,0,0,0,11,24.41,1.23,1.23,0,0,0,9.94,25a3,3,0,0,0-.37,1.67v3.21a2.87,2.87,0,0,0,.4,1.68,1.36,1.36,0,0,0,1.17.55,1.18,1.18,0,0,0,1.05-.44,2.61,2.61,0,0,0,.26-1.49Z"/><path class="cls-2" d="M17.85,29.75v3.84H15.75V22.9h3.72a3.43,3.43,0,1,1,0,6.85Zm0-1.67h1.62a1.18,1.18,0,0,0,1-.49,2.1,2.1,0,0,0,.35-1.25,2.18,2.18,0,0,0-.35-1.27,1.17,1.17,0,0,0-1-.5H17.85Z"/><path class="cls-2" d="M26.35,29.75v3.84H24.26V22.9H28a3.43,3.43,0,1,1,0,6.85Zm0-1.67H28a1.18,1.18,0,0,0,1-.49,2.1,2.1,0,0,0,.35-1.25A2.18,2.18,0,0,0,29,25.07a1.17,1.17,0,0,0-1-.5H26.35Z"/><path class="cls-2" d="M34.95,33.59H32.87V22.9h2.08Z"/></g></g></svg>