<svg xmlns="http://www.w3.org/2000/svg" viewBox="0 0 30.93 28"><defs><style>.cls-1{fill:#fff;}.cls-2{fill:none;stroke:#fff;stroke-miterlimit:10;}</style></defs><title>iconDataIntegration</title><g id="Layer_2" data-name="Layer 2"><g id="nav"><rect class="cls-1" x="17.82" width="9.52" height="5.66" rx="1.45" ry="1.45"/><path class="cls-1" d="M15.13,3.13l2.94,2.32c.35.24.9,0,.9-.31V.51c0-.36-.56-.54-.9-.31L15.13,2.52A.35.35,0,0,0,15.13,3.13Z"/><rect class="cls-1" x="2.25" y="22.24" width="9.52" height="5.76" rx="1.45" ry="1.45" transform="translate(14.02 50.24) rotate(180)"/><path class="cls-1" d="M14.46,24.81l-2.94-2.36c-.35-.24-.9-.05-.9.31v4.72c0,.36.56.55.9.31l2.94-2.36A.36.36,0,0,0,14.46,24.81Z"/><path class="cls-2" d="M21.21,3H8.06S.5,3,.5,8.58,8.06,15,8.06,15H24s6.4.24,6.4,5.59S22.82,26,22.82,26h-9.6"/></g></g></svg>