<svg xmlns="http://www.w3.org/2000/svg" viewBox="0 0 39.15 40.31"><defs><style>.cls-1{fill:#fff;}.cls-2{fill:#f0f0f0;}</style></defs><title>iconTrendTracker</title><g id="Layer_2" data-name="Layer 2"><g id="nav"><path class="cls-1" d="M32.27,16.14A16.08,16.08,0,0,0,21,.76.67.67,0,1,0,20.64,2a14.79,14.79,0,1,1-9,0A.67.67,0,1,0,11.23.76a16.14,16.14,0,1,0,21,15.37"/><path class="cls-1" d="M5.14,9.6a.67.67,0,0,0-.91.28A13.45,13.45,0,1,0,21.09,3.64a.67.67,0,1,0-.5,1.25A12.1,12.1,0,1,1,5.42,10.51a.67.67,0,0,0-.28-.91"/><path class="cls-1" d="M24.88,21.51a.67.67,0,0,0,.67-.67V11.43a.67.67,0,0,0-.67-.67h-4a.67.67,0,0,0-.67.67V24.88a.67.67,0,1,0,1.34,0V12.1H24.2v8.74a.67.67,0,0,0,.67.67"/><path class="cls-1" d="M14.12,26.89a.67.67,0,0,0,.67-.67V1.34h2.69V26.22a.67.67,0,0,0,1.34,0V.67A.67.67,0,0,0,18.15,0h-4a.67.67,0,0,0-.67.67V26.22a.67.67,0,0,0,.67.67"/><rect class="cls-2" x="26.12" y="27.82" width="3.61" height="1.26" rx="0.58" ry="0.58" transform="translate(-11.92 27.06) rotate(-43.54)"/><path class="cls-1" d="M11.43,5.38h-4a.67.67,0,0,0-.67.67V20.84a.67.67,0,0,0,1.34,0V6.72h2.69V24.88a.67.67,0,0,0,1.34,0V6.05a.67.67,0,0,0-.67-.67"/><rect class="cls-1" x="31.92" y="28.38" width="3.61" height="12.67" rx="0.58" ry="0.58" transform="translate(-14.64 32.78) rotate(-43.54)"/></g></g></svg>