<svg xmlns="http://www.w3.org/2000/svg" viewBox="0 0 35.4 35"><defs><style>.cls-1{fill:#fff;}.cls-2{fill:#2065ad;}</style></defs><title>iconExcel</title><g id="Layer_2" data-name="Layer 2"><g id="nav"><g id="_Group_" data-name="&lt;Group&gt;"><path id="path10" class="cls-1" d="M18,0h3V2.09c3,0,8,0,12.13,0a3.33,3.33,0,0,1,1.93.4,3.76,3.76,0,0,1,.33,2.09c0,7.18,0,14.35,0,21.53a18.88,18.88,0,0,1-.16,3.62c-.17.86-.92.88-1.62.91-4.28,0-9.59,0-12.59,0V35H17.87C11.56,33,4,32.14,0,31V2.1C7,1,11.64,0,18,0Z"/><path id="path48" class="cls-2" d="M21,15V13h3V10H21V8h3V5H21V3H34V29H21V27h3V24H21V23h3V19H21V17"/><path id="path58" class="cls-1" d="M26,5h5V8H26Z"/><path id="path72" class="cls-2" d="M10.84,6.47q1.87-.13,3.75-.23-2.21,4.52-4.44,9c1.51,3.08,3.06,6.15,4.58,9.23l-4-.25A65,65,0,0,1,8,17.33c-.75,2.24-1.82,4.35-2.68,6.54-1.21,0-2.41-.07-3.62-.12C3.12,21,4.49,18.19,5.95,15.43,4.71,12.6,3.35,9.82,2.07,7L5.7,6.79c.82,2.15,1.72,4.28,2.4,6.49C8.83,10.93,9.91,8.73,10.84,6.47Z"/><path id="path90" class="cls-1" d="M26,10h5v3H26Z"/><path id="path90-2" data-name="path90" class="cls-1" d="M26,15h5v3H26Z"/><path id="path90-3" data-name="path90" class="cls-1" d="M19,15h5v3H19Z"/><path id="path114" class="cls-1" d="M26,19h5v4H26Z"/><path id="path120" class="cls-1" d="M26,24h5v3H26Z"/></g></g></g></svg>