<svg xmlns="http://www.w3.org/2000/svg" viewBox="0 0 38.57 35.87"><defs><style>.cls-1{fill:#f3f5f4;}.cls-2{fill:none;stroke:#fff;stroke-miterlimit:10;stroke-width:2px;}.cls-3{fill:#fff;}</style></defs><title>iconCapitalTrends</title><g id="Layer_2" data-name="Layer 2"><g id="nav"><polygon class="cls-1" points="0.51 35.87 6.95 35.87 6.95 13.9 0.51 17.49 0.51 35.87"/><polygon class="cls-1" points="27.24 35.87 33.68 35.87 33.68 8.44 27.24 12.46 27.24 35.87"/><polygon class="cls-1" points="9.58 35.87 16.02 35.87 16.02 12.92 12.8 11.12 9.58 12.79 9.58 35.87"/><polygon class="cls-1" points="18.31 35.87 24.75 35.87 24.75 14.01 21.53 16.18 18.31 14.32 18.31 35.87"/><polyline class="cls-2" points="0.51 13.58 12.8 6.34 21.53 11.71 34.43 2.85"/><polygon class="cls-3" points="35.57 6.3 38.57 0 31.61 0.55 35.57 6.3"/></g></g></svg>