<svg id="Layer_4" data-name="Layer 4" xmlns="http://www.w3.org/2000/svg" width="24.75" height="33" viewBox="0 0 24.75 33">
  <path id="Path_902" data-name="Path 902" d="M20.175,4S7.8,17.792,7.8,24.625a12.375,12.375,0,0,0,24.75,0C32.55,17.792,20.175,4,20.175,4ZM23.7,27.7a4.418,4.418,0,0,1-2.775,1.192v1.853H19.507V28.892a4.2,4.2,0,0,1-2.835-1.3,4.335,4.335,0,0,1-1.028-3.045h1.8a2.857,2.857,0,0,0,.712,2.077,2.685,2.685,0,0,0,2.017.75,3.045,3.045,0,0,0,2.025-.63,2.25,2.25,0,0,0,.105-3.187,5.775,5.775,0,0,0-2.123-1.11,6.75,6.75,0,0,1-3-1.65,3.638,3.638,0,0,1-.983-2.55,3.75,3.75,0,0,1,.93-2.617,3.96,3.96,0,0,1,2.55-1.223V12.25h1.455V14.4A3.75,3.75,0,0,1,23.7,15.768a4.927,4.927,0,0,1,.915,3.142H22.793a3.4,3.4,0,0,0-.653-2.16,2.153,2.153,0,0,0-1.762-.81,2.43,2.43,0,0,0-1.77.6,2.25,2.25,0,0,0-.615,1.673,2.032,2.032,0,0,0,.645,1.538,5.917,5.917,0,0,0,2.13,1.08,8.88,8.88,0,0,1,2.318,1.057,3.75,3.75,0,0,1,1.23,1.35,3.885,3.885,0,0,1,.39,1.8,3.6,3.6,0,0,1-1,2.663Z" transform="translate(-7.8 -4)" fill="#fff"/>
</svg>
