<svg xmlns="http://www.w3.org/2000/svg" viewBox="0 0 311 230"><defs><style>.cls-1{opacity:0;}.cls-2{fill:#00aeef;stroke:#c2bec0;}.cls-2,.cls-3{stroke-miterlimit:10;}.cls-3{fill:#e87d1e;stroke:#fff;stroke-width:0.75px;}</style></defs><title>chartEurope</title><g id="Layer_2" data-name="Layer 2"><g id="Layer_4" data-name="Layer 4"><rect class="cls-1" width="311" height="230"/><line class="cls-2" x1="305" y1="13.01" x2="36" y2="13.01"/><line class="cls-2" x1="305" y1="42.01" x2="36" y2="42.01"/><line class="cls-2" x1="305" y1="69.01" x2="36" y2="69.01"/><line class="cls-2" x1="305" y1="98.01" x2="36" y2="98.01"/><line class="cls-2" x1="305" y1="126.01" x2="36" y2="126.01"/><line class="cls-2" x1="305" y1="154.01" x2="36" y2="154.01"/><line class="cls-2" x1="305" y1="182.01" x2="36" y2="182.01"/><line class="cls-2" x1="305" y1="209.01" x2="36" y2="209.01"/><rect class="cls-3" x="37.52" y="125.89" width="5" height="43.53"/><rect class="cls-3" x="45.85" y="125.89" width="5" height="61.19"/><rect class="cls-3" x="53.68" y="125.89" width="5" height="41.78"/><rect class="cls-3" x="61.52" y="125.89" width="5" height="62.71"/><rect class="cls-3" x="69.52" y="125.89" width="5" height="69.27"/><rect class="cls-3" x="77.18" y="125.89" width="5" height="62.71"/><rect class="cls-3" x="85.02" y="125.89" width="5" height="59.22"/><rect class="cls-3" x="92.68" y="117.46" width="5" height="8.43"/><rect class="cls-3" x="100.68" y="69.27" width="5" height="56.62"/><rect class="cls-3" x="108.68" y="26.68" width="5" height="99.21"/><rect class="cls-3" x="116.85" y="79.22" width="5" height="46.67"/><rect class="cls-3" x="124.18" y="81.92" width="5" height="43.97"/><rect class="cls-3" x="132.52" y="89.15" width="5" height="36.74"/><rect class="cls-3" x="140.52" y="115" width="5" height="10.89"/><rect class="cls-3" x="164.02" y="123.51" width="5" height="2.38"/><rect class="cls-3" x="148.02" y="92.33" width="5" height="33.56"/><rect class="cls-3" x="187.35" y="103.91" width="5" height="21.98"/><rect class="cls-3" x="195.18" y="114.06" width="5" height="11.83"/><rect class="cls-3" x="203.35" y="99.1" width="5" height="26.8"/><rect class="cls-3" x="234.85" y="87.02" width="5" height="38.87"/><rect class="cls-3" x="243.02" y="95.47" width="5" height="30.42"/><rect class="cls-3" x="250.68" y="109.83" width="5" height="16.06"/><rect class="cls-3" x="258.02" y="36.55" width="5" height="89.34"/><rect class="cls-3" x="266.02" y="92.33" width="5" height="33.56"/><rect class="cls-3" x="274.02" y="89.15" width="5" height="36.74"/><rect class="cls-3" x="282.02" y="108.63" width="5" height="17.26"/><rect class="cls-3" x="211.18" y="108.63" width="5" height="17.26"/><rect class="cls-3" x="219.02" y="83.01" width="5" height="42.88"/><rect class="cls-3" x="227.02" y="117.46" width="5" height="8.43"/><rect class="cls-3" x="156.5" y="125.89" width="5" height="9.1"/><rect class="cls-3" x="289.83" y="125.89" width="5" height="36.1"/><rect class="cls-3" x="297.67" y="125.89" width="5" height="27.79"/><line class="cls-2" x1="35.5" y1="11.51" x2="35.5" y2="209.51"/><path d="M38,7.71a1.25,1.25,0,0,0-.23-.77,2.09,2.09,0,0,0-.78-.57,3.44,3.44,0,0,1-1.31-.82,1.88,1.88,0,0,1-.43-1.32,2,2,0,0,1,.42-1.31,1.69,1.69,0,0,1,1.14-.6v-1h.64v1a1.63,1.63,0,0,1,1.11.7,2.63,2.63,0,0,1,.41,1.54h-1a2.12,2.12,0,0,0-.24-1.07A.72.72,0,0,0,37,3.08a.73.73,0,0,0-.64.32,1.42,1.42,0,0,0-.22.82,1.26,1.26,0,0,0,.22.77,2.17,2.17,0,0,0,.8.57,3.54,3.54,0,0,1,1.3.83,1.87,1.87,0,0,1,.43,1.31A1.92,1.92,0,0,1,38.5,9a1.8,1.8,0,0,1-1.18.59v.94h-.63V9.6A1.88,1.88,0,0,1,35.46,9,2.28,2.28,0,0,1,35,7.41h1a1.66,1.66,0,0,0,.3,1.11.94.94,0,0,0,.73.33.87.87,0,0,0,.71-.31A1.25,1.25,0,0,0,38,7.71Z"/><path d="M43.88,7.31A2.8,2.8,0,0,1,43.42,9a1.49,1.49,0,0,1-1.28.63,1.4,1.4,0,0,1-.73-.18,1.48,1.48,0,0,1-.52-.54l-.07.62H40V1.9h1V4.79a1.46,1.46,0,0,1,.5-.49,1.34,1.34,0,0,1,.68-.17,1.47,1.47,0,0,1,1.29.67,3.14,3.14,0,0,1,.45,1.79Zm-1-.72a2.66,2.66,0,0,0-.24-1.23.81.81,0,0,0-.76-.46.84.84,0,0,0-.56.2,1.32,1.32,0,0,0-.36.53V8.17a1.16,1.16,0,0,0,.37.5.92.92,0,0,0,.57.18.81.81,0,0,0,.76-.42,2.27,2.27,0,0,0,.24-1.12Z"/><path d="M126.3,221.72l.65-1.65h.49l-.25,1.66v.88h-.89Z"/><path d="M130.83,227.69h-1v-6.13l-1.39.09V221l2.38-.45Z"/><path d="M135.71,227.69h-1v-6.13l-1.39.09V221l2.38-.45Z"/><path d="M92.31,221.72l.65-1.65h.49l-.25,1.66v.88h-.89Z"/><path d="M96.83,227.69h-1v-6.13l-1.39.09V221l2.38-.45Z"/><path d="M103.06,224.93a3.59,3.59,0,0,1-.53,2.12,1.78,1.78,0,0,1-2.89,0,3.57,3.57,0,0,1-.53-2.11v-1.61a3.59,3.59,0,0,1,.53-2.11,1.77,1.77,0,0,1,2.88,0,3.58,3.58,0,0,1,.53,2.11Zm-1-1.75a3.27,3.27,0,0,0-.26-1.46.8.8,0,0,0-.73-.49.79.79,0,0,0-.73.5,3.33,3.33,0,0,0-.25,1.46v1.89a3.31,3.31,0,0,0,.26,1.47.79.79,0,0,0,1.46,0,3.33,3.33,0,0,0,.25-1.47Z"/><path d="M61.79,221.72l.65-1.65h.49l-.25,1.66v.88h-.89Z"/><path d="M67.66,224.93a3.59,3.59,0,0,1-.53,2.12,1.78,1.78,0,0,1-2.89,0,3.57,3.57,0,0,1-.53-2.11v-1.61a3.59,3.59,0,0,1,.53-2.11,1.77,1.77,0,0,1,2.88,0,3.58,3.58,0,0,1,.53,2.11Zm-1-1.75a3.27,3.27,0,0,0-.26-1.46.8.8,0,0,0-.73-.49.79.79,0,0,0-.73.5,3.33,3.33,0,0,0-.25,1.46v1.89a3.31,3.31,0,0,0,.26,1.47.79.79,0,0,0,1.46,0,3.33,3.33,0,0,0,.25-1.47Z"/><path d="M70.3,227a1,1,0,0,0,.88-.5,2.61,2.61,0,0,0,.33-1.45v-.35a1.47,1.47,0,0,1-.5.53,1.23,1.23,0,0,1-.65.18,1.6,1.6,0,0,1-1.35-.66,3.33,3.33,0,0,1,.06-3.59,1.69,1.69,0,0,1,1.38-.72,1.8,1.8,0,0,1,1.48.7,3.19,3.19,0,0,1,.56,2v1.86a3,3,0,0,1-.62,2,2,2,0,0,1-1.59.72,2.84,2.84,0,0,1-.63-.08,2.73,2.73,0,0,1-.62-.22l.13-.72a2,2,0,0,0,.52.2A2.64,2.64,0,0,0,70.3,227Zm.16-2.34a1,1,0,0,0,.65-.22,1.36,1.36,0,0,0,.4-.56v-.83a2.85,2.85,0,0,0-.27-1.39.84.84,0,0,0-.76-.48.8.8,0,0,0-.69.51,2.64,2.64,0,0,0-.28,1.26,2.59,2.59,0,0,0,.25,1.22A.77.77,0,0,0,70.46,224.69Z"/><path d="M31.29,221.72l.65-1.65h.49l-.25,1.66v.88h-.89Z"/><path d="M37.16,224.93a3.59,3.59,0,0,1-.53,2.12,1.78,1.78,0,0,1-2.89,0,3.57,3.57,0,0,1-.53-2.11v-1.61a3.59,3.59,0,0,1,.53-2.11,1.77,1.77,0,0,1,2.88,0,3.58,3.58,0,0,1,.53,2.11Zm-1-1.75a3.27,3.27,0,0,0-.26-1.46.8.8,0,0,0-.73-.49.79.79,0,0,0-.73.5,3.33,3.33,0,0,0-.25,1.46v1.89a3.31,3.31,0,0,0,.26,1.47.79.79,0,0,0,1.46,0,3.33,3.33,0,0,0,.25-1.47Z"/><path d="M41.93,222.43a1.79,1.79,0,0,1-.27,1,1.63,1.63,0,0,1-.73.63,1.85,1.85,0,0,1,.83.68,1.83,1.83,0,0,1,.31,1.05,2,2,0,0,1-.55,1.5,2.28,2.28,0,0,1-2.9,0,2,2,0,0,1-.55-1.5A1.82,1.82,0,0,1,39.21,224a1.6,1.6,0,0,1-.72-.63,1.81,1.81,0,0,1-.26-1,2,2,0,0,1,.51-1.45,1.8,1.8,0,0,1,1.34-.51,1.83,1.83,0,0,1,1.34.51A1.94,1.94,0,0,1,41.93,222.43Zm-.84,3.31a1.51,1.51,0,0,0-.29-1,.89.89,0,0,0-.73-.37.88.88,0,0,0-.73.37,1.53,1.53,0,0,0-.28,1,1.49,1.49,0,0,0,.28,1,1,1,0,0,0,1.47,0A1.46,1.46,0,0,0,41.09,225.73Zm-.16-3.29a1.51,1.51,0,0,0-.24-.88.75.75,0,0,0-1.25,0,1.53,1.53,0,0,0-.23.89,1.49,1.49,0,0,0,.23.88.73.73,0,0,0,.63.33.73.73,0,0,0,.62-.33A1.49,1.49,0,0,0,40.94,222.45Z"/><path d="M157.8,221.72l.65-1.65h.49l-.25,1.66v.88h-.89Z"/><path d="M162.33,227.69h-1v-6.13l-1.39.09V221l2.38-.45Z"/><path d="M168.62,227.68h-4V227l2-2.57a6.48,6.48,0,0,0,.66-1.11,2.15,2.15,0,0,0,.19-.85,1.63,1.63,0,0,0-.24-.92.74.74,0,0,0-.65-.36.88.88,0,0,0-.78.39,1.92,1.92,0,0,0-.26,1.07h-1v0a2.24,2.24,0,0,1,.52-1.56,1.85,1.85,0,0,1,1.48-.63,1.78,1.78,0,0,1,1.37.55,2.06,2.06,0,0,1,.51,1.45,2.58,2.58,0,0,1-.31,1.2,8.28,8.28,0,0,1-.9,1.33l-1.34,1.93h2.75Z"/><path d="M189,221.72l.65-1.65h.49l-.25,1.66v.88H189Z"/><path d="M193.5,227.69h-1v-6.13l-1.39.09V221l2.38-.45Z"/><path d="M197,223.69h.68a.81.81,0,0,0,.72-.33,1.56,1.56,0,0,0,.23-.89,1.54,1.54,0,0,0-.24-.91.8.8,0,0,0-.69-.33.83.83,0,0,0-.68.33,1.36,1.36,0,0,0-.27.87h-.94v0a1.83,1.83,0,0,1,1.88-1.93A1.9,1.9,0,0,1,199,221a2,2,0,0,1,.53,1.48,1.79,1.79,0,0,1-.25.91,1.62,1.62,0,0,1-.71.66,1.48,1.48,0,0,1,.8.65,2,2,0,0,1-1.77,3.1,2,2,0,0,1-1.4-.53,1.83,1.83,0,0,1-.55-1.46v0h.95a1.43,1.43,0,0,0,.28.91.89.89,0,0,0,.73.35.91.91,0,0,0,.75-.34,1.91,1.91,0,0,0,0-1.94,1,1,0,0,0-.78-.31H197Z"/><path d="M220.8,221.72l.65-1.65h.49l-.25,1.66v.88h-.89Z"/><path d="M225.33,227.69h-1v-6.13l-1.39.09V221l2.38-.45Z"/><path d="M231,225.26h.76V226H231v1.67h-1V226h-2.58l0-.55,2.58-4.88h1Zm-2.62,0H230V222h0l-.1.21Z"/><path d="M251.8,221.72l.65-1.65h.49l-.25,1.66v.88h-.89Z"/><path d="M256.33,227.69h-1v-6.13l-1.39.09V221l2.38-.45Z"/><path d="M258.82,224.49l.34-3.92h3.19v.82H260l-.19,2.11a1.55,1.55,0,0,1,.42-.31,1.3,1.3,0,0,1,.55-.13,1.54,1.54,0,0,1,1.32.62,2.8,2.8,0,0,1,.48,1.73,2.76,2.76,0,0,1-.5,1.72,1.72,1.72,0,0,1-1.46.66,1.91,1.91,0,0,1-1.35-.51,1.84,1.84,0,0,1-.53-1.46v0l.93,0a1.48,1.48,0,0,0,.26.93.82.82,0,0,0,.68.33.79.79,0,0,0,.73-.43,2.4,2.4,0,0,0,.24-1.18,2.25,2.25,0,0,0-.25-1.15.8.8,0,0,0-.73-.43.93.93,0,0,0-.63.18,1,1,0,0,0-.29.54Z"/><path d="M283.62,221.72l.65-1.65h.49l-.25,1.66v.88h-.89Z"/><path d="M288.14,227.69h-1v-6.13l-1.39.09V221l2.38-.45Z"/><path d="M292.79,220.47a2.34,2.34,0,0,1,1.16.31l-.19.73a2,2,0,0,0-.44-.2,1.79,1.79,0,0,0-.52-.07,1.11,1.11,0,0,0-1,.57,2.81,2.81,0,0,0-.37,1.54v.2a1.69,1.69,0,0,1,1.3-.59,1.47,1.47,0,0,1,1.27.66,2.9,2.9,0,0,1,.47,1.7,2.79,2.79,0,0,1-.54,1.76,1.7,1.7,0,0,1-1.41.69,1.82,1.82,0,0,1-1.5-.75,3.29,3.29,0,0,1-.59-2.08v-1.54a3.28,3.28,0,0,1,.66-2.13A2,2,0,0,1,292.79,220.47Zm-.27,3.22a1.11,1.11,0,0,0-1.06.67V225a3,3,0,0,0,.31,1.49.91.91,0,0,0,.79.53.78.78,0,0,0,.7-.5,2.59,2.59,0,0,0,.26-1.21,2.33,2.33,0,0,0-.27-1.18A.81.81,0,0,0,292.52,223.69Z"/><path d="M10.26,209.86H8.08v-.75h2.18Z"/><path d="M15.12,206.17a8.55,8.55,0,0,0-1.4,2.6,15.12,15.12,0,0,0-.53,3.07l-.06.68h-1l.06-.68a13.14,13.14,0,0,1,.64-3.1,10.5,10.5,0,0,1,1.32-2.58H11v-.75h4.15Z"/><path d="M16.21,209.32l.34-3.92h3.19v.82H17.38l-.19,2.11a1.55,1.55,0,0,1,.42-.31,1.3,1.3,0,0,1,.55-.13,1.54,1.54,0,0,1,1.32.62,2.8,2.8,0,0,1,.48,1.73,2.76,2.76,0,0,1-.5,1.72,1.72,1.72,0,0,1-1.46.66,1.91,1.91,0,0,1-1.35-.51,1.84,1.84,0,0,1-.53-1.46v0l.93,0a1.48,1.48,0,0,0,.26.93.82.82,0,0,0,.68.33.79.79,0,0,0,.73-.43,2.4,2.4,0,0,0,.24-1.18,2.25,2.25,0,0,0-.25-1.15.8.8,0,0,0-.73-.43.93.93,0,0,0-.63.18,1,1,0,0,0-.29.54Z"/><path d="M20.88,206.77a1.58,1.58,0,0,1,.35-1,1.32,1.32,0,0,1,1.93,0,1.58,1.58,0,0,1,.35,1v.38a1.56,1.56,0,0,1-.35,1,1.19,1.19,0,0,1-1,.42,1.21,1.21,0,0,1-1-.42,1.55,1.55,0,0,1-.36-1Zm.7.38a1.13,1.13,0,0,0,.16.62.52.52,0,0,0,.47.26.51.51,0,0,0,.45-.25,1.14,1.14,0,0,0,.16-.62v-.38a1.15,1.15,0,0,0-.16-.62.52.52,0,0,0-.46-.26.51.51,0,0,0-.46.26,1.16,1.16,0,0,0-.16.63Zm.84,4.81-.51-.31,2.93-5.56.51.31Zm1.5-1.19a1.56,1.56,0,0,1,.36-1,1.32,1.32,0,0,1,1.94,0,1.56,1.56,0,0,1,.35,1v.38a1.56,1.56,0,0,1-.35,1,1.19,1.19,0,0,1-1,.42,1.22,1.22,0,0,1-1-.42,1.55,1.55,0,0,1-.36-1Zm.7.38a1.11,1.11,0,0,0,.17.62.53.53,0,0,0,.46.26.51.51,0,0,0,.46-.25,1.18,1.18,0,0,0,.15-.63v-.38a1.13,1.13,0,0,0-.16-.62.52.52,0,0,0-.46-.25.51.51,0,0,0-.46.25,1.14,1.14,0,0,0-.16.63Z"/><path d="M10.25,181.55H8.07v-.75h2.18Z"/><path d="M11.32,181l.34-3.92h3.19v.82H12.48L12.3,180a1.54,1.54,0,0,1,.42-.3,1.3,1.3,0,0,1,.55-.13,1.54,1.54,0,0,1,1.32.62,2.8,2.8,0,0,1,.48,1.73,2.76,2.76,0,0,1-.5,1.72,1.73,1.73,0,0,1-1.46.66,1.91,1.91,0,0,1-1.35-.51,1.84,1.84,0,0,1-.53-1.46v0l.93,0a1.48,1.48,0,0,0,.26.93.82.82,0,0,0,.68.33.79.79,0,0,0,.73-.43,2.4,2.4,0,0,0,.24-1.18,2.25,2.25,0,0,0-.25-1.14.8.8,0,0,0-.73-.43.93.93,0,0,0-.63.18,1,1,0,0,0-.29.54Z"/><path d="M19.93,181.45a3.59,3.59,0,0,1-.53,2.12,1.78,1.78,0,0,1-2.89,0,3.56,3.56,0,0,1-.53-2.11v-1.61a3.59,3.59,0,0,1,.53-2.11,1.77,1.77,0,0,1,2.88,0,3.58,3.58,0,0,1,.53,2.11Zm-1-1.75a3.27,3.27,0,0,0-.26-1.46.8.8,0,0,0-.73-.49.79.79,0,0,0-.73.5A3.33,3.33,0,0,0,17,179.7v1.89a3.3,3.3,0,0,0,.26,1.47.8.8,0,0,0,.73.5.79.79,0,0,0,.73-.5,3.33,3.33,0,0,0,.25-1.47Z"/><path d="M20.88,178.46a1.58,1.58,0,0,1,.35-1,1.32,1.32,0,0,1,1.93,0,1.58,1.58,0,0,1,.35,1v.38a1.56,1.56,0,0,1-.35,1,1.19,1.19,0,0,1-1,.42,1.21,1.21,0,0,1-1-.42,1.55,1.55,0,0,1-.36-1Zm.7.38a1.13,1.13,0,0,0,.16.62.52.52,0,0,0,.47.26.51.51,0,0,0,.45-.25,1.13,1.13,0,0,0,.16-.62v-.38a1.15,1.15,0,0,0-.16-.62.52.52,0,0,0-.46-.26.51.51,0,0,0-.46.26,1.16,1.16,0,0,0-.16.63Zm.84,4.81-.51-.31,2.93-5.56.51.31Zm1.5-1.19a1.56,1.56,0,0,1,.36-1,1.32,1.32,0,0,1,1.94,0,1.57,1.57,0,0,1,.35,1v.38a1.57,1.57,0,0,1-.35,1,1.19,1.19,0,0,1-1,.42,1.21,1.21,0,0,1-1-.42,1.55,1.55,0,0,1-.36-1Zm.7.38a1.11,1.11,0,0,0,.17.62.52.52,0,0,0,.46.26.51.51,0,0,0,.46-.25,1.18,1.18,0,0,0,.15-.63v-.38a1.13,1.13,0,0,0-.16-.62.52.52,0,0,0-.46-.25.51.51,0,0,0-.46.25,1.15,1.15,0,0,0-.16.63Z"/><path d="M10.26,153.76H8.08V153h2.18Z"/><path d="M15.13,156.41h-4v-.66l2-2.57a6.4,6.4,0,0,0,.66-1.11,2.15,2.15,0,0,0,.19-.85,1.63,1.63,0,0,0-.24-.92.74.74,0,0,0-.65-.36.88.88,0,0,0-.78.39,1.91,1.91,0,0,0-.26,1.07h-1v0a2.24,2.24,0,0,1,.52-1.56,1.85,1.85,0,0,1,1.48-.63,1.78,1.78,0,0,1,1.37.55,2.06,2.06,0,0,1,.51,1.45,2.58,2.58,0,0,1-.31,1.2,8.28,8.28,0,0,1-.9,1.33l-1.34,1.93h2.75Z"/><path d="M16.21,153.21l.34-3.92h3.19v.82H17.38l-.19,2.11a1.54,1.54,0,0,1,.42-.3,1.3,1.3,0,0,1,.55-.13,1.54,1.54,0,0,1,1.32.62,2.8,2.8,0,0,1,.48,1.73,2.76,2.76,0,0,1-.5,1.72,1.73,1.73,0,0,1-1.46.66,1.91,1.91,0,0,1-1.35-.51,1.84,1.84,0,0,1-.53-1.46v0l.93,0a1.48,1.48,0,0,0,.26.93.82.82,0,0,0,.68.33.79.79,0,0,0,.73-.43,2.4,2.4,0,0,0,.24-1.18,2.25,2.25,0,0,0-.25-1.14.8.8,0,0,0-.73-.43.93.93,0,0,0-.63.18,1,1,0,0,0-.29.54Z"/><path d="M20.88,150.66a1.58,1.58,0,0,1,.35-1,1.32,1.32,0,0,1,1.93,0,1.58,1.58,0,0,1,.35,1V151a1.56,1.56,0,0,1-.35,1,1.19,1.19,0,0,1-1,.42,1.21,1.21,0,0,1-1-.42,1.55,1.55,0,0,1-.36-1Zm.7.38a1.13,1.13,0,0,0,.16.62.52.52,0,0,0,.47.26.51.51,0,0,0,.45-.25,1.13,1.13,0,0,0,.16-.62v-.38a1.15,1.15,0,0,0-.16-.62.52.52,0,0,0-.46-.26.51.51,0,0,0-.46.26,1.16,1.16,0,0,0-.16.63Zm.84,4.81-.51-.31L24.85,150l.51.31Zm1.5-1.19a1.56,1.56,0,0,1,.36-1,1.32,1.32,0,0,1,1.94,0,1.57,1.57,0,0,1,.35,1V155a1.57,1.57,0,0,1-.35,1,1.19,1.19,0,0,1-1,.42,1.21,1.21,0,0,1-1-.42,1.55,1.55,0,0,1-.36-1Zm.7.38a1.11,1.11,0,0,0,.17.62.52.52,0,0,0,.46.26.51.51,0,0,0,.46-.25,1.18,1.18,0,0,0,.15-.63v-.38a1.13,1.13,0,0,0-.16-.62.52.52,0,0,0-.46-.25.51.51,0,0,0-.46.25,1.15,1.15,0,0,0-.16.63Z"/><path d="M19.93,126.64a3.59,3.59,0,0,1-.53,2.12,1.78,1.78,0,0,1-2.89,0,3.57,3.57,0,0,1-.53-2.11V125a3.59,3.59,0,0,1,.53-2.11,1.77,1.77,0,0,1,2.88,0,3.58,3.58,0,0,1,.53,2.11Zm-1-1.75a3.27,3.27,0,0,0-.26-1.46.8.8,0,0,0-.73-.49.79.79,0,0,0-.73.5,3.33,3.33,0,0,0-.25,1.46v1.89a3.31,3.31,0,0,0,.26,1.47.79.79,0,0,0,1.46,0,3.33,3.33,0,0,0,.25-1.47Z"/><path d="M20.88,123.65a1.58,1.58,0,0,1,.35-1,1.32,1.32,0,0,1,1.93,0,1.58,1.58,0,0,1,.35,1V124a1.56,1.56,0,0,1-.35,1,1.19,1.19,0,0,1-1,.42,1.21,1.21,0,0,1-1-.42,1.55,1.55,0,0,1-.36-1Zm.7.38a1.13,1.13,0,0,0,.16.62.52.52,0,0,0,.47.26.51.51,0,0,0,.45-.25,1.14,1.14,0,0,0,.16-.62v-.38a1.15,1.15,0,0,0-.16-.62.52.52,0,0,0-.46-.26.51.51,0,0,0-.46.26,1.16,1.16,0,0,0-.16.63Zm.84,4.81-.51-.31L24.85,123l.51.31Zm1.5-1.19a1.56,1.56,0,0,1,.36-1,1.32,1.32,0,0,1,1.94,0,1.56,1.56,0,0,1,.35,1V128a1.56,1.56,0,0,1-.35,1,1.19,1.19,0,0,1-1,.42,1.22,1.22,0,0,1-1-.42,1.55,1.55,0,0,1-.36-1Zm.7.38a1.11,1.11,0,0,0,.17.62.53.53,0,0,0,.46.26.51.51,0,0,0,.46-.25,1.18,1.18,0,0,0,.15-.63v-.38a1.13,1.13,0,0,0-.16-.62.52.52,0,0,0-.46-.25.51.51,0,0,0-.46.25,1.14,1.14,0,0,0-.16.63Z"/><path d="M15.13,101.11h-4v-.66l2-2.57a6.48,6.48,0,0,0,.66-1.11,2.15,2.15,0,0,0,.19-.85A1.63,1.63,0,0,0,13.7,95a.74.74,0,0,0-.65-.36.88.88,0,0,0-.78.39A1.92,1.92,0,0,0,12,96.12h-1v0a2.24,2.24,0,0,1,.52-1.56A1.85,1.85,0,0,1,13,93.9a1.78,1.78,0,0,1,1.37.55,2.06,2.06,0,0,1,.51,1.45,2.58,2.58,0,0,1-.31,1.2,8.28,8.28,0,0,1-.9,1.33l-1.34,1.93h2.75Z"/><path d="M16.21,97.92,16.55,94h3.19v.82H17.38l-.19,2.11a1.55,1.55,0,0,1,.42-.31,1.3,1.3,0,0,1,.55-.13,1.54,1.54,0,0,1,1.32.62A2.8,2.8,0,0,1,20,98.84a2.76,2.76,0,0,1-.5,1.72,1.72,1.72,0,0,1-1.46.66,1.91,1.91,0,0,1-1.35-.51,1.84,1.84,0,0,1-.53-1.46v0l.93,0a1.48,1.48,0,0,0,.26.93.82.82,0,0,0,.68.33.79.79,0,0,0,.73-.43A2.4,2.4,0,0,0,19,98.85a2.25,2.25,0,0,0-.25-1.15.8.8,0,0,0-.73-.43.93.93,0,0,0-.63.18,1,1,0,0,0-.29.54Z"/><path d="M20.88,95.37a1.58,1.58,0,0,1,.35-1,1.32,1.32,0,0,1,1.93,0,1.58,1.58,0,0,1,.35,1v.38a1.56,1.56,0,0,1-.35,1,1.19,1.19,0,0,1-1,.42,1.21,1.21,0,0,1-1-.42,1.55,1.55,0,0,1-.36-1Zm.7.38a1.13,1.13,0,0,0,.16.62.52.52,0,0,0,.47.26.51.51,0,0,0,.45-.25,1.14,1.14,0,0,0,.16-.62v-.38a1.15,1.15,0,0,0-.16-.62.52.52,0,0,0-.46-.26.51.51,0,0,0-.46.26,1.16,1.16,0,0,0-.16.63Zm.84,4.81-.51-.31,2.93-5.56.51.31Zm1.5-1.19a1.56,1.56,0,0,1,.36-1,1.32,1.32,0,0,1,1.94,0,1.56,1.56,0,0,1,.35,1v.38a1.56,1.56,0,0,1-.35,1,1.19,1.19,0,0,1-1,.42,1.22,1.22,0,0,1-1-.42,1.55,1.55,0,0,1-.36-1Zm.7.38a1.11,1.11,0,0,0,.17.62.53.53,0,0,0,.46.26.51.51,0,0,0,.46-.25,1.18,1.18,0,0,0,.15-.63v-.38a1.13,1.13,0,0,0-.16-.62.52.52,0,0,0-.46-.25.51.51,0,0,0-.46.25,1.14,1.14,0,0,0-.16.63Z"/><path d="M11.32,68.14l.34-3.92h3.19V65H12.48l-.19,2.11a1.55,1.55,0,0,1,.42-.31,1.3,1.3,0,0,1,.55-.13,1.54,1.54,0,0,1,1.32.62,2.8,2.8,0,0,1,.48,1.73,2.76,2.76,0,0,1-.5,1.72,1.72,1.72,0,0,1-1.46.66,1.91,1.91,0,0,1-1.35-.51,1.84,1.84,0,0,1-.53-1.46v0l.93,0a1.48,1.48,0,0,0,.26.93.82.82,0,0,0,.68.33.79.79,0,0,0,.73-.43,2.4,2.4,0,0,0,.24-1.18,2.25,2.25,0,0,0-.25-1.15.8.8,0,0,0-.73-.43.93.93,0,0,0-.63.18,1,1,0,0,0-.29.54Z"/><path d="M19.93,68.58a3.59,3.59,0,0,1-.53,2.12,1.78,1.78,0,0,1-2.89,0A3.57,3.57,0,0,1,16,68.58V67a3.59,3.59,0,0,1,.53-2.11,1.77,1.77,0,0,1,2.88,0A3.58,3.58,0,0,1,19.93,67Zm-1-1.75a3.27,3.27,0,0,0-.26-1.46.8.8,0,0,0-.73-.49.79.79,0,0,0-.73.5A3.33,3.33,0,0,0,17,66.83v1.89a3.31,3.31,0,0,0,.26,1.47.79.79,0,0,0,1.46,0,3.33,3.33,0,0,0,.25-1.47Z"/><path d="M20.88,65.59a1.58,1.58,0,0,1,.35-1,1.32,1.32,0,0,1,1.93,0,1.58,1.58,0,0,1,.35,1V66a1.56,1.56,0,0,1-.35,1,1.19,1.19,0,0,1-1,.42,1.21,1.21,0,0,1-1-.42,1.55,1.55,0,0,1-.36-1Zm.7.38a1.13,1.13,0,0,0,.16.62.52.52,0,0,0,.47.26.51.51,0,0,0,.45-.25,1.14,1.14,0,0,0,.16-.62v-.38a1.15,1.15,0,0,0-.16-.62.52.52,0,0,0-.46-.26.51.51,0,0,0-.46.26,1.16,1.16,0,0,0-.16.63Zm.84,4.81-.51-.31,2.93-5.56.51.31Zm1.5-1.19a1.56,1.56,0,0,1,.36-1,1.32,1.32,0,0,1,1.94,0,1.56,1.56,0,0,1,.35,1V70a1.56,1.56,0,0,1-.35,1,1.19,1.19,0,0,1-1,.42,1.22,1.22,0,0,1-1-.42,1.55,1.55,0,0,1-.36-1Zm.7.38a1.11,1.11,0,0,0,.17.62.53.53,0,0,0,.46.26.51.51,0,0,0,.46-.25,1.18,1.18,0,0,0,.15-.63v-.38a1.13,1.13,0,0,0-.16-.62.52.52,0,0,0-.46-.25.51.51,0,0,0-.46.25,1.14,1.14,0,0,0-.16.63Z"/><path d="M15.12,39.48a8.56,8.56,0,0,0-1.4,2.6,15.12,15.12,0,0,0-.53,3.07l-.06.68h-1l.06-.68a13.13,13.13,0,0,1,.64-3.1,10.5,10.5,0,0,1,1.32-2.58H11v-.75h4.15Z"/><path d="M16.21,42.64l.34-3.92h3.19v.82H17.38l-.19,2.11a1.55,1.55,0,0,1,.42-.31,1.3,1.3,0,0,1,.55-.13,1.54,1.54,0,0,1,1.32.62A2.8,2.8,0,0,1,20,43.56a2.76,2.76,0,0,1-.5,1.72,1.73,1.73,0,0,1-1.46.66,1.91,1.91,0,0,1-1.35-.51A1.84,1.84,0,0,1,16.12,44v0l.93,0a1.48,1.48,0,0,0,.26.93.82.82,0,0,0,.68.33.79.79,0,0,0,.73-.43A2.4,2.4,0,0,0,19,43.57a2.25,2.25,0,0,0-.25-1.15A.8.8,0,0,0,18,42a.93.93,0,0,0-.63.18,1,1,0,0,0-.29.54Z"/><path d="M20.88,40.09a1.58,1.58,0,0,1,.35-1,1.32,1.32,0,0,1,1.93,0,1.58,1.58,0,0,1,.35,1v.38a1.56,1.56,0,0,1-.35,1,1.19,1.19,0,0,1-1,.42,1.21,1.21,0,0,1-1-.42,1.55,1.55,0,0,1-.36-1Zm.7.38a1.13,1.13,0,0,0,.16.62.52.52,0,0,0,.47.26.51.51,0,0,0,.45-.25,1.13,1.13,0,0,0,.16-.62v-.38a1.15,1.15,0,0,0-.16-.62.52.52,0,0,0-.46-.26.51.51,0,0,0-.46.26,1.16,1.16,0,0,0-.16.63Zm.84,4.81L21.92,45l2.93-5.56.51.31Zm1.5-1.19a1.56,1.56,0,0,1,.36-1,1.32,1.32,0,0,1,1.94,0,1.57,1.57,0,0,1,.35,1v.38a1.56,1.56,0,0,1-.35,1,1.19,1.19,0,0,1-1,.42,1.22,1.22,0,0,1-1-.42,1.55,1.55,0,0,1-.36-1Zm.7.38a1.11,1.11,0,0,0,.17.62.52.52,0,0,0,.46.26.51.51,0,0,0,.46-.25,1.18,1.18,0,0,0,.15-.63v-.38a1.13,1.13,0,0,0-.16-.62.52.52,0,0,0-.46-.25.51.51,0,0,0-.46.25,1.14,1.14,0,0,0-.16.63Z"/><path d="M8.82,18h-1V11.9L6.44,12v-.64l2.38-.45Z"/><path d="M15,15.27a3.59,3.59,0,0,1-.53,2.12,1.78,1.78,0,0,1-2.89,0,3.56,3.56,0,0,1-.53-2.11V13.66a3.59,3.59,0,0,1,.53-2.11,1.77,1.77,0,0,1,2.88,0A3.58,3.58,0,0,1,15,13.66Zm-1-1.75A3.27,3.27,0,0,0,13.8,12a.8.8,0,0,0-.73-.49.79.79,0,0,0-.73.5,3.33,3.33,0,0,0-.25,1.46V15.4a3.31,3.31,0,0,0,.26,1.47.79.79,0,0,0,1.46,0,3.33,3.33,0,0,0,.25-1.47Z"/><path d="M19.93,15.27a3.59,3.59,0,0,1-.53,2.12,1.78,1.78,0,0,1-2.89,0A3.56,3.56,0,0,1,16,15.27V13.66a3.59,3.59,0,0,1,.53-2.11,1.77,1.77,0,0,1,2.88,0,3.58,3.58,0,0,1,.53,2.11Zm-1-1.75A3.27,3.27,0,0,0,18.69,12a.8.8,0,0,0-.73-.49.79.79,0,0,0-.73.5A3.33,3.33,0,0,0,17,13.51V15.4a3.31,3.31,0,0,0,.26,1.47.79.79,0,0,0,1.46,0,3.33,3.33,0,0,0,.25-1.47Z"/><path d="M20.88,12.27a1.58,1.58,0,0,1,.35-1,1.32,1.32,0,0,1,1.93,0,1.58,1.58,0,0,1,.35,1v.38a1.56,1.56,0,0,1-.35,1,1.19,1.19,0,0,1-1,.42,1.21,1.21,0,0,1-1-.42,1.55,1.55,0,0,1-.36-1Zm.7.38a1.13,1.13,0,0,0,.16.62.52.52,0,0,0,.47.26.51.51,0,0,0,.45-.25,1.13,1.13,0,0,0,.16-.62v-.38a1.15,1.15,0,0,0-.16-.62.52.52,0,0,0-.46-.26.51.51,0,0,0-.46.26,1.16,1.16,0,0,0-.16.63Zm.84,4.81-.51-.31,2.93-5.56.51.31Zm1.5-1.19a1.56,1.56,0,0,1,.36-1,1.32,1.32,0,0,1,1.94,0,1.57,1.57,0,0,1,.35,1v.38a1.56,1.56,0,0,1-.35,1,1.19,1.19,0,0,1-1,.42,1.22,1.22,0,0,1-1-.42,1.55,1.55,0,0,1-.36-1Zm.7.38a1.11,1.11,0,0,0,.17.62.52.52,0,0,0,.46.26.51.51,0,0,0,.46-.25,1.18,1.18,0,0,0,.15-.63v-.38a1.13,1.13,0,0,0-.16-.63.52.52,0,0,0-.46-.25.51.51,0,0,0-.46.25,1.14,1.14,0,0,0-.16.63Z"/></g></g></svg>