<svg xmlns="http://www.w3.org/2000/svg" viewBox="0 0 311 230"><defs><style>.cls-1{opacity:0;}.cls-2,.cls-3,.cls-6{fill:#00aeef;}.cls-2{stroke:#c2bec0;}.cls-2,.cls-3,.cls-4,.cls-5{stroke-miterlimit:10;}.cls-3,.cls-4,.cls-5{stroke:#fff;stroke-width:0.75px;}.cls-4,.cls-7{fill:#e87d1e;}.cls-5,.cls-8{fill:#0065a4;}</style></defs><title>chartGlobal</title><g id="Layer_2" data-name="Layer 2"><g id="Layer_4" data-name="Layer 4"><rect class="cls-1" width="311" height="230"/><line class="cls-2" x1="302.34" y1="209.01" x2="33.34" y2="209.01"/><rect class="cls-3" x="34.75" y="182.65" width="5.42" height="26.37"/><rect class="cls-4" x="34.75" y="158.19" width="5.42" height="24.45"/><rect class="cls-5" x="34.75" y="136.26" width="5.42" height="21.94"/><rect class="cls-3" x="42.27" y="184.38" width="5.42" height="24.64"/><rect class="cls-4" x="42.27" y="166.81" width="5.42" height="17.56"/><rect class="cls-5" x="42.27" y="150.12" width="5.42" height="16.7"/><rect class="cls-3" x="49.97" y="181.9" width="5.42" height="27.11"/><rect class="cls-4" x="49.97" y="170.42" width="5.42" height="11.48"/><rect class="cls-5" x="49.97" y="155.01" width="5.42" height="15.41"/><rect class="cls-3" x="57.14" y="195.46" width="5.42" height="13.56"/><rect class="cls-4" x="57.14" y="184.38" width="5.42" height="11.08"/><rect class="cls-5" x="57.14" y="176.16" width="5.42" height="8.21"/><rect class="cls-3" x="65.89" y="200.73" width="5.42" height="8.29"/><rect class="cls-4" x="65.89" y="191.24" width="5.42" height="9.48"/><rect class="cls-5" x="65.89" y="186.64" width="5.42" height="4.6"/><rect class="cls-3" x="73.41" y="200.73" width="5.42" height="8.29"/><rect class="cls-4" x="73.41" y="184.2" width="5.42" height="16.52"/><rect class="cls-5" x="73.41" y="179.6" width="5.42" height="4.6"/><rect class="cls-3" x="81.11" y="200.73" width="5.42" height="8.29"/><rect class="cls-4" x="81.11" y="170.42" width="5.42" height="30.31"/><rect class="cls-5" x="81.11" y="165.48" width="5.42" height="4.94"/><rect class="cls-3" x="88.63" y="191.24" width="5.42" height="17.77"/><rect class="cls-4" x="88.63" y="152.3" width="5.42" height="38.94"/><rect class="cls-5" x="88.63" y="143.78" width="5.42" height="8.52"/><rect class="cls-3" x="96.63" y="194.8" width="5.42" height="14.21"/><rect class="cls-4" x="96.63" y="154.25" width="5.42" height="40.55"/><rect class="cls-5" x="96.63" y="147.22" width="5.42" height="7.15"/><rect class="cls-3" x="104.67" y="193.11" width="5.42" height="15.91"/><rect class="cls-4" x="104.67" y="169.63" width="5.42" height="23.47"/><rect class="cls-5" x="104.67" y="159.64" width="5.42" height="9.99"/><rect class="cls-3" x="112.72" y="195.83" width="5.42" height="13.18"/><rect class="cls-4" x="112.72" y="162.71" width="5.42" height="33.12"/><rect class="cls-5" x="112.72" y="148.04" width="5.42" height="14.67"/><rect class="cls-3" x="120.24" y="186.64" width="5.42" height="22.37"/><rect class="cls-4" x="120.24" y="134.78" width="5.42" height="51.87"/><rect class="cls-5" x="120.24" y="110.43" width="5.42" height="24.35"/><rect class="cls-3" x="128.12" y="191.24" width="5.42" height="17.77"/><rect class="cls-4" x="128.12" y="146.4" width="5.42" height="44.84"/><rect class="cls-5" x="128.12" y="131.73" width="5.42" height="14.67"/><rect class="cls-3" x="136.16" y="188.18" width="5.42" height="20.84"/><rect class="cls-4" x="136.16" y="154.38" width="5.42" height="33.8"/><rect class="cls-5" x="136.16" y="127.64" width="5.42" height="26.62"/><rect class="cls-3" x="143.86" y="188.18" width="5.42" height="20.84"/><rect class="cls-4" x="143.86" y="146.4" width="5.42" height="41.78"/><rect class="cls-5" x="143.86" y="124.06" width="5.42" height="22.34"/><rect class="cls-3" x="151.04" y="188.18" width="5.42" height="20.84"/><rect class="cls-4" x="151.04" y="148.75" width="5.42" height="39.43"/><rect class="cls-5" x="151.04" y="123.06" width="5.42" height="25.69"/><rect class="cls-3" x="159.79" y="191.24" width="5.42" height="17.77"/><rect class="cls-4" x="159.79" y="159.64" width="5.42" height="31.6"/><rect class="cls-5" x="159.79" y="139.06" width="5.42" height="20.58"/><rect class="cls-3" x="167.13" y="192.46" width="5.42" height="16.55"/><rect class="cls-4" x="167.13" y="156.41" width="5.42" height="36.06"/><rect class="cls-5" x="167.13" y="132.64" width="5.42" height="23.77"/><rect class="cls-3" x="175.01" y="191.24" width="5.42" height="17.77"/><rect class="cls-4" x="175.01" y="148.04" width="5.42" height="43.2"/><rect class="cls-5" x="175.01" y="123.06" width="5.42" height="24.98"/><rect class="cls-3" x="182.41" y="185.57" width="5.42" height="23.44"/><rect class="cls-4" x="182.41" y="124.06" width="5.42" height="61.51"/><rect class="cls-5" x="182.41" y="84.22" width="5.42" height="39.84"/><rect class="cls-3" x="190.64" y="189.92" width="5.42" height="19.1"/><rect class="cls-4" x="190.64" y="139.06" width="5.42" height="50.85"/><rect class="cls-5" x="190.64" y="112.49" width="5.42" height="26.57"/><rect class="cls-3" x="198.33" y="186.64" width="5.42" height="22.37"/><rect class="cls-4" x="198.33" y="137.05" width="5.42" height="49.59"/><rect class="cls-5" x="198.33" y="107.23" width="5.42" height="29.82"/><rect class="cls-3" x="206.56" y="186.64" width="5.42" height="22.37"/><rect class="cls-4" x="206.56" y="118.15" width="5.42" height="68.5"/><rect class="cls-5" x="206.56" y="86.15" width="5.42" height="32"/><rect class="cls-3" x="214.08" y="173.69" width="5.42" height="35.33"/><rect class="cls-4" x="214.08" y="91.13" width="5.42" height="82.55"/><rect class="cls-5" x="214.08" y="48.54" width="5.42" height="42.59"/><rect class="cls-3" x="221.95" y="186.64" width="5.42" height="22.37"/><rect class="cls-4" x="221.95" y="126.92" width="5.42" height="59.72"/><rect class="cls-5" x="221.95" y="95.62" width="5.42" height="31.3"/><rect class="cls-3" x="230" y="178.34" width="5.42" height="30.68"/><rect class="cls-4" x="230" y="129.39" width="5.42" height="48.95"/><rect class="cls-5" x="230" y="95.62" width="5.42" height="33.77"/><rect class="cls-3" x="237.7" y="180.38" width="5.42" height="28.63"/><rect class="cls-4" x="237.7" y="137.05" width="5.42" height="43.33"/><rect class="cls-5" x="237.7" y="98.71" width="5.42" height="38.34"/><rect class="cls-3" x="245.22" y="171.77" width="5.42" height="37.24"/><rect class="cls-4" x="245.22" y="107.23" width="5.42" height="64.55"/><rect class="cls-5" x="245.22" y="61.89" width="5.42" height="45.33"/><rect class="cls-3" x="253.09" y="174.53" width="5.42" height="34.49"/><rect class="cls-4" x="253.09" y="134.78" width="5.42" height="39.75"/><rect class="cls-5" x="253.09" y="86.91" width="5.42" height="47.87"/><rect class="cls-3" x="261.32" y="177.57" width="5.42" height="31.44"/><rect class="cls-4" x="261.32" y="137.05" width="5.42" height="40.52"/><rect class="cls-5" x="261.32" y="95.62" width="5.42" height="41.43"/><rect class="cls-3" x="268.84" y="176.52" width="5.42" height="32.49"/><rect class="cls-4" x="268.84" y="128.39" width="5.42" height="48.13"/><rect class="cls-5" x="268.84" y="89.87" width="5.42" height="38.51"/><rect class="cls-3" x="284.76" y="187.38" width="5.42" height="21.63"/><rect class="cls-4" x="284.76" y="150.8" width="5.42" height="36.58"/><rect class="cls-5" x="284.76" y="111.27" width="5.42" height="39.53"/><rect class="cls-3" x="292.28" y="185.57" width="5.42" height="23.44"/><rect class="cls-4" x="292.28" y="139.5" width="5.42" height="46.07"/><rect class="cls-5" x="292.28" y="102.85" width="5.42" height="36.65"/><rect class="cls-3" x="276.36" y="171.28" width="5.42" height="37.74"/><rect class="cls-4" x="276.36" y="101.11" width="5.42" height="70.16"/><rect class="cls-5" x="276.36" y="41.55" width="5.42" height="59.56"/><line class="cls-2" x1="32.84" y1="13.51" x2="32.84" y2="211.51"/><line class="cls-2" x1="64.84" y1="13.51" x2="64.84" y2="211.51"/><line class="cls-2" x1="94.84" y1="13.51" x2="94.84" y2="211.51"/><line class="cls-2" x1="126.84" y1="13.51" x2="126.84" y2="211.51"/><line class="cls-2" x1="158.84" y1="13.51" x2="158.84" y2="211.51"/><line class="cls-2" x1="220.84" y1="13.51" x2="220.84" y2="211.51"/><line class="cls-2" x1="251.84" y1="13.51" x2="251.84" y2="211.51"/><line class="cls-2" x1="282.84" y1="13.51" x2="282.84" y2="211.51"/><line class="cls-2" x1="188.84" y1="13.51" x2="188.84" y2="211.51"/><path d="M24.36,209.77a3.59,3.59,0,0,1-.53,2.12,1.78,1.78,0,0,1-2.89,0,3.57,3.57,0,0,1-.53-2.11v-1.61a3.59,3.59,0,0,1,.53-2.11,1.77,1.77,0,0,1,2.88,0,3.58,3.58,0,0,1,.53,2.11Zm-1-1.75a3.27,3.27,0,0,0-.26-1.46.8.8,0,0,0-.73-.49.79.79,0,0,0-.73.5A3.33,3.33,0,0,0,21.4,208v1.89a3.31,3.31,0,0,0,.26,1.47.79.79,0,0,0,1.46,0,3.33,3.33,0,0,0,.25-1.47Z"/><path d="M13.25,173.7h-1v-6.13l-1.39.09V167l2.38-.45Z"/><path d="M19.47,170.94a3.59,3.59,0,0,1-.53,2.12,1.78,1.78,0,0,1-2.89,0,3.57,3.57,0,0,1-.53-2.11v-1.61a3.59,3.59,0,0,1,.53-2.11,1.77,1.77,0,0,1,2.88,0,3.58,3.58,0,0,1,.53,2.11Zm-1-1.75a3.27,3.27,0,0,0-.26-1.46.8.8,0,0,0-.73-.49.79.79,0,0,0-.73.5,3.33,3.33,0,0,0-.25,1.46v1.89a3.31,3.31,0,0,0,.26,1.47.79.79,0,0,0,1.46,0,3.33,3.33,0,0,0,.25-1.47Z"/><path d="M24.36,170.94a3.59,3.59,0,0,1-.53,2.12,1.78,1.78,0,0,1-2.89,0,3.57,3.57,0,0,1-.53-2.11v-1.61a3.59,3.59,0,0,1,.53-2.11,1.77,1.77,0,0,1,2.88,0,3.58,3.58,0,0,1,.53,2.11Zm-1-1.75a3.27,3.27,0,0,0-.26-1.46.8.8,0,0,0-.73-.49.79.79,0,0,0-.73.5,3.33,3.33,0,0,0-.25,1.46v1.89a3.31,3.31,0,0,0,.26,1.47.79.79,0,0,0,1.46,0,3.33,3.33,0,0,0,.25-1.47Z"/><path d="M14.65,133.78h-4v-.66l2-2.57a6.48,6.48,0,0,0,.66-1.11,2.15,2.15,0,0,0,.19-.85,1.63,1.63,0,0,0-.24-.92.74.74,0,0,0-.65-.36.88.88,0,0,0-.78.39,1.92,1.92,0,0,0-.26,1.07h-1v0a2.24,2.24,0,0,1,.52-1.56,1.85,1.85,0,0,1,1.48-.63,1.78,1.78,0,0,1,1.37.55,2.06,2.06,0,0,1,.51,1.45,2.58,2.58,0,0,1-.31,1.2,8.28,8.28,0,0,1-.9,1.33L11.9,133h2.75Z"/><path d="M19.47,131a3.59,3.59,0,0,1-.53,2.12,1.78,1.78,0,0,1-2.89,0,3.57,3.57,0,0,1-.53-2.11v-1.61a3.59,3.59,0,0,1,.53-2.11,1.77,1.77,0,0,1,2.88,0,3.58,3.58,0,0,1,.53,2.11Zm-1-1.75a3.27,3.27,0,0,0-.26-1.46.8.8,0,0,0-.73-.49.79.79,0,0,0-.73.5,3.33,3.33,0,0,0-.25,1.46v1.89a3.31,3.31,0,0,0,.26,1.47.79.79,0,0,0,1.46,0,3.33,3.33,0,0,0,.25-1.47Z"/><path d="M24.36,131a3.59,3.59,0,0,1-.53,2.12,1.78,1.78,0,0,1-2.89,0,3.57,3.57,0,0,1-.53-2.11v-1.61a3.59,3.59,0,0,1,.53-2.11,1.77,1.77,0,0,1,2.88,0,3.58,3.58,0,0,1,.53,2.11Zm-1-1.75a3.27,3.27,0,0,0-.26-1.46.8.8,0,0,0-.73-.49.79.79,0,0,0-.73.5,3.33,3.33,0,0,0-.25,1.46v1.89a3.31,3.31,0,0,0,.26,1.47.79.79,0,0,0,1.46,0,3.33,3.33,0,0,0,.25-1.47Z"/><path d="M11.83,91.47h.68a.81.81,0,0,0,.72-.33,1.56,1.56,0,0,0,.23-.89,1.54,1.54,0,0,0-.24-.91.8.8,0,0,0-.69-.33.83.83,0,0,0-.68.33,1.36,1.36,0,0,0-.27.87h-.94v0a1.83,1.83,0,0,1,1.88-1.93,1.9,1.9,0,0,1,1.41.53,2,2,0,0,1,.53,1.48,1.79,1.79,0,0,1-.25.91,1.62,1.62,0,0,1-.71.66,1.48,1.48,0,0,1,.8.65,2,2,0,0,1-1.77,3.1,2,2,0,0,1-1.4-.53,1.83,1.83,0,0,1-.55-1.46v0h.95a1.43,1.43,0,0,0,.28.91.89.89,0,0,0,.73.35.91.91,0,0,0,.75-.34,1.91,1.91,0,0,0,0-1.94,1,1,0,0,0-.78-.31h-.68Z"/><path d="M19.47,92.72a3.59,3.59,0,0,1-.53,2.12,1.78,1.78,0,0,1-2.89,0,3.57,3.57,0,0,1-.53-2.11V91.11A3.59,3.59,0,0,1,16.05,89a1.77,1.77,0,0,1,2.88,0,3.58,3.58,0,0,1,.53,2.11Zm-1-1.75a3.27,3.27,0,0,0-.26-1.46.8.8,0,0,0-.73-.49.79.79,0,0,0-.73.5A3.33,3.33,0,0,0,16.51,91v1.89a3.31,3.31,0,0,0,.26,1.47.79.79,0,0,0,1.46,0,3.33,3.33,0,0,0,.25-1.47Z"/><path d="M24.36,92.72a3.59,3.59,0,0,1-.53,2.12,1.78,1.78,0,0,1-2.89,0,3.57,3.57,0,0,1-.53-2.11V91.11A3.59,3.59,0,0,1,20.95,89a1.77,1.77,0,0,1,2.88,0,3.58,3.58,0,0,1,.53,2.11Zm-1-1.75a3.27,3.27,0,0,0-.26-1.46.8.8,0,0,0-.73-.49.79.79,0,0,0-.73.5A3.33,3.33,0,0,0,21.4,91v1.89a3.31,3.31,0,0,0,.26,1.47.79.79,0,0,0,1.46,0,3.33,3.33,0,0,0,.25-1.47Z"/><path d="M14,53.09h.76v.75H14v1.67h-1V53.84H10.47l0-.55L13,48.41h1Zm-2.62,0h1.64V49.84h0l-.1.21Z"/><path d="M19.47,52.77a3.59,3.59,0,0,1-.53,2.12,1.78,1.78,0,0,1-2.89,0,3.56,3.56,0,0,1-.53-2.11V51.16A3.59,3.59,0,0,1,16.05,49a1.77,1.77,0,0,1,2.88,0,3.58,3.58,0,0,1,.53,2.11Zm-1-1.75a3.27,3.27,0,0,0-.26-1.46.8.8,0,0,0-.73-.49.79.79,0,0,0-.73.5A3.33,3.33,0,0,0,16.51,51V52.9a3.31,3.31,0,0,0,.26,1.47.79.79,0,0,0,1.46,0,3.33,3.33,0,0,0,.25-1.47Z"/><path d="M24.36,52.77a3.59,3.59,0,0,1-.53,2.12,1.78,1.78,0,0,1-2.89,0,3.56,3.56,0,0,1-.53-2.11V51.16A3.59,3.59,0,0,1,20.95,49a1.77,1.77,0,0,1,2.88,0,3.58,3.58,0,0,1,.53,2.11Zm-1-1.75a3.27,3.27,0,0,0-.26-1.46.8.8,0,0,0-.73-.49.79.79,0,0,0-.73.5A3.33,3.33,0,0,0,21.4,51V52.9a3.31,3.31,0,0,0,.26,1.47.79.79,0,0,0,1.46,0,3.33,3.33,0,0,0,.25-1.47Z"/><path d="M10.85,14.82l.34-3.92h3.19v.82H12l-.19,2.11a1.55,1.55,0,0,1,.42-.31,1.3,1.3,0,0,1,.55-.13,1.54,1.54,0,0,1,1.32.62,2.8,2.8,0,0,1,.48,1.73,2.76,2.76,0,0,1-.5,1.72,1.73,1.73,0,0,1-1.46.66,1.91,1.91,0,0,1-1.35-.51,1.84,1.84,0,0,1-.53-1.46v0l.93,0A1.48,1.48,0,0,0,12,17a.82.82,0,0,0,.68.33.79.79,0,0,0,.73-.43,2.4,2.4,0,0,0,.24-1.18,2.25,2.25,0,0,0-.25-1.15.8.8,0,0,0-.73-.43.93.93,0,0,0-.63.18,1,1,0,0,0-.29.54Z"/><path d="M19.47,15.27a3.59,3.59,0,0,1-.53,2.12,1.78,1.78,0,0,1-2.89,0,3.56,3.56,0,0,1-.53-2.11V13.66a3.59,3.59,0,0,1,.53-2.11,1.77,1.77,0,0,1,2.88,0,3.58,3.58,0,0,1,.53,2.11Zm-1-1.75A3.27,3.27,0,0,0,18.23,12a.8.8,0,0,0-.73-.49.79.79,0,0,0-.73.5,3.33,3.33,0,0,0-.25,1.46V15.4a3.31,3.31,0,0,0,.26,1.47.79.79,0,0,0,1.46,0,3.33,3.33,0,0,0,.25-1.47Z"/><path d="M24.36,15.27a3.59,3.59,0,0,1-.53,2.12,1.78,1.78,0,0,1-2.89,0,3.56,3.56,0,0,1-.53-2.11V13.66a3.59,3.59,0,0,1,.53-2.11,1.77,1.77,0,0,1,2.88,0,3.58,3.58,0,0,1,.53,2.11Zm-1-1.75A3.27,3.27,0,0,0,23.12,12a.8.8,0,0,0-.73-.49.79.79,0,0,0-.73.5,3.33,3.33,0,0,0-.25,1.46V15.4a3.31,3.31,0,0,0,.26,1.47.79.79,0,0,0,1.46,0,3.33,3.33,0,0,0,.25-1.47Z"/><path d="M36.27,7.71A1.25,1.25,0,0,0,36,6.94a2.09,2.09,0,0,0-.78-.57A3.44,3.44,0,0,1,34,5.55a1.88,1.88,0,0,1-.43-1.32,2,2,0,0,1,.42-1.31,1.69,1.69,0,0,1,1.14-.6v-1h.64v1a1.63,1.63,0,0,1,1.11.7,2.63,2.63,0,0,1,.41,1.54h-1A2.12,2.12,0,0,0,36,3.49a.72.72,0,0,0-.64-.41.73.73,0,0,0-.64.32,1.42,1.42,0,0,0-.22.82,1.26,1.26,0,0,0,.22.77,2.17,2.17,0,0,0,.8.57,3.54,3.54,0,0,1,1.3.83,1.87,1.87,0,0,1,.43,1.31A1.92,1.92,0,0,1,36.82,9a1.8,1.8,0,0,1-1.18.59v.94H35V9.6A1.88,1.88,0,0,1,33.77,9a2.28,2.28,0,0,1-.48-1.58h1a1.66,1.66,0,0,0,.3,1.11.94.94,0,0,0,.73.33A.87.87,0,0,0,36,8.53,1.25,1.25,0,0,0,36.27,7.71Z"/><path d="M42.2,7.31A2.8,2.8,0,0,1,41.74,9a1.49,1.49,0,0,1-1.28.63,1.4,1.4,0,0,1-.73-.18,1.48,1.48,0,0,1-.52-.54l-.07.62h-.86V1.9h1V4.79a1.46,1.46,0,0,1,.5-.49,1.34,1.34,0,0,1,.68-.17,1.47,1.47,0,0,1,1.29.67A3.14,3.14,0,0,1,42.2,6.6Zm-1-.72A2.66,2.66,0,0,0,41,5.37a.81.81,0,0,0-.76-.46.84.84,0,0,0-.56.2,1.32,1.32,0,0,0-.36.53V8.17a1.16,1.16,0,0,0,.37.5.92.92,0,0,0,.57.18A.81.81,0,0,0,41,8.44a2.27,2.27,0,0,0,.24-1.12Z"/><path d="M122.83,221.72l.65-1.65H124l-.25,1.66v.88h-.89Z"/><path d="M127.36,227.69h-1v-6.13l-1.39.09V221l2.38-.45Z"/><path d="M132.24,227.69h-1v-6.13l-1.39.09V221l2.38-.45Z"/><path d="M88.84,221.72l.65-1.65H90l-.25,1.66v.88h-.89Z"/><path d="M93.37,227.69h-1v-6.13l-1.39.09V221l2.38-.45Z"/><path d="M99.59,224.93a3.59,3.59,0,0,1-.53,2.12,1.78,1.78,0,0,1-2.89,0,3.57,3.57,0,0,1-.53-2.11v-1.61a3.59,3.59,0,0,1,.53-2.11,1.77,1.77,0,0,1,2.88,0,3.58,3.58,0,0,1,.53,2.11Zm-1-1.75a3.27,3.27,0,0,0-.26-1.46.8.8,0,0,0-.73-.49.79.79,0,0,0-.73.5,3.33,3.33,0,0,0-.25,1.46v1.89a3.31,3.31,0,0,0,.26,1.47.79.79,0,0,0,1.46,0,3.33,3.33,0,0,0,.25-1.47Z"/><path d="M58.32,221.72l.65-1.65h.49l-.25,1.66v.88h-.89Z"/><path d="M64.19,224.93a3.59,3.59,0,0,1-.53,2.12,1.78,1.78,0,0,1-2.89,0,3.57,3.57,0,0,1-.54-2.11v-1.61a3.59,3.59,0,0,1,.53-2.11,1.77,1.77,0,0,1,2.88,0,3.58,3.58,0,0,1,.53,2.11Zm-1-1.75a3.27,3.27,0,0,0-.26-1.46.8.8,0,0,0-.74-.49.79.79,0,0,0-.73.5,3.32,3.32,0,0,0-.25,1.46v1.89a3.31,3.31,0,0,0,.26,1.47.79.79,0,0,0,1.46,0,3.32,3.32,0,0,0,.25-1.47Z"/><path d="M66.83,227a1,1,0,0,0,.88-.5,2.61,2.61,0,0,0,.33-1.45v-.35a1.46,1.46,0,0,1-.5.53,1.23,1.23,0,0,1-.65.18,1.59,1.59,0,0,1-1.34-.66,3.32,3.32,0,0,1,.06-3.59,1.69,1.69,0,0,1,1.38-.72,1.8,1.8,0,0,1,1.48.7,3.2,3.2,0,0,1,.56,2v1.86a3,3,0,0,1-.62,2,2,2,0,0,1-1.59.72,2.85,2.85,0,0,1-.63-.08,2.75,2.75,0,0,1-.62-.22l.13-.72a2,2,0,0,0,.53.2A2.63,2.63,0,0,0,66.83,227Zm.16-2.34a1,1,0,0,0,.65-.22,1.36,1.36,0,0,0,.4-.56v-.83a2.85,2.85,0,0,0-.27-1.39.84.84,0,0,0-.76-.48.8.8,0,0,0-.69.51A2.63,2.63,0,0,0,66,223a2.58,2.58,0,0,0,.25,1.22A.77.77,0,0,0,67,224.69Z"/><path d="M27.83,221.72l.65-1.65H29l-.25,1.66v.88h-.89Z"/><path d="M33.69,224.93a3.59,3.59,0,0,1-.53,2.12,1.78,1.78,0,0,1-2.89,0,3.57,3.57,0,0,1-.53-2.11v-1.61a3.59,3.59,0,0,1,.53-2.11,1.77,1.77,0,0,1,2.88,0,3.58,3.58,0,0,1,.53,2.11Zm-1-1.75a3.27,3.27,0,0,0-.26-1.46.8.8,0,0,0-.73-.49.79.79,0,0,0-.73.5,3.33,3.33,0,0,0-.25,1.46v1.89a3.31,3.31,0,0,0,.26,1.47.79.79,0,0,0,1.46,0,3.33,3.33,0,0,0,.25-1.47Z"/><path d="M38.46,222.43a1.79,1.79,0,0,1-.27,1,1.63,1.63,0,0,1-.73.63,1.85,1.85,0,0,1,.83.68,1.83,1.83,0,0,1,.31,1.05,2,2,0,0,1-.55,1.5,2.28,2.28,0,0,1-2.9,0,2,2,0,0,1-.55-1.5A1.82,1.82,0,0,1,35.75,224a1.6,1.6,0,0,1-.72-.63,1.81,1.81,0,0,1-.26-1,2,2,0,0,1,.51-1.45,1.8,1.8,0,0,1,1.34-.51,1.83,1.83,0,0,1,1.34.51A1.94,1.94,0,0,1,38.46,222.43Zm-.84,3.31a1.51,1.51,0,0,0-.29-1,.89.89,0,0,0-.73-.37.88.88,0,0,0-.73.37,1.53,1.53,0,0,0-.28,1,1.49,1.49,0,0,0,.28,1,1,1,0,0,0,1.47,0A1.46,1.46,0,0,0,37.62,225.73Zm-.16-3.29a1.51,1.51,0,0,0-.24-.88.75.75,0,0,0-1.25,0,1.53,1.53,0,0,0-.23.89,1.49,1.49,0,0,0,.23.88.73.73,0,0,0,.63.33.73.73,0,0,0,.62-.33A1.49,1.49,0,0,0,37.47,222.45Z"/><path d="M154.33,221.72l.65-1.65h.49l-.25,1.66v.88h-.89Z"/><path d="M158.86,227.69h-1v-6.13l-1.39.09V221l2.38-.45Z"/><path d="M165.15,227.68h-4V227l2-2.57a6.48,6.48,0,0,0,.66-1.11,2.16,2.16,0,0,0,.19-.85,1.63,1.63,0,0,0-.24-.92.74.74,0,0,0-.65-.36.88.88,0,0,0-.78.39,1.91,1.91,0,0,0-.26,1.07h-1v0a2.24,2.24,0,0,1,.52-1.56,1.85,1.85,0,0,1,1.48-.63,1.78,1.78,0,0,1,1.38.55,2.06,2.06,0,0,1,.5,1.45,2.58,2.58,0,0,1-.31,1.2,8.29,8.29,0,0,1-.9,1.33l-1.34,1.93h2.75Z"/><path d="M185.5,221.72l.65-1.65h.49l-.25,1.66v.88h-.89Z"/><path d="M190,227.69h-1v-6.13l-1.39.09V221l2.38-.45Z"/><path d="M193.49,223.69h.68a.81.81,0,0,0,.72-.33,1.56,1.56,0,0,0,.23-.89,1.54,1.54,0,0,0-.24-.91.8.8,0,0,0-.69-.33.83.83,0,0,0-.68.33,1.35,1.35,0,0,0-.27.87h-.94v0a1.83,1.83,0,0,1,1.88-1.93,1.9,1.9,0,0,1,1.41.53,2,2,0,0,1,.53,1.48,1.79,1.79,0,0,1-.25.91,1.61,1.61,0,0,1-.71.66,1.48,1.48,0,0,1,.8.65,2.07,2.07,0,0,1-3.17,2.57,1.83,1.83,0,0,1-.55-1.46v0h.95a1.43,1.43,0,0,0,.28.91.89.89,0,0,0,.73.35.91.91,0,0,0,.75-.34,1.91,1.91,0,0,0,0-1.94,1,1,0,0,0-.78-.31h-.68Z"/><path d="M217.34,221.72l.65-1.65h.49l-.25,1.66v.88h-.89Z"/><path d="M221.86,227.69h-1v-6.13l-1.39.09V221l2.38-.45Z"/><path d="M227.54,225.26h.76V226h-.76v1.67h-1V226H224l0-.55,2.58-4.88h1Zm-2.62,0h1.64V222h0l-.1.21Z"/><path d="M248.33,221.72l.65-1.65h.49l-.25,1.66v.88h-.89Z"/><path d="M252.86,227.69h-1v-6.13l-1.39.09V221l2.38-.45Z"/><path d="M255.35,224.49l.34-3.92h3.19v.82h-2.36l-.19,2.11a1.56,1.56,0,0,1,.42-.31,1.3,1.3,0,0,1,.55-.13,1.54,1.54,0,0,1,1.32.62,2.8,2.8,0,0,1,.48,1.73,2.76,2.76,0,0,1-.5,1.72,1.73,1.73,0,0,1-1.46.66,1.91,1.91,0,0,1-1.35-.51,1.84,1.84,0,0,1-.53-1.46v0l.93,0a1.48,1.48,0,0,0,.26.93.82.82,0,0,0,.68.33.79.79,0,0,0,.73-.43,2.39,2.39,0,0,0,.24-1.18,2.24,2.24,0,0,0-.25-1.15.8.8,0,0,0-.73-.43.92.92,0,0,0-.63.18,1,1,0,0,0-.29.54Z"/><path d="M280.15,221.72l.65-1.65h.49l-.25,1.66v.88h-.89Z"/><path d="M284.68,227.69h-1v-6.13l-1.39.09V221l2.38-.45Z"/><path d="M289.32,220.47a2.28,2.28,0,0,1,.62.08,2.25,2.25,0,0,1,.54.22l-.19.73a2,2,0,0,0-.44-.2,1.78,1.78,0,0,0-.52-.07,1.11,1.11,0,0,0-1,.57,2.81,2.81,0,0,0-.37,1.54v.2a1.73,1.73,0,0,1,.58-.43,1.71,1.71,0,0,1,.73-.15,1.47,1.47,0,0,1,1.27.66,2.9,2.9,0,0,1,.47,1.7,2.79,2.79,0,0,1-.54,1.76,1.7,1.7,0,0,1-1.41.69,1.82,1.82,0,0,1-1.5-.75A3.29,3.29,0,0,1,287,225v-1.54a3.28,3.28,0,0,1,.66-2.13A2,2,0,0,1,289.32,220.47Zm-.27,3.22a1.13,1.13,0,0,0-.65.18,1.15,1.15,0,0,0-.41.49V225a3,3,0,0,0,.31,1.49.91.91,0,0,0,.79.53.78.78,0,0,0,.7-.5,2.59,2.59,0,0,0,.26-1.21,2.34,2.34,0,0,0-.27-1.18A.81.81,0,0,0,289.05,223.69Z"/><path d="M116.48,5.55h-2.64V8.1h3.06v.75h-4V1.74h4v.75h-3v2.3h2.64Z"/><path d="M119.08,1.74l1.66,5.8h0l1.67-5.8h1.28V8.85h-1V6.12l.09-2.73h0l-1.71,5.47h-.65l-1.7-5.46h0l.09,2.73V8.85h-1V1.74Z"/><path d="M128.7,5.55h-2.64V8.1h3.06v.75h-4V1.74h4v.75h-3v2.3h2.64Z"/><path d="M133.27,7.05H131l-.52,1.8h-1l2.19-7.11h1l2.17,7.11h-1Zm-2-.79H133l-.89-3.11h0Z"/><rect class="cls-6" x="102.13" y="2.41" width="7" height="7"/><path d="M166.13,7.05h-2.27l-.52,1.8h-1l2.19-7.11h1l2.17,7.11h-1Zm-2-.79h1.81L165,3.16h0Z"/><path d="M170.79,7.53a.72.72,0,0,0-.2-.52,2.58,2.58,0,0,0-.76-.47,3.93,3.93,0,0,1-1.21-.68,1.2,1.2,0,0,1-.39-.93,1.34,1.34,0,0,1,.48-1A1.83,1.83,0,0,1,170,3.47a1.8,1.8,0,0,1,1.3.46,1.46,1.46,0,0,1,.46,1.15v0h-1a1,1,0,0,0-.21-.65.71.71,0,0,0-.59-.27.78.78,0,0,0-.58.21.68.68,0,0,0-.21.49.64.64,0,0,0,.18.48,3.23,3.23,0,0,0,.77.46,3.55,3.55,0,0,1,1.23.68,1.27,1.27,0,0,1,.4,1,1.31,1.31,0,0,1-.5,1.06A2,2,0,0,1,170,9a1.87,1.87,0,0,1-1.38-.5,1.49,1.49,0,0,1-.48-1.16v0H169a1,1,0,0,0,.28.74,1,1,0,0,0,.65.23.87.87,0,0,0,.6-.2A.66.66,0,0,0,170.79,7.53Z"/><path d="M173.73,2.18h-1V1.23h1Zm0,6.67h-1V3.57h1Z"/><path d="M177.62,8.85c0-.12-.07-.24-.09-.35a2.63,2.63,0,0,1,0-.35,1.88,1.88,0,0,1-.55.58,1.29,1.29,0,0,1-.74.22,1.33,1.33,0,0,1-1-.42,1.63,1.63,0,0,1-.38-1.13,1.47,1.47,0,0,1,.52-1.19,2.19,2.19,0,0,1,1.45-.43h.74V5.24a1.17,1.17,0,0,0-.21-.75.81.81,0,0,0-1.18,0,.88.88,0,0,0-.22.61h-.94V5a1.37,1.37,0,0,1,.49-1.09,1.86,1.86,0,0,1,1.32-.48,1.76,1.76,0,0,1,1.27.46,1.73,1.73,0,0,1,.49,1.32V7.7a4.49,4.49,0,0,0,0,.59,3.28,3.28,0,0,0,.12.56Zm-1.2-.65a1.06,1.06,0,0,0,.63-.21,1.22,1.22,0,0,0,.42-.52V6.39h-.75a.88.88,0,0,0-.71.29,1.06,1.06,0,0,0-.25.71.92.92,0,0,0,.17.58A.58.58,0,0,0,176.43,8.2Z"/><path d="M180.71,6V8.85h-1V1.74h2.33a2.06,2.06,0,0,1,1.56.59,2.16,2.16,0,0,1,.57,1.56,2.15,2.15,0,0,1-.57,1.56,2.06,2.06,0,0,1-1.56.59Zm0-.75h1.34a1,1,0,0,0,.85-.39,1.64,1.64,0,0,0,.29-1,1.69,1.69,0,0,0-.29-1,1,1,0,0,0-.85-.4h-1.34Z"/><path d="M187.76,8.85c0-.12-.07-.24-.09-.35a2.63,2.63,0,0,1,0-.35,1.88,1.88,0,0,1-.55.58,1.29,1.29,0,0,1-.74.22,1.33,1.33,0,0,1-1-.42,1.63,1.63,0,0,1-.38-1.13,1.47,1.47,0,0,1,.52-1.19,2.19,2.19,0,0,1,1.45-.43h.74V5.24a1.17,1.17,0,0,0-.21-.75.81.81,0,0,0-1.18,0,.88.88,0,0,0-.22.61h-.94V5a1.37,1.37,0,0,1,.49-1.09,1.86,1.86,0,0,1,1.32-.48,1.76,1.76,0,0,1,1.27.46,1.73,1.73,0,0,1,.49,1.32V7.7a4.49,4.49,0,0,0,0,.59,3.28,3.28,0,0,0,.12.56Zm-1.2-.65A1.06,1.06,0,0,0,187.2,8a1.22,1.22,0,0,0,.42-.52V6.39h-.75a.88.88,0,0,0-.71.29,1.06,1.06,0,0,0-.25.71.92.92,0,0,0,.17.58A.58.58,0,0,0,186.56,8.2Z"/><path d="M191.57,8.2a.8.8,0,0,0,.63-.29,1.11,1.11,0,0,0,.25-.76h.89v0a1.63,1.63,0,0,1-.51,1.26,1.75,1.75,0,0,1-1.27.51,1.81,1.81,0,0,1-1.51-.67,2.68,2.68,0,0,1-.52-1.7V5.85a2.7,2.7,0,0,1,.52-1.71,1.8,1.8,0,0,1,1.51-.67,1.7,1.7,0,0,1,1.3.53,1.9,1.9,0,0,1,.49,1.38v0h-.89a1.43,1.43,0,0,0-.24-.86.75.75,0,0,0-.64-.33.83.83,0,0,0-.8.46,2.55,2.55,0,0,0-.24,1.17v.73a2.54,2.54,0,0,0,.24,1.17A.84.84,0,0,0,191.57,8.2Z"/><rect class="cls-7" x="153.46" y="2.41" width="7" height="7"/><path d="M225.09,7.05h-2.27l-.52,1.8h-1l2.19-7.11h1l2.17,7.11h-1Zm-2-.79h1.81L224,3.16h0Z"/><path d="M228.19,3.57l.05.72a1.63,1.63,0,0,1,.55-.6,1.41,1.41,0,0,1,.78-.21,1.18,1.18,0,0,1,.75.24,1.48,1.48,0,0,1,.47.73,1.8,1.8,0,0,1,.55-.72,1.3,1.3,0,0,1,.81-.26,1.23,1.23,0,0,1,1.06.55,3,3,0,0,1,.39,1.69V8.85h-1V5.71a2.32,2.32,0,0,0-.2-1.14.65.65,0,0,0-.59-.33.72.72,0,0,0-.56.26,1.55,1.55,0,0,0-.33.68s0,0,0,.12,0,.19,0,.24V8.85h-1V5.71a2.29,2.29,0,0,0-.21-1.13.66.66,0,0,0-.6-.34.83.83,0,0,0-.53.17,1.12,1.12,0,0,0-.34.48v4h-1V3.57Z"/><path d="M236.64,9a1.9,1.9,0,0,1-1.51-.65,2.47,2.47,0,0,1-.57-1.67V5.85a2.6,2.6,0,0,1,.55-1.71,1.74,1.74,0,0,1,1.41-.67,1.66,1.66,0,0,1,1.38.61,2.59,2.59,0,0,1,.48,1.65v.68h-2.84v.21a2,2,0,0,0,.3,1.13,1,1,0,0,0,.85.45,1.73,1.73,0,0,0,.7-.13,2,2,0,0,0,.56-.38l.31.62a1.84,1.84,0,0,1-.67.46A2.43,2.43,0,0,1,236.64,9Zm-.11-4.73a.78.78,0,0,0-.69.42,2.19,2.19,0,0,0-.29,1.06h1.86V5.5a1.72,1.72,0,0,0-.22-.92A.73.73,0,0,0,236.53,4.22Z"/><path d="M241.55,4.4l-.46,0a.73.73,0,0,0-.51.19,1.17,1.17,0,0,0-.31.52V8.85h-1V3.57h.9l.07.8a1.68,1.68,0,0,1,.43-.66.91.91,0,0,1,.62-.24l.2,0,.16,0Z"/><path d="M243.42,2.18h-1V1.23h1Zm0,6.67h-1V3.57h1Z"/><path d="M246.46,8.2a.8.8,0,0,0,.63-.29,1.11,1.11,0,0,0,.25-.76h.89v0a1.63,1.63,0,0,1-.51,1.26,1.75,1.75,0,0,1-1.27.51,1.81,1.81,0,0,1-1.51-.67,2.68,2.68,0,0,1-.52-1.7V5.85a2.7,2.7,0,0,1,.52-1.71,1.8,1.8,0,0,1,1.51-.67,1.7,1.7,0,0,1,1.3.53,1.9,1.9,0,0,1,.49,1.38v0h-.89a1.43,1.43,0,0,0-.24-.86.75.75,0,0,0-.64-.33.83.83,0,0,0-.8.46,2.55,2.55,0,0,0-.24,1.17v.73a2.54,2.54,0,0,0,.24,1.17A.84.84,0,0,0,246.46,8.2Z"/><path d="M251.81,8.85c0-.12-.07-.24-.09-.35a2.63,2.63,0,0,1,0-.35,1.88,1.88,0,0,1-.55.58,1.29,1.29,0,0,1-.74.22,1.33,1.33,0,0,1-1-.42A1.63,1.63,0,0,1,249,7.4a1.47,1.47,0,0,1,.52-1.19,2.19,2.19,0,0,1,1.45-.43h.74V5.24a1.17,1.17,0,0,0-.21-.75.81.81,0,0,0-1.18,0,.88.88,0,0,0-.22.61h-.94V5a1.37,1.37,0,0,1,.49-1.09,1.86,1.86,0,0,1,1.32-.48,1.76,1.76,0,0,1,1.27.46,1.73,1.73,0,0,1,.49,1.32V7.7a4.49,4.49,0,0,0,0,.59,3.28,3.28,0,0,0,.12.56Zm-1.2-.65a1.06,1.06,0,0,0,.63-.21,1.22,1.22,0,0,0,.42-.52V6.39h-.75a.88.88,0,0,0-.71.29,1.06,1.06,0,0,0-.25.71.92.92,0,0,0,.17.58A.58.58,0,0,0,250.61,8.2Z"/><path d="M256.24,7.53A.72.72,0,0,0,256,7a2.58,2.58,0,0,0-.76-.47,3.93,3.93,0,0,1-1.21-.68,1.2,1.2,0,0,1-.39-.93,1.34,1.34,0,0,1,.48-1,1.83,1.83,0,0,1,1.26-.43,1.8,1.8,0,0,1,1.3.46,1.46,1.46,0,0,1,.46,1.15v0h-1a1,1,0,0,0-.21-.65.71.71,0,0,0-.59-.27.78.78,0,0,0-.58.21.68.68,0,0,0-.21.49.64.64,0,0,0,.18.48,3.23,3.23,0,0,0,.77.46,3.55,3.55,0,0,1,1.23.68,1.27,1.27,0,0,1,.4,1,1.31,1.31,0,0,1-.5,1.06,2,2,0,0,1-1.31.41,1.87,1.87,0,0,1-1.38-.5,1.49,1.49,0,0,1-.48-1.16v0h.92a1,1,0,0,0,.28.74,1,1,0,0,0,.65.23A.87.87,0,0,0,256,8,.66.66,0,0,0,256.24,7.53Z"/><rect class="cls-8" x="212.41" y="2.41" width="7" height="7"/></g></g></svg>