<svg xmlns="http://www.w3.org/2000/svg" viewBox="0 0 311 230"><defs><style>.cls-1{opacity:0;}.cls-2,.cls-7{fill:#0065a4;}.cls-3,.cls-5,.cls-6{fill:#00aeef;}.cls-4,.cls-8{fill:#bfe1eb;}.cls-5{stroke:#c2bec0;}.cls-5,.cls-6,.cls-7,.cls-8{stroke-miterlimit:10;}.cls-6,.cls-7,.cls-8{stroke:#fff;stroke-width:0.75px;}</style></defs><title>chartAsiaPac</title><g id="Layer_2" data-name="Layer 2"><g id="Layer_4" data-name="Layer 4"><rect class="cls-1" width="311" height="230"/><path d="M104,9.34h-1V2.23h1Z"/><path d="M106.2,4.05l.05.78a1.77,1.77,0,0,1,.56-.65,1.31,1.31,0,0,1,.76-.23,1.27,1.27,0,0,1,1.08.51A2.66,2.66,0,0,1,109,6.06V9.34h-1V6.07a1.91,1.91,0,0,0-.21-1,.72.72,0,0,0-.63-.3.83.83,0,0,0-.54.19,1.36,1.36,0,0,0-.38.51V9.34h-1V4.05Z"/><path d="M110,6.76a4,4,0,0,1,.46-2A1.42,1.42,0,0,1,111.72,4a1.31,1.31,0,0,1,.66.17,1.5,1.5,0,0,1,.5.48V1.72h1V9.34H113l-.07-.61a1.5,1.5,0,0,1-.51.53,1.35,1.35,0,0,1-.7.18,1.44,1.44,0,0,1-1.28-.7A3.4,3.4,0,0,1,110,6.86Zm1,.1a3,3,0,0,0,.24,1.32.79.79,0,0,0,.76.49.87.87,0,0,0,.55-.18,1.27,1.27,0,0,0,.37-.49V5.43a1.38,1.38,0,0,0-.37-.52.82.82,0,0,0-.54-.19.8.8,0,0,0-.76.56A3.72,3.72,0,0,0,111,6.76Z"/><path d="M116.08,2.67h-1V1.72h1Zm0,6.67h-1V4.05h1Z"/><path d="M118.81,7.75l.08.41h0l.08-.41.9-3.7h1l-1.58,5.28h-.87l-1.59-5.28h1Z"/><path d="M122.69,2.67h-1V1.72h1Zm0,6.67h-1V4.05h1Z"/><path d="M123.7,6.76a4,4,0,0,1,.46-2A1.42,1.42,0,0,1,125.45,4a1.31,1.31,0,0,1,.66.17,1.5,1.5,0,0,1,.5.48V1.72h1V9.34h-.86l-.07-.61a1.5,1.5,0,0,1-.51.53,1.35,1.35,0,0,1-.7.18,1.44,1.44,0,0,1-1.28-.7,3.4,3.4,0,0,1-.46-1.87Zm1,.1a3,3,0,0,0,.24,1.32.79.79,0,0,0,.76.49.87.87,0,0,0,.55-.18,1.27,1.27,0,0,0,.37-.49V5.43a1.38,1.38,0,0,0-.37-.52.82.82,0,0,0-.54-.19.8.8,0,0,0-.76.56,3.72,3.72,0,0,0-.24,1.47Z"/><path d="M131.54,8.63a1.59,1.59,0,0,1-.54.6,1.36,1.36,0,0,1-.75.21,1.3,1.3,0,0,1-1.12-.55,2.94,2.94,0,0,1-.4-1.71V4.05h1V7.18a2.48,2.48,0,0,0,.19,1.15.62.62,0,0,0,.58.34,1.05,1.05,0,0,0,.61-.17,1.18,1.18,0,0,0,.39-.49v-4h1V9.34h-.88Z"/><path d="M136.3,9.34c0-.12-.07-.24-.09-.35a2.63,2.63,0,0,1,0-.35,1.88,1.88,0,0,1-.55.58,1.29,1.29,0,0,1-.74.22,1.33,1.33,0,0,1-1-.42,1.63,1.63,0,0,1-.38-1.13A1.47,1.47,0,0,1,134,6.7a2.19,2.19,0,0,1,1.45-.43h.74V5.73a1.17,1.17,0,0,0-.21-.75.81.81,0,0,0-1.18,0,.88.88,0,0,0-.22.61h-.94v0a1.37,1.37,0,0,1,.49-1.09A1.86,1.86,0,0,1,135.39,4a1.76,1.76,0,0,1,1.27.46,1.73,1.73,0,0,1,.49,1.32V8.18a4.49,4.49,0,0,0,0,.59,3.28,3.28,0,0,0,.12.56Zm-1.2-.65a1.06,1.06,0,0,0,.63-.21,1.22,1.22,0,0,0,.42-.52V6.88h-.75a.88.88,0,0,0-.71.29,1.06,1.06,0,0,0-.25.71.92.92,0,0,0,.17.58A.58.58,0,0,0,135.1,8.69Z"/><path d="M139.32,9.34h-1V1.72h1Z"/><rect class="cls-2" x="92.46" y="2.89" width="7" height="7"/><path d="M165.6,6.52V9.34h-1V2.23h2.33a2.06,2.06,0,0,1,1.56.59,2.16,2.16,0,0,1,.57,1.56,2.15,2.15,0,0,1-.57,1.56,2.06,2.06,0,0,1-1.56.59Zm0-.75h1.34a1,1,0,0,0,.85-.39,1.64,1.64,0,0,0,.29-1,1.69,1.69,0,0,0-.29-1,1,1,0,0,0-.85-.4H165.6Z"/><path d="M169.76,6.36a2.67,2.67,0,0,1,.55-1.73,2,2,0,0,1,3,0,2.65,2.65,0,0,1,.55,1.73V7a2.65,2.65,0,0,1-.55,1.73,2,2,0,0,1-3,0A2.65,2.65,0,0,1,169.76,7Zm1,.67A2.39,2.39,0,0,0,171,8.22a.92.92,0,0,0,1.6,0A2.37,2.37,0,0,0,172.88,7V6.36a2.36,2.36,0,0,0-.27-1.18.92.92,0,0,0-1.6,0,2.38,2.38,0,0,0-.26,1.18Z"/><path d="M177.09,4.89l-.46,0a.73.73,0,0,0-.51.19,1.17,1.17,0,0,0-.31.52V9.34h-1V4.05h.9l.07.8a1.68,1.68,0,0,1,.43-.66.91.91,0,0,1,.62-.24l.2,0,.16,0Z"/><path d="M179.32,2.74V4.05h.83v.71h-.83V7.91a1.05,1.05,0,0,0,.12.58.37.37,0,0,0,.32.17H180l.24,0,.1.68a2,2,0,0,1-.37.11,2.15,2.15,0,0,1-.43,0,1.08,1.08,0,0,1-.87-.37,1.8,1.8,0,0,1-.31-1.16V4.76h-.69V4.05h.69V2.74Z"/><path d="M181.47,9.34V4.76h-.68V4.05h.68V3.37a1.9,1.9,0,0,1,.4-1.3A1.42,1.42,0,0,1,183,1.62l.29,0,.33.08-.1.73-.19,0h-.22a.56.56,0,0,0-.5.25,1.32,1.32,0,0,0-.17.73v.68h.92v.71h-.92V9.34Z"/><path d="M184,6.36a2.67,2.67,0,0,1,.55-1.73,2,2,0,0,1,3,0,2.65,2.65,0,0,1,.55,1.73V7a2.65,2.65,0,0,1-.55,1.73,2,2,0,0,1-3,0A2.65,2.65,0,0,1,184,7ZM185,7a2.39,2.39,0,0,0,.26,1.19.92.92,0,0,0,1.6,0A2.37,2.37,0,0,0,187.09,7V6.36a2.36,2.36,0,0,0-.27-1.18.92.92,0,0,0-1.6,0A2.38,2.38,0,0,0,185,6.36Z"/><path d="M190.08,9.34h-1V1.72h1Z"/><path d="M192.34,2.67h-1V1.72h1Zm0,6.67h-1V4.05h1Z"/><path d="M193.34,6.36a2.67,2.67,0,0,1,.55-1.73,2,2,0,0,1,3,0,2.65,2.65,0,0,1,.55,1.73V7a2.65,2.65,0,0,1-.55,1.73,2,2,0,0,1-3,0A2.65,2.65,0,0,1,193.34,7Zm1,.67a2.39,2.39,0,0,0,.26,1.19.92.92,0,0,0,1.6,0A2.37,2.37,0,0,0,196.46,7V6.36a2.36,2.36,0,0,0-.27-1.18.92.92,0,0,0-1.6,0,2.38,2.38,0,0,0-.26,1.18Z"/><rect class="cls-3" x="155.17" y="2.89" width="7" height="7"/><path d="M227.2,6h-2.64V8.58h3.06v.75h-4V2.23h4V3h-3v2.3h2.64Z"/><path d="M229.32,4.05l.05.78a1.77,1.77,0,0,1,.56-.65,1.31,1.31,0,0,1,.76-.23,1.27,1.27,0,0,1,1.08.51,2.66,2.66,0,0,1,.39,1.59V9.34h-1V6.07A1.91,1.91,0,0,0,231,5a.72.72,0,0,0-.63-.3.83.83,0,0,0-.54.19,1.36,1.36,0,0,0-.38.51V9.34h-1V4.05Z"/><path d="M234.54,2.74V4.05h.83v.71h-.83V7.91a1.05,1.05,0,0,0,.12.58.37.37,0,0,0,.32.17h.22l.24,0,.1.68a2,2,0,0,1-.37.11,2.15,2.15,0,0,1-.43,0,1.08,1.08,0,0,1-.87-.37,1.8,1.8,0,0,1-.31-1.16V4.76h-.69V4.05h.69V2.74Z"/><path d="M237.4,2.67h-1V1.72h1Zm0,6.67h-1V4.05h1Z"/><path d="M239.86,2.74V4.05h.83v.71h-.83V7.91a1.05,1.05,0,0,0,.12.58.37.37,0,0,0,.32.17h.22l.24,0,.1.68a2,2,0,0,1-.37.11,2.15,2.15,0,0,1-.43,0,1.08,1.08,0,0,1-.87-.37,1.8,1.8,0,0,1-.31-1.16V4.76h-.69V4.05h.69V2.74Z"/><path d="M243.15,7.51l.07.35h0l1-3.81h1.08l-1.85,6.1a2.9,2.9,0,0,1-.5.93,1.12,1.12,0,0,1-.91.38l-.26,0-.28-.06.11-.73.15,0h.15a.52.52,0,0,0,.46-.25,1.91,1.91,0,0,0,.26-.58l.18-.54-1.63-5.26h1.07Z"/><rect class="cls-4" x="214.13" y="2.89" width="7" height="7"/><line class="cls-5" x1="305" y1="33" x2="36" y2="33"/><line class="cls-5" x1="305" y1="13" x2="36" y2="13"/><line class="cls-5" x1="305" y1="52" x2="36" y2="52"/><line class="cls-5" x1="305" y1="71" x2="36" y2="71"/><line class="cls-5" x1="305" y1="91" x2="36" y2="91"/><line class="cls-5" x1="305" y1="209" x2="36" y2="209"/><line class="cls-5" x1="305" y1="111" x2="36" y2="111"/><line class="cls-5" x1="305" y1="131" x2="36" y2="131"/><line class="cls-5" x1="305" y1="150" x2="36" y2="150"/><line class="cls-5" x1="305" y1="169" x2="36" y2="169"/><line class="cls-5" x1="305" y1="188" x2="36" y2="188"/><rect class="cls-6" x="37.52" y="82.6" width="5" height="27.6"/><rect class="cls-7" x="37.52" y="110.19" width="5" height="98.43"/><rect class="cls-6" x="45.46" y="117.47" width="5" height="11.55"/><rect class="cls-7" x="45.46" y="129.02" width="5" height="79.6"/><rect class="cls-6" x="53.4" y="138.79" width="5" height="10.77"/><rect class="cls-7" x="53.4" y="149.56" width="5" height="59.06"/><rect class="cls-6" x="61.34" y="164.8" width="5" height="6.34"/><rect class="cls-7" x="61.34" y="171.14" width="5" height="37.48"/><rect class="cls-7" x="77.21" y="158.04" width="5" height="50.58"/><rect class="cls-7" x="85.15" y="142.91" width="5" height="65.71"/><rect class="cls-6" x="85.15" y="137.91" width="5" height="5"/><rect class="cls-7" x="93.09" y="135.93" width="5" height="72.69"/><rect class="cls-6" x="93.09" y="128.42" width="5" height="7.51"/><rect class="cls-7" x="180.43" y="121.31" width="5" height="87.31"/><rect class="cls-6" x="180.43" y="106.77" width="5" height="14.63"/><rect class="cls-7" x="188.37" y="114.57" width="5" height="94.05"/><rect class="cls-8" x="188.37" y="86.3" width="5" height="3.23"/><rect class="cls-6" x="188.37" y="89.53" width="5" height="25.04"/><rect class="cls-7" x="212.18" y="107.56" width="5" height="101.06"/><rect class="cls-8" x="212.18" y="77.11" width="5" height="3.89"/><rect class="cls-6" x="212.18" y="81" width="5" height="26.56"/><rect class="cls-7" x="228.06" y="104.2" width="5" height="104.42"/><rect class="cls-6" x="228.06" y="88.34" width="5" height="15.87"/><rect class="cls-7" x="267.76" y="108.55" width="5" height="100.07"/><rect class="cls-8" x="267.76" y="57.38" width="5" height="26.15"/><rect class="cls-6" x="267.76" y="83.51" width="5" height="25.04"/><rect class="cls-7" x="259.82" y="104.93" width="5" height="103.69"/><rect class="cls-6" x="259.82" y="81.55" width="5" height="23.37"/><rect class="cls-7" x="275.7" y="115.41" width="5" height="93.21"/><rect class="cls-6" x="275.7" y="90.98" width="5" height="24.43"/><rect class="cls-7" x="291.58" y="129.09" width="5" height="79.53"/><rect class="cls-8" x="291.58" y="117.37" width="5" height="3.71"/><rect class="cls-6" x="291.58" y="121.39" width="5" height="7.7"/><rect class="cls-7" x="299.52" y="141.02" width="5" height="67.6"/><rect class="cls-6" x="299.52" y="131.19" width="5" height="9.84"/><rect class="cls-7" x="283.64" y="93.86" width="5" height="114.75"/><rect class="cls-8" x="283.64" y="21.27" width="5" height="44.41"/><rect class="cls-6" x="283.64" y="65.56" width="5" height="28.2"/><rect class="cls-7" x="243.94" y="94.65" width="5" height="113.97"/><rect class="cls-8" x="243.94" y="67.75" width="5" height="1.47"/><rect class="cls-6" x="243.94" y="69.22" width="5" height="25.7"/><rect class="cls-7" x="251.88" y="64.81" width="5" height="143.81"/><rect class="cls-8" x="251.88" y="23.41" width="5" height="14.72"/><rect class="cls-6" x="251.88" y="38.13" width="5" height="26.67"/><rect class="cls-7" x="236" y="110.24" width="5" height="98.38"/><rect class="cls-8" x="236" y="65.22" width="5" height="15.79"/><rect class="cls-6" x="236" y="81" width="5" height="29.14"/><rect class="cls-7" x="196.3" y="101.56" width="5" height="107.06"/><rect class="cls-6" x="196.3" y="82.32" width="5" height="19.24"/><rect class="cls-8" x="220.12" y="49.9" width="5" height="2.64"/><rect class="cls-6" x="220.12" y="52.54" width="5" height="23.36"/><rect class="cls-7" x="220.12" y="75.9" width="5" height="132.72"/><rect class="cls-7" x="204.24" y="108.55" width="5" height="100.07"/><rect class="cls-6" x="204.24" y="70.23" width="5" height="38.32"/><rect class="cls-7" x="101.03" y="134.21" width="5" height="74.41"/><rect class="cls-6" x="101.03" y="120.58" width="5" height="13.63"/><rect class="cls-8" x="101.03" y="94.3" width="5" height="26.28"/><rect class="cls-7" x="108.97" y="153.73" width="5" height="54.89"/><rect class="cls-6" x="108.97" y="144.18" width="5" height="9.55"/><rect class="cls-8" x="108.97" y="139.18" width="5" height="5"/><rect class="cls-7" x="116.91" y="128.42" width="5" height="80.2"/><rect class="cls-6" x="116.91" y="106.68" width="5" height="21.74"/><rect class="cls-8" x="116.91" y="101.68" width="5" height="5"/><rect class="cls-7" x="132.79" y="112.7" width="5" height="95.92"/><rect class="cls-6" x="132.79" y="96.32" width="5" height="16.38"/><rect class="cls-8" x="132.79" y="91.32" width="5" height="5"/><rect class="cls-7" x="140.73" y="123.02" width="5" height="85.6"/><rect class="cls-6" x="140.73" y="104.18" width="5" height="18.88"/><rect class="cls-8" x="140.73" y="98.55" width="5" height="5.62"/><rect class="cls-7" x="164.55" y="115.38" width="5" height="93.24"/><rect class="cls-6" x="164.55" y="98.16" width="5" height="17.22"/><rect class="cls-8" x="164.55" y="94.3" width="5" height="3.86"/><rect class="cls-7" x="172.49" y="125.6" width="5" height="83.02"/><rect class="cls-6" x="172.49" y="91.32" width="5" height="34.45"/><rect class="cls-8" x="172.49" y="78.72" width="5" height="12.61"/><rect class="cls-7" x="148.67" y="114.57" width="5" height="94.05"/><rect class="cls-6" x="148.67" y="104.9" width="5" height="9.67"/><rect class="cls-8" x="148.67" y="95.94" width="5" height="8.96"/><rect class="cls-7" x="156.61" y="106.68" width="5" height="101.94"/><rect class="cls-6" x="156.61" y="95.17" width="5" height="11.5"/><rect class="cls-8" x="156.61" y="93.82" width="5" height="1.35"/><rect class="cls-7" x="124.85" y="118.32" width="5" height="90.3"/><rect class="cls-6" x="124.85" y="76.8" width="5" height="41.52"/><rect class="cls-8" x="124.85" y="55.78" width="5" height="21.01"/><rect class="cls-6" x="69.28" y="160.35" width="5" height="7.47"/><rect class="cls-7" x="69.28" y="167.82" width="5" height="40.8"/><line class="cls-5" x1="35.5" y1="13.5" x2="35.5" y2="211.5"/><path d="M18.68,12.31,19,8.39h3.19v.82H19.85l-.19,2.11a1.55,1.55,0,0,1,.42-.31,1.3,1.3,0,0,1,.55-.13A1.54,1.54,0,0,1,22,11.5a2.8,2.8,0,0,1,.48,1.73,2.76,2.76,0,0,1-.5,1.72,1.73,1.73,0,0,1-1.46.66,1.91,1.91,0,0,1-1.35-.51,1.84,1.84,0,0,1-.53-1.46v0l.93,0a1.48,1.48,0,0,0,.26.93.82.82,0,0,0,.68.33.79.79,0,0,0,.73-.43,2.4,2.4,0,0,0,.24-1.18,2.25,2.25,0,0,0-.25-1.15.8.8,0,0,0-.73-.43.93.93,0,0,0-.63.18,1,1,0,0,0-.29.54Z"/><path d="M27.3,12.75a3.59,3.59,0,0,1-.53,2.12,1.78,1.78,0,0,1-2.89,0,3.56,3.56,0,0,1-.53-2.11V11.14A3.59,3.59,0,0,1,23.88,9a1.77,1.77,0,0,1,2.88,0,3.58,3.58,0,0,1,.53,2.11Zm-1-1.75a3.27,3.27,0,0,0-.26-1.46A.8.8,0,0,0,25.32,9a.79.79,0,0,0-.73.5A3.33,3.33,0,0,0,24.34,11v1.89a3.31,3.31,0,0,0,.26,1.47.79.79,0,0,0,1.46,0,3.33,3.33,0,0,0,.25-1.47Z"/><path d="M38,8.7a1.25,1.25,0,0,0-.23-.77,2.09,2.09,0,0,0-.78-.57,3.44,3.44,0,0,1-1.31-.82,1.88,1.88,0,0,1-.43-1.32,2,2,0,0,1,.42-1.31,1.69,1.69,0,0,1,1.14-.6v-1h.64v1a1.63,1.63,0,0,1,1.11.7,2.63,2.63,0,0,1,.41,1.54h-1a2.12,2.12,0,0,0-.24-1.07A.72.72,0,0,0,37,4.07a.73.73,0,0,0-.64.32,1.42,1.42,0,0,0-.22.82,1.26,1.26,0,0,0,.22.77,2.17,2.17,0,0,0,.8.57,3.54,3.54,0,0,1,1.3.83,1.87,1.87,0,0,1,.43,1.31A1.92,1.92,0,0,1,38.5,10a1.8,1.8,0,0,1-1.18.59v.94h-.63v-.94A1.88,1.88,0,0,1,35.46,10,2.28,2.28,0,0,1,35,8.39h1a1.66,1.66,0,0,0,.3,1.11.94.94,0,0,0,.73.33.87.87,0,0,0,.71-.31A1.25,1.25,0,0,0,38,8.7Z"/><path d="M43.88,8.3A2.8,2.8,0,0,1,43.42,10a1.49,1.49,0,0,1-1.28.63,1.4,1.4,0,0,1-.73-.18,1.48,1.48,0,0,1-.52-.54l-.07.62H40V2.88h1V5.77a1.46,1.46,0,0,1,.5-.49,1.34,1.34,0,0,1,.68-.17,1.47,1.47,0,0,1,1.29.67,3.14,3.14,0,0,1,.45,1.79Zm-1-.72a2.66,2.66,0,0,0-.24-1.23.81.81,0,0,0-.76-.46.84.84,0,0,0-.56.2,1.32,1.32,0,0,0-.36.53V9.16a1.16,1.16,0,0,0,.37.5.92.92,0,0,0,.57.18.81.81,0,0,0,.76-.42,2.27,2.27,0,0,0,.24-1.12Z"/><path d="M21.87,33.76h.76v.75h-.76v1.67h-1V34.51H18.3l0-.55,2.58-4.88h1Zm-2.62,0h1.64V30.51h0l-.1.21Z"/><path d="M23.57,33l.34-3.92H27.1v.82H24.73L24.55,32A1.55,1.55,0,0,1,25,31.7a1.3,1.3,0,0,1,.55-.13,1.54,1.54,0,0,1,1.32.62,2.8,2.8,0,0,1,.48,1.73,2.76,2.76,0,0,1-.5,1.72,1.73,1.73,0,0,1-1.46.66A1.91,1.91,0,0,1,24,35.78a1.84,1.84,0,0,1-.53-1.46v0l.93,0a1.48,1.48,0,0,0,.26.93.82.82,0,0,0,.68.33.79.79,0,0,0,.73-.43,2.4,2.4,0,0,0,.24-1.18,2.25,2.25,0,0,0-.25-1.15.8.8,0,0,0-.73-.43.93.93,0,0,0-.63.18,1,1,0,0,0-.29.54Z"/><path d="M21.87,53.36h.76v.75h-.76v1.67h-1V54.11H18.3l0-.55,2.58-4.88h1Zm-2.62,0h1.64V50.11h0l-.1.21Z"/><path d="M27.3,53a3.59,3.59,0,0,1-.53,2.12,1.78,1.78,0,0,1-2.89,0A3.56,3.56,0,0,1,23.35,53V51.43a3.59,3.59,0,0,1,.53-2.11,1.77,1.77,0,0,1,2.88,0,3.58,3.58,0,0,1,.53,2.11Zm-1-1.75a3.27,3.27,0,0,0-.26-1.46.8.8,0,0,0-.73-.49.79.79,0,0,0-.73.5,3.33,3.33,0,0,0-.25,1.46v1.89a3.31,3.31,0,0,0,.26,1.47.79.79,0,0,0,1.46,0,3.33,3.33,0,0,0,.25-1.47Z"/><path d="M19.66,70.91h.68a.81.81,0,0,0,.72-.33,1.56,1.56,0,0,0,.23-.89,1.54,1.54,0,0,0-.24-.91.8.8,0,0,0-.69-.33.83.83,0,0,0-.68.33,1.36,1.36,0,0,0-.27.87h-.94v0a1.83,1.83,0,0,1,1.88-1.93,1.91,1.91,0,0,1,1.41.53,2,2,0,0,1,.53,1.48,1.79,1.79,0,0,1-.25.91,1.62,1.62,0,0,1-.71.66,1.48,1.48,0,0,1,.8.65,2.07,2.07,0,0,1-3.17,2.57A1.83,1.83,0,0,1,18.39,73v0h.95a1.43,1.43,0,0,0,.28.91.89.89,0,0,0,.73.35.91.91,0,0,0,.75-.34,1.51,1.51,0,0,0,.27-1,1.52,1.52,0,0,0-.26-1,1,1,0,0,0-.78-.31h-.68Z"/><path d="M23.57,71.71l.34-3.92H27.1v.82H24.73l-.19,2.11a1.55,1.55,0,0,1,.42-.31,1.3,1.3,0,0,1,.55-.13,1.54,1.54,0,0,1,1.32.62,2.8,2.8,0,0,1,.48,1.73,2.76,2.76,0,0,1-.5,1.72,1.73,1.73,0,0,1-1.46.66A1.91,1.91,0,0,1,24,74.49,1.84,1.84,0,0,1,23.47,73v0l.93,0a1.48,1.48,0,0,0,.26.93.82.82,0,0,0,.68.33.79.79,0,0,0,.73-.43,2.4,2.4,0,0,0,.24-1.18,2.25,2.25,0,0,0-.25-1.15.8.8,0,0,0-.73-.43.93.93,0,0,0-.63.18,1,1,0,0,0-.29.54Z"/><path d="M19.66,90.31h.68a.81.81,0,0,0,.72-.33,1.56,1.56,0,0,0,.23-.89,1.54,1.54,0,0,0-.24-.91.8.8,0,0,0-.69-.33.83.83,0,0,0-.68.33,1.36,1.36,0,0,0-.27.87h-.94v0a1.83,1.83,0,0,1,1.88-1.93,1.91,1.91,0,0,1,1.41.53,2,2,0,0,1,.53,1.48A1.79,1.79,0,0,1,22,90a1.62,1.62,0,0,1-.71.66,1.48,1.48,0,0,1,.8.65,2.07,2.07,0,0,1-3.17,2.57,1.83,1.83,0,0,1-.55-1.46v0h.95a1.43,1.43,0,0,0,.28.91.89.89,0,0,0,.73.35.91.91,0,0,0,.75-.34,1.51,1.51,0,0,0,.27-1,1.52,1.52,0,0,0-.26-1,1,1,0,0,0-.78-.31h-.68Z"/><path d="M27.3,91.55a3.59,3.59,0,0,1-.53,2.12,1.78,1.78,0,0,1-2.89,0,3.56,3.56,0,0,1-.53-2.11V89.95a3.59,3.59,0,0,1,.53-2.11,1.77,1.77,0,0,1,2.88,0,3.58,3.58,0,0,1,.53,2.11Zm-1-1.75a3.27,3.27,0,0,0-.26-1.46.8.8,0,0,0-.73-.49.79.79,0,0,0-.73.5,3.33,3.33,0,0,0-.25,1.46v1.89a3.31,3.31,0,0,0,.26,1.47.79.79,0,0,0,1.46,0,3.33,3.33,0,0,0,.25-1.47Z"/><path d="M22.48,114.09h-4v-.66l2-2.57a6.44,6.44,0,0,0,.66-1.11,2.15,2.15,0,0,0,.19-.85,1.63,1.63,0,0,0-.24-.92.74.74,0,0,0-.65-.36.88.88,0,0,0-.78.39,1.92,1.92,0,0,0-.26,1.07h-1v0a2.24,2.24,0,0,1,.52-1.56,1.85,1.85,0,0,1,1.48-.63,1.78,1.78,0,0,1,1.37.55,2.06,2.06,0,0,1,.51,1.45,2.58,2.58,0,0,1-.31,1.2,8.28,8.28,0,0,1-.9,1.33l-1.34,1.93h2.75Z"/><path d="M23.57,110.89l.34-3.92H27.1v.82H24.73l-.19,2.11a1.55,1.55,0,0,1,.42-.31,1.3,1.3,0,0,1,.55-.13,1.54,1.54,0,0,1,1.32.62,2.8,2.8,0,0,1,.48,1.73,2.76,2.76,0,0,1-.5,1.72,1.73,1.73,0,0,1-1.46.66,1.91,1.91,0,0,1-1.35-.51,1.84,1.84,0,0,1-.53-1.46v0l.93,0a1.48,1.48,0,0,0,.26.93.82.82,0,0,0,.68.33.79.79,0,0,0,.73-.43,2.4,2.4,0,0,0,.24-1.18,2.25,2.25,0,0,0-.25-1.15.8.8,0,0,0-.73-.43.93.93,0,0,0-.63.18,1,1,0,0,0-.29.54Z"/><path d="M22.48,134.21h-4v-.66l2-2.57a6.44,6.44,0,0,0,.66-1.11,2.15,2.15,0,0,0,.19-.85,1.63,1.63,0,0,0-.24-.92.74.74,0,0,0-.65-.36.88.88,0,0,0-.78.39,1.92,1.92,0,0,0-.26,1.07h-1v0a2.24,2.24,0,0,1,.52-1.56,1.85,1.85,0,0,1,1.48-.63,1.78,1.78,0,0,1,1.37.55,2.06,2.06,0,0,1,.51,1.45,2.58,2.58,0,0,1-.31,1.2,8.28,8.28,0,0,1-.9,1.33l-1.34,1.93h2.75Z"/><path d="M27.3,131.46a3.59,3.59,0,0,1-.53,2.12,1.78,1.78,0,0,1-2.89,0,3.56,3.56,0,0,1-.53-2.11v-1.61a3.59,3.59,0,0,1,.53-2.11,1.77,1.77,0,0,1,2.88,0,3.58,3.58,0,0,1,.53,2.11Zm-1-1.75a3.27,3.27,0,0,0-.26-1.46.8.8,0,0,0-.73-.49.79.79,0,0,0-.73.5,3.33,3.33,0,0,0-.25,1.46v1.89a3.31,3.31,0,0,0,.26,1.47.79.79,0,0,0,1.46,0,3.33,3.33,0,0,0,.25-1.47Z"/><path d="M21.08,153.47h-1v-6.13l-1.39.09v-.64l2.38-.45Z"/><path d="M23.57,150.27l.34-3.92H27.1v.82H24.73l-.19,2.11A1.55,1.55,0,0,1,25,149a1.3,1.3,0,0,1,.55-.13,1.54,1.54,0,0,1,1.32.62,2.8,2.8,0,0,1,.48,1.73,2.76,2.76,0,0,1-.5,1.72,1.73,1.73,0,0,1-1.46.66,1.91,1.91,0,0,1-1.35-.51,1.84,1.84,0,0,1-.53-1.46v0l.93,0a1.48,1.48,0,0,0,.26.93.82.82,0,0,0,.68.33.79.79,0,0,0,.73-.43,2.4,2.4,0,0,0,.24-1.18,2.25,2.25,0,0,0-.25-1.15.8.8,0,0,0-.73-.43.93.93,0,0,0-.63.18,1,1,0,0,0-.29.54Z"/><path d="M21.08,172.29h-1v-6.13l-1.39.09v-.64l2.38-.45Z"/><path d="M27.3,169.53a3.59,3.59,0,0,1-.53,2.12,1.78,1.78,0,0,1-2.89,0,3.56,3.56,0,0,1-.53-2.11v-1.61a3.59,3.59,0,0,1,.53-2.11,1.77,1.77,0,0,1,2.88,0,3.58,3.58,0,0,1,.53,2.11Zm-1-1.75a3.27,3.27,0,0,0-.26-1.46.8.8,0,0,0-.73-.49.79.79,0,0,0-.73.5,3.33,3.33,0,0,0-.25,1.46v1.89a3.31,3.31,0,0,0,.26,1.47.79.79,0,0,0,1.46,0,3.33,3.33,0,0,0,.25-1.47Z"/><path d="M23.68,189.53l.34-3.92h3.19v.82H24.85l-.19,2.11a1.55,1.55,0,0,1,.42-.31,1.3,1.3,0,0,1,.55-.13,1.54,1.54,0,0,1,1.32.62,2.8,2.8,0,0,1,.48,1.73,2.76,2.76,0,0,1-.5,1.72,1.73,1.73,0,0,1-1.46.66,1.91,1.91,0,0,1-1.35-.51,1.84,1.84,0,0,1-.53-1.46v0l.93,0a1.48,1.48,0,0,0,.26.93.82.82,0,0,0,.68.33.79.79,0,0,0,.73-.43,2.4,2.4,0,0,0,.24-1.18,2.25,2.25,0,0,0-.25-1.15.8.8,0,0,0-.73-.43.93.93,0,0,0-.63.18,1,1,0,0,0-.29.54Z"/><path d="M27.42,209.42a3.59,3.59,0,0,1-.53,2.12,1.78,1.78,0,0,1-2.89,0,3.56,3.56,0,0,1-.53-2.11v-1.61A3.59,3.59,0,0,1,24,205.7a1.77,1.77,0,0,1,2.88,0,3.58,3.58,0,0,1,.53,2.11Zm-1-1.75a3.27,3.27,0,0,0-.26-1.46.8.8,0,0,0-.73-.49.79.79,0,0,0-.73.5,3.33,3.33,0,0,0-.25,1.46v1.89a3.31,3.31,0,0,0,.26,1.47.79.79,0,0,0,1.46,0,3.33,3.33,0,0,0,.25-1.47Z"/><path d="M126.3,219.7,127,218h.49l-.25,1.66v.88h-.89Z"/><path d="M130.83,225.68h-1v-6.13l-1.39.09V219l2.38-.45Z"/><path d="M135.71,225.68h-1v-6.13l-1.39.09V219l2.38-.45Z"/><path d="M92.31,219.7,93,218h.49l-.25,1.66v.88h-.89Z"/><path d="M96.83,225.68h-1v-6.13l-1.39.09V219l2.38-.45Z"/><path d="M103.06,222.92a3.59,3.59,0,0,1-.53,2.12,1.78,1.78,0,0,1-2.89,0,3.56,3.56,0,0,1-.53-2.11v-1.61a3.59,3.59,0,0,1,.53-2.11,1.77,1.77,0,0,1,2.88,0,3.58,3.58,0,0,1,.53,2.11Zm-1-1.75a3.27,3.27,0,0,0-.26-1.46.8.8,0,0,0-.73-.49.79.79,0,0,0-.73.5,3.33,3.33,0,0,0-.25,1.46v1.89a3.31,3.31,0,0,0,.26,1.47.79.79,0,0,0,1.46,0,3.33,3.33,0,0,0,.25-1.47Z"/><path d="M61.79,219.7l.65-1.65h.49l-.25,1.66v.88h-.89Z"/><path d="M67.66,222.92a3.59,3.59,0,0,1-.53,2.12,1.78,1.78,0,0,1-2.89,0,3.56,3.56,0,0,1-.53-2.11v-1.61a3.59,3.59,0,0,1,.53-2.11,1.77,1.77,0,0,1,2.88,0,3.58,3.58,0,0,1,.53,2.11Zm-1-1.75a3.27,3.27,0,0,0-.26-1.46.8.8,0,0,0-.73-.49.79.79,0,0,0-.73.5,3.33,3.33,0,0,0-.25,1.46v1.89a3.31,3.31,0,0,0,.26,1.47.79.79,0,0,0,1.46,0,3.33,3.33,0,0,0,.25-1.47Z"/><path d="M70.3,225a1,1,0,0,0,.88-.5,2.61,2.61,0,0,0,.33-1.45v-.35a1.47,1.47,0,0,1-.5.53,1.23,1.23,0,0,1-.65.18,1.6,1.6,0,0,1-1.35-.66,3.33,3.33,0,0,1,.06-3.59,1.69,1.69,0,0,1,1.38-.73,1.8,1.8,0,0,1,1.48.7,3.19,3.19,0,0,1,.56,2V223a3,3,0,0,1-.62,2,2,2,0,0,1-1.59.72,2.87,2.87,0,0,1-.63-.08,2.73,2.73,0,0,1-.62-.22l.13-.72a2,2,0,0,0,.52.2A2.67,2.67,0,0,0,70.3,225Zm.16-2.34a1,1,0,0,0,.65-.22,1.36,1.36,0,0,0,.4-.56v-.83a2.85,2.85,0,0,0-.27-1.39.84.84,0,0,0-.76-.48.8.8,0,0,0-.69.51,2.64,2.64,0,0,0-.28,1.26,2.59,2.59,0,0,0,.25,1.22A.77.77,0,0,0,70.46,222.68Z"/><path d="M31.29,219.7l.65-1.65h.49l-.25,1.66v.88h-.89Z"/><path d="M37.16,222.92a3.59,3.59,0,0,1-.53,2.12,1.78,1.78,0,0,1-2.89,0,3.56,3.56,0,0,1-.53-2.11v-1.61a3.59,3.59,0,0,1,.53-2.11,1.77,1.77,0,0,1,2.88,0,3.58,3.58,0,0,1,.53,2.11Zm-1-1.75a3.27,3.27,0,0,0-.26-1.46.8.8,0,0,0-.73-.49.79.79,0,0,0-.73.5,3.33,3.33,0,0,0-.25,1.46v1.89a3.31,3.31,0,0,0,.26,1.47.79.79,0,0,0,1.46,0,3.33,3.33,0,0,0,.25-1.47Z"/><path d="M41.93,220.41a1.79,1.79,0,0,1-.27,1,1.63,1.63,0,0,1-.73.63,1.85,1.85,0,0,1,.83.68,1.83,1.83,0,0,1,.31,1.05,2,2,0,0,1-.55,1.5,2.28,2.28,0,0,1-2.9,0,2,2,0,0,1-.55-1.5A1.82,1.82,0,0,1,39.21,222a1.6,1.6,0,0,1-.72-.63,1.81,1.81,0,0,1-.26-1,2,2,0,0,1,.51-1.45,1.8,1.8,0,0,1,1.34-.51,1.83,1.83,0,0,1,1.34.51A1.94,1.94,0,0,1,41.93,220.41Zm-.84,3.31a1.51,1.51,0,0,0-.29-1,.89.89,0,0,0-.73-.37.88.88,0,0,0-.73.37,1.53,1.53,0,0,0-.28,1,1.49,1.49,0,0,0,.28,1,1,1,0,0,0,1.47,0A1.46,1.46,0,0,0,41.09,223.72Zm-.16-3.29a1.51,1.51,0,0,0-.24-.88.75.75,0,0,0-1.25,0,1.53,1.53,0,0,0-.23.89,1.49,1.49,0,0,0,.23.88.74.74,0,0,0,.63.33.73.73,0,0,0,.62-.33A1.49,1.49,0,0,0,40.94,220.43Z"/><path d="M157.8,219.7l.65-1.65h.49l-.25,1.66v.88h-.89Z"/><path d="M162.33,225.68h-1v-6.13l-1.39.09V219l2.38-.45Z"/><path d="M168.62,225.67h-4V225l2-2.57a6.44,6.44,0,0,0,.66-1.11,2.15,2.15,0,0,0,.19-.85,1.63,1.63,0,0,0-.24-.92.74.74,0,0,0-.65-.36.88.88,0,0,0-.78.39,1.92,1.92,0,0,0-.26,1.07h-1v0a2.24,2.24,0,0,1,.52-1.56,1.85,1.85,0,0,1,1.48-.63,1.78,1.78,0,0,1,1.37.55,2.06,2.06,0,0,1,.51,1.45,2.58,2.58,0,0,1-.31,1.2,8.28,8.28,0,0,1-.9,1.33l-1.34,1.93h2.75Z"/><path d="M189,219.7l.65-1.65h.49l-.25,1.66v.88H189Z"/><path d="M193.5,225.68h-1v-6.13l-1.39.09V219l2.38-.45Z"/><path d="M197,221.67h.68a.81.81,0,0,0,.72-.33,1.56,1.56,0,0,0,.23-.89,1.54,1.54,0,0,0-.24-.91.8.8,0,0,0-.69-.33.83.83,0,0,0-.68.33,1.36,1.36,0,0,0-.27.87h-.94v0a1.83,1.83,0,0,1,1.88-1.93A1.91,1.91,0,0,1,199,219a2,2,0,0,1,.53,1.48,1.79,1.79,0,0,1-.25.91,1.62,1.62,0,0,1-.71.66,1.48,1.48,0,0,1,.8.65,2.07,2.07,0,0,1-3.17,2.57,1.83,1.83,0,0,1-.55-1.46v0h.95a1.43,1.43,0,0,0,.28.91.89.89,0,0,0,.73.35.91.91,0,0,0,.75-.34,1.51,1.51,0,0,0,.27-1,1.52,1.52,0,0,0-.26-1,1,1,0,0,0-.78-.31H197Z"/><path d="M220.8,219.7l.65-1.65h.49l-.25,1.66v.88h-.89Z"/><path d="M225.33,225.68h-1v-6.13l-1.39.09V219l2.38-.45Z"/><path d="M231,223.24h.76V224H231v1.67h-1V224h-2.58l0-.55,2.58-4.88h1Zm-2.62,0H230V220h0l-.1.21Z"/><path d="M251.8,219.7l.65-1.65h.49l-.25,1.66v.88h-.89Z"/><path d="M256.33,225.68h-1v-6.13l-1.39.09V219l2.38-.45Z"/><path d="M258.82,222.47l.34-3.92h3.19v.82H260l-.19,2.11a1.55,1.55,0,0,1,.42-.31,1.3,1.3,0,0,1,.55-.13,1.54,1.54,0,0,1,1.32.62,2.8,2.8,0,0,1,.48,1.73,2.76,2.76,0,0,1-.5,1.72,1.73,1.73,0,0,1-1.46.66,1.91,1.91,0,0,1-1.35-.51,1.84,1.84,0,0,1-.53-1.46v0l.93,0a1.48,1.48,0,0,0,.26.93.82.82,0,0,0,.68.33.79.79,0,0,0,.73-.43,2.4,2.4,0,0,0,.24-1.18,2.25,2.25,0,0,0-.25-1.15.8.8,0,0,0-.73-.43.93.93,0,0,0-.63.18,1,1,0,0,0-.29.54Z"/><path d="M283.62,219.7l.65-1.65h.49l-.25,1.66v.88h-.89Z"/><path d="M288.14,225.68h-1v-6.13l-1.39.09V219l2.38-.45Z"/><path d="M292.79,218.46a2.34,2.34,0,0,1,1.16.31l-.19.73a2,2,0,0,0-.44-.2,1.8,1.8,0,0,0-.52-.07,1.11,1.11,0,0,0-1,.57,2.81,2.81,0,0,0-.37,1.54v.2a1.7,1.7,0,0,1,1.3-.59,1.47,1.47,0,0,1,1.27.66,2.9,2.9,0,0,1,.47,1.7,2.79,2.79,0,0,1-.54,1.77,1.7,1.7,0,0,1-1.41.69,1.82,1.82,0,0,1-1.5-.75,3.29,3.29,0,0,1-.59-2.08V221.4a3.28,3.28,0,0,1,.66-2.13A2,2,0,0,1,292.79,218.46Zm-.27,3.22a1.11,1.11,0,0,0-1.06.67V223a3,3,0,0,0,.31,1.49.91.91,0,0,0,.79.53.78.78,0,0,0,.7-.49,2.59,2.59,0,0,0,.26-1.21,2.33,2.33,0,0,0-.27-1.18A.81.81,0,0,0,292.52,221.67Z"/></g></g></svg>