<svg xmlns="http://www.w3.org/2000/svg" viewBox="0 0 311 230"><defs><style>.cls-1{opacity:0;}.cls-2,.cls-3,.cls-7{fill:#00aeef;}.cls-2{stroke:#c2bec0;}.cls-2,.cls-3,.cls-4,.cls-5{stroke-miterlimit:10;}.cls-3,.cls-4,.cls-5{stroke:#fff;stroke-width:0.75px;}.cls-4,.cls-6{fill:#0065a4;}.cls-5,.cls-8{fill:#bfe1eb;}</style></defs><title>chartUS</title><g id="Layer_2" data-name="Layer 2"><g id="Layer_4" data-name="Layer 4"><rect class="cls-1" width="311" height="230"/><line class="cls-2" x1="302.34" y1="209" x2="33.34" y2="209"/><rect class="cls-3" x="35.3" y="164.8" width="7.05" height="10.02"/><rect class="cls-4" x="35.3" y="174.82" width="7.05" height="33.8"/><rect class="cls-3" x="59.61" y="146.23" width="7.05" height="12.35"/><rect class="cls-4" x="59.61" y="158.58" width="7.05" height="50.03"/><rect class="cls-3" x="287.93" y="93.59" width="7.05" height="19.81"/><rect class="cls-4" x="287.93" y="113.4" width="7.05" height="95.22"/><rect class="cls-3" x="71.65" y="133.88" width="7.05" height="17.37"/><rect class="cls-4" x="71.65" y="151.24" width="7.05" height="57.38"/><rect class="cls-3" x="47.1" y="151.24" width="7.05" height="11.57"/><rect class="cls-5" x="47.1" y="132.65" width="7.05" height="18.59"/><rect class="cls-4" x="47.1" y="162.81" width="7.05" height="45.81"/><rect class="cls-3" x="83.22" y="155.68" width="7.05" height="19.14"/><rect class="cls-5" x="83.22" y="151.24" width="7.05" height="4.44"/><rect class="cls-4" x="83.22" y="174.82" width="7.05" height="33.8"/><rect class="cls-3" x="95.49" y="142.56" width="7.05" height="14.21"/><rect class="cls-5" x="95.49" y="139.78" width="7.05" height="2.78"/><rect class="cls-4" x="95.49" y="156.77" width="7.05" height="51.85"/><rect class="cls-3" x="131.38" y="129.23" width="7.05" height="33.57"/><rect class="cls-5" x="131.38" y="126.46" width="7.05" height="2.78"/><rect class="cls-4" x="131.38" y="162.81" width="7.05" height="45.81"/><rect class="cls-3" x="155.5" y="116.78" width="7.05" height="24.39"/><rect class="cls-5" x="155.5" y="107.87" width="7.05" height="8.91"/><rect class="cls-4" x="155.5" y="141.17" width="7.05" height="67.45"/><rect class="cls-3" x="191.66" y="109.74" width="7.05" height="18.1"/><rect class="cls-5" x="191.66" y="102.7" width="7.05" height="7.05"/><rect class="cls-4" x="191.66" y="127.84" width="7.05" height="80.77"/><rect class="cls-3" x="227.82" y="83.1" width="7.05" height="32.39"/><rect class="cls-5" x="227.82" y="58.06" width="7.05" height="25.04"/><rect class="cls-4" x="227.82" y="115.49" width="7.05" height="93.13"/><rect class="cls-3" x="239.59" y="83.1" width="7.05" height="28.85"/><rect class="cls-5" x="239.59" y="76.05" width="7.05" height="7.05"/><rect class="cls-4" x="239.59" y="111.95" width="7.05" height="96.67"/><rect class="cls-3" x="252.11" y="87.06" width="7.05" height="23.59"/><rect class="cls-5" x="252.11" y="81.46" width="7.05" height="5.61"/><rect class="cls-4" x="252.11" y="110.65" width="7.05" height="97.97"/><rect class="cls-3" x="275.96" y="96.53" width="7.05" height="25.35"/><rect class="cls-5" x="275.96" y="81.46" width="7.05" height="15.07"/><rect class="cls-4" x="275.96" y="121.88" width="7.05" height="86.74"/><rect class="cls-3" x="263.98" y="47.15" width="7.05" height="44.74"/><rect class="cls-5" x="263.98" y="25.22" width="7.05" height="21.93"/><rect class="cls-4" x="263.98" y="91.89" width="7.05" height="116.72"/><rect class="cls-3" x="203.15" y="89.04" width="7.05" height="26.45"/><rect class="cls-5" x="203.15" y="86.02" width="7.05" height="3.02"/><rect class="cls-4" x="203.15" y="115.49" width="7.05" height="93.13"/><rect class="cls-3" x="216.06" y="69.59" width="7.05" height="35.77"/><rect class="cls-5" x="216.06" y="65.68" width="7.05" height="3.91"/><rect class="cls-4" x="216.06" y="105.36" width="7.05" height="103.26"/><rect class="cls-3" x="167.26" y="87.06" width="7.05" height="29.72"/><rect class="cls-5" x="167.26" y="78.06" width="7.05" height="9"/><rect class="cls-4" x="167.26" y="116.78" width="7.05" height="91.83"/><rect class="cls-3" x="180" y="121.29" width="7.05" height="19.88"/><rect class="cls-5" x="180" y="78.06" width="7.05" height="43.23"/><rect class="cls-4" x="180" y="141.17" width="7.05" height="67.45"/><rect class="cls-3" x="143.89" y="127.84" width="7.05" height="14.1"/><rect class="cls-5" x="143.89" y="126.46" width="7.05" height="1.39"/><rect class="cls-4" x="143.89" y="141.95" width="7.05" height="66.67"/><rect class="cls-3" x="107.77" y="140.25" width="7.05" height="13.21"/><rect class="cls-5" x="107.77" y="130.31" width="7.05" height="9.94"/><rect class="cls-4" x="107.77" y="153.46" width="7.05" height="55.16"/><rect class="cls-3" x="119.34" y="89.74" width="7.05" height="20.91"/><rect class="cls-5" x="119.34" y="87.06" width="7.05" height="2.68"/><rect class="cls-4" x="119.34" y="110.65" width="7.05" height="97.97"/><line class="cls-2" x1="32.84" y1="13.5" x2="32.84" y2="211.5"/><line class="cls-2" x1="80.84" y1="13.5" x2="80.84" y2="211.5"/><line class="cls-2" x1="128.84" y1="13.5" x2="128.84" y2="211.5"/><line class="cls-2" x1="177.84" y1="13.5" x2="177.84" y2="211.5"/><line class="cls-2" x1="225.84" y1="13.5" x2="225.84" y2="211.5"/><line class="cls-2" x1="273.84" y1="13.5" x2="273.84" y2="211.5"/><path d="M36.27,8.7A1.25,1.25,0,0,0,36,7.92a2.09,2.09,0,0,0-.78-.57A3.44,3.44,0,0,1,34,6.54a1.88,1.88,0,0,1-.43-1.32,2,2,0,0,1,.42-1.31,1.69,1.69,0,0,1,1.14-.6v-1h.64v1a1.63,1.63,0,0,1,1.11.7,2.63,2.63,0,0,1,.41,1.54h-1A2.12,2.12,0,0,0,36,4.48a.72.72,0,0,0-.64-.41.73.73,0,0,0-.64.32,1.42,1.42,0,0,0-.22.82,1.26,1.26,0,0,0,.22.77,2.17,2.17,0,0,0,.8.57,3.54,3.54,0,0,1,1.3.83,1.87,1.87,0,0,1,.43,1.31A1.92,1.92,0,0,1,36.82,10a1.8,1.8,0,0,1-1.18.59v.94H35v-.94A1.88,1.88,0,0,1,33.77,10a2.28,2.28,0,0,1-.48-1.58h1a1.66,1.66,0,0,0,.3,1.11.94.94,0,0,0,.73.33A.87.87,0,0,0,36,9.52,1.25,1.25,0,0,0,36.27,8.7Z"/><path d="M42.2,8.3A2.8,2.8,0,0,1,41.74,10a1.49,1.49,0,0,1-1.28.63,1.4,1.4,0,0,1-.73-.18,1.48,1.48,0,0,1-.52-.54l-.07.62h-.86V2.88h1V5.77a1.46,1.46,0,0,1,.5-.49,1.34,1.34,0,0,1,.68-.17,1.47,1.47,0,0,1,1.29.67,3.14,3.14,0,0,1,.45,1.79Zm-1-.72A2.66,2.66,0,0,0,41,6.35a.81.81,0,0,0-.76-.46.84.84,0,0,0-.56.2,1.32,1.32,0,0,0-.36.53V9.16a1.16,1.16,0,0,0,.37.5.92.92,0,0,0,.57.18A.81.81,0,0,0,41,9.42a2.27,2.27,0,0,0,.24-1.12Z"/><path d="M24.36,209.42a3.59,3.59,0,0,1-.53,2.12,1.78,1.78,0,0,1-2.89,0,3.56,3.56,0,0,1-.53-2.11v-1.61a3.59,3.59,0,0,1,.53-2.11,1.77,1.77,0,0,1,2.88,0,3.58,3.58,0,0,1,.53,2.11Zm-1-1.75a3.27,3.27,0,0,0-.26-1.46.8.8,0,0,0-.73-.49.79.79,0,0,0-.73.5,3.33,3.33,0,0,0-.25,1.46v1.89a3.31,3.31,0,0,0,.26,1.47.79.79,0,0,0,1.46,0,3.33,3.33,0,0,0,.25-1.47Z"/><path d="M26.24,219.7l.65-1.65h.49l-.25,1.66v.88h-.89Z"/><path d="M30.77,225.68h-1v-6.13l-1.39.09V219l2.38-.45Z"/><path d="M35.65,225.68h-1v-6.13l-1.39.09V219l2.38-.45Z"/><path d="M75.32,219.7,76,218h.49l-.25,1.66v.88h-.89Z"/><path d="M79.84,225.68h-1v-6.13l-1.39.09V219l2.38-.45Z"/><path d="M86.13,225.67h-4V225l2-2.57a6.44,6.44,0,0,0,.66-1.11,2.15,2.15,0,0,0,.19-.85,1.63,1.63,0,0,0-.24-.92.74.74,0,0,0-.65-.36.88.88,0,0,0-.78.39,1.92,1.92,0,0,0-.26,1.07h-1v0a2.24,2.24,0,0,1,.52-1.56,1.85,1.85,0,0,1,1.48-.63,1.78,1.78,0,0,1,1.37.55,2.06,2.06,0,0,1,.51,1.45,2.58,2.58,0,0,1-.31,1.2,8.28,8.28,0,0,1-.9,1.33l-1.34,1.93h2.75Z"/><path d="M122.32,219.7,123,218h.49l-.25,1.66v.88h-.89Z"/><path d="M126.85,225.68h-1v-6.13l-1.39.09V219l2.38-.45Z"/><path d="M130.32,221.67H131a.81.81,0,0,0,.72-.33,1.87,1.87,0,0,0,0-1.8.8.8,0,0,0-.69-.33.83.83,0,0,0-.68.33,1.35,1.35,0,0,0-.27.87h-.94v0a1.83,1.83,0,0,1,1.88-1.93,1.91,1.91,0,0,1,1.41.53,2,2,0,0,1,.53,1.48,1.79,1.79,0,0,1-.25.91,1.62,1.62,0,0,1-.71.66,1.47,1.47,0,0,1,.8.65,2.07,2.07,0,0,1-3.17,2.57,1.83,1.83,0,0,1-.55-1.46v0H130a1.43,1.43,0,0,0,.28.91.89.89,0,0,0,.73.35.91.91,0,0,0,.75-.34,1.91,1.91,0,0,0,0-1.94,1,1,0,0,0-.78-.31h-.68Z"/><path d="M172.31,219.7,173,218h.49l-.25,1.66v.88h-.89Z"/><path d="M176.84,225.68h-1v-6.13l-1.39.09V219l2.38-.45Z"/><path d="M182.52,223.24h.76V224h-.76v1.67h-1V224h-2.58l0-.55,2.58-4.88h1Zm-2.62,0h1.64V220h0l-.1.21Z"/><path d="M218.78,219.7l.65-1.65h.49l-.25,1.66v.88h-.89Z"/><path d="M223.31,225.68h-1v-6.13l-1.39.09V219l2.38-.45Z"/><path d="M225.8,222.47l.34-3.92h3.19v.82H227l-.19,2.11a1.53,1.53,0,0,1,.42-.31,1.3,1.3,0,0,1,.55-.13,1.54,1.54,0,0,1,1.32.62,2.8,2.8,0,0,1,.48,1.73,2.76,2.76,0,0,1-.5,1.72,1.72,1.72,0,0,1-1.46.66,1.91,1.91,0,0,1-1.35-.51,1.83,1.83,0,0,1-.53-1.46v0l.93,0a1.48,1.48,0,0,0,.26.93.82.82,0,0,0,.68.33.79.79,0,0,0,.73-.43,2.4,2.4,0,0,0,.24-1.18,2.24,2.24,0,0,0-.25-1.15.8.8,0,0,0-.73-.43.93.93,0,0,0-.63.18,1,1,0,0,0-.29.54Z"/><path d="M268.27,219.7l.65-1.65h.49l-.25,1.66v.88h-.89Z"/><path d="M272.79,225.68h-1v-6.13l-1.39.09V219l2.38-.45Z"/><path d="M277.44,218.46a2.34,2.34,0,0,1,1.16.31l-.19.73a2,2,0,0,0-.44-.2,1.81,1.81,0,0,0-.52-.07,1.11,1.11,0,0,0-1,.57,2.82,2.82,0,0,0-.37,1.54v.2a1.7,1.7,0,0,1,1.3-.59,1.47,1.47,0,0,1,1.27.66,2.89,2.89,0,0,1,.47,1.7,2.79,2.79,0,0,1-.54,1.77,1.7,1.7,0,0,1-1.41.69,1.82,1.82,0,0,1-1.5-.75,3.29,3.29,0,0,1-.59-2.08V221.4a3.28,3.28,0,0,1,.66-2.13A2,2,0,0,1,277.44,218.46Zm-.27,3.22a1.11,1.11,0,0,0-1.06.67V223a3,3,0,0,0,.31,1.49.91.91,0,0,0,.79.53.78.78,0,0,0,.7-.49,2.6,2.6,0,0,0,.26-1.21,2.32,2.32,0,0,0-.27-1.18A.81.81,0,0,0,277.17,221.67Z"/><path d="M19.54,189.88h-4v-.66l2-2.57a6.44,6.44,0,0,0,.66-1.11,2.15,2.15,0,0,0,.19-.85,1.63,1.63,0,0,0-.24-.92.74.74,0,0,0-.65-.36.88.88,0,0,0-.78.39,1.92,1.92,0,0,0-.26,1.07h-1v0A2.24,2.24,0,0,1,16,183.3a1.85,1.85,0,0,1,1.48-.63,1.78,1.78,0,0,1,1.37.55,2.06,2.06,0,0,1,.51,1.45,2.58,2.58,0,0,1-.31,1.2,8.28,8.28,0,0,1-.9,1.33l-1.34,1.93h2.75Z"/><path d="M24.36,187.13a3.59,3.59,0,0,1-.53,2.12,1.78,1.78,0,0,1-2.89,0,3.56,3.56,0,0,1-.53-2.11v-1.61a3.59,3.59,0,0,1,.53-2.11,1.77,1.77,0,0,1,2.88,0,3.58,3.58,0,0,1,.53,2.11Zm-1-1.75a3.27,3.27,0,0,0-.26-1.46.8.8,0,0,0-.73-.49.79.79,0,0,0-.73.5,3.33,3.33,0,0,0-.25,1.46v1.89a3.31,3.31,0,0,0,.26,1.47.79.79,0,0,0,1.46,0,3.33,3.33,0,0,0,.25-1.47Z"/><path d="M18.93,165.68h.76v.75h-.76v1.67h-1v-1.67H15.36l0-.55L17.92,161h1Zm-2.62,0h1.64v-3.25h0l-.1.21Z"/><path d="M24.36,165.36a3.59,3.59,0,0,1-.53,2.12,1.78,1.78,0,0,1-2.89,0,3.56,3.56,0,0,1-.53-2.11v-1.61a3.59,3.59,0,0,1,.53-2.11,1.77,1.77,0,0,1,2.88,0,3.58,3.58,0,0,1,.53,2.11Zm-1-1.75a3.27,3.27,0,0,0-.26-1.46.8.8,0,0,0-.73-.49.79.79,0,0,0-.73.5,3.33,3.33,0,0,0-.25,1.46v1.89a3.31,3.31,0,0,0,.26,1.47.79.79,0,0,0,1.46,0,3.33,3.33,0,0,0,.25-1.47Z"/><path d="M17.9,138.81a2.34,2.34,0,0,1,1.16.31l-.19.73a2,2,0,0,0-.44-.2,1.8,1.8,0,0,0-.52-.07,1.11,1.11,0,0,0-1,.57,2.81,2.81,0,0,0-.37,1.54v.2a1.7,1.7,0,0,1,1.3-.59,1.47,1.47,0,0,1,1.27.66,2.9,2.9,0,0,1,.47,1.7,2.79,2.79,0,0,1-.54,1.77,1.7,1.7,0,0,1-1.41.69,1.82,1.82,0,0,1-1.5-.75,3.29,3.29,0,0,1-.59-2.08v-1.54a3.28,3.28,0,0,1,.66-2.13A2,2,0,0,1,17.9,138.81ZM17.63,142a1.11,1.11,0,0,0-1.06.67v.65a3,3,0,0,0,.31,1.49.91.91,0,0,0,.79.53.78.78,0,0,0,.7-.49,2.59,2.59,0,0,0,.26-1.21,2.33,2.33,0,0,0-.27-1.18A.81.81,0,0,0,17.63,142Z"/><path d="M24.36,143.27a3.59,3.59,0,0,1-.53,2.12,1.78,1.78,0,0,1-2.89,0,3.56,3.56,0,0,1-.53-2.11v-1.61a3.59,3.59,0,0,1,.53-2.11,1.77,1.77,0,0,1,2.88,0,3.58,3.58,0,0,1,.53,2.11Zm-1-1.75a3.27,3.27,0,0,0-.26-1.46.8.8,0,0,0-.73-.49.79.79,0,0,0-.73.5,3.33,3.33,0,0,0-.25,1.46v1.89a3.31,3.31,0,0,0,.26,1.47.79.79,0,0,0,1.46,0,3.33,3.33,0,0,0,.25-1.47Z"/><path d="M19.36,119a1.79,1.79,0,0,1-.27,1,1.63,1.63,0,0,1-.73.63,1.85,1.85,0,0,1,.83.68,1.83,1.83,0,0,1,.31,1.05,2,2,0,0,1-.55,1.5,2,2,0,0,1-1.44.52,2,2,0,0,1-1.46-.52,2,2,0,0,1-.55-1.5,1.82,1.82,0,0,1,1.14-1.73,1.6,1.6,0,0,1-.72-.63,1.81,1.81,0,0,1-.26-1,2,2,0,0,1,.51-1.45A1.8,1.8,0,0,1,17.5,117a1.83,1.83,0,0,1,1.34.51A1.94,1.94,0,0,1,19.36,119Zm-.84,3.31a1.51,1.51,0,0,0-.29-1,.89.89,0,0,0-.73-.37.88.88,0,0,0-.73.37,1.53,1.53,0,0,0-.28,1,1.49,1.49,0,0,0,.28,1,1,1,0,0,0,1.47,0A1.46,1.46,0,0,0,18.52,122.29ZM18.36,119a1.51,1.51,0,0,0-.24-.88.75.75,0,0,0-1.25,0,1.53,1.53,0,0,0-.23.89,1.49,1.49,0,0,0,.23.88.74.74,0,0,0,.63.33.73.73,0,0,0,.62-.33A1.49,1.49,0,0,0,18.36,119Z"/><path d="M24.36,121.49a3.59,3.59,0,0,1-.53,2.12,1.78,1.78,0,0,1-2.89,0,3.56,3.56,0,0,1-.53-2.11v-1.61a3.59,3.59,0,0,1,.53-2.11,1.77,1.77,0,0,1,2.88,0,3.58,3.58,0,0,1,.53,2.11Zm-1-1.75a3.27,3.27,0,0,0-.26-1.46.8.8,0,0,0-.73-.49.79.79,0,0,0-.73.5,3.33,3.33,0,0,0-.25,1.46v1.89a3.31,3.31,0,0,0,.26,1.47.79.79,0,0,0,1.46,0,3.33,3.33,0,0,0,.25-1.47Z"/><path d="M13.25,102.27h-1V96.15l-1.39.09V95.6l2.38-.45Z"/><path d="M19.47,99.52a3.59,3.59,0,0,1-.53,2.12,1.78,1.78,0,0,1-2.89,0,3.56,3.56,0,0,1-.53-2.11V97.91a3.59,3.59,0,0,1,.53-2.11,1.77,1.77,0,0,1,2.88,0,3.58,3.58,0,0,1,.53,2.11Zm-1-1.75a3.27,3.27,0,0,0-.26-1.46.8.8,0,0,0-.73-.49.79.79,0,0,0-.73.5,3.33,3.33,0,0,0-.25,1.46v1.89a3.31,3.31,0,0,0,.26,1.47.79.79,0,0,0,1.46,0,3.33,3.33,0,0,0,.25-1.47Z"/><path d="M24.36,99.52a3.59,3.59,0,0,1-.53,2.12,1.78,1.78,0,0,1-2.89,0,3.56,3.56,0,0,1-.53-2.11V97.91a3.59,3.59,0,0,1,.53-2.11,1.77,1.77,0,0,1,2.88,0,3.58,3.58,0,0,1,.53,2.11Zm-1-1.75a3.27,3.27,0,0,0-.26-1.46.8.8,0,0,0-.73-.49.79.79,0,0,0-.73.5,3.33,3.33,0,0,0-.25,1.46v1.89a3.31,3.31,0,0,0,.26,1.47.79.79,0,0,0,1.46,0,3.33,3.33,0,0,0,.25-1.47Z"/><path d="M13.26,81h-1V74.88L10.88,75v-.64l2.38-.45Z"/><path d="M19.54,81h-4v-.66l2-2.57a6.44,6.44,0,0,0,.66-1.11,2.15,2.15,0,0,0,.19-.85,1.63,1.63,0,0,0-.24-.92.74.74,0,0,0-.65-.36.88.88,0,0,0-.78.39A1.92,1.92,0,0,0,16.42,76h-1v0A2.24,2.24,0,0,1,16,74.43a1.85,1.85,0,0,1,1.48-.63,1.78,1.78,0,0,1,1.37.55,2.06,2.06,0,0,1,.51,1.45A2.58,2.58,0,0,1,19,77a8.28,8.28,0,0,1-.9,1.33L16.8,80.25h2.75Z"/><path d="M24.36,78.25a3.59,3.59,0,0,1-.53,2.12,1.78,1.78,0,0,1-2.89,0,3.56,3.56,0,0,1-.53-2.11V76.65a3.59,3.59,0,0,1,.53-2.11,1.77,1.77,0,0,1,2.88,0,3.58,3.58,0,0,1,.53,2.11Zm-1-1.75A3.27,3.27,0,0,0,23.12,75a.8.8,0,0,0-.73-.49.79.79,0,0,0-.73.5,3.33,3.33,0,0,0-.25,1.46v1.89a3.31,3.31,0,0,0,.26,1.47.79.79,0,0,0,1.46,0,3.33,3.33,0,0,0,.25-1.47Z"/><path d="M13.26,59.07h-1V52.94L10.88,53V52.4l2.38-.45Z"/><path d="M18.93,56.63h.76v.75h-.76v1.67h-1V57.39H15.36l0-.55L17.92,52h1Zm-2.62,0h1.64V53.39h0l-.1.21Z"/><path d="M24.36,56.31a3.59,3.59,0,0,1-.53,2.12,1.78,1.78,0,0,1-2.89,0,3.56,3.56,0,0,1-.53-2.11V54.71a3.59,3.59,0,0,1,.53-2.11,1.77,1.77,0,0,1,2.88,0,3.58,3.58,0,0,1,.53,2.11Zm-1-1.75a3.27,3.27,0,0,0-.26-1.46.8.8,0,0,0-.73-.49.79.79,0,0,0-.73.5,3.33,3.33,0,0,0-.25,1.46v1.89a3.31,3.31,0,0,0,.26,1.47.79.79,0,0,0,1.46,0,3.33,3.33,0,0,0,.25-1.47Z"/><path d="M13.26,36.2h-1V30.07l-1.39.09v-.64l2.38-.45Z"/><path d="M17.9,29a2.34,2.34,0,0,1,1.16.31l-.19.73a2,2,0,0,0-.44-.2,1.8,1.8,0,0,0-.52-.07,1.11,1.11,0,0,0-1,.57,2.81,2.81,0,0,0-.37,1.54v.2a1.7,1.7,0,0,1,1.3-.59,1.47,1.47,0,0,1,1.27.66,2.9,2.9,0,0,1,.47,1.7,2.79,2.79,0,0,1-.54,1.77,1.7,1.7,0,0,1-1.41.69,1.82,1.82,0,0,1-1.5-.75,3.29,3.29,0,0,1-.59-2.08V31.92a3.28,3.28,0,0,1,.66-2.13A2,2,0,0,1,17.9,29Zm-.27,3.22a1.11,1.11,0,0,0-1.06.67v.65A3,3,0,0,0,16.88,35a.91.91,0,0,0,.79.53.78.78,0,0,0,.7-.49,2.59,2.59,0,0,0,.26-1.21,2.33,2.33,0,0,0-.27-1.18A.81.81,0,0,0,17.63,32.19Z"/><path d="M24.36,33.44a3.59,3.59,0,0,1-.53,2.12,1.78,1.78,0,0,1-2.89,0,3.56,3.56,0,0,1-.53-2.11V31.83a3.59,3.59,0,0,1,.53-2.11,1.77,1.77,0,0,1,2.88,0,3.58,3.58,0,0,1,.53,2.11Zm-1-1.75a3.27,3.27,0,0,0-.26-1.46.8.8,0,0,0-.73-.49.79.79,0,0,0-.73.5,3.33,3.33,0,0,0-.25,1.46v1.89A3.31,3.31,0,0,0,21.66,35a.79.79,0,0,0,1.46,0,3.33,3.33,0,0,0,.25-1.47Z"/><path d="M13.26,15.51h-1V9.38l-1.39.09V8.83l2.38-.45Z"/><path d="M19.36,10.25a1.79,1.79,0,0,1-.27,1,1.63,1.63,0,0,1-.73.63,1.85,1.85,0,0,1,.83.68,1.83,1.83,0,0,1,.31,1.05,2,2,0,0,1-.55,1.5,2,2,0,0,1-1.44.52,2,2,0,0,1-1.46-.52,2,2,0,0,1-.55-1.5,1.82,1.82,0,0,1,1.14-1.73,1.6,1.6,0,0,1-.72-.63,1.81,1.81,0,0,1-.26-1,2,2,0,0,1,.51-1.45,1.8,1.8,0,0,1,1.34-.51,1.83,1.83,0,0,1,1.34.51A1.94,1.94,0,0,1,19.36,10.25Zm-.84,3.31a1.51,1.51,0,0,0-.29-1,.89.89,0,0,0-.73-.37.88.88,0,0,0-.73.37,1.53,1.53,0,0,0-.28,1,1.49,1.49,0,0,0,.28,1,1,1,0,0,0,1.47,0A1.46,1.46,0,0,0,18.52,13.55Zm-.16-3.29a1.51,1.51,0,0,0-.24-.88.75.75,0,0,0-1.25,0,1.53,1.53,0,0,0-.23.89,1.49,1.49,0,0,0,.23.88.74.74,0,0,0,.63.33.73.73,0,0,0,.62-.33A1.49,1.49,0,0,0,18.36,10.27Z"/><path d="M24.36,12.75a3.59,3.59,0,0,1-.53,2.12,1.78,1.78,0,0,1-2.89,0,3.56,3.56,0,0,1-.53-2.11V11.14A3.59,3.59,0,0,1,20.95,9a1.77,1.77,0,0,1,2.88,0,3.58,3.58,0,0,1,.53,2.11Zm-1-1.75a3.27,3.27,0,0,0-.26-1.46A.8.8,0,0,0,22.39,9a.79.79,0,0,0-.73.5A3.33,3.33,0,0,0,21.4,11v1.89a3.31,3.31,0,0,0,.26,1.47.79.79,0,0,0,1.46,0,3.33,3.33,0,0,0,.25-1.47Z"/><path d="M102.26,9.34h-1V2.23h1Z"/><path d="M104.49,4.05l.05.78a1.77,1.77,0,0,1,.56-.65,1.31,1.31,0,0,1,.76-.23,1.27,1.27,0,0,1,1.08.51,2.66,2.66,0,0,1,.39,1.59V9.34h-1V6.07a1.91,1.91,0,0,0-.21-1,.72.72,0,0,0-.63-.3.83.83,0,0,0-.54.19,1.36,1.36,0,0,0-.38.51V9.34h-1V4.05Z"/><path d="M108.26,6.76a4,4,0,0,1,.46-2A1.42,1.42,0,0,1,110,4a1.31,1.31,0,0,1,.66.17,1.5,1.5,0,0,1,.5.48V1.72h1V9.34h-.86l-.07-.61a1.5,1.5,0,0,1-.51.53,1.35,1.35,0,0,1-.7.18,1.44,1.44,0,0,1-1.28-.7,3.4,3.4,0,0,1-.46-1.87Zm1,.1a3,3,0,0,0,.24,1.32.79.79,0,0,0,.76.49.87.87,0,0,0,.55-.18,1.27,1.27,0,0,0,.37-.49V5.43a1.38,1.38,0,0,0-.37-.52.82.82,0,0,0-.54-.19.8.8,0,0,0-.76.56,3.72,3.72,0,0,0-.24,1.47Z"/><path d="M114.36,2.67h-1V1.72h1Zm0,6.67h-1V4.05h1Z"/><path d="M117.1,7.75l.08.41h0l.08-.41.9-3.7h1l-1.58,5.28h-.87l-1.59-5.28h1Z"/><path d="M121,2.67h-1V1.72h1Zm0,6.67h-1V4.05h1Z"/><path d="M122,6.76a4,4,0,0,1,.46-2A1.42,1.42,0,0,1,123.73,4a1.31,1.31,0,0,1,.66.17,1.5,1.5,0,0,1,.5.48V1.72h1V9.34H125l-.07-.61a1.5,1.5,0,0,1-.51.53,1.35,1.35,0,0,1-.7.18,1.44,1.44,0,0,1-1.28-.7A3.4,3.4,0,0,1,122,6.86Zm1,.1a3,3,0,0,0,.24,1.32.79.79,0,0,0,.76.49.87.87,0,0,0,.55-.18A1.27,1.27,0,0,0,124.9,8V5.43a1.38,1.38,0,0,0-.37-.52.82.82,0,0,0-.54-.19.8.8,0,0,0-.76.56A3.72,3.72,0,0,0,123,6.76Z"/><path d="M129.82,8.63a1.59,1.59,0,0,1-.54.6,1.36,1.36,0,0,1-.75.21,1.3,1.3,0,0,1-1.12-.55,2.94,2.94,0,0,1-.4-1.71V4.05h1V7.18a2.48,2.48,0,0,0,.19,1.15.62.62,0,0,0,.58.34,1.05,1.05,0,0,0,.61-.17,1.18,1.18,0,0,0,.39-.49v-4h1V9.34h-.88Z"/><path d="M134.58,9.34c0-.12-.07-.24-.09-.35a2.63,2.63,0,0,1,0-.35,1.88,1.88,0,0,1-.55.58,1.29,1.29,0,0,1-.74.22,1.33,1.33,0,0,1-1-.42,1.63,1.63,0,0,1-.38-1.13,1.47,1.47,0,0,1,.52-1.19,2.19,2.19,0,0,1,1.45-.43h.74V5.73a1.17,1.17,0,0,0-.21-.75.81.81,0,0,0-1.18,0,.88.88,0,0,0-.22.61h-.94v0a1.37,1.37,0,0,1,.49-1.09A1.86,1.86,0,0,1,133.67,4a1.76,1.76,0,0,1,1.27.46,1.73,1.73,0,0,1,.49,1.32V8.18a4.49,4.49,0,0,0,0,.59,3.28,3.28,0,0,0,.12.56Zm-1.2-.65a1.06,1.06,0,0,0,.63-.21,1.22,1.22,0,0,0,.42-.52V6.88h-.75a.88.88,0,0,0-.71.29,1.06,1.06,0,0,0-.25.71.92.92,0,0,0,.17.58A.58.58,0,0,0,133.39,8.69Z"/><path d="M137.61,9.34h-1V1.72h1Z"/><rect class="cls-6" x="90.74" y="2.89" width="7" height="7"/><path d="M163.89,6.52V9.34h-1V2.23h2.33a2.06,2.06,0,0,1,1.56.59,2.16,2.16,0,0,1,.57,1.56,2.15,2.15,0,0,1-.57,1.56,2.06,2.06,0,0,1-1.56.59Zm0-.75h1.34a1,1,0,0,0,.85-.39,1.64,1.64,0,0,0,.29-1,1.69,1.69,0,0,0-.29-1,1,1,0,0,0-.85-.4h-1.34Z"/><path d="M168,6.36a2.67,2.67,0,0,1,.55-1.73,2,2,0,0,1,3,0,2.65,2.65,0,0,1,.55,1.73V7a2.65,2.65,0,0,1-.55,1.73,2,2,0,0,1-3,0A2.65,2.65,0,0,1,168,7ZM169,7a2.39,2.39,0,0,0,.26,1.19.92.92,0,0,0,1.6,0A2.37,2.37,0,0,0,171.16,7V6.36a2.36,2.36,0,0,0-.27-1.18.92.92,0,0,0-1.6,0A2.38,2.38,0,0,0,169,6.36Z"/><path d="M175.37,4.89l-.46,0a.73.73,0,0,0-.51.19,1.17,1.17,0,0,0-.31.52V9.34h-1V4.05h.9l.07.8a1.68,1.68,0,0,1,.43-.66.91.91,0,0,1,.62-.24l.2,0,.16,0Z"/><path d="M177.61,2.74V4.05h.83v.71h-.83V7.91a1.05,1.05,0,0,0,.12.58.37.37,0,0,0,.32.17h.22l.24,0,.1.68a2,2,0,0,1-.37.11,2.15,2.15,0,0,1-.43,0,1.08,1.08,0,0,1-.87-.37,1.8,1.8,0,0,1-.31-1.16V4.76h-.69V4.05h.69V2.74Z"/><path d="M179.76,9.34V4.76h-.68V4.05h.68V3.37a1.9,1.9,0,0,1,.4-1.3,1.42,1.42,0,0,1,1.13-.46l.29,0,.33.08-.1.73-.19,0h-.22a.56.56,0,0,0-.5.25,1.32,1.32,0,0,0-.17.73v.68h.92v.71h-.92V9.34Z"/><path d="M182.26,6.36a2.67,2.67,0,0,1,.55-1.73,2,2,0,0,1,3,0,2.65,2.65,0,0,1,.55,1.73V7a2.65,2.65,0,0,1-.55,1.73,2,2,0,0,1-3,0A2.65,2.65,0,0,1,182.26,7Zm1,.67a2.39,2.39,0,0,0,.26,1.19.92.92,0,0,0,1.6,0A2.37,2.37,0,0,0,185.38,7V6.36a2.36,2.36,0,0,0-.27-1.18.92.92,0,0,0-1.6,0,2.38,2.38,0,0,0-.26,1.18Z"/><path d="M188.37,9.34h-1V1.72h1Z"/><path d="M190.62,2.67h-1V1.72h1Zm0,6.67h-1V4.05h1Z"/><path d="M191.63,6.36a2.67,2.67,0,0,1,.55-1.73,2,2,0,0,1,3,0,2.65,2.65,0,0,1,.55,1.73V7a2.65,2.65,0,0,1-.55,1.73,2,2,0,0,1-3,0A2.65,2.65,0,0,1,191.63,7Zm1,.67a2.39,2.39,0,0,0,.26,1.19.92.92,0,0,0,1.6,0A2.37,2.37,0,0,0,194.75,7V6.36a2.36,2.36,0,0,0-.27-1.18.92.92,0,0,0-1.6,0,2.38,2.38,0,0,0-.26,1.18Z"/><rect class="cls-7" x="153.46" y="2.89" width="7" height="7"/><path d="M225.48,6h-2.64V8.58h3.06v.75h-4V2.23h4V3h-3v2.3h2.64Z"/><path d="M227.6,4.05l.05.78a1.77,1.77,0,0,1,.56-.65A1.31,1.31,0,0,1,229,4a1.27,1.27,0,0,1,1.08.51,2.66,2.66,0,0,1,.39,1.59V9.34h-1V6.07a1.91,1.91,0,0,0-.21-1,.72.72,0,0,0-.63-.3.83.83,0,0,0-.54.19,1.36,1.36,0,0,0-.38.51V9.34h-1V4.05Z"/><path d="M232.83,2.74V4.05h.83v.71h-.83V7.91a1.05,1.05,0,0,0,.12.58.37.37,0,0,0,.32.17h.22l.24,0,.1.68a2,2,0,0,1-.37.11,2.15,2.15,0,0,1-.43,0,1.08,1.08,0,0,1-.87-.37,1.8,1.8,0,0,1-.31-1.16V4.76h-.69V4.05h.69V2.74Z"/><path d="M235.68,2.67h-1V1.72h1Zm0,6.67h-1V4.05h1Z"/><path d="M238.15,2.74V4.05H239v.71h-.83V7.91a1.05,1.05,0,0,0,.12.58.37.37,0,0,0,.32.17h.22l.24,0,.1.68a2,2,0,0,1-.37.11,2.15,2.15,0,0,1-.43,0,1.08,1.08,0,0,1-.87-.37,1.8,1.8,0,0,1-.31-1.16V4.76h-.69V4.05h.69V2.74Z"/><path d="M241.44,7.51l.07.35h0l1-3.81h1.08l-1.85,6.1a2.9,2.9,0,0,1-.5.93,1.12,1.12,0,0,1-.91.38l-.26,0-.28-.06.11-.73.15,0h.15a.52.52,0,0,0,.46-.25,1.91,1.91,0,0,0,.26-.58l.18-.54-1.63-5.26h1.07Z"/><rect class="cls-8" x="212.41" y="2.89" width="7" height="7"/></g></g></svg>