<svg xmlns="http://www.w3.org/2000/svg" viewBox="0 0 11 11"><defs><style>.cls-1{fill:#00aeef;}.cls-2{fill:#fff;}</style></defs><title>iconSeller</title><g id="Layer_2" data-name="Layer 2"><g id="Layer_1-2" data-name="Layer 1"><rect class="cls-1" width="11" height="11"/><path class="cls-2" d="M5.88,7.25a.62.62,0,0,0-.21-.47,3.55,3.55,0,0,0-.81-.48,4.26,4.26,0,0,1-1.43-.81A1.54,1.54,0,0,1,3,4.32,1.71,1.71,0,0,1,3.57,3a2.34,2.34,0,0,1,1.62-.55A2.42,2.42,0,0,1,6.87,3a1.77,1.77,0,0,1,.6,1.44l0,0H5.85a1.09,1.09,0,0,0-.16-.63.57.57,0,0,0-.5-.23.63.63,0,0,0-.46.18.63.63,0,0,0,0,.89,3.78,3.78,0,0,0,.81.47A4,4,0,0,1,7,6,1.62,1.62,0,0,1,7.5,7.19a1.62,1.62,0,0,1-.64,1.32A2.63,2.63,0,0,1,5.16,9a2.34,2.34,0,0,1-1.73-.64A1.89,1.89,0,0,1,2.81,7v0H4.35a1,1,0,0,0,.23.73.83.83,0,0,0,.62.22.72.72,0,0,0,.51-.16A.59.59,0,0,0,5.88,7.25Z"/></g></g></svg>