<svg xmlns="http://www.w3.org/2000/svg" viewBox="0 0 11 11"><defs><style>.cls-1{fill:#e87d1e;}.cls-2{fill:#fff;}</style></defs><title>iconOwner</title><g id="Layer_2" data-name="Layer 2"><g id="Layer_1-2" data-name="Layer 1"><rect class="cls-1" width="11" height="11"/><path class="cls-2" d="M3.24,5.35a3.15,3.15,0,0,1,.68-2.09,2.33,2.33,0,0,1,1.9-.81,2.34,2.34,0,0,1,1.9.81,3.14,3.14,0,0,1,.68,2.09v.79a3.13,3.13,0,0,1-.68,2.09A2.35,2.35,0,0,1,5.82,9a2.35,2.35,0,0,1-1.9-.8,3.14,3.14,0,0,1-.68-2.09Zm1.66.78A2.64,2.64,0,0,0,5.1,7.29a.73.73,0,0,0,.71.42.72.72,0,0,0,.7-.42,2.61,2.61,0,0,0,.21-1.15V5.35a2.62,2.62,0,0,0-.21-1.14.72.72,0,0,0-.71-.43.72.72,0,0,0-.71.43A2.63,2.63,0,0,0,4.9,5.35Z"/></g></g></svg>