<svg xmlns="http://www.w3.org/2000/svg" viewBox="0 0 11 11"><defs><style>.cls-1{fill:#75a7b2;}.cls-2{fill:#fff;}</style></defs><title>iconOriginator</title><g id="Layer_2" data-name="Layer 2"><g id="Layer_1-2" data-name="Layer 1"><rect class="cls-1" width="11" height="11"/><path class="cls-2" d="M6.74,6.88a.51.51,0,0,0-.29-.45,3.89,3.89,0,0,0-1-.33,12.76,12.76,0,0,1-2.5-.62q-.8-.33-.8-.95T3,3.6a6.14,6.14,0,0,1,2.19-.43V2.45H6.42v.73a5.24,5.24,0,0,1,2.07.5,1.21,1.21,0,0,1,.77,1.07H6.77a.7.7,0,0,0-.31-.61,1.38,1.38,0,0,0-.81-.21,1.4,1.4,0,0,0-.77.17.51.51,0,0,0-.25.44A.49.49,0,0,0,4.92,5a3.93,3.93,0,0,0,1,.33,13.18,13.18,0,0,1,2.48.64c.53.22.8.54.8.94s-.27.7-.81.94a6.2,6.2,0,0,1-2.17.42v.68H5V8.23a6.82,6.82,0,0,1-2.33-.46,1.25,1.25,0,0,1-.92-1.15H4.22a.69.69,0,0,0,.39.66,2.2,2.2,0,0,0,1,.2,1.71,1.71,0,0,0,.84-.17A.5.5,0,0,0,6.74,6.88Z"/></g></g></svg>