<?xml version="1.0" encoding="utf-8"?>
<!-- Generator: Adobe Illustrator 19.2.1, SVG Export Plug-In . SVG Version: 6.00 Build 0)  -->
<svg version="1.1" id="Layer_1" xmlns="http://www.w3.org/2000/svg" xmlns:xlink="http://www.w3.org/1999/xlink" x="0px" y="0px"
	 viewBox="0 0 35 35" style="enable-background:new 0 0 35 35;" xml:space="preserve">
<style type="text/css">
	.st0{fill:#EEEEEE;}
	.st1{fill:#F2F2F2;}
</style>
<g>
	<g>
		<g>
			<path class="st0" d="M3.9,1C2.2,1,0.8,2.4,0.8,4.1v26.8c0,1.7,1.4,3.1,3.1,3.1S7,32.6,7,30.9V4.1C7,2.4,5.6,1,3.9,1z M4.9,30.9
				c0,0.6-0.5,1-1,1s-1-0.5-1-1V4.1c0-0.6,0.5-1,1-1s1,0.5,1,1V30.9z"/>
		</g>
	</g>
	<path class="st1" d="M14.3,4.8c1.9,0,4,1.1,6.2,2.2c2.6,1.3,5.2,2.6,8.1,2.6c1.1,0,2.2-0.2,3.2-0.6v11.7c-1,0.8-2,1.2-3.2,1.2
		c-1.9,0-4-1.1-6.2-2.2c-2.6-1.3-5.2-2.6-8.1-2.6h0c-1.1,0-2.2,0.2-3.2,0.6V6C12.1,5.2,13.2,4.8,14.3,4.8 M14.3,2.7
		c-1.7,0-3.5,0.6-5.2,2.4c0,5.5,0,11,0,16.5c1.7-1.7,3.5-2.4,5.2-2.4c4.8,0,9.5,4.8,14.3,4.8c1.7,0,3.5-0.6,5.2-2.4
		c0-5.5,0-11,0-16.5c-1.7,1.7-3.5,2.4-5.2,2.4C23.8,7.5,19.1,2.7,14.3,2.7L14.3,2.7z"/>
</g>
</svg>
