<?xml version="1.0" encoding="utf-8"?>
<!-- Generator: Adobe Illustrator 19.1.0, SVG Export Plug-In . SVG Version: 6.00 Build 0)  -->
<svg version="1.1" id="geography_x5F_icon" xmlns="http://www.w3.org/2000/svg" xmlns:xlink="http://www.w3.org/1999/xlink" x="0px"
	 y="0px" viewBox="0 0 37.5 35" style="enable-background:new 0 0 37.5 35;" xml:space="preserve">
<style type="text/css">
	.st0{fill:#F3F5F4;}
</style>
<path class="st0" d="M35.4,16.4C34.9,7.4,28.3,0.6,19.3,0v0.4h-2V0C8.3,0.6,1.6,7.4,1,16.4h0.3v2H1c0.6,9,7.3,15.5,16.3,16.1v-0.1h2
	v0.1c9-0.6,15.6-7.1,16.1-16.1h-0.1v-2H35.4z M11.8,3.9c-1.1,1.5-2,3.4-2.7,5.4H5.6C7.1,6.4,9.2,5.1,11.8,3.9 M4.4,11.4h4
	c-0.3,2-0.5,3-0.6,5H3.3C3.4,14.4,3.8,13.4,4.4,11.4 M3.3,18.4h4.6c0.1,2,0.3,3,0.6,5h-4C3.8,21.4,3.4,20.4,3.3,18.4 M5.6,25.4h3.4
	c0.7,2,1.6,4,2.7,5.4C9.2,29.6,7.1,27.4,5.6,25.4 M17.3,32c-3-0.6-4.6-3.7-5.9-6.7h5.9V32z M17.3,23.4h-6.5c-0.3-2-0.5-3-0.6-5h7.1
	V23.4z M17.3,16.4h-7.1c0.1-2,0.3-3,0.6-5h6.5V16.4z M17.3,9.4h-5.9c1.2-4,2.9-6.3,5.9-7V9.4z M30.8,9.4h-3.4c-0.7-2-1.6-4-2.7-5.4
	C27.2,5.1,29.3,6.4,30.8,9.4 M19.3,2.4c2,0.6,4.5,3,5.7,7h-5.7V2.4z M19.3,11.4h6.4c0.3,2,0.5,3,0.6,5h-7V11.4z M19.3,18.4h7
	c-0.1,2-0.3,3-0.6,5h-6.4V18.4z M19.3,32v-6.7H25C23.8,28.4,21.3,31.4,19.3,32 M24.7,30.8c1.1-1.5,2-3.4,2.7-5.4h3.4
	C29.3,27.4,27.2,29.6,24.7,30.8 M32,23.4h-4c0.3-2,0.5-3,0.6-5h4.6C33,20.4,32.6,21.4,32,23.4 M28.6,16.4c-0.1-2-0.3-3-0.6-5h4
	c0.6,2,1,3,1.1,5H28.6z"/>
</svg>
