<?xml version="1.0" encoding="utf-8"?>
<!-- Generator: Adobe Illustrator 19.2.1, SVG Export Plug-In . SVG Version: 6.00 Build 0)  -->
<svg version="1.1" id="Layer_1" xmlns="http://www.w3.org/2000/svg" xmlns:xlink="http://www.w3.org/1999/xlink" x="0px" y="0px"
	 viewBox="0 0 39 35" style="enable-background:new 0 0 39 35;" xml:space="preserve">
<style type="text/css">
	.st0{fill:#EEEEEE;}
	.st1{fill:#F2F2F2;}
	.st2{fill:#02376A;}
	.st3{fill:none;stroke:#EEEEEE;stroke-width:2;stroke-miterlimit:10;}
	.st4{fill:#FFFFFF;}
</style>
<g id="group_x5F_full_1_">
	<g>
		<path class="st4" d="M9.8,22.5c0-2.4,0-12.1,0-12.1s0-0.5,0.3-1.2c-2.5,0-5.1,0-5.1,0s-2.4,0-2.4,2.4V20c0,2.4,2.4,2.4,2.4,2.4
			v12.1h7.3v-9.7C12.2,24.9,9.8,24.9,9.8,22.5z M8.9,7.8c1,0.3,1.9,0.1,2.6-0.3c0.1,0,0.2-0.1,0.2-0.1c1.2-0.8,1.9-2.2,1.6-3.8
			c-0.3-1.4-1.4-2.6-2.8-2.8C8,0.2,5.8,2.3,6.2,4.8C6.4,6.3,7.5,7.4,8.9,7.8z M34.1,9.1h-5.1c0.3,0.7,0.3,1.2,0.3,1.2s0,9.7,0,12.1
			s-2.4,2.4-2.4,2.4v9.7h7.3V22.5c0,0,2.4,0,2.4-2.4s0-8.5,0-8.5S36.5,9.1,34.1,9.1z M27.2,7.3c0.1,0,0.2,0.1,0.2,0.1
			c0.7,0.4,1.6,0.6,2.6,0.3c1.4-0.3,2.5-1.5,2.7-2.9c0.4-2.5-1.8-4.7-4.3-4.2c-1.4,0.3-2.6,1.4-2.8,2.8C25.3,5.1,26.1,6.5,27.2,7.3z
			 M18.8,7.8c2.6,0.5,4.8-1.7,4.3-4.3c-0.3-1.4-1.4-2.6-2.9-2.9c-2.6-0.5-4.8,1.7-4.3,4.3C16.2,6.4,17.4,7.6,18.8,7.8z M26.8,11.5
			c0,0,0-2.4-2.4-2.4c-0.6,0-9.7,0-9.7,0s-2.4,0-2.4,2.4V20c0,2.4,2.4,2.4,2.4,2.4v12.1h9.7V22.5c0,0,2.4,0,2.4-2.4
			S26.8,11.5,26.8,11.5z"/>
	</g>
</g>
</svg>
