<?xml version="1.0" encoding="utf-8"?>
<!-- Generator: Adobe Illustrator 19.1.0, SVG Export Plug-In . SVG Version: 6.00 Build 0)  -->
<svg version="1.1" xmlns="http://www.w3.org/2000/svg" xmlns:xlink="http://www.w3.org/1999/xlink" x="0px" y="0px"
	 viewBox="0 0 42.5 39.7" style="enable-background:new 0 0 42.5 39.7;" xml:space="preserve">
<style type="text/css">
	.st0{display:none;}
	.st1{display:inline;fill:#F3F5F4;}
	.st2{display:inline;fill:#02376A;}
	.st3{display:inline;fill:none;stroke:#FFFFFF;stroke-miterlimit:10;}
	.st4{display:inline;fill:#FFFFFF;}
	.st5{display:inline;fill:none;stroke:#ECECEC;stroke-width:3;stroke-miterlimit:10;}
	.st6{display:inline;fill:#E8E9EB;}
	.st7{display:inline;fill:none;stroke:#EAEBEC;stroke-width:3;stroke-miterlimit:10;}
	.st8{display:inline;}
	.st9{fill:none;stroke:#F3F5F4;stroke-miterlimit:10;}
	.st10{fill:#F3F5F4;}
	.st11{clip-path:url(#SVGID_2_);fill:#FFFFFF;}
	.st12{clip-path:url(#SVGID_2_);fill:#02376A;}
	.st13{clip-path:url(#SVGID_2_);fill:none;stroke:#F0F0F0;stroke-width:4;stroke-miterlimit:10;}
	.st14{clip-path:url(#SVGID_2_);fill:#F0F0F0;}
	.st15{clip-path:url(#SVGID_4_);fill:none;stroke:#F0F0F0;stroke-width:4;stroke-miterlimit:10;}
	.st16{clip-path:url(#SVGID_4_);fill:#F0F0F0;}
	.st17{clip-path:url(#SVGID_4_);fill:#02376A;}
	.st18{clip-path:url(#SVGID_4_);fill:#E9EAEB;}
	.st19{clip-path:url(#SVGID_4_);fill:none;stroke:#02376A;stroke-miterlimit:10;}
</style>
<g id="geography_x5F_icon" class="st0">
	<path class="st1" d="M37.9,21c-0.6-9-7.1-15.8-16.1-16.4V5h-2V4.7C10.8,5.2,4.1,12,3.5,21h0.3v2H3.5c0.6,9,7.3,15.5,16.3,16.1V39h2
		v0.1c9-0.6,15.6-7.1,16.1-16.1h-0.1v-2H37.9z M14.3,8.6c-1.1,1.5-2,3.4-2.7,5.4H8.1C9.6,11,11.7,9.8,14.3,8.6 M6.9,16h4
		c-0.3,2-0.5,3-0.6,5H5.8C5.9,19,6.3,18,6.9,16 M5.8,23h4.6c0.1,2,0.3,3,0.6,5h-4C6.3,26,5.9,25,5.8,23 M8.1,30h3.4
		c0.7,2,1.6,4,2.7,5.4C11.7,34.3,9.6,32,8.1,30 M19.8,36.7c-3-0.6-4.6-3.7-5.9-6.7h5.9V36.7z M19.8,28h-6.5c-0.3-2-0.5-3-0.6-5h7.1
		V28z M19.8,21h-7.1c0.1-2,0.3-3,0.6-5h6.5V21z M19.8,14h-5.9c1.2-4,2.9-6.3,5.9-7V14z M33.3,14h-3.4c-0.7-2-1.6-4-2.7-5.4
		C29.7,9.8,31.8,11,33.3,14 M21.8,7.1c2,0.6,4.5,3,5.7,7h-5.7V7.1z M21.8,16h6.4c0.3,2,0.5,3,0.6,5h-7V16z M21.8,23h7
		c-0.1,2-0.3,3-0.6,5h-6.4V23z M21.8,36.7V30h5.7C26.3,33,23.8,36.1,21.8,36.7 M27.2,35.5c1.1-1.5,2-3.4,2.7-5.4h3.4
		C31.8,32,29.7,34.3,27.2,35.5 M34.5,28h-4c0.3-2,0.5-3,0.6-5h4.6C35.5,25,35.1,26,34.5,28 M31.1,21c-0.1-2-0.3-3-0.6-5h4
		c0.6,2,1,3,1.1,5H31.1z"/>
</g>
<g id="Layer_2" class="st0">
	<rect x="2.5" y="37.7" class="st1" width="40" height="2"/>
	<rect x="5" y="12.2" class="st2" width="21" height="26"/>
	<rect x="5" y="12.2" class="st3" width="21" height="26"/>
	<rect x="11.5" y="35.7" class="st4" width="7" height="2"/>
	<rect x="7.5" y="32.7" class="st1" width="15" height="3"/>
	<rect x="7.5" y="27.7" class="st1" width="15" height="3"/>
	<rect x="7.5" y="23.7" class="st1" width="15" height="3"/>
	<rect x="7.5" y="19.7" class="st1" width="15" height="3"/>
	<rect x="7.5" y="15.7" class="st1" width="15" height="2"/>
	<rect x="20" y="12.2" class="st2" width="20" height="26"/>
	<rect x="20" y="12.2" class="st3" width="20" height="26"/>
	<rect x="26.5" y="35.7" class="st4" width="7" height="2"/>
	<rect x="22.5" y="32.7" class="st1" width="15" height="3"/>
	<rect x="22.5" y="27.7" class="st1" width="15" height="3"/>
	<rect x="22.5" y="23.7" class="st1" width="15" height="3"/>
	<rect x="22.5" y="19.7" class="st1" width="15" height="3"/>
	<rect x="22.5" y="15.7" class="st1" width="15" height="2"/>
	<rect x="12" y="5.2" class="st2" width="21" height="33"/>
	<rect x="12" y="5.2" class="st3" width="21" height="33"/>
	<rect x="18.5" y="34.7" class="st4" width="7" height="3"/>
	<rect x="14.5" y="30.7" class="st1" width="15" height="3"/>
	<rect x="14.5" y="25.7" class="st1" width="15" height="3"/>
	<rect x="14.5" y="21.7" class="st1" width="15" height="3"/>
	<rect x="14.5" y="17.7" class="st1" width="15" height="3"/>
	<rect x="14.5" y="12.7" class="st1" width="15" height="3"/>
	<rect x="14.5" y="8.7" class="st1" width="15" height="3"/>
</g>
<g id="Layer_3" class="st0">
	<polygon class="st2" points="35.5,37 6.5,37 6.5,3 25.9,3 31.4,8.3 35.5,13.2 	"/>
	<polygon class="st5" points="35.5,37 6.5,37 6.5,3 25.9,3 31.4,8.3 35.5,13.2 	"/>
	<rect x="13" y="17.5" class="st6" width="15" height="3"/>
	<rect x="21" y="23.6" class="st6" width="15" height="3"/>
	<rect x="13" y="27.5" class="st6" width="15" height="3"/>
	<polygon class="st2" points="24.5,3.6 24.5,14 34.5,14 34.5,11.8 26.5,3.6 	"/>
	<polygon class="st7" points="24.5,3.6 24.5,14 34.5,14 34.5,11.8 26.5,3.6 	"/>
</g>
<g id="Layer_4" class="st0">
	<path class="st1" d="M21.2,3.2L21.2,3.2C11.7,3.2,4,10.9,4,20.4s7.7,17.3,17.3,17.3s17.3-7.7,17.3-17.3S30.8,3.2,21.2,3.2
		 M24.8,27.6c-0.8,0.7-1.3,1.1-3.3,1.3v2.3h-2v-2.3c0-0.1-1.3-0.4-2-0.8c-0.9-0.6-1.6-1.5-2.3-2.7l2.9-1.6c0.9,1.4,1.9,2.2,3,2.2
		c0.6,0,1.1-0.2,1.5-0.5c0.4-0.3,0.6-0.7,0.6-1.1c0-0.4-0.1-0.7-0.4-1.1s-1-0.9-2-1.7c-1.9-1.4-3.2-2.6-3.7-3.4s-0.8-1.6-0.8-2.4
		c0-1.1,0.2-2.1,1.2-2.9c0.7-0.6,2.1-1,2.1-1.1V9.1h2v2.7c1,0.1,1.4,0.2,1.9,0.5c0.8,0.4,1.8,1.1,2.7,2.1l-2.4,2
		c-0.9-1.1-1.7-1.7-2.7-1.7c-0.4,0-0.8,0.1-1.1,0.3c-0.3,0.2-0.4,0.5-0.4,0.7c0,0.3,0.1,0.5,0.3,0.8c0.3,0.3,1.1,1,2.5,2.1
		c1.3,1,2.1,1.6,2.3,1.9c0.7,0.6,1.2,1.2,1.5,1.8c0.3,0.6,0.3,1.2,0.3,1.9C26.4,25.6,25.8,26.7,24.8,27.6"/>
</g>
<g id="Layer_5" class="st0">
	<g class="st8">
		<polygon class="st9" points="5.8,14.6 22.1,2.6 37.8,14.6 		"/>
		<rect x="8.8" y="16.1" class="st10" width="1" height="14"/>
		<rect x="11.8" y="16.1" class="st10" width="1" height="14"/>
		<rect x="8.8" y="29.1" class="st10" width="4" height="1"/>
		<rect x="15.8" y="16.1" class="st10" width="1" height="14"/>
		<rect x="19.8" y="16.1" class="st10" width="1" height="14"/>
		<rect x="15.8" y="29.1" class="st10" width="5" height="1"/>
		<rect x="23.8" y="16.1" class="st10" width="1" height="14"/>
		<rect x="26.8" y="16.1" class="st10" width="1" height="14"/>
		<rect x="23.8" y="29.1" class="st10" width="4" height="1"/>
		<rect x="30.8" y="16.1" class="st10" width="1" height="14"/>
		<rect x="33.8" y="16.1" class="st10" width="1" height="14"/>
		<rect x="30.8" y="29.1" class="st10" width="4" height="1"/>
		<path class="st10" d="M7.8,32.1h29H7.8z"/>
		<path class="st10" d="M6.8,34.1h31H6.8z"/>
		<rect x="4.8" y="36.1" class="st10" width="35" height="1"/>
		<polyline class="st9" points="16.2,10.5 21.9,6.6 27.4,10.5 		"/>
	</g>
</g>
<g id="Layer_6" class="st0">
	<g class="st8">
		<defs>
			<rect id="SVGID_1_" x="-37.9" y="-737.8" width="1920" height="1080"/>
		</defs>
		<clipPath id="SVGID_2_">
			<use xlink:href="#SVGID_1_"  style="overflow:visible;"/>
		</clipPath>
		<path class="st11" d="M8.2,31.2h15.2c0,0,1.3-0.3,1.8-1.1c0.4-0.8,5.2-17.3,5.2-17.3s1-2.6-1.8-2.6H14.1L6.6,28c0,0-0.9,2.3,0,4.5
			c0.9,1.5,2.4,2.7,3.4,2.7h15.7c0,0,1.9,0.1,2.8-2.5c0.9-2.5,4.5-15.6,4.5-15.6s-1.2-3-1.6-1.3c-0.4,1.7-5.2,17.4-5.2,17.4H9.6
			C9.6,33.2,7.1,32.2,8.2,31.2"/>
		<polygon class="st12" points="26.2,15.2 14.9,15.2 16.3,13.2 27.1,13.2 		"/>
		<polygon class="st12" points="24.8,20.2 13.5,20.2 14.9,18.2 25.8,18.2 		"/>
		<circle class="st13" cx="18.6" cy="15.7" r="12.5"/>
		<path class="st14" d="M30.1,25.6l-1.8,1.7c-0.2,0.2-0.6,0.2-0.8,0l-0.1-0.1c-0.2-0.2-0.2-0.6,0-0.8l1.8-1.7c0.2-0.2,0.6-0.2,0.8,0
			l0.1,0.1C30.4,25,30.4,25.4,30.1,25.6"/>
		<path class="st14" d="M39.5,35.4l-1.8,1.7c-0.2,0.2-0.6,0.2-0.8,0L29,28.7c-0.2-0.2-0.2-0.6,0-0.8l1.8-1.7c0.2-0.2,0.6-0.2,0.8,0
			l7.9,8.4C39.8,34.8,39.8,35.2,39.5,35.4"/>
	</g>
</g>
<g id="Layer_7">
	<g>
		<defs>
			<rect id="SVGID_3_" x="-38.3" y="-859.9" width="1920" height="1080"/>
		</defs>
		<clipPath id="SVGID_4_">
			<use xlink:href="#SVGID_3_"  style="overflow:visible;"/>
		</clipPath>
		<path class="st15" d="M15.8,5.1L15.8,5.1c6.9,0,12.6,5.6,12.6,12.6c0,6.9-5.6,12.6-12.6,12.6S3.3,24.6,3.3,17.6
			C3.3,10.7,8.9,5.1,15.8,5.1z"/>
		<path class="st16" d="M27.6,28l-1.8,1.7c-0.2,0.2-0.6,0.2-0.8,0l-0.1-0.1c-0.2-0.2-0.2-0.6,0-0.8l1.8-1.7c0.2-0.2,0.6-0.2,0.8,0
			l0.1,0.1C27.8,27.4,27.8,27.8,27.6,28"/>
		<path class="st16" d="M37,37.8l-1.8,1.7c-0.2,0.2-0.6,0.2-0.8,0l-8-8.4c-0.2-0.2-0.2-0.6,0-0.8l1.8-1.7c0.2-0.2,0.6-0.2,0.8,0
			l8,8.4C37.2,37.3,37.2,37.6,37,37.8"/>
		<rect x="24.4" y="13.5" class="st17" width="13.9" height="8.3"/>
		<path class="st18" d="M38.3,14.6H22.2c-0.8-1.8-3.9-5-8.3-4.6c-4.4,0.4-6.2,4.4-6.2,8.1c0,7.2,7.2,7.8,10.2,7
			c3.6-1.1,5.6-5.2,5.6-5.2h2.7l0.6,1h1.1l0.6-1h1.2l1,1h1.2l0.3-0.9h1.5l0.8,0.9h1.2l0.4-1h1.2l0.8,1h1l2.4-2.4v-1.5L38.3,14.6z
			 M12.5,20.1h-0.3c-1.3,0-2.4-1.1-2.4-2.4c0-1.3,1.1-2.4,2.4-2.4h0.3c1.3,0,2.4,1.1,2.4,2.4C14.9,19.1,13.9,20.1,12.5,20.1"/>
		<path class="st19" d="M38.3,14.6H22.2c-0.8-1.8-3.9-5-8.3-4.6c-4.4,0.4-6.2,4.4-6.2,8.1c0,7.2,7.2,7.8,10.2,7
			c3.6-1.1,5.6-5.2,5.6-5.2h2.7l0.6,1h1.1l0.6-1h1.2l1,1h1.2l0.3-0.9h1.5l0.8,0.9h1.2l0.4-1h1.2l0.8,1h1l2.4-2.4v-1.5L38.3,14.6z
			 M12.5,20.1h-0.3c-1.3,0-2.4-1.1-2.4-2.4c0-1.3,1.1-2.4,2.4-2.4h0.3c1.3,0,2.4,1.1,2.4,2.4C14.9,19.1,13.9,20.1,12.5,20.1z"/>
	</g>
</g>
</svg>
