<svg xmlns="http://www.w3.org/2000/svg" viewBox="0 0 40 35"><defs><style>.cls-1{fill:#f3f5f4;}.cls-2{fill:#2065ad;stroke:#fff;stroke-miterlimit:10;}.cls-3{fill:#fff;}</style></defs><title>property_types_icon</title><g id="Layer_2" data-name="Layer 2"><g id="elements"><rect class="cls-1" y="33" width="40" height="2"/><rect class="cls-2" x="2.5" y="7.5" width="21" height="26"/><rect class="cls-3" x="9" y="31" width="7" height="2"/><rect class="cls-1" x="5" y="28" width="15" height="3"/><rect class="cls-1" x="5" y="23" width="15" height="3"/><rect class="cls-1" x="5" y="19" width="15" height="3"/><rect class="cls-1" x="5" y="15" width="15" height="3"/><rect class="cls-1" x="5" y="11" width="15" height="2"/><rect class="cls-2" x="17.5" y="7.5" width="20" height="26"/><rect class="cls-3" x="24" y="31" width="7" height="2"/><rect class="cls-1" x="20" y="28" width="15" height="3"/><rect class="cls-1" x="20" y="23" width="15" height="3"/><rect class="cls-1" x="20" y="19" width="15" height="3"/><rect class="cls-1" x="20" y="15" width="15" height="3"/><rect class="cls-1" x="20" y="11" width="15" height="2"/><rect class="cls-2" x="9.5" y="0.5" width="21" height="33"/><rect class="cls-3" x="16" y="30" width="7" height="3"/><rect class="cls-1" x="12" y="26" width="15" height="3"/><rect class="cls-1" x="12" y="21" width="15" height="3"/><rect class="cls-1" x="12" y="17" width="15" height="3"/><rect class="cls-1" x="12" y="13" width="15" height="3"/><rect class="cls-1" x="12" y="8" width="15" height="3"/><rect class="cls-1" x="12" y="4" width="15" height="3"/></g></g></svg>