<svg xmlns="http://www.w3.org/2000/svg" viewBox="0 0 45.02 37"><defs><style>.cls-1{fill:#eee;}.cls-2{fill:none;stroke:#eee;stroke-miterlimit:10;stroke-width:2px;}</style></defs><title>property_location_icon</title><g id="Layer_2" data-name="Layer 2"><g id="elements"><path class="cls-1" d="M25.9.47C25.2.27,21-.56,18.41.61c-11.24,4.17-6.6,15.2-6.6,15.2L21.93,30.88,32.29,15.81C36.35,5.19,26.92.74,25.9.47ZM22.2,19.9a8.74,8.74,0,1,1,8.74-8.74A8.74,8.74,0,0,1,22.2,19.9Z"/><path class="cls-2" d="M33.55,24.08C39.82,25.2,44,27.25,44,29.59,44,33.13,34.39,36,22.51,36S1,33.13,1,29.59c0-2.36,4.26-4.41,10.61-5.53"/></g></g></svg>