<?xml version="1.0" encoding="utf-8"?>
<!-- Generator: Adobe Illustrator 19.2.1, SVG Export Plug-In . SVG Version: 6.00 Build 0)  -->
<svg version="1.1" xmlns="http://www.w3.org/2000/svg" xmlns:xlink="http://www.w3.org/1999/xlink" x="0px" y="0px"
	 viewBox="0 0 113 20" style="enable-background:new 0 0 113 20;" xml:space="preserve">
<style type="text/css">
	.st0{display:none;}
	.st1{display:inline;}
	.st2{fill:#E5E5E5;}
	.st3{fill:#02376A;}
	.st4{fill:#FFFFFF;}
	.st5{fill:#05417C;}
</style>
<g id="Layer_1" class="st0">
	<g class="st1">
		<g>
			<path class="st2" d="M0.1,20V3.1C0.1,1.4,1.5,0,3.3,0h106.5c1.7,0,3.1,1.4,3.1,3.1V20"/>
		</g>
		<g>
			<g>
				<path class="st3" d="M19.9,8.9c0-2.3,0-4.5,3-4.5c3,0,3,2.2,3,4.5c0,2.3,0,4.5-3,4.5C19.9,13.4,19.9,11.2,19.9,8.9z M24.1,8.9
					c0-2.2-0.1-3.2-1.2-3.2c-1,0-1.2,1-1.2,3.2s0.1,3.2,1.2,3.2C24,12.1,24.1,11.1,24.1,8.9z"/>
				<path class="st3" d="M27.8,4.5h3.3c1.7,0,2.3,1,2.3,2.6c0,1-0.3,2.6-2.4,2.6h-1.4v3.6h-1.8V4.5z M29.6,8.4h1
					c0.5,0,0.9-0.6,0.9-1.2c0-0.7-0.2-1.3-1-1.3h-0.9V8.4z"/>
				<path class="st3" d="M34.8,13.3V4.5h4.8v1.3h-3V8h2.7v1.3h-2.7v2.6h3v1.3H34.8z"/>
				<path class="st3" d="M41.2,13.3V4.5h2.5l2.3,6.1h0V4.5h1.7v8.8h-2.4l-2.4-6.4h0v6.4H41.2z"/>
				<path class="st3" d="M52.6,13.3V4.5h1.8v7.3h2.7v1.5H52.6z"/>
				<path class="st3" d="M58.3,13.3V4.5h4.8v1.3h-3V8h2.7v1.3h-2.7v2.6h3v1.3H58.3z"/>
				<path class="st3" d="M68.7,7.2c0-0.8-0.1-1.5-1.1-1.5c-1.1,0-1.1,1.5-1.1,3.2c0,2.7,0.3,3.2,1.3,3.2c0.3,0,0.6-0.1,0.9-0.2V10
					h-1V8.7h2.8v4.4c-0.5,0.1-1.7,0.3-2.5,0.3c-3.1,0-3.4-1.3-3.4-4.6c0-2.2,0.1-4.5,3.1-4.5c1.8,0,2.9,1,2.8,2.8H68.7z"/>
				<path class="st3" d="M72.4,13.3V4.5h4.8v1.3h-2.9V8h2.7v1.3h-2.7v2.6h3v1.3H72.4z"/>
				<path class="st3" d="M78.8,13.3V4.5h2.5l2.3,6.1h0V4.5h1.7v8.8h-2.4l-2.4-6.4h0v6.4H78.8z"/>
				<path class="st3" d="M87.2,4.5h3.1c2.4,0,2.9,1.6,2.9,4.3c0,1.3,0.2,4.4-2.9,4.4h-3V4.5z M89,11.9h0.9c1.1,0,1.3-0.8,1.3-3
					c0-1.6,0-3-1.3-3H89V11.9z"/>
			</g>
			<g>
				<g>
					<path class="st3" d="M103.9,4.7l3.7,3.7v2.8l-2.7-2.7v5.4h-2V8.4l-2.7,2.7V8.3L103.9,4.7z"/>
				</g>
			</g>
			<g>
				<g>
					<g>
						<path class="st3" d="M9.1,4.7l3.7,3.7v2.8l-2.7-2.7v5.4h-2V8.4l-2.7,2.7V8.3L9.1,4.7z"/>
					</g>
				</g>
			</g>
		</g>
	</g>
</g>
<g id="Layer_2">
	<g>
		<g>
			<path class="st4" d="M0.1,21V4.1C0.1,2.4,1.5,1,3.3,1h106.5c1.7,0,3.1,1.4,3.1,3.1V21"/>
		</g>
		<g>
			<g>
				<g>
					<path class="st5" d="M19.1,9.9c0-2.3,0-4.5,3-4.5c1.9,0,2.6,1,2.5,2.9h-1.8c0-1.2-0.2-1.6-0.8-1.6c-1,0-1.2,1-1.2,3.2
						s0.1,3.2,1.2,3.2c0.8,0,0.8-1.1,0.8-1.8h1.8c0,2.3-0.9,3.1-2.6,3.1C19.1,14.4,19.1,12.2,19.1,9.9z"/>
					<path class="st5" d="M26,14.3V5.5h1.8v7.3h2.7v1.5H26z"/>
					<path class="st5" d="M31.3,9.9c0-2.3,0-4.5,3-4.5c3,0,3,2.2,3,4.5c0,2.3,0,4.5-3,4.5C31.3,14.4,31.3,12.2,31.3,9.9z M35.5,9.9
						c0-2.2-0.1-3.2-1.2-3.2c-1,0-1.2,1-1.2,3.2s0.1,3.2,1.2,3.2C35.3,13.1,35.5,12.1,35.5,9.9z"/>
					<path class="st5" d="M41.2,14.4c-2.3,0-2.7-1.3-2.6-2.9h1.8c0,0.8,0,1.5,1,1.5c0.6,0,0.9-0.4,0.9-1c0-1.6-3.7-1.7-3.7-4.3
						c0-1.4,0.7-2.5,2.9-2.5c1.8,0,2.7,0.8,2.5,2.6h-1.8c0-0.7-0.1-1.3-0.9-1.3c-0.6,0-0.9,0.3-0.9,0.9c0,1.7,3.7,1.5,3.7,4.3
						C44.2,14.2,42.6,14.4,41.2,14.4z"/>
					<path class="st5" d="M45.5,14.3V5.5h4.8v1.3h-3V9h2.7v1.3h-2.7v2.6h3v1.3H45.5z"/>
					<path class="st5" d="M54.3,14.3V5.5h1.8v7.3h2.7v1.5H54.3z"/>
					<path class="st5" d="M59.7,14.3V5.5h4.8v1.3h-3V9h2.7v1.3h-2.7v2.6h3v1.3H59.7z"/>
					<path class="st5" d="M69.8,8.2c0-0.8-0.1-1.5-1.1-1.5c-1.1,0-1.1,1.5-1.1,3.2c0,2.7,0.3,3.2,1.3,3.2c0.3,0,0.6-0.1,0.9-0.2V11
						h-1V9.7h2.8v4.4c-0.5,0.1-1.7,0.3-2.5,0.3c-3.1,0-3.4-1.3-3.4-4.6c0-2.2,0.1-4.5,3.1-4.5c1.8,0,2.9,1,2.8,2.8H69.8z"/>
					<path class="st5" d="M73.2,14.3V5.5H78v1.3H75V9h2.7v1.3H75v2.6h3v1.3H73.2z"/>
					<path class="st5" d="M79.3,14.3V5.5h2.5l2.3,6.1h0V5.5h1.7v8.8h-2.4L81,7.9h0v6.4H79.3z"/>
					<path class="st5" d="M87.4,5.5h3.1c2.4,0,2.9,1.6,2.9,4.3c0,1.3,0.2,4.4-2.9,4.4h-3V5.5z M89.2,12.9h0.9c1.1,0,1.3-0.8,1.3-3
						c0-1.6,0-3-1.3-3h-0.9V12.9z"/>
				</g>
			</g>
			<g>
				<g>
					<g>
						<g>
							<path class="st5" d="M103.9,14.8l-3.7-3.7V8.4l2.7,2.7V5.7h2V11l2.7-2.7v2.8L103.9,14.8z"/>
						</g>
					</g>
				</g>
			</g>
			<g>
				<g>
					<g>
						<g>
							<g>
								<path class="st5" d="M9.1,14.8l-3.7-3.7V8.4L8.1,11V5.7h2V11l2.7-2.7v2.8L9.1,14.8z"/>
							</g>
						</g>
					</g>
				</g>
			</g>
		</g>
	</g>
</g>
</svg>
