<svg xmlns="http://www.w3.org/2000/svg" xmlns:xlink="http://www.w3.org/1999/xlink" viewBox="0 0 472.25 189.33"><defs><style>.cls-1{fill:none;}.cls-2{opacity:0.4;}.cls-3{clip-path:url(#clip-path);}.cls-4{clip-path:url(#clip-path-2);}.cls-5{fill:#d1d3d4;}.cls-6{fill:#b1b4b6;}.cls-7{fill:#e9eaeb;}.cls-8{fill:#dedfe0;}.cls-9{fill:#e0e1e2;}.cls-10{fill:#d6d7d9;}.cls-11{fill:#ebeced;}.cls-12{fill:#909295;}</style><clipPath id="clip-path" transform="translate(-0.36)"><rect class="cls-1" y="84.67" width="426.25" height="111.6"/></clipPath><clipPath id="clip-path-2" transform="translate(-0.36)"><rect class="cls-1" x="0.76" y="85.6" width="425.15" height="103.73"/></clipPath></defs><title>backgroundCPT_cards</title><g id="Layer_2" data-name="Layer 2"><g id="Layer_4" data-name="Layer 4"><g class="cls-2"><g class="cls-3"><g class="cls-4"><path class="cls-5" d="M.36,141.51c12.82,10.51,32,25.67,32,25.67l-32-25.86Z" transform="translate(-0.36)"/></g><polygon class="cls-6" points="0.4 85.6 0.4 98.67 23.39 90.83 2.67 85.6 0.4 85.6"/><polygon class="cls-7" points="2.67 85.6 23.39 90.83 17.06 85.6 2.67 85.6"/><g class="cls-4"><path class="cls-5" d="M.36,166.95l32,.24S13.18,152,.36,141.51Z" transform="translate(-0.36)"/></g><polygon class="cls-5" points="17.06 85.6 23.39 90.83 69.34 128.66 61.01 85.6 17.06 85.6"/><path class="cls-8" d="M17.42,85.6l6.33,5.23Z" transform="translate(-0.36)"/><polygon class="cls-7" points="0.4 158.97 0.4 158.97 23.11 149 69.34 128.66 0.4 158.97"/><g class="cls-4"><polygon class="cls-9" points="433.72 99.87 425.28 51.81 440.04 139.37 433.72 99.87"/></g><path class="cls-9" d="M162.57,117.6l82.18,29.62Z" transform="translate(-0.36)"/><path class="cls-10" d="M43.62,189.33,69.7,128.66Z" transform="translate(-0.36)"/><path class="cls-9" d="M115.64,85.6l46.94,32Z" transform="translate(-0.36)"/><polygon class="cls-6" points="103.32 85.6 112.81 124.38 103.34 85.6 103.32 85.6"/><polygon class="cls-10" points="383.82 85.6 388.4 99.4 383.94 85.6 383.82 85.6"/><polygon class="cls-6" points="224.03 85.6 244.39 147.21 229.79 102.61 224.13 85.6 224.03 85.6"/><polygon class="cls-7" points="291.61 85.6 292.42 89.51 291.63 85.6 291.61 85.6"/><path class="cls-9" d="M.76,144.37l23-53.54Z" transform="translate(-0.36)"/><polygon class="cls-7" points="61.01 85.6 69.34 128.66 95.12 85.6 61.01 85.6"/><polygon class="cls-9" points="115.28 85.6 162.22 117.6 166.26 85.6 115.28 85.6"/><polygon class="cls-11" points="166.26 85.6 162.22 117.6 244.39 147.21 231.16 132.76 212.01 111.88 188.16 85.6 166.26 85.6"/><polygon class="cls-9" points="188.16 85.6 212.01 111.88 210.99 85.6 188.16 85.6"/><polygon class="cls-6" points="210.99 85.6 212.01 111.88 231.15 132.76 244.39 147.21 224.03 85.6 210.99 85.6"/><polygon class="cls-10" points="224.13 85.6 229.79 102.61 240.69 85.6 224.13 85.6"/><polygon class="cls-7" points="240.69 85.6 229.79 102.61 301.32 132.58 292.42 89.51 291.61 85.6 240.69 85.6"/><polygon class="cls-5" points="229.79 102.61 244.39 147.21 301.33 132.59 229.79 102.61"/><polygon class="cls-11" points="291.63 85.6 292.42 89.51 301.32 132.58 332.55 90.47 321.03 85.6 291.63 85.6"/><polygon class="cls-5" points="321.03 85.6 332.55 90.47 328.55 85.6 321.03 85.6"/><polygon class="cls-10" points="348.35 178.63 332.55 90.47 301.32 132.59 348.35 178.63"/><polygon class="cls-7" points="388.4 99.4 332.55 90.47 348.35 178.63 388.4 99.4"/><polygon class="cls-10" points="334.88 85.6 332.55 90.47 388.4 99.4 383.82 85.6 334.88 85.6"/><polygon class="cls-10" points="383.94 85.6 388.4 99.4 399.09 85.6 383.94 85.6"/><polygon class="cls-9" points="399.09 85.6 388.4 99.4 425.56 128.16 425.56 85.6 399.09 85.6"/><polygon class="cls-6" points="348.35 178.63 379.97 164.71 425.56 145.48 425.56 128.16 388.4 99.4 348.35 178.63"/><g class="cls-4"><polygon class="cls-7" points="425.28 51.81 433.72 99.87 472.25 47.88 472.25 41.96 425.28 51.81"/></g><polygon class="cls-5" points="0.4 98.67 0.4 144.37 23.39 90.83 0.4 98.67"/><polygon class="cls-7" points="0.4 144.37 0.4 158.97 69.34 128.66 23.39 90.83 0.4 144.37"/><polygon class="cls-10" points="103.34 85.6 112.81 124.38 162.22 117.6 115.28 85.6 103.34 85.6"/><polygon class="cls-7" points="95.12 85.6 69.34 128.66 112.81 124.38 103.32 85.6 95.12 85.6"/><polygon class="cls-11" points="23.11 149 43.26 189.33 69.34 128.66 23.11 149"/><polygon class="cls-10" points="0.4 158.97 0.4 166.49 43.26 189.33 23.11 149 0.4 158.97"/><polygon class="cls-5" points="69.34 128.66 43.26 189.33 72.51 161.85 112.81 124.38 69.34 128.66"/><g class="cls-4"><path class="cls-12" d="M357.09,0l7.24,25.19h0S361,13,357.26,0Z" transform="translate(-0.36)"/><path class="cls-10" d="M472.61,40.14V35.78L443.45,0H373.11c-4.05,12.53-8.32,25.25-8.32,25.25Z" transform="translate(-0.36)"/></g><polygon class="cls-11" points="328.55 85.6 332.55 90.47 334.88 85.6 328.55 85.6"/><g class="cls-4"><path class="cls-8" d="M357.26,0c3.72,13,7.1,25.19,7.1,25.19h0l-.2,0,36.25,15.71,25.26,10.94,47-9.85V40.14L364.79,25.25S369.06,12.53,373.11,0Z" transform="translate(-0.36)"/></g></g></g></g></g></svg>