<svg xmlns="http://www.w3.org/2000/svg" viewBox="0 0 17.25 23"><defs><style>.cls-1{fill:#e87d27;}</style></defs><title>iconLock</title><g id="Layer_2" data-name="Layer 2"><g id="nav"><path class="cls-1" d="M14.38,9.06V5.75a5.75,5.75,0,0,0-11.5,0V9.06A2.88,2.88,0,0,0,0,11.94v8.19A2.88,2.88,0,0,0,2.88,23h11.5a2.88,2.88,0,0,0,2.88-2.87V11.94A2.88,2.88,0,0,0,14.38,9.06Zm-4.31,7.35V20.8a1.38,1.38,0,0,1-1.44,1.33A1.38,1.38,0,0,1,7.19,20.8V16.41a2.6,2.6,0,0,1-1.44-2.25A2.77,2.77,0,0,1,8.63,11.5a2.77,2.77,0,0,1,2.88,2.66A2.59,2.59,0,0,1,10.06,16.41ZM11.5,9.06H5.75V5.75a2.88,2.88,0,0,1,5.75,0Z"/></g></g></svg>