<svg xmlns="http://www.w3.org/2000/svg" viewBox="0 0 583.4 312.04"><defs><style>.cls-1{opacity:0.25;}.cls-2{fill:#fff;}.cls-3{fill:#2065ad;}</style></defs><title>backgroundPropNotMappable_1</title><g id="Layer_2" data-name="Layer 2"><g id="Layer_2-2" data-name="Layer 2"><g class="cls-1"><path class="cls-2" d="M315.63,306c-.24-8.26-.3-6.54-.08-14.81.26-9.72.84-19.42,1.41-29.13.14-2.3,1.2-4.59,1.13-6.86-.15-4.64-.78-9.27-1.18-13.91,0-.21.32-.46.44-.63l2.83,1.32-3.66-12.87-.82,0v17.36a28.38,28.38,0,0,1-.8-8.34q.1-10.64.23-21.27c.05-4.27,0-8.56.26-12.81.09-1.35,1.22-2.62,1.88-3.93a22.34,22.34,0,0,1,3.22,2.68,25,25,0,0,1,2.22,3.76l1.23-.63c-1.36-2.69-2.4-5.62-4.16-8-4.79-6.56-4.74-11.38.62-16.66-3.23-4.38-3.61-7.73-1.19-12l2.67,5.11,1-.54-5.23-13.4,1.11-.54,3.53,3.88,1.47-.44c-.58-3.3-.94-6.66-1.81-9.88-.69-2.57-2.13-4.94-3-7.48-1.15-3.55-3-4.92-6.72-3.23a78.68,78.68,0,0,1-8.5,2.79c-6.36,2-6.94,3.28-4.34,9.86l9.31-1.34v26.76c-.46,1.95-.45,4-.76,5.92-.27,1.69-1.17,3.3-1.31,5a41.28,41.28,0,0,0,.32,6l3.3-.71L306.58,214l2.13-1.3.67.92-3.91,3.47h3.37c-.21,3.31,1.37,7-3.23,8.53-.14,0,0,.84-.07,1.27-.61,3.25-1.24,6.5-1.87,9.82l4,.48v9.52l-.78,0v-8.41l-3,1.1,1.57,2.41c-2.51,0-4.5-1.64-6.27-1.43-7.8.93-15.58,2.14-23.26,3.77-2.92.62-5.41,3.19-8.33,3.9-3.81.93-5.42,2.76-4.95,6.88h3.93l-4.55,1.75c1.73,2.67,3,5.26,4.84,7.35a10.1,10.1,0,0,1,2.44,10c-1.31,5.16-3.76,10.84-2.65,15.58s6,8.72,9.21,13a4.84,4.84,0,0,1,1,1.57c.61,2.79,1.51,5.72-2,7.39h0l-.54-8.45-1-.07-1.54,2.43-3.16-2.11-.83-1.79-.75-8.55-2.4,3.25-3.17-3.41.16.07a71,71,0,0,1-5.88-6.07c-8.28-10.79-16.23-21.86-24.76-32.45-2.55-3.17-2.55-5.48-.72-8.88,7.4,10.06,14.53,19.85,21.83,29.51.93,1.23,2.73,1.79,4.12,2.66l1.23-1.09c-8.82-5.81-1.67-13.43-3-20.33l-4.2-.77,4.85-2.32.06-1.49-6.56-1.15c3.61-5.47-.93-8.89-3.48-12.86-2.14-3.32-4.7-6.39-6.69-9.8-1.69-2.89-3.62-3.24-6.65-2.31-7.56,2.31-15.24,4.25-22.84,6.43-5,1.44-9.29,1.13-12.13-4.1-1-1.84-2.69-3.31-4.07-4.94l-.68.66L200,234.41H188.4l1.57,3.3.2-.13c-1.21-.64-2.86-1-3.54-2-1.92-2.81-3.45-5.89-5.32-9.2,1-.25,2.34-.55,3.64-.87.81-.2,1.61-.45,2.42-.67-3.12-1.44-6.48,2.28-9.88-2,5.25-1.5,9.59-3,14.05-3.89a5.79,5.79,0,0,1,4.63,1.52c2.92,3.19,5.4,6.78,8.55,10.85,2.15-5,6-9.5,5.14-12.85-1.3-5.11-5.84-9.41-9-14-.07-.11-.6.07-.9.16-11.91,3.7-25.78,4.49-29.84,20-.1.4-.58.69-1.17,1.37l-4.71-2.36-.53.6,4.11,4.32-7.83,11,.88-4-1.61-.71c-2.19,3.8-4.42,7.59-6.53,11.43-.18.32.37,1,.59,1.58l2.67-1.17-15.78,29.5-1-.55a12.12,12.12,0,0,0,1.34-2.76,14.12,14.12,0,0,0,0-3.24c-.84.53-2,.85-2.48,1.61-7.84,12-15.58,24.11-23.38,36.16a33,33,0,0,1-2.86,3.14c1.48-8,10-12.61,6.42-20.25L141.47,251a4.46,4.46,0,0,1,.78-3.41c1.57-2,3.75-3.71,5-5.92,2.39-4.39,4.17-9.12,6.43-13.59,2.12-4.21,4.67-8.21,6.76-12.44,2.46-5-1.11-10.25-6.6-9.47-2.83.4-5.48,2.07-8.93,3.46l-8.44-5.17-3.81-4.32c-2.93-1-2-2.67-.74-4.32,2.62-3.38,5.47-6.59,7.89-10.1,1.24-1.8,1.75-4.09,3-7.17,7-3.67,8.84-6,7.93-10.88,7-2.95,9.23-5.64,8.85-9.58,2.71-2.39,5.06-4.32,7.26-6.4,4.75-4.51,7.29-10.64,11.92-15.42,7-7.2,12.26-16,19.13-23.29,4.8-5.09,3.53-9.5,1.19-14.57l4.73,6.12c11.67-11.51,11.77-12.22,4-25.23a4.35,4.35,0,0,1-.25-.4c-1.42-3.11-3.1-2.5-4.89-.34.55-1.84,2.13-4.21,1.49-5.42-5.19-9.88-10.8-19.54-16.47-29.61l-14.37,9L178,63.28l-1.09.56-6.62-9.51L161.39,59l-.52-1,14.65-8.46-.6-1.09C124.86,71.52,72.52,89.62,25.08,118.28a41.69,41.69,0,0,1-4-4.38c-2-3-4.12-3-7.11-1.25-4.5,2.65-9.27,4.83-13.92,7.22v-4.76a12.71,12.71,0,0,0,1.79-.59Q32.62,99.17,63.43,83.78a14.94,14.94,0,0,0,1.91-1.35L65,81.95l-4.65,1.37-.3-.82L88,69.05l-3.75-4.64C64,73.4,44.16,82.1,24.43,91.08c-3.7,1.68-5.53,1.09-6.88-3.33L35.29,80c2.35-1,4.61-1.72,6.17,1.26.06.12.86-.16,1.66-.32L41.67,77.3l15.6-7.09c-.45-3.28-1.92-3.81-4.63-2.68-4.18,1.74-8.47,3.21-12.72,4.79l-.59-1.69c1.37-.66,2.7-1.38,4.1-2,8.92-3.71,17.9-7.28,26.75-11.15,1.82-.8,3.17-2.68,4.74-4.06l-.84-1.11C64,55.63,54.32,60.12,43.48,62.67l4.23-6.34c4,2,20.3-3.34,22.41-7.41l2,.91.43-1.7c-1.55-.18-3.27-.9-4.61-.46C56.16,51.5,44.5,55.57,32.78,59.49c-7.26,2.43-14.57,4.72-21.86,7.08l-.4-1,2.79-2L7.26,54.36l.54-.09L0,47.57Q0,23.78,0,0H346.3l1,1-.15-.09,1,2.4,5.75,20.85,1.59,7.54h-.14l1.46.19.4,2.27c.18,2.52-.52,5.71.77,7.37,1.5,1.94,1.84,3.19,1.19,5.34-.47,1.54-.3,3.28-.5,6l4.63-3.8L364.71,52a45.65,45.65,0,0,0-3.34,5.15c-.16.33,1.63,2.17,1.85,2a18.79,18.79,0,0,0,3.19-2.53l1,.74-2.62,6.32c-.11,3.76,1.77,5.1,5.36,2.4l-1.43-6.42c2.69,5.2,5.54,10.33,8,15.64.91,2,.92,4.37,1.34,6.58l.14-.09c-2.06-.56-5-3-5.81.55-1,4.35,3.23,4.31,6.07,5.18l.7-2.85,2.36,5.16c-2.32,1.59-7.38,2-3.33,6.55,2.25,2.55,5.09,4.59,7.66,6.87l-4.43-.31,1.7,6.14L378.29,106l-.95.86,8.79,9.7-.24-.07,1.84,3.52-1,.61-4.62-4.89,29.34,73.72.57-.16-3.81-16.74c5.42,15.78,8.75,32.07,15.63,47.29-1-7.29-4.74-14.08-3.5-21.66l10.35,39-5.36-10.12-1.23.74,4.82,15.79-11.15,3,2.78,9.4-5.86,1.76M80.87,60.23c-2.65-2.88-16.18,1.18-24.46,7.09,2.19.57,3.81,1.59,4.87,1.18C67.72,66,74,63.16,80.87,60.23ZM17.94,61.47l22.62-5.75C32.66,54.83,25.09,55.2,17.94,61.47Zm74,.26c1.67,4.92,4.5,2.55,6.74,1.94.83-.23,1.37-1.56,2-2.39-1-.7-2.19-2.12-3.06-2C95.7,59.67,93.94,60.81,91.89,61.73Zm225.23,240,1.11-.73,6.26,8.16.8-.47-5.91-12.07-1.06.29ZM295.67,198.28c8.39-3.8,8.39-3.8,8.14-5.66C295.44,193.68,295.44,193.68,295.67,198.28Zm77-120.61,1.63-1.74c-.89-1.65-1.49-3.62-2.8-4.79-.51-.46-2.61.85-4,1.36L367.14,74Z"/><path class="cls-3" d="M548.83,312l-110-.94c-8.09-26.55-16.1-26.84-24.17-53.33l5.86-1.76-2.78-9.4,11.15-3-4.82-15.79,1.23-.74,5.36,10.12-10.35-39c-1.24,7.58,2.49,14.37,3.5,21.66-6.89-15.21-10.21-31.51-15.63-47.29L412,189.26l-.57.16L382.12,115.7l4.62,4.89,1-.61-1.84-3.52c2.68-2.53,3.62,1.28,5.54,1.51l-.21-.07,4,5.12,1.32-.9-6.3-14.36c3.38,1.31,2.57-.71,1.76-2.36-3.43-7-6.87-14-10.51-20.95-.6-1.13-2.21-1.73-3.36-2.57-.42-2.2-.43-4.6-1.34-6.58-2.46-5.31-5.31-10.44-8-15.61l-1.33-2.32-1-.74-1.33-4.5.17-.54.6-6.69a37.07,37.07,0,0,1,1.35,3.51c.81,3.1,1,6.48,2.39,9.27,4.21,8.49,8.84,16.77,13.37,25.09A44.36,44.36,0,0,0,385.88,87l1.78,4.45,8.94,14.74,2.77,6.21,9.4,18.8c-.15-5.36-.33-10.44-1.63-15.21-1.36-5-3.79-9.64-5.76-14.45a7.94,7.94,0,0,0,1.41-.67c-1-3.71-2.15-7.38-3.18-11.09a46.15,46.15,0,0,1-2-8.23,50.78,50.78,0,0,0-8.41-24.67L392.08,58l-3.19-13.34,1.66-.69c1.82,3.82,3.89,7.55,5.38,11.5,1.22,3.24,1.14,7.05,2.73,10,3.14,5.93,7,11.46,10.6,17.16l1.37-.81L406.84,64.5c6.42,6.32,11.44,11.8,12,20.09a26.35,26.35,0,0,0,2.14,9.7c2.67,5.48,6.08,10.59,9.19,15.86l1.86,0c-2.87-7.23,4.28-5,6.11-7.7L434,97l4.47,2.92c19.27,23.76,39,47.09,60.08,69.3a4.19,4.19,0,0,0-1.16-2.62q-27.76-32.22-55.57-64.4c-.85-1-2.28-1.47-3.45-2.19-.78-1.6-1.27-3.47-2.39-4.77q-22-25.43-44.19-50.7c-4.54-5.17-9.36-10.1-14.05-15.14L370,20.74l.17.16-6.84-7.76.17.15L353,0h12.37a48.22,48.22,0,0,0,3.84,4q32.44,26.79,64.93,53.52,37.76,31.2,75.46,62.47c1.05.87,2.24,1.57,3.36,2.36l1.11-.81c-1-1.58-1.7-3.42-3-4.69-1.9-1.88-4.22-3.33-6.31-5q-35.22-28.64-70.41-57.32c-2.56-2.09-5.11-4.21-7.46-6.52-3.53-3.48-6.53-7.59-10.41-10.6-3.43-2.66-6.46-5.76-11.29-7.07-3.6-1-7.57-5.28-8.9-9C393.87,14.53,393.3,7.13,392,0h8.56c1.62,8,3.23,16,4.89,24a4.58,4.58,0,0,0,1.08,2.56c6.26,4.9,12.62,9.68,18.95,14.49l1.1-.84L418.61,0h4.76c3.39,1.3,6.73,2.75,10.18,3.85,2.72.86,3.92,2.29,4.37,5.27,2.15,14.09,4.47,28.15,7.11,42.16a12.07,12.07,0,0,0,4.21,6.78C463.51,68.86,478,79.37,492.43,90c1.1.81,2.28,1.5,4.15,2.71L490.9,24.72,523.12,36.6c2.53-4.23,2.06-6.5-1.49-7.69-14.69-4.94-29.33-10-44.08-14.78C466,10.41,454.29,7.28,444.3,0h12.37l32.74,9.82L488.06,0H583.4V312ZM400.43,126.17c.06,1.63-.26,3.39.24,4.88,1.57,4.7,3.45,9.3,5.21,13.94l1.12-.48-5.65-16.29,2.78,2.4,11.79,28.56-2.52-2.91-.93.47,6.33,14.87c-.55.55-1.65,1.21-1.56,1.62a73.75,73.75,0,0,0,2.58,9.49,53.32,53.32,0,0,0,3.45,6.57l1.2-.56-5.53-16.8,1.62,2.32.69-.38-5.45-14.81c.29-1.45,1.25-3.2.77-4.31-3.08-7.09-6.43-14.07-9.83-21-.56-1.16-1.78-2-2.68-3l-6.18-14.85-1.66.72ZM508.54,250.54l1-.38c-.47-6.29-.84-12.6-1.48-18.88a11.56,11.56,0,0,0-1.77-5.17q-14.85-21.78-29.92-43.41c-3.74-5.4-7.56-10.73-11.68-16.59-.67,8.1,2.4,20.85,6.08,26.5q13.48,20.7,26.94,41.41C501.27,239.54,504.91,245,508.54,250.54Zm-37.55-46-1.68.47c1.63,5.84,2.21,12.27,5.08,17.42,11.24,20.15,23.21,39.9,34.93,59.78.57,1,1.36,1.81,2.58,3.42-.12-9.07-.48-16.82-5.67-23.86-5-6.85-9-14.48-13.49-21.76Zm-23.45-47,1.14-.47c-2.69-8.31-1.12-17.71-7.55-25.11a77.19,77.19,0,0,1-6.66-9.55c-2.56-4-4.8-8.29-7.43-12.28-.88-1.34-2.51-2.19-3.8-3.27,2.37,9.56,4.8,18.74,9,27S442.37,149.66,447.54,157.51ZM476.05,237l-1.38.49c1.18,4.27,1.66,8.91,3.66,12.75,8.27,15.85,17.08,31.41,25.5,47.18,1.72,3.23,3.58,3.44,6.72,1.59Zm-44.21-95.82c.8,18.39,13.6,30.85,21.38,45.78C453.34,168.18,442.66,154.6,431.84,141.15Zm-2.2,28.78.88-.17c-2-8-3.36-16.22-6.18-23.91s-7-14.56-10.62-21.8l-1.52.74,8,22.18L417.6,145l-.76.75Zm29.22,44.16c-.35-10.46-5.09-20.57-20.71-44.14C437.45,176.34,451.25,205.74,458.86,214.09ZM415.35,109.93l1.64-.75c-2.57-6.17-.73-13.32-5.25-19.16-4.16-5.38-7.79-11.18-11.65-16.79,1.15,5.79,2.17,11.24,4.38,16.15C407.64,96.43,411.68,103.1,415.35,109.93Zm6.53,24.37a45.64,45.64,0,0,0-13.41-30.45C408.95,116.19,416,124.91,421.88,134.31Zm37.55,91.49,1.66-.79-18.82-35.45-1.67.88ZM449,218.65l-1.59.75c5.57,13.53,12.59,26.38,19,39.51l1.93-.91Zm3.83,18.44-1.27.56c5.11,14.26,12.59,27.48,18.73,41.28l1.4-.62Zm-12.33-20.17,1.74-.78-12.87-28.38-1.6.72Zm33.81-52.73-1.09.86,20.55,27.08,1.14-.86Zm-35,85.95-1.6.34c-1.11,8.21,5,14.29,7.21,21.5Zm-3.23-51.89,2-.85-12.68-25.85-1.55.71Zm-2.65,6.64-1.24.53L444.36,234l1.29-.55ZM445,242.4l1.29-.7-7.53-16.87-1,.45Zm51.7,53.75,1.6-.84-4.2-8.18-1.68.88Z"/><path class="cls-3" d="M275,311.65c3.54-1.67,2.65-4.6,2-7.39a4.84,4.84,0,0,0-1-1.57c-3.22-4.31-8.09-8.23-9.21-13s1.34-10.42,2.65-15.58a10.1,10.1,0,0,0-2.44-10c-1.84-2.09-3.11-4.67-4.84-7.35l4.55-1.75h-3.93c-.47-4.11,1.14-6,4.95-6.88,2.92-.71,5.41-3.28,8.33-3.9,7.68-1.63,15.46-2.85,23.26-3.77,1.77-.21,3.76,1.42,6.27,1.43L304,239.42l3-1.1v8.41l.78,0v-9.52l-4-.48c.64-3.33,1.27-6.57,1.87-9.82.08-.43-.07-1.22.07-1.27,4.59-1.5,3-5.21,3.23-8.53h-3.37l3.91-3.47-.67-.92-2.13,1.3L310.32,197l-3.3.71a41.28,41.28,0,0,1-.32-6c.14-1.68,1-3.29,1.31-5,.31-2,.31-4,.76-5.92V154l-9.31,1.34c-2.6-6.59-2-7.83,4.34-9.86a78.68,78.68,0,0,0,8.5-2.79c3.76-1.7,5.56-.32,6.72,3.23.83,2.55,2.27,4.91,3,7.48.86,3.23,1.23,6.58,1.81,9.88l-1.47.44-3.53-3.88-1.11.54,5.23,13.4-1,.54-2.67-5.11c-2.42,4.28-2,7.63,1.19,12-5.37,5.28-5.41,10.1-.62,16.66,1.76,2.41,2.79,5.34,4.16,8l-1.23.63a25,25,0,0,0-2.22-3.76,22.34,22.34,0,0,0-3.22-2.68c-.65,1.31-1.78,2.58-1.88,3.93-.29,4.26-.21,8.54-.26,12.81q-.13,10.64-.23,21.27a28.38,28.38,0,0,0,.8,8.34V229.1l.82,0,3.66,12.87-2.83-1.32c-.13.17-.46.41-.44.63.4,4.64,1,9.27,1.18,13.91.07,2.27-1,4.56-1.13,6.86-.57,9.7-1.15,19.41-1.41,29.13-.22,8.26-.15,12.54.08,20.81M0,311C0,227.32,0,203.6,0,119.87c4.65-2.38,9.43-4.57,13.92-7.22,3-1.76,5.1-1.75,7.11,1.25a41.69,41.69,0,0,0,4,4.38C72.52,89.62,124.86,71.52,174.92,48.4l.6,1.09-14.65,8.46.52,1,8.87-4.63,6.62,9.51,1.09-.56-4.73-10.8,14.37-9c5.67,10.06,11.28,19.73,16.47,29.61.64,1.21-.94,3.59-1.47,5.4l-2.33,2.32c-6.69,6.68-6.69,6.68-2.51,15L199,98.41c2.34,5.07,3.6,9.48-1.19,14.57-6.88,7.29-12.17,16.1-19.13,23.29-4.63,4.78-7.17,10.91-11.92,15.42-2.2,2.09-4.54,4-7.26,6.4.39,3.94-1.85,6.63-8.85,9.58.91,4.88-.93,7.21-7.93,10.88-1.25,3.08-1.77,5.37-3,7.17-2.42,3.51-5.27,6.73-7.89,10.1-1.29,1.66-2.18,3.35.73,4.31-1.66.92-3.64,1.53-4.89,2.84-3.86,4-7.44,8.31-11.08,12.55-.08.1.51.78.79,1.19l-7,9,1.21,1.06,2.59-1.56c-.91,5,2,8.73,6.91,8.75a60.35,60.35,0,0,0-3.54-7.38c-.52-.82-2.29-.83-3.5-1.21a43,43,0,0,0,2.41-3.72c.85-1.64,1.51-3.39,2.25-5.09,3.41,4.21,4.81-.58,7-1.78l7.2,6.52.81-.63-.91-4.89-.2.33c4.58-1,1.82-4.61,2.45-8.07l7.54,7.25,1.26-1.08-7.45-9.8,8.44,5.17c3.45-1.39,6.1-3.06,8.93-3.46,5.49-.78,9.06,4.5,6.6,9.47-2.09,4.23-4.64,8.23-6.76,12.44-2.25,4.48-4,9.2-6.43,13.59-1.21,2.22-3.39,3.88-5,5.92a4.46,4.46,0,0,0-.78,3.41l-23.35,39.19c3.53,7.64-4.94,12.27-6.42,20.25a33,33,0,0,0,2.86-3.14c7.8-12,15.54-24.13,23.38-36.16.49-.75,1.64-1.08,2.48-1.61a14.12,14.12,0,0,1,0,3.24,12.12,12.12,0,0,1-1.34,2.76l1,.55,15.77-29.48,4-7.15,7.83-11-4.11-4.32.53-.6,4.71,2.36c.59-.68,1.06-1,1.17-1.37,4.06-15.47,17.92-16.25,29.84-20,.3-.09.83-.27.9-.16,3.2,4.62,7.75,8.91,9,14,.85,3.35-3,7.9-5.14,12.85-3.14-4.07-5.63-7.66-8.55-10.85a5.79,5.79,0,0,0-4.63-1.52c-4.46.91-8.8,2.39-14.05,3.89,3.4,4.29,6.76.56,9.88,2-.8.23-1.61.47-2.42.67-1.3.33-2.61.63-3.64.87,1.87,3.31,3.4,6.39,5.32,9.2.68,1,2.33,1.33,3.54,2L178.1,250.27c5.16,3.52,2.61,7.46.33,11.6l-3.37-2.44-1.12,1.24c1.53,1.28,4.18,3.84,4.42,3.64,2.55-2.22,8-.18,8.72-5.76L182.7,258a5.4,5.4,0,0,1,.13-1.55c2.39-5.32,4.85-10.61,7.17-16,.34-.77,0-1.84,0-2.77l-1.57-3.3H200l-7.82-10.67.68-.66c1.38,1.64,3.07,3.1,4.07,4.94,2.85,5.23,7.1,5.54,12.13,4.1,7.6-2.18,15.28-4.12,22.84-6.43,3-.93,5-.58,6.65,2.31,2,3.41,4.55,6.48,6.69,9.8,2.55,4,7.09,7.39,3.48,12.86l6.56,1.15-.06,1.49-4.85,2.32,4.2.77c1.31,6.89-5.84,14.52,3,20.33l-1.23,1.09c-1.4-.87-3.2-1.43-4.12-2.66-7.3-9.67-14.43-19.46-21.83-29.51-1.83,3.4-1.83,5.71.72,8.88,8.53,10.59,16.48,21.65,24.76,32.45a71,71,0,0,0,5.88,6.07c-2.9,3.72-3,7.81-2.06,12.29l4.66-1.94,3.53,8.67M90.38,256.74l-.08.21.21-.08.82-.82,0,.07L95.12,253l1.85.25,7.73,8.78c2.2-5.22-1.63-6.39-3.22-8.58-1.48-2-3.06-1.83-4.61,0l3.38-6.09,6.91,4.26c-.22-2.06-.07-3-.44-3.75-2.55-4.92-6.85-4-11.08-3.17l4.08-4L97.88,239q-15.35,18.92-30,38.42l.9.75,8.43-9.92c-1,4.2,1.08,5.27,4.77,4.74l6.75,9.36,2.2-1.08c-.33-1.62-.12-4-1.1-4.69-2.43-1.65-3.76-6.64-8.24-3.45.77-4.36-.3-5.43-4.74-4.76l5.61-7c.22,1,.09,2.4.71,3,3.55,3.52,7.28,6.87,11,10.29,2.85-2.24,3-4,.56-6-2.69-2.18-5.19-4.62-8-6.64-1-.73-2.66-.57-4-.82,2.5-2.61,3.17-7.44,8.31-6.86l-.13,0c.09.52.17,1,.27,1.54l0,0Zm169.8,55.06a69.74,69.74,0,0,0-5.65-8.38q-11.24-14.52-22.59-28.94c-1.92-2.46-3.92-4.85-6.35-7.85-1.71,6.95-1.66,6.91,2,11.35,5.81,7.08,11.53,14.23,17.32,21.32,5.31,6.51,4.78,5.84,10.11,12.34M228.6,256c-2.63,2.56-8,.91-8.33,7,6.07-2.8,8.53,1.4,11.35,5.29,3.14,4.34,6.59,8.45,9.9,12.67l15.6,19.83,1.33-.47c-.3-2,.08-4.55-1-6C248.07,281.45,238.41,268.88,228.6,256Zm73.82,33.66,1.95,0c.54-9.54,1.14-19.07,1.57-28.61a56.81,56.81,0,0,0-.54-7.12l-1.76.16C303.67,265.91,300.89,277.73,302.42,289.61Zm-192.67-61.5L108.6,228c-1.11,1.47-2.6,2.8-3.25,4.45-.83,2.11-.56,4,2.63,4.09a8.94,8.94,0,0,1,4.52,1.61c1.71,1.17,3.09,2.81,5.54,5.13C118.73,235,109.36,234.49,109.75,228.11Zm111.54,54.26,11.6,12.38,1.36-1.05-11.47-16.09ZM99.11,268.11c3.16-2.29,3.44-4,.28-5.57-.75-.39-1.17-1.37-1.89-1.89-1.45-1.05-3-2-4.49-3l-1.48,1.73ZM68.28,287.47c4.46-4-1.67-4.57-2-8l-4.45,5.87Zm153.64,11.3c2.49-3.25,5.62-6.29-.81-9.79C221.92,292.46,216.89,295.49,221.92,298.76ZM125.3,232.27c.77-4.75-1.66-7.94-6.61-8.12ZM181.14,81.12l-1.27,1,7.56,10.93.81-.56Z"/><path class="cls-2" d="M444.3,0c10,7.28,21.73,10.41,33.25,14.13,14.75,4.76,29.39,9.84,44.08,14.78,3.56,1.2,4,3.46,1.49,7.69L490.9,24.72l5.68,67.95c-1.86-1.21-3-1.9-4.15-2.71-14.43-10.59-28.92-21.1-43.2-31.9A12.07,12.07,0,0,1,445,51.27c-2.64-14-5-28.07-7.11-42.16-.45-3-1.65-4.4-4.37-5.27-3.45-1.1-6.8-2.55-10.18-3.85Z"/><path class="cls-3" d="M0,47.57l7.8,6.69-.54.09,6.06,9.26-2.79,2,.4,1c7.29-2.35,14.6-4.65,21.86-7.08,11.72-3.92,23.38-8,35.13-11.82,1.35-.44,3.07.28,4.61.46l-.43,1.7-2-.91C68,53,51.7,58.3,47.71,56.32l-4.23,6.34c10.84-2.55,20.55-7,30.6-10.31l.84,1.11c-1.57,1.38-2.91,3.26-4.74,4.06C61.33,61.39,52.36,65,43.43,68.67c-1.4.58-2.73,1.3-4.1,2l.59,1.69c4.25-1.58,8.54-3,12.72-4.79,2.7-1.13,4.18-.6,4.63,2.68L41.67,77.3l1.46,3.61c-.8.16-1.6.43-1.66.32-1.56-3-3.82-2.3-6.17-1.26L17.55,87.75c1.35,4.42,3.18,5,6.88,3.33C44.16,82.1,64,73.4,84.27,64.41L88,69.05l-28,13.44.3.82L65,81.95l.34.48a14.94,14.94,0,0,1-1.91,1.35Q32.62,99.18,1.79,114.53a12.71,12.71,0,0,1-1.79.59Q0,81.34,0,47.57Zm18.79,45.7L11.6,89.79,11,91l2.87,4.81Z"/><path class="cls-2" d="M385.88,87A44.36,44.36,0,0,1,383,82.78c-4.53-8.32-9.17-16.61-13.37-25.09-1.39-2.8-1.58-6.18-2.39-9.27a37.07,37.07,0,0,0-1.35-3.51l-.6,6.69c-.74-3.37-1-7-2.38-10-1.23-2.75-3.71-4.93-5.63-7.37l-.4-2.27-2.91-7.73L348.16,3.33l1.06-.42-.13-.14,1.17,2,.86-2.61L351.06,0H353l10.52,13.29c-.44.4-1.32.88-1.26,1.18a98.4,98.4,0,0,0,2.21,9.61,22,22,0,0,0,2.43,4.32l.72-.49-4.28-14.77,6.85,7.76c-.59.22-1.7.6-1.69.62,1.9,5.89,3.87,11.76,5.85,17.64.58,6.81.57,13.81,6.87,18.66l-6.88-18.67,1.8.62-6.13-19,7.76,8.68-.15.28a11.46,11.46,0,0,0-.07,3.46c2,6.68,4.12,13.32,6.2,20,0,1.1-.4,2.29-.08,3.27,2,6.3,4.22,12.55,6.36,18.82l.1-.15c-.26.94-1,2-.71,2.8,1.68,5.48,3.56,10.91,5.38,16.35l.09-.16,1.72,12.09-8.93-14.72,2.85,1.91-4.45-14.49c.26-.55.88-1.23.73-1.64-1.1-3.1-2.38-6.13-3.53-9.21-1-2.68-1.92-5.4-2.87-8.1l-1.68.57c1.37,4.2,2.59,8.45,4.16,12.57A43.58,43.58,0,0,0,386.22,79c-.69.6-2,1.29-1.95,1.78A52.41,52.41,0,0,0,385.88,87ZM370.93,45.15l1.47-.48L368.29,31.6l-1.42.46Zm2.15,3.43-1.55.51,3.83,11.64,1.34-.45Z"/><path class="cls-2" d="M392,0c1.33,7.13,1.9,14.53,4.31,21.28,1.32,3.71,5.29,8,8.9,9,4.83,1.3,7.87,4.41,11.29,7.07,3.88,3,6.88,7.12,10.41,10.6,2.35,2.31,4.9,4.44,7.46,6.52q35.18,28.69,70.41,57.32c2.09,1.7,4.41,3.15,6.31,5,1.28,1.27,2,3.11,3,4.69l-1.11.81c-1.12-.78-2.31-1.49-3.36-2.36Q471.82,88.73,434.1,57.48,401.66,30.68,369.17,4a48.22,48.22,0,0,1-3.84-4H377.7c.39,2.48.73,5,1.18,7.45.72,4,3.5,5.75,7.55,7.21L382.46,0Z"/><path class="cls-2" d="M418.61,0l7.94,40.25-1.1.84c-6.33-4.81-12.68-9.6-18.95-14.49A4.58,4.58,0,0,1,405.42,24c-1.66-8-3.27-16-4.89-24Z"/><path class="cls-2" d="M488.06,0l1.35,9.82L456.66,0Z"/><path class="cls-3" d="M382.46,0l4,14.66c-4-1.46-6.83-3.23-7.55-7.21-.45-2.47-.79-5-1.18-7.45Z"/><path class="cls-2" d="M351.12,2.2l-.86,2.61-1.17-2,.13.14L349.16,0h1Z"/><path class="cls-3" d="M199,98.41l-1.27-2.55c-4.19-8.32-4.19-8.32,2.51-15l2.33-2.32c1.77-2.14,3.45-2.75,4.88.36a4.35,4.35,0,0,0,.25.4c7.8,13,7.7,13.73-4,25.23Z"/><path class="cls-2" d="M136.43,204.46l7.45,9.8-1.26,1.08-7.54-7.25c-.63,3.46,2.13,7.11-2.45,8.07L128.75,210l-1.48,1.58,5.56,4.23.91,4.89-.81.63-7.2-6.52c-2.15,1.2-3.55,6-7,1.78l-1.35.1c-.28-.41-.88-1.1-.79-1.19,3.63-4.24,7.22-8.52,11.08-12.55,1.25-1.31,3.24-1.92,4.89-2.84Z"/><path class="cls-2" d="M264.33,303.37l-4.66,1.94c-.95-4.48-.85-8.57,2.06-12.29l-.16-.07,6.31,8.7.83,1.79,6.28,8.2h0"/><path class="cls-2" d="M190,237.71c0,.93.36,2,0,2.77-2.32,5.35-4.79,10.64-7.17,16a5.4,5.4,0,0,0-.13,1.55l4.39.55c-.68,5.58-6.17,3.53-8.72,5.76-.24.21-2.89-2.36-4.42-3.64l1.12-1.24,3.37,2.44c2.28-4.14,4.83-8.08-.33-11.6l12.08-12.69Z"/><path class="cls-3" d="M80.87,60.23C74,63.16,67.72,66,61.28,68.5c-1.06.41-2.68-.61-4.87-1.18C64.69,61.41,78.22,57.35,80.87,60.23Z"/><path class="cls-2" d="M378.09,81.88c1.14.84,2.76,1.44,3.36,2.57,3.64,6.91,7.08,13.93,10.51,20.95.81,1.65,1.62,3.67-1.76,2.36l-.09.19-4.37-4.76c0-1,.34-2.21,0-3.12-1.28-3.46-2.78-6.83-4.2-10.24l-2.36-5.16-1-2.88Z"/><path class="cls-3" d="M357.23,34.18c1.93,2.43,4.4,4.62,5.63,7.37,1.38,3.09,1.64,6.68,2.38,10l-.17.54-.36-.18-1.39-2.88-4.63,3.8c.19-2.72,0-4.45.5-6,.65-2.16.31-3.4-1.19-5.34C356.71,39.89,357.4,36.7,357.23,34.18Z"/><path class="cls-3" d="M381.54,89.83c1.42,3.41,2.91,6.78,4.2,10.24.34.91,0,2.07,0,3.12l.16-.08-.23,0,.19.11c-2.57-2.27-5.4-4.31-7.66-6.87C374.16,91.8,379.22,91.42,381.54,89.83Z"/><path class="cls-3" d="M17.94,61.47c7.15-6.27,14.73-6.64,22.62-5.75Z"/><path class="cls-3" d="M160,239.48l-4,7.15-2.66,1.15c-.21-.53-.76-1.25-.59-1.58,2.11-3.84,4.34-7.63,6.53-11.43l1.61.71Z"/><path class="cls-3" d="M367.43,57.38l1.33,2.32c.46,2.08.93,4.19,1.41,6.39-3.6,2.7-5.47,1.36-5.36-2.4Z"/><path class="cls-3" d="M378.23,81.79l1,2.88-.7,2.85c-2.84-.87-7.07-.83-6.07-5.18C373.22,78.84,376.17,81.23,378.23,81.79Z"/><path class="cls-3" d="M385.86,103.24l-.19-.11.2.21,2.18,6.28v3.18l-3.74-3-1.17-.72-1.7-6.14Z"/><path class="cls-3" d="M91.89,61.73c2.05-.92,3.81-2.06,5.72-2.41.87-.16,2,1.26,3.06,2-.67.83-1.2,2.16-2,2.39C96.39,64.29,93.56,66.65,91.89,61.73Z"/><path class="cls-3" d="M317.12,301.7l1.2-4.82,1.06-.29,5.91,12.07-.8.47L318.23,301Z"/><path class="cls-3" d="M295.67,198.28c-.23-4.6-.23-4.6,8.14-5.66C304.06,194.47,304.06,194.47,295.67,198.28Z"/><path class="cls-3" d="M372.63,77.67,367.14,74l.34-1.47c1.38-.5,3.48-1.82,4-1.36,1.31,1.18,1.91,3.14,2.8,4.79Z"/><path class="cls-3" d="M364.71,52l.36.18,1.34,4.5a18.79,18.79,0,0,1-3.19,2.53c-.23.12-2-1.72-1.85-2A45.65,45.65,0,0,1,364.71,52Z"/><path class="cls-3" d="M383.13,109.08l1.17.72,1.83,6.72-8.79-9.7.95-.86Z"/><path class="cls-3" d="M275,311.65l-6.28-8.2,3.16,2.11,1.54-2.43,1,.07Z"/><path class="cls-3" d="M267.88,301.65l-6.31-8.7,3.17,3.41,2.4-3.25Z"/><path class="cls-3" d="M386.13,116.53l-1.83-6.72,3.74,3c0-1.36,0-2.27,0-3.18l3.38,8.35c-1.92-.23-2.86-4-5.54-1.51Z"/><path d="M353.91,24.18l2.91,7.73-1.47-.19h.15Z"/><path class="cls-3" d="M355.5,31.72h0Z"/><path class="cls-2" d="M508.54,250.54c-3.62-5.51-7.27-11-10.87-16.52q-13.48-20.69-26.94-41.41c-3.68-5.65-6.75-18.39-6.08-26.5,4.13,5.85,7.94,11.19,11.68,16.59q15,21.67,29.92,43.41a11.56,11.56,0,0,1,1.77,5.17c.63,6.28,1,12.58,1.48,18.88Z"/><path class="cls-2" d="M377.75,29.42c4.69,5,9.51,10,14.05,15.14Q414,69.82,436,95.26c1.13,1.3,1.61,3.17,2.39,4.77l.1-.09L434,97l4.08,5.4c-1.82,2.74-9,.47-6.11,7.7l-1.86,0c-3.11-5.26-6.52-10.38-9.19-15.86a26.35,26.35,0,0,1-2.14-9.7c-.53-8.29-5.55-13.77-12-20.09l3.78,17.35-1.37.81c-3.58-5.7-7.46-11.23-10.6-17.16-1.58-3-1.5-6.81-2.73-10-1.49-3.95-3.56-7.68-5.38-11.5l-1.66.69L392.08,58l-2.86-1.13-.5-1.63C386.94,51.6,385,48,383.44,44.32c-2.08-4.82-3.91-9.74-5.84-14.62Z"/><path class="cls-2" d="M471,204.53,492.75,240c4.46,7.28,8.45,14.91,13.49,21.76,5.19,7,5.55,14.79,5.67,23.86-1.23-1.61-2-2.46-2.58-3.42-11.72-19.88-23.68-39.63-34.93-59.78-2.87-5.15-3.45-11.58-5.08-17.42Z"/><path class="cls-2" d="M447.54,157.51c-5.18-7.85-11.11-15.31-15.31-23.65s-6.61-17.46-9-27c1.29,1.08,2.91,1.93,3.8,3.27,2.62,4,4.87,8.24,7.43,12.28a77.19,77.19,0,0,0,6.66,9.55c6.44,7.39,4.86,16.79,7.55,25.11Z"/><path class="cls-2" d="M476.05,237l34.51,62c-3.15,1.85-5,1.64-6.72-1.59-8.42-15.77-17.23-31.34-25.5-47.18-2-3.84-2.48-8.48-3.66-12.75Z"/><path class="cls-2" d="M431.84,141.15c10.82,13.46,21.5,27,21.38,45.78C445.45,172,432.65,159.53,431.84,141.15Z"/><path class="cls-2" d="M388.72,55.23l.5,1.63a50.72,50.72,0,0,1,8.4,24.66,46.15,46.15,0,0,0,2,8.23c1,3.71,2.17,7.38,3.18,11.09a8.32,8.32,0,0,1-1.4.68c-.05-.12-.15-.33-.3-.61l-11-25.83-.1.15,3.27,2.06c-1.5-4.22-3-8.82-4.78-13.3-1.48-3.73-3.31-7.32-5-11Z"/><path class="cls-2" d="M429.64,169.93l-12.8-24.17.76-.75,2.64,1.94-8-22.18,1.52-.74c3.6,7.25,7.85,14.25,10.62,21.8s4.18,15.92,6.18,23.91Z"/><path class="cls-2" d="M458.86,214.09c-7.61-8.35-21.4-37.74-20.71-44.14C453.76,193.52,458.51,203.63,458.86,214.09Z"/><path class="cls-2" d="M438.38,100c1.16.72,2.59,1.2,3.45,2.19q27.85,32.15,55.57,64.4a4.19,4.19,0,0,1,1.16,2.62C477.5,147,457.75,123.7,438.48,99.94Z"/><path class="cls-2" d="M415.35,109.93c-3.67-6.83-7.71-13.5-10.88-20.55-2.21-4.91-3.23-10.36-4.38-16.15,3.86,5.61,7.48,11.41,11.65,16.79,4.52,5.84,2.68,13,5.25,19.16Z"/><path class="cls-2" d="M421.88,134.31c-5.87-9.39-12.93-18.11-13.41-30.45A45.64,45.64,0,0,1,421.88,134.31Z"/><path class="cls-2" d="M401.08,100.91c.14.28.24.48.3.61,2,4.8,4.4,9.47,5.75,14.44,1.3,4.77,1.48,9.84,1.63,15.21l-9.4-18.8,3.87,3.45-8.36-21.75-.09.16Z"/><path class="cls-2" d="M459.42,225.8,440.6,190.45l1.67-.88L461.09,225Z"/><path class="cls-2" d="M449,218.65,468.3,258l-1.93.91c-6.41-13.14-13.43-26-19-39.51Z"/><path class="cls-2" d="M452.8,237.09l18.86,41.22-1.4.62c-6.15-13.81-13.62-27-18.73-41.28Z"/><path class="cls-2" d="M440.47,216.92l-12.73-28.44,1.6-.72,12.87,28.38Z"/><path class="cls-2" d="M474.28,164.19l20.6,27.08-1.14.86L473.19,165Z"/><path class="cls-2" d="M439.29,250.14,444.9,272c-2.25-7.21-8.31-13.29-7.21-21.5Z"/><path class="cls-3" d="M394.86,94.07l8.36,21.75-3.87-3.45-2.77-6.21Z"/><path class="cls-2" d="M404.05,130.74c.91,1,2.13,1.82,2.69,3,3.4,7,6.75,13.93,9.83,21,.48,1.11-.48,2.86-.77,4.31l.13.14q-5.9-14.28-11.78-28.58Z"/><path class="cls-2" d="M436.06,198.24l-12.19-26,1.55-.71,12.68,25.85Z"/><path class="cls-2" d="M418.94,171.92l5.53,16.8-1.2.56a53.32,53.32,0,0,1-3.45-6.57,73.75,73.75,0,0,1-2.58-9.49c-.09-.4,1-1.07,1.56-1.62C418.85,171.73,418.89,171.83,418.94,171.92Z"/><path class="cls-2" d="M433.41,204.89l12.25,28.54-1.29.55-12.19-28.57Z"/><path class="cls-2" d="M401.35,128.23,407,144.52l-1.12.48c-1.76-4.64-3.64-9.24-5.21-13.94-.5-1.49-.18-3.25-.24-4.88Z"/><path class="cls-3" d="M386.06,78.85l4.45,14.49-2.85-1.91L385.88,87a52.41,52.41,0,0,1-1.6-6.21c-.07-.49,1.26-1.18,1.95-1.78Z"/><path class="cls-2" d="M418.94,171.92c0-.09-.09-.2-.14-.31l-6.33-14.87.93-.47,2.52,2.92-.13-.14,5.45,14.81-.69.38Z"/><path class="cls-2" d="M401.35,128.23l-.92-2.06-4.21-9.58,1.66-.72q3.09,7.42,6.18,14.86l.08-.11C403.21,129.83,402.28,129,401.35,128.23Z"/><path class="cls-2" d="M390.11,108l.09-.19,6.29,14.36-1.32.9-4-5.12c.3-.94,1-2,.83-2.81C391.59,112.67,390.78,110.33,390.11,108Z"/><path class="cls-3" d="M390.11,108c.67,2.37,1.48,4.72,1.94,7.13.16.85-.53,1.87-.83,2.81l.21.07L388,109.62l-2.18-6.28,0-.23-.16.08Z"/><path class="cls-2" d="M445,242.4l-7.26-17.12,1-.45,7.53,16.87Z"/><path class="cls-2" d="M496.72,296.15,492.44,288l1.68-.88,4.2,8.18Z"/><path class="cls-2" d="M228.6,256c9.81,12.93,19.47,25.5,28.87,38.27,1.07,1.46.7,4,1,6l-1.33.47-15.6-19.83c-3.31-4.21-6.76-8.33-9.9-12.67-2.82-3.89-5.28-8.09-11.35-5.29C220.6,256.86,226,258.51,228.6,256Z"/><path class="cls-2" d="M302.42,289.61c-1.53-11.88,1.25-23.7,1.22-35.55l1.76-.16a56.81,56.81,0,0,1,.54,7.12c-.43,9.54-1,19.08-1.57,28.61Z"/><path class="cls-2" d="M77.24,268.28l-8.43,9.93-.9-.75Q82.58,258,97.88,239l1.84,1.56-4.07,4c-.81,2-1.64,4-2.46,6l-1,3.48.1-.17-1.14,2c-.09-.52-.17-1-.27-1.57l-.08-.29.21.26c-5.13-.58-5.81,4.25-8.31,6.86l-.25.19-5.61,7Z"/><path class="cls-2" d="M82.49,261.37l.25-.19c1.35.25,3,.1,4,.83,2.8,2,5.3,4.46,8,6.64,2.46,2,2.29,3.79-.56,6-3.69-3.42-7.42-6.77-11-10.29C82.58,263.77,82.71,262.4,82.49,261.37Z"/><path class="cls-2" d="M109.75,228.11c-.4,6.38,9,6.93,8.29,15.17-2.45-2.32-3.83-4-5.54-5.13a8.94,8.94,0,0,0-4.52-1.61c-3.19-.09-3.46-2-2.63-4.09.65-1.65,2.13-3,3.25-4.45Z"/><path class="cls-2" d="M93.19,250.61c.83-2,1.65-4,2.46-6,4.22-.78,8.52-1.73,11.07,3.19.37.71.22,1.69.44,3.75l-6.91-4.26-3.38,6.09.1-.14L95.12,253l.09.14Z"/><path class="cls-2" d="M221.29,282.38l1.48-4.77,11.47,16.09-1.36,1.05Z"/><path class="cls-2" d="M81.62,273.16c4.47-3.19,5.81,1.8,8.24,3.45,1,.66.77,3.08,1.1,4.69l-2.2,1.08L82,273Z"/><path class="cls-2" d="M99.11,268.11l-7.58-8.69L93,257.69c1.5,1,3,1.9,4.49,3,.71.52,1.13,1.51,1.89,1.89C102.56,264.16,102.27,265.82,99.11,268.11Z"/><path class="cls-2" d="M96.87,253.38c1.56-1.79,3.14-2,4.61,0,1.59,2.18,5.42,3.36,3.22,8.58L97,253.24Z"/><path class="cls-2" d="M114.11,225.42c1.2.38,3,.4,3.49,1.21a60.35,60.35,0,0,1,3.54,7.38c-4.95,0-7.83-3.73-6.91-8.75Z"/><path class="cls-2" d="M68.28,287.47l-6.42-2.16,4.45-5.87C66.6,282.89,72.74,283.5,68.28,287.47Z"/><path class="cls-2" d="M221.92,298.76c-5-3.27,0-6.3-.81-9.79C227.54,292.47,224.41,295.51,221.92,298.76Z"/><path class="cls-2" d="M117.43,216.72l1.35-.1c-.75,1.7-1.4,3.44-2.26,5.09a43,43,0,0,1-2.41,3.72l.13-.16-2.59,1.56-1.21-1.06Z"/><path class="cls-2" d="M125.3,232.27l-6.61-8.12C123.64,224.33,126.06,227.52,125.3,232.27Z"/><path class="cls-2" d="M81.62,273.16,82,273c-3.69.53-5.79-.54-4.77-4.75l-.36.12C81.33,267.73,82.39,268.8,81.62,273.16Z"/><path class="cls-2" d="M181.14,81.12l7.11,11.37-.81.56-7.56-10.93Z"/><path d="M132.83,215.84l-5.56-4.23,1.48-1.58,3.88,6.13Z"/><path class="cls-2" d="M95.12,253l-3.77,3.14,1-2.19-.1.17,3-1Z"/><path d="M92.31,253.92l-1,2.19s0-.06,0-.06l-.13-.13s0,0,0,0Z"/><polygon points="90.51 256.87 90.3 256.95 90.38 256.74 90.51 256.87"/><path d="M90.38,256.74l.82-.82.13.13-.82.82Z"/><path d="M91,254.32l-.21-.26.08.29Z"/><path class="cls-2" d="M18.79,93.27l-4.92,2.52L11,91l.6-1.18Z"/><path class="cls-3" d="M388.72,55.23,383.52,53l.21.13c-2.08-6.65-4.22-13.29-6.2-20a11.46,11.46,0,0,1,.07-3.46c1.94,4.88,3.76,9.8,5.84,14.62C385,48,386.94,51.6,388.72,55.23Z"/><path class="cls-3" d="M383.73,53.14l-.21-.13c1.67,3.65,3.5,7.25,5,11,1.78,4.48,3.28,9.08,4.78,13.3L390,75.22c-2.14-6.27-4.32-12.52-6.36-18.82C383.33,55.43,383.69,54.23,383.73,53.14Z"/><path class="cls-3" d="M401.08,100.91l-6.31-6.68c-1.82-5.44-3.69-10.87-5.38-16.35-.24-.79.45-1.86.71-2.8Z"/><path class="cls-3" d="M370,20.74l6.13,19-1.8-.62h0c-2-5.87-4-11.74-5.85-17.63,0,0,1.1-.41,1.69-.62Z"/><path class="cls-3" d="M386.22,79A43.58,43.58,0,0,1,382.86,73c-1.57-4.12-2.79-8.37-4.16-12.57l1.68-.57c1,2.7,1.87,5.42,2.87,8.1,1.15,3.08,2.44,6.11,3.53,9.21.14.41-.47,1.09-.73,1.64Z"/><path class="cls-3" d="M374.31,39.16l6.88,18.67C374.88,53,374.9,46,374.32,39.16Z"/><path class="cls-3" d="M363.31,13.14l4.28,14.77-.72.49a22,22,0,0,1-2.43-4.32,98.4,98.4,0,0,1-2.21-9.61c-.06-.3.82-.78,1.26-1.18Z"/><path class="cls-3" d="M370.93,45.15l-4.06-13.08,1.42-.46,4.11,13.06Z"/><path class="cls-3" d="M373.08,48.58l3.62,11.7-1.34.45-3.83-11.64Z"/><path d="M349.09,2.77l1.17,2Z"/><polygon class="cls-3" points="385.9 103.11 385.87 103.34 385.67 103.14 385.9 103.11"/><path d="M95.21,253.12l-3,1,1-3.48Z"/></g></g></g></svg>