<?xml version="1.0" encoding="utf-8"?>
<!-- Generator: Adobe Illustrator 19.2.1, SVG Export Plug-In . SVG Version: 6.00 Build 0)  -->
<svg version="1.1" xmlns="http://www.w3.org/2000/svg" xmlns:xlink="http://www.w3.org/1999/xlink" x="0px" y="0px"
	 viewBox="0 0 47 47" style="enable-background:new 0 0 47 47;" xml:space="preserve">
<style type="text/css">
	.st0{display:none;}
	.st1{display:inline;}
	.st2{fill:none;stroke:#DD5F13;stroke-miterlimit:10;}
	.st3{fill:#DD5F13;}
	.st4{fill:#FFFFFF;}
	.st5{font-family:'UniversLTStd-Cn';}
	.st6{font-size:12px;}
	.st7{fill:none;stroke:#686868;stroke-miterlimit:10;}
	.st8{fill:#686868;}
</style>
<g id="Layer_1" class="st0">
	<g class="st1">
		<circle class="st2" cx="23.5" cy="23.6" r="22.5"/>
		<g>
			<ellipse class="st3" cx="23.8" cy="23.6" rx="19.7" ry="19.6"/>
			<text transform="matrix(0.7 0 0 0.7 7.0334 26.6548)" class="st4 st5 st6">address</text>
		</g>
	</g>
</g>
<g id="Layer_2" class="st0">
	<g class="st1">
		<circle class="st2" cx="23.5" cy="23.7" r="22.5"/>
		<g>
			<ellipse class="st3" cx="23.8" cy="23.7" rx="19.7" ry="19.6"/>
			<text transform="matrix(0.7 0 0 0.7 11.2375 26.6548)" class="st4 st5 st6">metro</text>
		</g>
	</g>
</g>
<g id="Layer_3" class="st0">
	<g class="st1">
		<circle class="st2" cx="23.5" cy="23.7" r="22.5"/>
		<g>
			<ellipse class="st3" cx="23.8" cy="23.7" rx="19.7" ry="19.6"/>
			<g>
				<path class="st4" d="M17.6,21v0.2c0,0.8,0.5,1.1,1,1.1c0.6,0,1.1-0.3,1.1-1c0-1.3-2.7-1.2-2.7-3c0-1.1,0.8-1.6,1.8-1.6
					c1.1,0,1.7,0.5,1.7,1.8h-0.8c0-0.7-0.2-1.1-0.9-1.1c-0.5,0-0.9,0.2-0.9,0.9c0,1.3,2.7,1.1,2.7,3.1c0,1.3-0.9,1.7-1.9,1.7
					c-1.8,0-1.8-1.4-1.8-1.9H17.6z"/>
				<path class="st4" d="M21.7,16.7h0.8v3.9c0,1.3,0.4,1.7,1.1,1.7c0.7,0,1.1-0.3,1.1-1.7v-3.9h0.8v3.9c0,1.7-0.6,2.3-1.9,2.3
					c-1.3,0-1.9-0.7-1.9-2.3V16.7z"/>
				<path class="st4" d="M26.9,22.8v-6.1h2c0.8,0,1.1,0.3,1.4,0.6c0.2,0.3,0.2,0.7,0.2,0.8c0,0.8-0.3,1.3-1,1.4v0
					c0.9,0.1,1.2,0.6,1.2,1.5c0,1.6-1.1,1.7-1.8,1.7H26.9z M27.7,19.3h1.1c0.6,0,0.9-0.4,0.9-1c0-0.5-0.3-0.9-0.9-0.9h-1.1V19.3z
					 M27.7,22.1h1.1c0.8,0,1.1-0.6,1.1-1c0-1-0.6-1.1-1.4-1.1h-0.8V22.1z"/>
				<path class="st4" d="M10.3,32.2H9.6v-6.1h1.3l1.5,5.1h0l1.5-5.1h1.3v6.1h-0.8v-5.4h0l-1.7,5.4H12l-1.7-5.4h0V32.2z"/>
				<path class="st4" d="M18,26.2h1l2,6.1H20l-0.4-1.4h-2.3l-0.5,1.4H16L18,26.2z M18.4,26.9L18.4,26.9l-1,3.2h1.9L18.4,26.9z"/>
				<path class="st4" d="M22.5,29.4v2.8h-0.8v-6.1h2.1c1.1,0,1.5,0.8,1.5,1.5c0,0.7-0.4,1.3-1.1,1.4v0c0.7,0.1,1,0.3,1,1.6
					c0,0.3,0.1,1.2,0.2,1.6h-0.8c-0.2-0.4-0.2-1.2-0.2-2c-0.1-0.7-0.7-0.8-0.9-0.8H22.5z M22.5,28.8h1.2c0.6,0,0.8-0.5,0.8-1
					c0-0.4-0.2-0.9-0.8-0.9h-1.2V28.8z"/>
				<path class="st4" d="M26.4,32.2v-6.1h0.8v2.7h0l2.1-2.7h0.9L28,28.9l2.3,3.3h-1l-2.1-3.2h0v3.2H26.4z"/>
				<path class="st4" d="M31.1,32.2v-6.1h3.1v0.7h-2.4v2H34v0.7h-2.2v2.1h2.4v0.7H31.1z"/>
				<path class="st4" d="M38.7,26.2v0.7h-1.6v5.4h-0.8v-5.4h-1.6v-0.7H38.7z"/>
			</g>
		</g>
	</g>
</g>
<g id="Layer_4" class="st0">
	<g class="st1">
		<circle class="st2" cx="23.5" cy="23.7" r="22.5"/>
		<g>
			<ellipse class="st3" cx="23.8" cy="23.7" rx="19.7" ry="19.6"/>
			<text transform="matrix(0.7 0 0 0.7 14.2656 22.8051)"><tspan x="0" y="0" class="st4 st5 st6">prop</tspan><tspan x="-2" y="13.5" class="st4 st5 st6">name</tspan></text>
		</g>
	</g>
</g>
<g id="Layer_5" class="st0">
	<g class="st1">
		<circle class="st2" cx="23.5" cy="23.7" r="22.5"/>
		<g>
			<ellipse class="st3" cx="23.8" cy="23.7" rx="19.7" ry="19.6"/>
			<text transform="matrix(0.7 0 0 0.7 8.9023 26.8051)" class="st4 st5 st6">market</text>
		</g>
	</g>
</g>
<g id="Layer_6" class="st0">
	<g class="st1">
		<circle class="st7" cx="23.5" cy="23.7" r="22.5"/>
		<g>
			<ellipse class="st8" cx="23.8" cy="23.7" rx="19.7" ry="19.6"/>
			<text transform="matrix(0.7 0 0 0.7 7.0334 26.8051)" class="st4 st5 st6">country</text>
		</g>
	</g>
</g>
<g id="Layer_7" class="st0">
	<g class="st1">
		<circle class="st7" cx="23.5" cy="23.7" r="22.5"/>
		<g>
			<ellipse class="st8" cx="23.8" cy="23.7" rx="19.7" ry="19.6"/>
			<text transform="matrix(0.7 0 0 0.7 16.1345 26.8051)" class="st4 st5 st6">city</text>
		</g>
	</g>
</g>
<g id="Layer_8" class="st0">
	<g class="st1">
		<circle class="st7" cx="23.5" cy="23.7" r="22.5"/>
		<g>
			<ellipse class="st8" cx="23.8" cy="23.7" rx="19.7" ry="19.6"/>
			<text transform="matrix(0.7 0 0 0.7 16.3698 21.8051)"><tspan x="0" y="0" class="st4 st5 st6">sub</tspan><tspan x="-12" y="13.5" class="st4 st5 st6">theatre</tspan></text>
		</g>
	</g>
</g>
<g id="Layer_9" class="st0">
	<g class="st1">
		<circle class="st7" cx="23.5" cy="23.7" r="22.5"/>
		<g>
			<ellipse class="st8" cx="23.8" cy="23.7" rx="19.7" ry="19.6"/>
			<text transform="matrix(0.7 0 0 0.7 10.07 21.8051)"><tspan x="0" y="0" class="st4 st5 st6">postal</tspan><tspan x="6" y="13.5" class="st4 st5 st6">code</tspan></text>
		</g>
	</g>
</g>
<g id="Layer_10" class="st0">
	<g class="st1">
		<circle class="st7" cx="23.5" cy="23.7" r="22.5"/>
		<g>
			<ellipse class="st8" cx="23.8" cy="23.7" rx="19.7" ry="19.6"/>
			<g>
				<path class="st4" d="M11.5,20v0.2c0,0.8,0.5,1.1,1,1.1c0.6,0,1.1-0.3,1.1-1c0-1.3-2.7-1.2-2.7-3c0-1.1,0.8-1.6,1.8-1.6
					c1.1,0,1.7,0.5,1.7,1.8h-0.8c0-0.7-0.2-1.1-0.9-1.1c-0.5,0-0.9,0.2-0.9,0.9c0,1.3,2.7,1.1,2.7,3.1c0,1.3-0.9,1.7-1.9,1.7
					c-1.8,0-1.8-1.4-1.8-1.9H11.5z"/>
				<path class="st4" d="M19,15.7v0.7h-1.6v5.4h-0.8v-5.4H15v-0.7H19z"/>
				<path class="st4" d="M20.6,15.7h1l2,6.1h-0.9l-0.4-1.4h-2.3l-0.5,1.4h-0.8L20.6,15.7z M21,16.4L21,16.4l-1,3.2H22L21,16.4z"/>
				<path class="st4" d="M27.1,15.7v0.7h-1.6v5.4h-0.8v-5.4h-1.6v-0.7H27.1z"/>
				<path class="st4" d="M27.9,21.8v-6.1H31v0.7h-2.4v2h2.2V19h-2.2v2.1h2.4v0.7H27.9z"/>
				<path class="st4" d="M34.6,23h-0.8l2.8-9.8h0.8L34.6,23z"/>
				<path class="st4" d="M7.4,31.2v-6.1h1.8c0.8,0,1.7,0.3,1.7,1.7c0,1.4-1.1,1.7-1.7,1.7h-1v2.7H7.4z M8.2,27.9H9
					c0.3,0,1.1-0.1,1.1-1c0-0.9-0.7-1-0.9-1H8.2V27.9z"/>
				<path class="st4" d="M12.5,28.4v2.8h-0.8v-6.1h2.1c1.1,0,1.5,0.8,1.5,1.5c0,0.7-0.4,1.3-1.1,1.4v0c0.7,0.1,1,0.3,1,1.6
					c0,0.3,0.1,1.2,0.2,1.6h-0.8c-0.2-0.4-0.2-1.2-0.2-2c-0.1-0.7-0.7-0.8-0.9-0.8H12.5z M12.5,27.8h1.2c0.6,0,0.8-0.5,0.8-1
					c0-0.4-0.2-0.9-0.8-0.9h-1.2V27.8z"/>
				<path class="st4" d="M16.2,29v-2c0-1.2,0.6-2,1.9-2c1.3,0,1.9,0.8,1.9,2v2c0,1.7-0.6,2.3-1.9,2.3C16.8,31.3,16.2,30.7,16.2,29z
					 M19.2,29V27c0-1.3-0.9-1.3-1.1-1.3S17,25.7,17,27V29c0,1.3,0.4,1.7,1.1,1.7S19.2,30.4,19.2,29z"/>
				<path class="st4" d="M23.2,31.2h-0.9l-1.8-6.1h0.8l1.4,5.3h0l1.4-5.3H25L23.2,31.2z"/>
				<path class="st4" d="M26.5,31.2h-0.8v-6.1h0.8V31.2z"/>
				<path class="st4" d="M31.9,25.2v6.1h-1.1L28.5,26h0v5.3h-0.7v-6.1h1.1l2.4,5.2h0v-5.2H31.9z"/>
				<path class="st4" d="M35.8,26.8c0-0.3,0-0.7-0.2-0.9c-0.2-0.2-0.5-0.3-0.7-0.3c-0.6,0-0.9,0.4-0.9,0.5c0,0.1-0.2,0.2-0.2,1.3V29
					c0,1.5,0.5,1.7,1.1,1.7c0.2,0,0.9-0.1,1-1.3h0.8c0,1.9-1.3,1.9-1.7,1.9c-0.8,0-1.9,0-1.9-2.4v-1.7c0-1.7,0.8-2.2,2-2.2
					c1.2,0,1.7,0.6,1.6,1.8H35.8z"/>
				<path class="st4" d="M37.6,31.2v-6.1h3.1v0.7h-2.4v2h2.2v0.7h-2.2v2.1h2.4v0.7H37.6z"/>
			</g>
		</g>
	</g>
</g>
<g id="Layer_11" class="st0">
	<g class="st1">
		<circle class="st7" cx="23.5" cy="23.7" r="22.5"/>
		<g>
			<ellipse class="st8" cx="23.8" cy="23.7" rx="19.7" ry="19.6"/>
			<g>
				<path class="st4" d="M8.1,22.4c0-0.3,0-0.7-0.2-0.9c-0.2-0.2-0.5-0.3-0.7-0.3c-0.6,0-0.9,0.4-0.9,0.5c0,0.1-0.2,0.2-0.2,1.3v1.6
					c0,1.5,0.5,1.7,1.1,1.7c0.2,0,1-0.1,1-1.3H9c0,1.9-1.3,1.9-1.7,1.9c-0.8,0-1.9-0.1-1.9-2.4v-1.7c0-1.7,0.8-2.2,2-2.2
					c1.2,0,1.7,0.6,1.6,1.8H8.1z"/>
				<path class="st4" d="M9.7,24.6v-2c0-1.2,0.6-2,1.9-2c1.3,0,1.9,0.8,1.9,2v2c0,1.7-0.6,2.3-1.9,2.3C10.3,26.9,9.7,26.3,9.7,24.6z
					 M12.7,24.6v-2.1c0-1.3-0.9-1.3-1.1-1.3c-0.2,0-1.1,0-1.1,1.3v2.1c0,1.3,0.4,1.7,1.1,1.7S12.7,25.9,12.7,24.6z"/>
				<path class="st4" d="M18.6,20.7v6.1h-1.1l-2.4-5.3h0v5.3h-0.7v-6.1h1.1l2.4,5.2h0v-5.2H18.6z"/>
				<path class="st4" d="M23,20.7v0.7h-1.6v5.4h-0.8v-5.4H19v-0.7H23z"/>
				<path class="st4" d="M24.2,26.8h-0.8v-6.1h0.8V26.8z"/>
				<path class="st4" d="M29.5,20.7v6.1h-1.1L26,21.5h0v5.3h-0.7v-6.1h1.1l2.4,5.2h0v-5.2H29.5z"/>
				<path class="st4" d="M30.4,26.8v-6.1h3.1v0.7h-2.4v2h2.2V24h-2.2v2.1h2.4v0.7H30.4z"/>
				<path class="st4" d="M38.4,20.7v6.1h-1.1L35,21.5h0v5.3h-0.7v-6.1h1.1l2.4,5.2h0v-5.2H38.4z"/>
				<path class="st4" d="M42.8,20.7v0.7h-1.6v5.4h-0.8v-5.4h-1.6v-0.7H42.8z"/>
			</g>
		</g>
	</g>
	<g class="st1">
		<circle class="st7" cx="23.5" cy="23.7" r="22.5"/>
		<g>
			<ellipse class="st8" cx="23.8" cy="23.7" rx="19.7" ry="19.6"/>
			<text transform="matrix(0.7 0 0 0.7 14.2697 26.8051)" class="st4 st5 st6">zone</text>
		</g>
	</g>
</g>
<g id="Layer_13" class="st0">
	<g class="st1">
		<circle class="st7" cx="23.5" cy="23.7" r="22.5"/>
		<g>
			<ellipse class="st8" cx="23.8" cy="23.7" rx="19.7" ry="19.6"/>
			<text transform="matrix(0.7 0 0 0.7 9.3684 26.8051)" class="st4 st5 st6">county</text>
		</g>
	</g>
</g>
<g id="Layer_12">
	<g>
		<circle class="st7" cx="23.5" cy="23.7" r="22.5"/>
		<g>
			<ellipse class="st8" cx="23.8" cy="23.7" rx="19.7" ry="19.6"/>
			<text transform="matrix(0.7 0 0 0.7 7.9699 26.8051)" class="st4 st5 st6">theatre</text>
		</g>
	</g>
	<g>
		<circle class="st7" cx="23.5" cy="23.7" r="22.5"/>
		<g>
			<ellipse class="st8" cx="23.8" cy="23.7" rx="19.7" ry="19.6"/>
			<text transform="matrix(0.7 0 0 0.7 8.9023 22.8051)"><tspan x="0" y="0" class="st4 st5 st6">market</tspan><tspan x="10.3" y="13.5" class="st4 st5 st6">tier</tspan></text>
		</g>
	</g>
	<g>
		<circle class="st7" cx="120" cy="1255.7" r="22.5"/>
		<g>
			<ellipse class="st8" cx="120.3" cy="1255.7" rx="19.7" ry="19.6"/>
			<text transform="matrix(0.7 0 0 0.7 106.82 1258.8052)" class="st4 st5 st6">region</text>
		</g>
	</g>
	<g>
		<circle class="st7" cx="23.5" cy="23.7" r="22.5"/>
		<g>
			<ellipse class="st8" cx="23.8" cy="23.7" rx="19.7" ry="19.6"/>
			<g>
				<path class="st4" d="M11.7,24v2.8H11v-6.1h2.1c1.1,0,1.5,0.8,1.5,1.5c0,0.7-0.4,1.3-1.1,1.4v0c0.7,0.1,1,0.3,1,1.6
					c0,0.3,0.1,1.2,0.2,1.6h-0.8c-0.2-0.4-0.2-1.2-0.2-2C13.5,24,12.9,24,12.6,24H11.7z M11.7,23.3h1.2c0.6,0,0.8-0.5,0.8-1
					c0-0.4-0.2-0.9-0.8-0.9h-1.2V23.3z"/>
				<path class="st4" d="M15.7,26.8v-6.1h3.1v0.7h-2.4v2h2.2V24h-2.2v2.1h2.4v0.7H15.7z"/>
				<path class="st4" d="M22.8,22.4c0-0.7-0.3-1.1-1.1-1.1c-0.2,0-1.1,0-1.1,1.3v2.1c0,1.3,0.4,1.7,1.1,1.7c0.6,0,0.9-0.2,1.1-0.3
					v-1.8h-1.1v-0.7h1.9v3c-0.5,0.3-1.1,0.5-1.9,0.5c-1.3,0-1.9-0.7-1.9-2.3v-2c0-1.2,0.6-2,1.9-2c1.3,0,1.9,0.5,1.9,1.7H22.8z"/>
				<path class="st4" d="M25.9,26.8h-0.8v-6.1h0.8V26.8z"/>
				<path class="st4" d="M27.3,24.6v-2c0-1.2,0.6-2,1.9-2s1.9,0.8,1.9,2v2c0,1.7-0.6,2.3-1.9,2.3S27.3,26.3,27.3,24.6z M30.3,24.6
					v-2.1c0-1.3-0.9-1.3-1.1-1.3c-0.2,0-1.1,0-1.1,1.3v2.1c0,1.3,0.4,1.7,1.1,1.7S30.3,25.9,30.3,24.6z"/>
				<path class="st4" d="M36.7,20.7v6.1h-1.1l-2.4-5.3h0v5.3h-0.7v-6.1h1.1l2.4,5.2h0v-5.2H36.7z"/>
			</g>
		</g>
	</g>
</g>
</svg>
