<?xml version="1.0" encoding="utf-8"?>
<!-- Generator: Adobe Illustrator 19.2.1, SVG Export Plug-In . SVG Version: 6.00 Build 0)  -->
<svg version="1.1" id="Layer_1" xmlns="http://www.w3.org/2000/svg" xmlns:xlink="http://www.w3.org/1999/xlink" x="0px" y="0px"
	 viewBox="0 0 47 47" style="enable-background:new 0 0 47 47;" xml:space="preserve">
<style type="text/css">
	.st0{fill:none;stroke:#DD5F13;stroke-miterlimit:10;}
	.st1{fill:#DD5F13;}
	.st2{fill:#FFFFFF;}
</style>
<g>
	<circle class="st0" cx="23.5" cy="23.6" r="22.5"/>
	<g>
		<ellipse class="st1" cx="23.8" cy="23.6" rx="19.7" ry="19.6"/>
		<g>
			<path class="st2" d="M9.1,20.6h1l2,6.1h-0.9l-0.4-1.4H8.4l-0.5,1.4H7.2L9.1,20.6z M9.6,21.3L9.6,21.3l-1,3.2h1.9L9.6,21.3z"/>
			<path class="st2" d="M12.9,20.6h1.9c0.8,0,1.3,0.3,1.6,0.9c0.2,0.5,0.3,1.7,0.3,1.9c0,1.3-0.1,2-0.4,2.4c-0.3,0.5-0.9,0.8-2,0.8
				h-1.4V20.6z M13.6,26h0.7c1.1,0,1.5-0.4,1.5-1.8v-1.2c0-1.2-0.4-1.7-1.2-1.7h-1V26z"/>
			<path class="st2" d="M18,20.6h1.9c0.8,0,1.3,0.3,1.6,0.9c0.2,0.5,0.3,1.7,0.3,1.9c0,1.3-0.1,2-0.4,2.4c-0.3,0.5-0.9,0.8-2,0.8H18
				V20.6z M18.8,26h0.7c1.1,0,1.5-0.4,1.5-1.8v-1.2c0-1.2-0.4-1.7-1.2-1.7h-1V26z"/>
			<path class="st2" d="M23.9,23.9v2.8h-0.8v-6.1h2.1c1.1,0,1.5,0.8,1.5,1.5c0,0.7-0.4,1.3-1.1,1.4v0c0.7,0.1,1,0.3,1,1.6
				c0,0.3,0.1,1.2,0.2,1.6h-0.8c-0.2-0.4-0.2-1.2-0.2-2c-0.1-0.7-0.7-0.8-0.9-0.8H23.9z M23.9,23.2H25c0.6,0,0.8-0.5,0.8-1
				c0-0.4-0.2-0.9-0.8-0.9h-1.2V23.2z"/>
			<path class="st2" d="M27.8,26.7v-6.1h3.1v0.7h-2.4v2h2.2v0.7h-2.2V26H31v0.7H27.8z"/>
			<path class="st2" d="M32.6,24.8V25c0,0.8,0.5,1.1,1,1.1c0.6,0,1.1-0.3,1.1-1c0-1.3-2.7-1.2-2.7-3c0-1.1,0.8-1.6,1.8-1.6
				c1.1,0,1.7,0.5,1.7,1.8h-0.8c0-0.7-0.2-1.1-0.9-1.1c-0.5,0-0.9,0.2-0.9,0.9c0,1.3,2.7,1.1,2.7,3.1c0,1.3-0.9,1.7-1.9,1.7
				c-1.8,0-1.8-1.4-1.8-1.9H32.6z"/>
			<path class="st2" d="M37.2,24.8V25c0,0.8,0.5,1.1,1,1.1c0.6,0,1.1-0.3,1.1-1c0-1.3-2.7-1.2-2.7-3c0-1.1,0.8-1.6,1.8-1.6
				c1.1,0,1.7,0.5,1.7,1.8h-0.8c0-0.7-0.2-1.1-0.9-1.1c-0.5,0-0.9,0.2-0.9,0.9c0,1.3,2.7,1.1,2.7,3.1c0,1.3-0.9,1.7-1.9,1.7
				c-1.8,0-1.8-1.4-1.8-1.9H37.2z"/>
		</g>
	</g>
</g>
</svg>
