<svg xmlns="http://www.w3.org/2000/svg" viewBox="0 0 46 46"><defs><style>.cls-1{fill:none;stroke:#686868;stroke-miterlimit:10;}.cls-2{fill:#686868;}.cls-3{fill:#fff;}</style></defs><title>iconsAutoComp_Neighborhood47x47_1</title><g id="Layer_2" data-name="Layer 2"><g id="Layer_13_copy" data-name="Layer 13 copy"><circle class="cls-1" cx="23" cy="23" r="22.5"/><ellipse class="cls-2" cx="23.29" cy="23" rx="19.74" ry="19.62"/><path class="cls-3" d="M15.37,20V26.1H14.31l-2.4-5.26h0V26.1h-.69V20H12.3l2.36,5.2h0V20Z"/><path class="cls-3" d="M16.84,26.1V20h2a1.37,1.37,0,0,1,1.35.62,1.62,1.62,0,0,1,.24.81,1.26,1.26,0,0,1-1,1.44v0a1.29,1.29,0,0,1,1.24,1.45c0,1.56-1.14,1.71-1.82,1.71Zm.77-3.51h1.13a.94.94,0,0,0,0-1.88H17.62Zm0,2.84h1.09a1,1,0,0,0,1.12-1c0-1-.6-1.14-1.39-1.14h-.82Z"/><path class="cls-3" d="M22.66,23.31V26.1h-.77V20H24a1.37,1.37,0,0,1,1.46,1.51,1.31,1.31,0,0,1-1.11,1.39v0c.7.11,1,.34,1,1.56a9.28,9.28,0,0,0,.21,1.59h-.81a7,7,0,0,1-.24-2,.8.8,0,0,0-.92-.77Zm0-.67h1.16c.55,0,.82-.48.82-1a.82.82,0,0,0-.81-.92H22.66Z"/><path class="cls-3" d="M26.62,26.1V20h.77v2.62h2.13V20h.77V26.1h-.77V23.33H27.4V26.1Z"/><path class="cls-3" d="M31.72,20h1.87a1.62,1.62,0,0,1,1.63.92,6.25,6.25,0,0,1,.27,1.92,5.06,5.06,0,0,1-.37,2.45c-.33.52-.94.78-2,.78h-1.4Zm.77,5.4h.73c1.08,0,1.47-.4,1.47-1.82V22.39c0-1.23-.38-1.68-1.19-1.68h-1Z"/></g></g></svg>