<?xml version="1.0" encoding="utf-8"?>
<!-- Generator: Adobe Illustrator 19.2.1, SVG Export Plug-In . SVG Version: 6.00 Build 0)  -->
<svg version="1.1" xmlns="http://www.w3.org/2000/svg" xmlns:xlink="http://www.w3.org/1999/xlink" x="0px" y="0px"
	 viewBox="0 0 47 47" style="enable-background:new 0 0 47 47;" xml:space="preserve">
<style type="text/css">
	.st0{display:none;}
	.st1{display:inline;}
	.st2{fill:none;stroke:#DD5F13;stroke-miterlimit:10;}
	.st3{fill:#DD5F13;}
	.st4{fill:#FFFFFF;}
	.st5{font-family:'UniversLTStd-Cn';}
	.st6{font-size:12px;}
</style>
<g id="Layer_1" class="st0">
	<g class="st1">
		<circle class="st2" cx="23.5" cy="23.6" r="22.5"/>
		<g>
			<ellipse class="st3" cx="23.8" cy="23.6" rx="19.7" ry="19.6"/>
			<text transform="matrix(0.7 0 0 0.7 7.0334 26.6548)" class="st4 st5 st6">address</text>
		</g>
	</g>
</g>
<g id="Layer_2">
	<g>
		<circle class="st2" cx="23.5" cy="23.7" r="22.5"/>
		<g>
			<ellipse class="st3" cx="23.8" cy="23.7" rx="19.7" ry="19.6"/>
			<g>
				<path class="st4" d="M12.7,26.7h-0.7v-6.1h1.3l1.5,5.1h0l1.5-5.1h1.3v6.1h-0.8v-5.4h0l-1.7,5.4h-0.7l-1.7-5.4h0V26.7z"/>
				<path class="st4" d="M18.9,26.7v-6.1H22v0.7h-2.4v2h2.2v0.7h-2.2V26h2.4v0.7H18.9z"/>
				<path class="st4" d="M26.5,20.6v0.7h-1.6v5.4h-0.8v-5.4h-1.6v-0.7H26.5z"/>
				<path class="st4" d="M28.1,23.9v2.8h-0.8v-6.1h2.1c1.1,0,1.5,0.8,1.5,1.5c0,0.7-0.4,1.3-1.1,1.4v0c0.7,0.1,1,0.3,1,1.6
					c0,0.3,0.1,1.2,0.2,1.6h-0.8c-0.2-0.4-0.2-1.2-0.2-2c-0.1-0.7-0.7-0.8-0.9-0.8H28.1z M28.1,23.2h1.2c0.6,0,0.8-0.5,0.8-1
					c0-0.4-0.2-0.9-0.8-0.9h-1.2V23.2z"/>
				<path class="st4" d="M32,24.4v-2c0-1.2,0.6-2,1.9-2s1.9,0.8,1.9,2v2c0,1.7-0.6,2.3-1.9,2.3S32,26.1,32,24.4z M35,24.5v-2.1
					c0-1.3-0.9-1.3-1.1-1.3c-0.2,0-1.1,0-1.1,1.3v2.1c0,1.3,0.4,1.7,1.1,1.7S35,25.8,35,24.5z"/>
			</g>
		</g>
	</g>
</g>
</svg>
