<?xml version="1.0" encoding="utf-8"?>
<!-- Generator: Adobe Illustrator 19.2.1, SVG Export Plug-In . SVG Version: 6.00 Build 0)  -->
<svg version="1.1" xmlns="http://www.w3.org/2000/svg" xmlns:xlink="http://www.w3.org/1999/xlink" x="0px" y="0px"
	 viewBox="0 0 47 47" style="enable-background:new 0 0 47 47;" xml:space="preserve">
<style type="text/css">
	.st0{display:none;}
	.st1{display:inline;}
	.st2{fill:none;stroke:#DD5F13;stroke-miterlimit:10;}
	.st3{fill:#DD5F13;}
	.st4{fill:#FFFFFF;}
	.st5{font-family:'UniversLTStd-Cn';}
	.st6{font-size:12px;}
	.st7{fill:none;stroke:#686868;stroke-miterlimit:10;}
	.st8{fill:#686868;}
</style>
<g id="Layer_1" class="st0">
	<g class="st1">
		<circle class="st2" cx="23.5" cy="23.6" r="22.5"/>
		<g>
			<ellipse class="st3" cx="23.8" cy="23.6" rx="19.7" ry="19.6"/>
			<text transform="matrix(0.7 0 0 0.7 7.0334 26.6548)" class="st4 st5 st6">address</text>
		</g>
	</g>
</g>
<g id="Layer_2" class="st0">
	<g class="st1">
		<circle class="st2" cx="23.5" cy="23.7" r="22.5"/>
		<g>
			<ellipse class="st3" cx="23.8" cy="23.7" rx="19.7" ry="19.6"/>
			<text transform="matrix(0.7 0 0 0.7 11.2375 26.6548)" class="st4 st5 st6">metro</text>
		</g>
	</g>
</g>
<g id="Layer_3" class="st0">
	<g class="st1">
		<circle class="st2" cx="23.5" cy="23.7" r="22.5"/>
		<g>
			<ellipse class="st3" cx="23.8" cy="23.7" rx="19.7" ry="19.6"/>
			<g>
				<path class="st4" d="M17.6,21v0.2c0,0.8,0.5,1.1,1,1.1c0.6,0,1.1-0.3,1.1-1c0-1.3-2.7-1.2-2.7-3c0-1.1,0.8-1.6,1.8-1.6
					c1.1,0,1.7,0.5,1.7,1.8h-0.8c0-0.7-0.2-1.1-0.9-1.1c-0.5,0-0.9,0.2-0.9,0.9c0,1.3,2.7,1.1,2.7,3.1c0,1.3-0.9,1.7-1.9,1.7
					c-1.8,0-1.8-1.4-1.8-1.9H17.6z"/>
				<path class="st4" d="M21.7,16.7h0.8v3.9c0,1.3,0.4,1.7,1.1,1.7c0.7,0,1.1-0.3,1.1-1.7v-3.9h0.8v3.9c0,1.7-0.6,2.3-1.9,2.3
					c-1.3,0-1.9-0.7-1.9-2.3V16.7z"/>
				<path class="st4" d="M26.9,22.8v-6.1h2c0.8,0,1.1,0.3,1.4,0.6c0.2,0.3,0.2,0.7,0.2,0.8c0,0.8-0.3,1.3-1,1.4v0
					c0.9,0.1,1.2,0.6,1.2,1.5c0,1.6-1.1,1.7-1.8,1.7H26.9z M27.7,19.3h1.1c0.6,0,0.9-0.4,0.9-1c0-0.5-0.3-0.9-0.9-0.9h-1.1V19.3z
					 M27.7,22.1h1.1c0.8,0,1.1-0.6,1.1-1c0-1-0.6-1.1-1.4-1.1h-0.8V22.1z"/>
				<path class="st4" d="M10.3,32.2H9.6v-6.1h1.3l1.5,5.1h0l1.5-5.1h1.3v6.1h-0.8v-5.4h0l-1.7,5.4H12l-1.7-5.4h0V32.2z"/>
				<path class="st4" d="M18,26.2h1l2,6.1H20l-0.4-1.4h-2.3l-0.5,1.4H16L18,26.2z M18.4,26.9L18.4,26.9l-1,3.2h1.9L18.4,26.9z"/>
				<path class="st4" d="M22.5,29.4v2.8h-0.8v-6.1h2.1c1.1,0,1.5,0.8,1.5,1.5c0,0.7-0.4,1.3-1.1,1.4v0c0.7,0.1,1,0.3,1,1.6
					c0,0.3,0.1,1.2,0.2,1.6h-0.8c-0.2-0.4-0.2-1.2-0.2-2c-0.1-0.7-0.7-0.8-0.9-0.8H22.5z M22.5,28.8h1.2c0.6,0,0.8-0.5,0.8-1
					c0-0.4-0.2-0.9-0.8-0.9h-1.2V28.8z"/>
				<path class="st4" d="M26.4,32.2v-6.1h0.8v2.7h0l2.1-2.7h0.9L28,28.9l2.3,3.3h-1l-2.1-3.2h0v3.2H26.4z"/>
				<path class="st4" d="M31.1,32.2v-6.1h3.1v0.7h-2.4v2H34v0.7h-2.2v2.1h2.4v0.7H31.1z"/>
				<path class="st4" d="M38.7,26.2v0.7h-1.6v5.4h-0.8v-5.4h-1.6v-0.7H38.7z"/>
			</g>
		</g>
	</g>
</g>
<g id="Layer_4" class="st0">
	<g class="st1">
		<circle class="st2" cx="23.5" cy="23.7" r="22.5"/>
		<g>
			<ellipse class="st3" cx="23.8" cy="23.7" rx="19.7" ry="19.6"/>
			<text transform="matrix(0.7 0 0 0.7 14.2656 22.8051)"><tspan x="0" y="0" class="st4 st5 st6">prop</tspan><tspan x="-2" y="13.5" class="st4 st5 st6">name</tspan></text>
		</g>
	</g>
</g>
<g id="Layer_5" class="st0">
	<g class="st1">
		<circle class="st2" cx="23.5" cy="23.7" r="22.5"/>
		<g>
			<ellipse class="st3" cx="23.8" cy="23.7" rx="19.7" ry="19.6"/>
			<text transform="matrix(0.7 0 0 0.7 8.9023 26.8051)" class="st4 st5 st6">market</text>
		</g>
	</g>
</g>
<g id="Layer_6">
	<g>
		<circle class="st7" cx="23.5" cy="23.7" r="22.5"/>
		<g>
			<ellipse class="st8" cx="23.8" cy="23.7" rx="19.7" ry="19.6"/>
			<g>
				<path class="st4" d="M10.4,22.4c0-0.3,0-0.7-0.2-0.9c-0.2-0.2-0.5-0.3-0.7-0.3c-0.6,0-0.9,0.4-0.9,0.5c0,0.1-0.2,0.2-0.2,1.3
					v1.6c0,1.5,0.5,1.7,1.1,1.7c0.2,0,1-0.1,1-1.3h0.8c0,1.9-1.3,1.9-1.7,1.9c-0.8,0-1.9-0.1-1.9-2.4v-1.7c0-1.7,0.8-2.2,2-2.2
					c1.2,0,1.7,0.6,1.6,1.8H10.4z"/>
				<path class="st4" d="M12.4,24.6v-2c0-1.2,0.6-2,1.9-2c1.3,0,1.9,0.8,1.9,2v2c0,1.7-0.6,2.3-1.9,2.3C13,26.9,12.4,26.3,12.4,24.6
					z M15.4,24.6v-2.1c0-1.3-0.9-1.3-1.1-1.3c-0.2,0-1.1,0-1.1,1.3v2.1c0,1.3,0.4,1.7,1.1,1.7S15.4,25.9,15.4,24.6z"/>
				<path class="st4" d="M17.5,20.7h0.8v3.9c0,1.3,0.4,1.7,1.1,1.7c0.7,0,1.1-0.3,1.1-1.7v-3.9h0.8v3.9c0,1.7-0.6,2.3-1.9,2.3
					c-1.3,0-1.9-0.7-1.9-2.3V20.7z"/>
				<path class="st4" d="M26.9,20.7v6.1h-1.1l-2.4-5.3h0v5.3h-0.7v-6.1h1.1l2.4,5.2h0v-5.2H26.9z"/>
				<path class="st4" d="M31.7,20.7v0.7h-1.6v5.4h-0.8v-5.4h-1.6v-0.7H31.7z"/>
				<path class="st4" d="M33.2,24v2.8h-0.8v-6.1h2.1c1.1,0,1.5,0.8,1.5,1.5c0,0.7-0.4,1.3-1.1,1.4v0c0.7,0.1,1,0.3,1,1.6
					c0,0.3,0.1,1.2,0.2,1.6h-0.8c-0.2-0.4-0.2-1.2-0.2-2C35,24,34.4,24,34.1,24H33.2z M33.2,23.3h1.2c0.6,0,0.8-0.5,0.8-1
					c0-0.4-0.2-0.9-0.8-0.9h-1.2V23.3z"/>
				<path class="st4" d="M39.8,20.7h0.8l-1.7,3.8v2.3h-0.8v-2.3l-1.6-3.8h0.9l1.2,2.9L39.8,20.7z"/>
			</g>
		</g>
	</g>
</g>
</svg>
