<svg xmlns="http://www.w3.org/2000/svg" width="52.903" height="49" viewBox="0 0 52.903 49">
  <g id="Group_3817" data-name="Group 3817" transform="translate(-1781 -15)">
    <path id="Path_131" data-name="Path 131" d="M1828.8,64h-42.6a5.164,5.164,0,0,1-5.2-5.2V20.2a5.164,5.164,0,0,1,5.2-5.2h42.5a5.164,5.164,0,0,1,5.2,5.2V58.7A5.046,5.046,0,0,1,1828.8,64Z" fill="#ec7f00"/>
    <path id="Path_2615" data-name="Path 2615" d="M-15.361-2.827V0h-1.387V-7.1h2.319a2.331,2.331,0,0,1,1.648.554,2,2,0,0,1,.6,1.541,1.788,1.788,0,0,1-.249.959,1.748,1.748,0,0,1-.728.642,1.361,1.361,0,0,1,.789.615,2.167,2.167,0,0,1,.242,1.074v.5a3.142,3.142,0,0,0,.068.627.86.86,0,0,0,.239.486V0h-1.436a.8.8,0,0,1-.215-.508,5.782,5.782,0,0,1-.044-.718v-.483a1.364,1.364,0,0,0-.217-.825.728.728,0,0,0-.623-.293Zm0-1.108h.928a.8.8,0,0,0,.645-.259,1.108,1.108,0,0,0,.22-.737,1.249,1.249,0,0,0-.22-.776A.755.755,0,0,0-14.429-6h-.933ZM-6.8-3.12H-9.187v2.012H-6.38V0h-4.2V-7.109H-6.39V-6h-2.8v1.768H-6.8Zm3.034.571V0H-5.157V-7.109h2.471a2.24,2.24,0,0,1,1.68.63,2.261,2.261,0,0,1,.615,1.65,2.254,2.254,0,0,1-.618,1.653,2.246,2.246,0,0,1-1.677.627Zm0-1.113h1.079a.783.783,0,0,0,.679-.327,1.39,1.39,0,0,0,.234-.83,1.444,1.444,0,0,0-.232-.842A.776.776,0,0,0-2.687-6H-3.766ZM5.787-2.554A2.7,2.7,0,0,1,5.108-.6,2.4,2.4,0,0,1,3.3.1,2.379,2.379,0,0,1,1.5-.6,2.707,2.707,0,0,1,.826-2.554V-4.546A2.727,2.727,0,0,1,1.5-6.5a2.36,2.36,0,0,1,1.8-.71A2.392,2.392,0,0,1,5.1-6.5a2.7,2.7,0,0,1,.684,1.956Zm-1.382-2a1.942,1.942,0,0,0-.283-1.15A.958.958,0,0,0,3.3-6.094a.939.939,0,0,0-.82.386A1.994,1.994,0,0,0,2.2-4.556v2A1.976,1.976,0,0,0,2.481-1.4a.947.947,0,0,0,.82.386.955.955,0,0,0,.82-.386,1.95,1.95,0,0,0,.283-1.157ZM8.582-2.827V0H7.2V-7.1H9.515a2.331,2.331,0,0,1,1.648.554,2,2,0,0,1,.6,1.541,1.788,1.788,0,0,1-.249.959,1.748,1.748,0,0,1-.728.642,1.361,1.361,0,0,1,.789.615,2.167,2.167,0,0,1,.242,1.074v.5a3.142,3.142,0,0,0,.068.627.86.86,0,0,0,.239.486V0H10.687a.8.8,0,0,1-.215-.508,5.782,5.782,0,0,1-.044-.718v-.483a1.364,1.364,0,0,0-.217-.825.728.728,0,0,0-.623-.293Zm0-1.108H9.51a.8.8,0,0,0,.645-.259,1.108,1.108,0,0,0,.22-.737,1.249,1.249,0,0,0-.22-.776A.755.755,0,0,0,9.515-6H8.582ZM17.158-6h-1.6V0H14.17V-6H12.578V-7.109h4.58ZM-13.123,9.71l.015.029a2.444,2.444,0,0,1-.557,1.768,2.2,2.2,0,0,1-1.67.6,2.349,2.349,0,0,1-1.763-.676,2.632,2.632,0,0,1-.659-1.917V7.386a2.7,2.7,0,0,1,.637-1.917,2.225,2.225,0,0,1,1.707-.681,2.26,2.26,0,0,1,1.711.605,2.565,2.565,0,0,1,.6,1.792l-.015.029h-1.338a1.648,1.648,0,0,0-.19-1.006.879.879,0,0,0-.767-.308.815.815,0,0,0-.718.366,1.988,1.988,0,0,0-.249,1.108V9.51a1.907,1.907,0,0,0,.266,1.118.9.9,0,0,0,.779.366.787.787,0,0,0,.7-.291,1.736,1.736,0,0,0,.173-.994ZM-6.783,12H-8.169V9.056h-2.207V12h-1.392V4.891h1.392V7.947h2.207V4.891h1.387Zm4.86-1.509H-3.8L-4.178,12h-1.4l2-7.109h1.445l2,7.109h-1.4ZM-3.514,9.373h1.309l-.64-2.515h-.029ZM5.892,12H4.51L2.337,7.454l-.029.01V12H.917V4.891H2.308L4.481,9.432l.029-.01V4.891H5.892Zm6.291-1.055a2.554,2.554,0,0,1-.864.808,2.778,2.778,0,0,1-1.46.349,2.524,2.524,0,0,1-1.833-.669,2.528,2.528,0,0,1-.691-1.9V7.361A2.585,2.585,0,0,1,8,5.462a2.372,2.372,0,0,1,1.765-.674,2.439,2.439,0,0,1,1.772.579,2.293,2.293,0,0,1,.615,1.658l-.01.029h-1.3a1.326,1.326,0,0,0-.266-.876A.991.991,0,0,0,9.805,5.9a.964.964,0,0,0-.8.359,1.724,1.724,0,0,0-.288,1.091V9.529a1.741,1.741,0,0,0,.291,1.106,1.026,1.026,0,0,0,.847.359,1.285,1.285,0,0,0,.613-.112.873.873,0,0,0,.325-.332V9.275H9.859V8.3h2.324ZM17.512,8.88H15.125v2.012h2.808V12h-4.2V4.891h4.189V6h-2.8V7.771h2.388Z" transform="translate(1807.451 47.621)" fill="#fff"/>
    <g id="Group_3802" data-name="Group 3802" transform="translate(680.971 104.449)">
      <rect id="Rectangle_1714" data-name="Rectangle 1714" width="20" height="14.815" rx="3" transform="translate(1116.482 -84.843)" fill="#fcfcfc"/>
    </g>
    <g id="Group_3803" data-name="Group 3803" transform="translate(680.971 104.449)">
      <path id="Path_2616" data-name="Path 2616" d="M2.714-3.459H.766V-9.953H2.714ZM2.7,0H.786V-1.764H2.7Z" transform="translate(1124.58 -72.314)" fill="#e87d1e"/>
    </g>
  </g>
</svg>
