<svg xmlns="http://www.w3.org/2000/svg" width="52.903" height="49" viewBox="0 0 52.903 49">
  <g id="Group_3816" data-name="Group 3816" transform="translate(-1551.905 89.449)">
    <path id="Path_2569" data-name="Path 2569" d="M1599.7-40.45h-42.6a5.164,5.164,0,0,1-5.2-5.2v-38.6a5.164,5.164,0,0,1,5.2-5.2h42.5a5.164,5.164,0,0,1,5.2,5.2v38.5A5.047,5.047,0,0,1,1599.7-40.45Z" fill="#003d79"/>
    <g id="Group_3807" data-name="Group 3807" transform="translate(1548.56 -92.612)">
      <g id="Group_3806" data-name="Group 3806" transform="translate(13.035 6.471)">
        <path id="Path_2590" data-name="Path 2590" d="M33.418,7.834A14.907,14.907,0,0,1,45.781,31.066l-1.209-.235-.658-7.251c.022-.277.035-.559.035-.841a10.532,10.532,0,1,0-10.532,10.53c.262,0,.524-.007.781-.027l-.71,2.618.7,1.765c-.255.012-.514.02-.771.02a14.906,14.906,0,0,1,0-29.811Zm5.513,16.255L38.1,34.419l-.564-.47-1.476.771-.272,1.009,3.436,8.688.205,3.006,8.1-.087.116-3.33,2.235-8.836L49.43,34l-1.891-.366-.606.507-.316-.685-1.676-.326-.561.561-.319-.732-1.518-.294-.794-8.749-2.818.176Zm-7.357-7.469a2.048,2.048,0,1,0,3.5-1.456,2.047,2.047,0,0,0-2.9-.007,1.992,1.992,0,0,0-.6,1.464Zm4.6,10.586V19.54h-6v2h.455a1.3,1.3,0,0,1,.865.2,1.258,1.258,0,0,1,.205.863v4.6a1.272,1.272,0,0,1-.205.86,1.274,1.274,0,0,1-.865.205h-.455v2h6.077l.176-2.168-.042-.037A1.258,1.258,0,0,1,36.169,27.207Z" transform="translate(-18.513 -7.834)" fill="#fff" fill-rule="evenodd"/>
      </g>
    </g>
  </g>
</svg>
