<?xml version="1.0" standalone="no"?>
<!DOCTYPE svg PUBLIC "-//W3C//DTD SVG 20010904//EN"
 "http://www.w3.org/TR/2001/REC-SVG-20010904/DTD/svg10.dtd">
<svg version="1.0" xmlns="http://www.w3.org/2000/svg"
 width="240.000000pt" height="240.000000pt" viewBox="0 0 240.000000 240.000000"
 preserveAspectRatio="xMidYMid meet">
<metadata>
Created by potrace 1.15, written by Peter Selinger 2001-2017
</metadata>
<g transform="translate(0.000000,240.000000) scale(0.100000,-0.100000)"
fill="#05417c" stroke="none">
<path d="M451 2386 c-42 -23 -50 -52 -51 -183 0 -135 9 -167 51 -189 52 -27
115 -8 137 41 16 35 16 255 0 290 -22 48 -88 68 -137 41z"/>
<path d="M1851 2386 c-42 -23 -50 -52 -51 -183 0 -135 9 -167 51 -189 52 -27
115 -8 137 41 7 15 12 74 12 145 0 71 -5 130 -12 145 -22 48 -88 68 -137 41z"/>
<path d="M0 1100 l0 -1100 1200 0 1200 0 0 1100 0 1100 -149 0 -148 0 -5 -83
c-5 -94 -28 -139 -95 -185 -31 -22 -49 -27 -103 -27 -54 0 -72 5 -103 27 -67
46 -90 91 -95 185 l-5 83 -497 0 -497 0 -5 -83 c-5 -94 -28 -139 -95 -185 -31
-22 -49 -27 -103 -27 -54 0 -72 5 -103 27 -67 46 -90 91 -95 185 l-5 83 -148
0 -149 0 0 -1100z m2200 -200 l0 -700 -1000 0 -1000 0 0 700 0 700 1000 0
1000 0 0 -700z"/>
<path d="M400 1200 l0 -200 200 0 200 0 0 200 0 200 -200 0 -200 0 0 -200z"/>
<path d="M1000 1200 l0 -200 200 0 200 0 0 200 0 200 -200 0 -200 0 0 -200z"/>
<path d="M1600 1200 l0 -200 200 0 200 0 0 200 0 200 -200 0 -200 0 0 -200z"/>
<path d="M400 600 l0 -200 200 0 200 0 0 200 0 200 -200 0 -200 0 0 -200z"/>
<path d="M1000 600 l0 -200 200 0 200 0 0 200 0 200 -200 0 -200 0 0 -200z"/>
<path d="M1600 600 l0 -200 200 0 200 0 0 200 0 200 -200 0 -200 0 0 -200z"/>
</g>
</svg>
