<?xml version="1.0" encoding="utf-8"?>
<!-- Generator: Adobe Illustrator 19.1.0, SVG Export Plug-In . SVG Version: 6.00 Build 0)  -->
<svg version="1.1" id="Layer_1" xmlns="http://www.w3.org/2000/svg" xmlns:xlink="http://www.w3.org/1999/xlink" x="0px" y="0px"
	 viewBox="0 0 48.3 36" style="enable-background:new 0 0 48.3 36;" xml:space="preserve">
<style type="text/css">
	.st0{fill:#FFFFFF;}
	.st1{fill:#02376A;}
	.st2{fill:none;stroke:#F0F0F0;stroke-width:4;stroke-miterlimit:10;}
	.st3{fill:#F0F0F0;}
</style>
<g>
	<g>
		<path class="st0" d="M11.4,28.9h14.4c0,0,1.3-0.1,1.7-0.8c0.4-0.7,5-16.5,5-16.5s1-2.6-1.7-2.6S17,9,17,9L9.9,26.1
			c0,0-0.9,2.2,0,4.2c0.9,1.4,2.3,2.5,3.3,2.5s14.9,0,14.9,0s1.8,0.2,2.7-2.2S35,16,35,16s-1.1-3-1.5-1.4c-0.4,1.6-5,16.3-5,16.3
			H12.8C12.8,30.8,10.4,29.9,11.4,28.9z"/>
		<polygon class="st1" points="28.5,14.6 17.8,14.6 19.1,12.6 29.4,12.6 		"/>
		<polygon class="st1" points="27.2,19 16.5,19 17.8,17 28.1,17 		"/>
	</g>
	<g>
		<path class="st2" d="M21.2,2.4L21.2,2.4C27.7,2.4,33,7.7,33,14.3v0c0,6.6-5.3,11.9-11.9,11.9h0c-6.6,0-11.9-5.3-11.9-11.9v0
			C9.3,7.7,14.6,2.4,21.2,2.4z"/>
		<path class="st3" d="M32.2,24.1l-1.6,1.6c-0.2,0.2-0.6,0.2-0.8,0l0,0c-0.2-0.2-0.2-0.6,0-0.8l1.6-1.6c0.2-0.2,0.6-0.2,0.8,0l0,0
			C32.5,23.5,32.5,23.9,32.2,24.1z"/>
		<path class="st3" d="M41.1,33.4l-1.6,1.6c-0.2,0.2-0.6,0.2-0.8,0L31.2,27c-0.2-0.2-0.2-0.6,0-0.8l1.6-1.6c0.2-0.2,0.6-0.2,0.8,0
			l7.5,7.9C41.4,32.8,41.4,33.2,41.1,33.4z"/>
	</g>
</g>
</svg>
