<?xml version="1.0" encoding="utf-8"?>
<!-- Generator: Adobe Illustrator 19.1.0, SVG Export Plug-In . SVG Version: 6.00 Build 0)  -->
<svg version="1.1" id="Layer_1" xmlns="http://www.w3.org/2000/svg" xmlns:xlink="http://www.w3.org/1999/xlink" x="0px" y="0px"
	 viewBox="0 0 20 18" style="enable-background:new 0 0 20 18;" xml:space="preserve">
<style type="text/css">
	.st0{fill:#207245;}
	.st1{fill:#FFFFFF;}
</style>
<text transform="matrix(1 0 0 1 960 540)" style="font-family:'MyriadPro-Regular'; font-size:12px;">iconSavePDF</text>
<text transform="matrix(1 0 0 1 960 540)" style="font-family:'MyriadPro-Regular'; font-size:12px;">iconSavePDF</text>
<text transform="matrix(1 0 0 1 960 540)" style="font-family:'MyriadPro-Regular'; font-size:12px;">iconSavePDF</text>
<text transform="matrix(1 0 0 1 960 540)" style="font-family:'MyriadPro-Regular'; font-size:12px;">iconSavePDF</text>
<text transform="matrix(1 0 0 1 960 540)" style="font-family:'MyriadPro-Regular'; font-size:12px;">iconSavePDF</text>
<text transform="matrix(1 0 0 1 960 540)" style="font-family:'MyriadPro-Regular'; font-size:12px;">iconSavePDF</text>
<text transform="matrix(1 0 0 1 960 540)" style="font-family:'MyriadPro-Regular'; font-size:12px;">iconSavePDF</text>
<text transform="matrix(1 0 0 1 960 540)" style="font-family:'MyriadPro-Regular'; font-size:12px;">iconSavePDF</text>
<text transform="matrix(1 0 0 1 960 540)" style="font-family:'MyriadPro-Regular'; font-size:12px;">iconSavePDF</text>
<text transform="matrix(1 0 0 1 960 540)" style="font-family:'MyriadPro-Regular'; font-size:12px;">iconSavePDF</text>
<path id="path10_4_" inkscape:connector-curvature="0" class="st0" d="M10.4,0.7h1.1c0,0.5,0,1,0,1.5c1.9,0,3.8,0,5.8,0
	c0.3,0,0.7,0,1,0.2c0.2,0.3,0.2,0.6,0.2,1c0,3.3,0,6.7,0,10c0,0.6,0.1,1.1-0.1,1.7c-0.1,0.4-0.6,0.4-0.9,0.4c-2,0-4,0-6,0
	c0,0.6,0,1.2,0,1.7h-1.2c-2.9-0.5-5.9-1-8.8-1.5c0-4.5,0-9,0-13.4C4.5,1.8,7.4,1.3,10.4,0.7z"/>
<path id="path48_4_" inkscape:connector-curvature="0" class="st1" d="M11.5,2.9c2.1,0,4.2,0,6.3,0c0,4,0,8.1,0,12.1
	c-2.1,0-4.2,0-6.3,0c0-0.4,0-0.8,0-1.2c0.5,0,1,0,1.5,0c0-0.4,0-0.9,0-1.3c-0.5,0-1,0-1.5,0c0-0.3,0-0.5,0-0.8c0.5,0,1,0,1.5,0
	c0-0.4,0-0.9,0-1.3c-0.5,0-1,0-1.5,0c0-0.3,0-0.5,0-0.8c0.5,0,1,0,1.5,0c0-0.4,0-0.9,0-1.3c-0.5,0-1,0-1.5,0c0-0.3,0-0.5,0-0.8
	c0.5,0,1,0,1.5,0c0-0.4,0-0.9,0-1.3c-0.5,0-1,0-1.5,0c0-0.3,0-0.5,0-0.8c0.5,0,1,0,1.5,0c0-0.4,0-0.9,0-1.3c-0.5,0-1,0-1.5,0
	C11.5,3.6,11.5,3.2,11.5,2.9z"/>
<path id="path58_4_" inkscape:connector-curvature="0" class="st0" d="M13.8,4c0.9,0,1.8,0,2.7,0c0,0.4,0,0.9,0,1.3
	c-0.9,0-1.8,0-2.7,0C13.8,4.9,13.8,4.5,13.8,4z"/>
<path id="path72_4_" inkscape:connector-curvature="0" class="st1" d="M7.2,5.8c0.4,0,0.9-0.1,1.3-0.1C8,6.8,7.5,7.8,7,8.9
	c0.5,1.1,1.1,2.1,1.6,3.2c-0.5,0-0.9-0.1-1.4-0.1c-0.3-0.8-0.7-1.6-1-2.4c-0.3,0.8-0.6,1.5-0.9,2.3c-0.4,0-0.8,0-1.3,0
	c0.5-1,1-1.9,1.5-2.9C5.1,7.9,4.6,7,4.2,6c0.4,0,0.8,0,1.3-0.1C5.7,6.7,6,7.4,6.3,8.2C6.5,7.4,6.9,6.6,7.2,5.8z"/>
<path id="path90_4_" inkscape:connector-curvature="0" class="st0" d="M13.8,6.1c0.9,0,1.8,0,2.7,0c0,0.4,0,0.9,0,1.3
	c-0.9,0-1.8,0-2.7,0C13.8,7,13.8,6.6,13.8,6.1z"/>
<path id="path108_4_" inkscape:connector-curvature="0" class="st0" d="M13.8,8.2c0.9,0,1.8,0,2.7,0c0,0.4,0,0.9,0,1.3
	c-0.9,0-1.8,0-2.7,0C13.8,9.1,13.8,8.7,13.8,8.2z"/>
<path id="path114_4_" inkscape:connector-curvature="0" class="st0" d="M13.8,10.3c0.9,0,1.8,0,2.7,0c0,0.4,0,0.9,0,1.3
	c-0.9,0-1.8,0-2.7,0C13.8,11.2,13.8,10.8,13.8,10.3z"/>
<path id="path120_4_" inkscape:connector-curvature="0" class="st0" d="M13.8,12.5c0.9,0,1.8,0,2.7,0c0,0.4,0,0.9,0,1.3
	c-0.9,0-1.8,0-2.7,0C13.8,13.4,13.8,12.9,13.8,12.5z"/>
</svg>
