<?xml version="1.0" encoding="utf-8"?>
<!-- Generator: Adobe Illustrator 19.1.0, SVG Export Plug-In . SVG Version: 6.00 Build 0)  -->
<svg version="1.1" id="Layer_1" xmlns="http://www.w3.org/2000/svg" xmlns:xlink="http://www.w3.org/1999/xlink" x="0px" y="0px"
	 viewBox="0 0 32 32" style="enable-background:new 0 0 32 32;" xml:space="preserve">
<style type="text/css">
	.st0{fill:#FCFCFC;stroke:#05417B;stroke-width:2;stroke-miterlimit:10;}
</style>
<g>
	<path class="st0" d="M11.8,17.5H7.7V8c0.8-4.6,5.6-6,5.6-6c9.5-2.1,10.9,6.3,10.9,6.3c0.3,3.3-2.2,2.9-2.2,2.9
		c-1.5,0-1.7-1.4-1.7-1.4s0-4.4-4.4-4.4c0,0-4.1-0.2-4.3,4.9L11.8,17.5z"/>
	<path class="st0" d="M21.1,30.3H10.9c-3.3,0-5.9-2.7-5.9-5.9v-2.9c0-3.3,2.7-5.9,5.9-5.9h10.1c3.3,0,5.9,2.7,5.9,5.9v2.9
		C27,27.7,24.3,30.3,21.1,30.3z"/>
</g>
</svg>
