<?xml version="1.0" encoding="utf-8"?>
<!-- Generator: Adobe Illustrator 19.1.0, SVG Export Plug-In . SVG Version: 6.00 Build 0)  -->
<svg version="1.1" id="Layer_1" xmlns="http://www.w3.org/2000/svg" xmlns:xlink="http://www.w3.org/1999/xlink" x="0px" y="0px"
	 viewBox="-295 388 20 18" style="enable-background:new -295 388 20 18;" xml:space="preserve">
<style type="text/css">
	.st0{fill:#1B437A;}
	.st1{fill:#FFFFFF;stroke:#000000;stroke-width:0.25;stroke-miterlimit:10;}
	.st2{fill:#3273BA;}
</style>
<path class="st0" d="M-278.3,403.2h-13.3c-0.6,0-1-0.4-1-1v-9c0-0.6,0.4-1,1-1h13.3c0.6,0,1,0.4,1,1v9
	C-277.3,402.8-277.7,403.2-278.3,403.2z"/>
<polygon class="st1" points="-287.4,388.8 -291.8,395.2 -282.3,400.4 -278.3,394.8 "/>
<path class="st2" d="M-278.3,403.2h-13.3c-0.6,0-1-0.4-1-1l1.3-6c0-0.6,0.4-1,1-1h13.3c0.6,0,1,0.4,1,1l-1.3,6
	C-277.3,402.8-277.7,403.2-278.3,403.2z"/>
</svg>
