<svg id="Layer_1" data-name="Layer 1" xmlns="http://www.w3.org/2000/svg" xmlns:xlink="http://www.w3.org/1999/xlink" viewBox="0 0 42 25"><defs><style>.cls-1{fill:none;}.cls-2{clip-path:url(#clip-path);}.cls-3,.cls-4{fill:#fcfcfc;}.cls-3{stroke:#f0f0f0;stroke-miterlimit:10;}</style><clipPath id="clip-path"><rect class="cls-1" y="-1" width="42" height="27"/></clipPath></defs><title>Artboard 1</title><g class="cls-2"><path class="cls-3" d="M21.23,11.68a5.49,5.49,0,1,0-5.48-5.49,5.49,5.49,0,0,0,5.48,5.49Zm0,0"/></g><path class="cls-4" d="M25.63,13H16.83C15.25,13,13,13,13,14.79V25H28s0-1.28,0-1.37V14.79C28,13,27.2,13,25.63,13Zm0-1.42"/><path class="cls-4" d="M36,14.31a4.4,4.4,0,1,0-4.39-4.4A4.39,4.39,0,0,0,36,14.31Zm0,0"/><path class="cls-4" d="M39.53,15h-7c-1.27,0-3.48.18-3.48,1.6v7.09c0,.08,1.22,1.32,1.23,1.32H41.78s.22-1.24.22-1.32V16.6c0-1.42-1.21-1.6-2.47-1.6Zm0-1"/><path class="cls-4" d="M6.45,14.31A4.4,4.4,0,1,0,2.06,9.9a4.39,4.39,0,0,0,4.39,4.4Zm0,0"/><path class="cls-4" d="M10,15h-7C1.66,15,0,15.18,0,16.6v7.09C0,23.76.67,25,.68,25H12.23S12,23.76,12,23.68V16.6c0-1.42-.76-1.6-2-1.6Zm0-1"/></svg>