<?xml version="1.0" encoding="utf-8"?>
<!-- Generator: Adobe Illustrator 19.1.0, SVG Export Plug-In . SVG Version: 6.00 Build 0)  -->
<svg version="1.1" id="Layer_1" xmlns="http://www.w3.org/2000/svg" xmlns:xlink="http://www.w3.org/1999/xlink" x="0px" y="0px"
	 viewBox="-949 532 20 18" style="enable-background:new -949 532 20 18;" xml:space="preserve">
<style type="text/css">
	.st0{fill:#3073BB;}
</style>
<g>
	<path class="st0" d="M-931,540.5c-0.3-4-3.5-7.2-7.4-7.5l0,0h-1.1l0,0c-4,0.3-7.2,3.5-7.5,7.5l0,0v1.1l0,0c0.3,4,3.5,7.2,7.5,7.4
		l0,0h1.1l0,0c4-0.3,7.2-3.5,7.4-7.4l0,0V540.5L-931,540.5z M-942,534.7c-0.5,0.7-0.9,1.6-1.2,2.6h-1.6
		C-944.2,536.2-943.2,535.3-942,534.7L-942,534.7z M-945.4,538.3h1.9c-0.2,0.7-0.3,1.4-0.3,2.2h-2.1
		C-945.9,539.7-945.7,539-945.4,538.3L-945.4,538.3z M-945.9,541.5h2.1c0,0.7,0.1,1.5,0.3,2.1h-1.9
		C-945.7,543-945.9,542.3-945.9,541.5L-945.9,541.5z M-944.8,544.7h1.6c0.3,1,0.7,1.8,1.3,2.5C-943.2,546.7-944.2,545.8-944.8,544.7
		L-944.8,544.7z M-939.5,547.9c-1.1-0.3-2-1.5-2.6-3.1h2.6V547.9z M-939.5,543.7h-2.9c-0.2-0.7-0.3-1.4-0.3-2.2h3.2V543.7z
		 M-939.5,540.5h-3.2c0-0.8,0.1-1.5,0.3-2.1h2.9V540.5z M-939.5,537.3h-2.6c0.6-1.7,1.5-2.8,2.6-3.1V537.3z M-933.2,537.3h-1.6
		c-0.3-1-0.7-1.8-1.3-2.5C-934.8,535.3-933.8,536.2-933.2,537.3L-933.2,537.3z M-938.5,534.1c1.1,0.3,2,1.5,2.6,3.1h-2.6V534.1z
		 M-938.5,538.3h2.9c0.2,0.7,0.2,1.4,0.3,2.1h-3.2V538.3z M-938.5,541.5h3.2c0,0.8-0.1,1.5-0.3,2.1h-2.9V541.5z M-938.5,547.9v-3.1
		h2.6C-936.4,546.4-937.4,547.6-938.5,547.9L-938.5,547.9z M-936,547.3c0.5-0.7,0.9-1.5,1.3-2.5h1.6
		C-933.8,545.8-934.8,546.7-936,547.3L-936,547.3z M-932.6,543.7h-1.9c0.1-0.7,0.2-1.4,0.3-2.1h2.1
		C-932.1,542.3-932.3,543-932.6,543.7L-932.6,543.7z M-934.2,540.5c0-0.7-0.1-1.5-0.3-2.1h1.9c0.3,0.7,0.5,1.4,0.5,2.1H-934.2z"/>
</g>
</svg>
