<?xml version="1.0" encoding="utf-8"?>
<!-- Generator: Adobe Illustrator 19.2.1, SVG Export Plug-In . SVG Version: 6.00 Build 0)  -->
<svg version="1.1" id="Layer_1" xmlns="http://www.w3.org/2000/svg" xmlns:xlink="http://www.w3.org/1999/xlink" x="0px" y="0px"
	 viewBox="0 0 14.4 17" style="enable-background:new 0 0 14.4 17;" xml:space="preserve">
<style type="text/css">
	.st0{fill:#02376A;}
	.st1{fill:#FFFFFF;}
</style>
<g>
	<g id="Page-1_21_">
		<g id="icon-26-trash-can_21_">
			<path id="trash-can_21_" class="st0" d="M10.5,2.4h2.9V3H1.1V2.4H4V1.8c0-0.6,0.6-1.1,1.4-1.1H9c0.8,0,1.4,0.5,1.4,1.1V2.4
				L10.5,2.4z M1.1,3.6v10.9c0,1,1,1.7,2.2,1.7h7.9c1.2,0,2.2-0.8,2.2-1.7V3.6H1.1L1.1,3.6z M1.8,4.1v10.3c0,0.6,0.6,1.1,1.4,1.1h8
				c0.8,0,1.4-0.5,1.4-1.1V4.1H1.8L1.8,4.1z M4,5.3v9.2h0.7V5.3H4L4,5.3z M6.9,5.3v9.2h0.7V5.3H6.9L6.9,5.3z M9.7,5.3v9.2h0.7V5.3
				H9.7L9.7,5.3z M5.4,1.3C5,1.3,4.7,1.5,4.7,1.8v0.6h5.1V1.8c0-0.3-0.3-0.6-0.7-0.6H5.4L5.4,1.3z"/>
		</g>
	</g>
	<rect x="4" y="5.1" class="st1" width="0.7" height="9.4"/>
	<rect x="6.9" y="5.1" class="st1" width="0.7" height="9.4"/>
	<rect x="9.7" y="5.1" class="st1" width="0.7" height="9.4"/>
</g>
</svg>
