<?xml version="1.0" encoding="utf-8"?>
<!-- Generator: Adobe Illustrator 19.1.0, SVG Export Plug-In . SVG Version: 6.00 Build 0)  -->
<svg version="1.1" id="Layer_1" xmlns="http://www.w3.org/2000/svg" xmlns:xlink="http://www.w3.org/1999/xlink" x="0px" y="0px"
	 viewBox="-935 523 48.3 36" style="enable-background:new -935 523 48.3 36;" xml:space="preserve">
<style type="text/css">
	.st0{fill:#3073BB;}
</style>
<g>
	<path class="st0" d="M-894.2,539.9c-0.6-8.7-7.4-15.5-16.1-16.1l0,0h-2.3l0,0c-8.6,0.6-15.4,7.4-16,16.1l0,0v2.3l0,0
		c0.6,8.6,7.5,15.5,16.1,16.1l0,0h2.3l0,0c8.6-0.6,15.5-7.4,16.1-16.1l0,0L-894.2,539.9L-894.2,539.9z M-917.8,527.5
		c-1.1,1.5-2,3.3-2.7,5.4h-3.5C-922.5,530.6-920.4,528.7-917.8,527.5L-917.8,527.5z M-925.2,535.2h4c-0.3,1.4-0.5,3-0.6,4.6h-4.5
		C-926.2,538.2-925.8,536.7-925.2,535.2L-925.2,535.2z M-926.3,542.1h4.6c0.1,1.6,0.3,3.2,0.6,4.6h-4
		C-925.8,545.3-926.2,543.8-926.3,542.1L-926.3,542.1z M-924,549.1h3.4c0.7,2.1,1.6,4,2.7,5.4C-920.4,553.3-922.5,551.4-924,549.1
		L-924,549.1z M-912.5,555.8c-2.4-0.6-4.4-3.2-5.6-6.7h5.6V555.8z M-912.5,546.8h-6.3c-0.3-1.4-0.5-3-0.6-4.6h6.9V546.8z
		 M-912.5,539.9h-6.9c0.1-1.6,0.3-3.2,0.6-4.6h6.3V539.9z M-912.5,532.9h-5.6c1.2-3.6,3.3-6.1,5.6-6.7V532.9z M-898.8,532.9h-3.4
		c-0.7-2.1-1.6-4-2.7-5.4C-902.4,528.7-900.3,530.6-898.8,532.9L-898.8,532.9z M-910.3,526.2c2.4,0.6,4.4,3.2,5.6,6.7h-5.6V526.2z
		 M-910.3,535.2h6.3c0.3,1.4,0.5,3,0.6,4.6h-6.9V535.2z M-910.3,542.1h6.9c-0.1,1.6-0.3,3.2-0.6,4.6h-6.3V542.1z M-910.3,555.8v-6.7
		h5.6C-905.9,552.6-907.9,555.2-910.3,555.8L-910.3,555.8z M-905,554.5c1.1-1.5,2-3.3,2.7-5.4h3.4
		C-900.3,551.4-902.4,553.3-905,554.5L-905,554.5z M-897.6,546.8h-4c0.3-1.4,0.5-3,0.6-4.6h4.6C-896.6,543.8-897,545.3-897.6,546.8
		L-897.6,546.8z M-901.1,539.9c-0.1-1.6-0.3-3.2-0.6-4.6h4c0.6,1.4,1,3,1.1,4.6H-901.1z"/>
</g>
</svg>
