<svg xmlns="http://www.w3.org/2000/svg" viewBox="0 0 24 24"><defs><style>.cls-1{fill:none;stroke:#ec7f00;stroke-miterlimit:10;}</style></defs><title>iconEditUser</title><g id="Layer_2" data-name="Layer 2"><g id="content"><g id="miu"><g id="Artboard-1"><path id="circle-edit-pen-pencil-outline-stroke" class="cls-1" d="M12,23.5A11.5,11.5,0,1,0,.5,12,11.5,11.5,0,0,0,12,23.5Zm0-1A10.5,10.5,0,1,0,1.5,12,10.5,10.5,0,0,0,12,22.5ZM9.31,15.8l-.89.32.1-.94m5.66-7.25-.79-.62h0L7.55,14.81l0,2.5,2.41-.65,5.85-7.49L15,8.56Zm1.88.77.62-.79s.23-1.09-.17-1.4l-.79-.62h0c-.4-.31-1.4.17-1.4.17l-.62.79"/></g></g></g></g></svg>