<?xml version="1.0" encoding="utf-8"?>
<!-- Generator: Adobe Illustrator 19.1.0, SVG Export Plug-In . SVG Version: 6.00 Build 0)  -->
<svg version="1.1" id="Layer_1" xmlns="http://www.w3.org/2000/svg" xmlns:xlink="http://www.w3.org/1999/xlink" x="0px" y="0px"
	 viewBox="0 0 73 73" style="enable-background:new 0 0 73 73;" xml:space="preserve">
<style type="text/css">
	.st0{fill:#2065AD;}
	.st1{fill:#EFEFEF;}
	.st2{clip-path:url(#SVGID_2_);}
	.st3{fill:#6BA1D6;}
</style>
<g>
	<circle class="st0" cx="36.3" cy="36.2" r="35"/>
	<rect x="1.3" y="76.8" style="fill:none;" width="72.2" height="14.3"/>
	<text transform="matrix(1 0 0 1 6.7967 84.6843)" class="st1" style="font-family:'UniversLTStd'; font-size:11px;">John Smith</text>
	<g>
		<defs>
			<circle id="SVGID_1_" cx="36.3" cy="36.2" r="35"/>
		</defs>
		<clipPath id="SVGID_2_">
			<use xlink:href="#SVGID_1_"  style="overflow:visible;"/>
		</clipPath>
		<g class="st2">
			<path class="st3" d="M11,59l6.4-4.8h6.1c0,0,3.2,0.2,5.5-6.1c3.4,1.8,10.1,3.9,15.1,0c0,0.6,2.5,6.4,6.5,6.4s5.1,0.1,5.1,0.1
				L62,59v9.7l-20.6,9.8l-23,1.5l-5.2-5.8L11,59z"/>
			<path class="st3" d="M24.6,28.9L23.3,30v4.2l1.2,0.4c0,0,2.8,12,10.3,12h4c0,0,5,1.2,8.6-10.5l0,0l1.7-2.1v-3.5l-0.9-0.8
				l-0.2-10.9c0,0-1.9-7.2-8-7.4c-5.9-0.2-7.8,0-7.8,0s-7.8,1.5-7.8,7.3l-0.2,10.3"/>
		</g>
	</g>
</g>
</svg>
