<?xml version="1.0" encoding="utf-8"?>
<!-- Generator: Adobe Illustrator 19.1.0, SVG Export Plug-In . SVG Version: 6.00 Build 0)  -->
<svg version="1.1" id="Layer_1" xmlns="http://www.w3.org/2000/svg" xmlns:xlink="http://www.w3.org/1999/xlink" x="0px" y="0px"
	 viewBox="0 0 48.3 36" style="enable-background:new 0 0 48.3 36;" xml:space="preserve">
<style type="text/css">
	.st0{fill:#F3F5F4;}
</style>
<g>
	<path class="st0" d="M40.8,16.9C40.2,8.2,33.4,1.4,24.7,0.8v0h-2.3v0C13.8,1.4,7,8.2,6.4,16.9h0v2.3h0c0.6,8.6,7.5,15.5,16.1,16.1
		v0h2.3v0c8.6-0.6,15.5-7.4,16.1-16.1h0L40.8,16.9L40.8,16.9z M17.2,4.5c-1.1,1.5-2,3.3-2.7,5.4H11C12.5,7.6,14.6,5.7,17.2,4.5
		L17.2,4.5z M9.8,12.2h4c-0.3,1.4-0.5,3-0.6,4.6H8.7C8.8,15.2,9.2,13.7,9.8,12.2L9.8,12.2z M8.7,19.1h4.6c0.1,1.6,0.3,3.2,0.6,4.6
		h-4C9.2,22.3,8.8,20.8,8.7,19.1L8.7,19.1z M11,26.1h3.4c0.7,2.1,1.6,4,2.7,5.4C14.6,30.3,12.5,28.4,11,26.1L11,26.1z M22.5,32.8
		c-2.4-0.6-4.4-3.2-5.6-6.7h5.6V32.8z M22.5,23.8h-6.3c-0.3-1.4-0.5-3-0.6-4.6h6.9V23.8z M22.5,16.9h-6.9c0.1-1.6,0.3-3.2,0.6-4.6
		h6.3V16.9z M22.5,9.9h-5.6c1.2-3.6,3.3-6.1,5.6-6.7V9.9z M36.2,9.9h-3.4c-0.7-2.1-1.6-4-2.7-5.4C32.6,5.7,34.7,7.6,36.2,9.9
		L36.2,9.9z M24.7,3.2c2.4,0.6,4.4,3.2,5.6,6.7h-5.6V3.2z M24.7,12.2H31c0.3,1.4,0.5,3,0.6,4.6h-6.9V12.2z M24.7,19.1h6.9
		c-0.1,1.6-0.3,3.2-0.6,4.6h-6.3V19.1z M24.7,32.8v-6.7h5.6C29.1,29.6,27.1,32.2,24.7,32.8L24.7,32.8z M30,31.5
		c1.1-1.5,2-3.3,2.7-5.4h3.4C34.7,28.4,32.6,30.3,30,31.5L30,31.5z M37.4,23.8h-4c0.3-1.4,0.5-3,0.6-4.6h4.6
		C38.4,20.8,38,22.3,37.4,23.8L37.4,23.8z M33.9,16.9c-0.1-1.6-0.3-3.2-0.6-4.6h4c0.6,1.4,1,3,1.1,4.6H33.9z M33.9,16.9"/>
</g>
</svg>
