<svg xmlns="http://www.w3.org/2000/svg" viewBox="0 0 43.75 28.12"><defs><style>.cls-1,.cls-5{fill:#05417c;}.cls-1{stroke:#f0f0f0;}.cls-1,.cls-4,.cls-5{stroke-miterlimit:10;stroke-width:0.75px;}.cls-2,.cls-4{fill:none;}.cls-2{opacity:0.47;isolation:isolate;}.cls-3{opacity:0.41;}.cls-4,.cls-5{stroke:#fff;}</style></defs><title>iconMySearches</title><g id="Layer_2" data-name="Layer 2"><g id="Layer_2-2" data-name="Layer 2"><g id="layer1"><path id="path216" class="cls-1" d="M1.42,27.08c0,.34.49.67.94.67H36.08c.45,0,.87-.34.85-.67l-1-22c0-.34-.49-.67-.94-.67H20.69a1.55,1.55,0,0,1-1.51-.89l-.66-2.33c-.17-.59-.95-.84-1.4-.84H1.23C.78.38.35.71.38,1Z"/><path id="path233" class="cls-1" d="M39.4,27.75a2.16,2.16,0,0,0,2.19-1.86c.85-9.28,1.77-17.06,1.77-17.06.08-.2-.18-.4-.51-.4H6.15L2.88,27.75Z"/><path id="path304" class="cls-2" d="M7.2,9.23l35,.05L40.53,25.35c-.09.86-.48,1.15-2,1.15L5,26.47a1.91,1.91,0,0,0,.36-.81Z"/></g><rect class="cls-4" x="23.33" y="20.45" width="5.8" height="1.79" rx="0.65" ry="0.65" transform="translate(21.05 -12.07) rotate(42.05)"/><circle class="cls-5" cx="21.67" cy="16.62" r="4.31"/></g></g></svg>