<?xml version="1.0" encoding="utf-8"?>
<!-- Generator: Adobe Illustrator 19.1.0, SVG Export Plug-In . SVG Version: 6.00 Build 0)  -->
<svg version="1.1" id="Layer_1" xmlns="http://www.w3.org/2000/svg" xmlns:xlink="http://www.w3.org/1999/xlink" x="0px" y="0px"
	 viewBox="0 0 48.3 36" style="enable-background:new 0 0 48.3 36;" xml:space="preserve">
<style type="text/css">
	.st0{fill:#F3F5F4;}
</style>
<path class="st0" d="M24.4,0.7L24.4,0.7C14.9,0.7,7.1,8.5,7.1,18s7.7,17.3,17.3,17.3h0c9.5,0,17.3-7.7,17.3-17.3S33.9,0.7,24.4,0.7z
	 M28.1,25.2c-0.8,0.7-1.9,1.1-3.1,1.3v2h-1.9v-2c-0.8-0.1-1.6-0.4-2.2-0.8c-0.9-0.6-1.7-1.5-2.4-2.7l2.8-1.6
	c0.9,1.4,1.8,2.2,2.9,2.2c0.6,0,1.1-0.2,1.5-0.5c0.4-0.3,0.6-0.7,0.6-1.1c0-0.4-0.1-0.7-0.4-1.1s-1-0.9-2-1.7
	c-1.9-1.5-3.2-2.6-3.7-3.4c-0.6-0.8-0.8-1.6-0.8-2.4c0-1.1,0.5-2.1,1.4-2.9c0.7-0.6,1.5-1,2.4-1.1V7.2H25v2.2
	c0.6,0.1,1.2,0.2,1.7,0.5c0.8,0.4,1.7,1.1,2.6,2.1l-2.5,2c-0.9-1.1-1.8-1.7-2.7-1.7c-0.4,0-0.8,0.1-1.1,0.3
	c-0.3,0.2-0.4,0.5-0.4,0.7s0.1,0.5,0.3,0.8c0.3,0.3,1.1,1,2.5,2.1c1.3,1,2.1,1.6,2.3,1.9c0.7,0.6,1.2,1.2,1.5,1.8
	c0.3,0.6,0.4,1.2,0.4,1.9C29.6,23.2,29.1,24.3,28.1,25.2z"/>
</svg>
