<svg id="Layer_2" data-name="Layer 2" xmlns="http://www.w3.org/2000/svg" viewBox="0 0 42 25"><defs><style>.cls-1{fill:#2065ad;}</style></defs><title>Artboard 1</title><path class="cls-1" d="M21.23,11.68a5.49,5.49,0,1,0-5.48-5.49,5.49,5.49,0,0,0,5.48,5.49Zm0,0"/><path class="cls-1" d="M25.63,13H16.83A2.67,2.67,0,0,0,14,15.79v8.84c0,.1,0,.37,0,.37H28.43s-.43-.28-.43-.37V15.79C28,14,27.2,13,25.63,13Zm0-.42"/><path class="cls-1" d="M36,14.31a4.4,4.4,0,1,0-4.39-4.4A4.39,4.39,0,0,0,36,14.31Zm0,0"/><path class="cls-1" d="M39.53,15h-7A2.62,2.62,0,0,0,30,17.6v7.09c0,.08.22.32.23.32H41.78s.22-.24.22-.32V17.6A2.62,2.62,0,0,0,39.53,15Zm0,0"/><path class="cls-1" d="M6.45,14.31A4.4,4.4,0,1,0,2.06,9.9a4.39,4.39,0,0,0,4.39,4.4Zm0,0"/><path class="cls-1" d="M10,15h-7C1.66,15,1,16.18,1,17.6v7.09c0,.08-.33.32-.32.32H12.23s-.23-.24-.23-.32V17.6c0-1.42-.76-2.6-2-2.6Zm0,0"/></svg>