<?xml version="1.0" encoding="utf-8"?>
<!-- Generator: Adobe Illustrator 19.1.0, SVG Export Plug-In . SVG Version: 6.00 Build 0)  -->
<svg version="1.1" id="Layer_1" xmlns="http://www.w3.org/2000/svg" xmlns:xlink="http://www.w3.org/1999/xlink" x="0px" y="0px"
	 viewBox="0 0 48.3 36" style="enable-background:new 0 0 48.3 36;" xml:space="preserve">
<style type="text/css">
	.st0{fill:#F3F5F4;}
	.st1{fill:#02376A;stroke:#FFFFFF;stroke-miterlimit:10;}
	.st2{fill:#FFFFFF;}
</style>
<g>
	<rect x="4.1" y="33.6" class="st0" width="40.3" height="2.4"/>
	<g>
		<rect x="6.9" y="7.6" class="st1" width="20.8" height="26"/>
		<rect x="13.8" y="31.9" class="st2" width="6.8" height="1.7"/>
		<rect x="9.9" y="28.3" class="st0" width="14.7" height="2.9"/>
		<rect x="9.9" y="24" class="st0" width="14.7" height="2.9"/>
		<rect x="9.9" y="19.7" class="st0" width="14.7" height="2.9"/>
		<rect x="9.9" y="15.5" class="st0" width="14.7" height="2.9"/>
		<rect x="9.9" y="11.2" class="st0" width="14.7" height="2.9"/>
	</g>
	<g>
		<rect x="21.6" y="7.6" class="st1" width="20.8" height="26"/>
		<rect x="28.6" y="31.9" class="st2" width="6.8" height="1.7"/>
		<rect x="24.6" y="28.3" class="st0" width="14.7" height="2.9"/>
		<rect x="24.6" y="24" class="st0" width="14.7" height="2.9"/>
		<rect x="24.6" y="19.7" class="st0" width="14.7" height="2.9"/>
		<rect x="24.6" y="15.5" class="st0" width="14.7" height="2.9"/>
		<rect x="24.6" y="11.2" class="st0" width="14.7" height="2.9"/>
	</g>
	<g>
		<rect x="13.8" y="1.5" class="st1" width="21.3" height="32.1"/>
		<rect x="20.9" y="30.2" class="st2" width="6.9" height="3.4"/>
		<rect x="16.9" y="26.2" class="st0" width="15.1" height="2.9"/>
		<rect x="16.9" y="21.9" class="st0" width="15.1" height="2.9"/>
		<rect x="16.9" y="17.6" class="st0" width="15.1" height="2.9"/>
		<rect x="16.9" y="13.3" class="st0" width="15.1" height="2.9"/>
		<rect x="16.9" y="9" class="st0" width="15.1" height="2.9"/>
		<rect x="16.9" y="4.7" class="st0" width="15.1" height="2.9"/>
	</g>
</g>
</svg>
