<?xml version="1.0" encoding="utf-8"?>
<!-- Generator: Adobe Illustrator 19.1.0, SVG Export Plug-In . SVG Version: 6.00 Build 0)  -->
<svg version="1.1" id="Layer_1" xmlns="http://www.w3.org/2000/svg" xmlns:xlink="http://www.w3.org/1999/xlink" x="0px" y="0px"
	 viewBox="-295 388 20 18" style="enable-background:new -295 388 20 18;" xml:space="preserve">
<style type="text/css">
	.st0{fill:#DD5F13;}
	.st1{fill:#FFFFFF;}
</style>
<g>
	<g>
		<path class="st0" d="M-279.7,403.2h-10.1c-2.3,0-4.2-1.8-4.2-4c0-1.6,0.9-3,2.4-3.6c0-0.1,0-0.3,0-0.4c0-2.5,2.1-4.6,4.8-4.6
			c1.9,0,3.7,1.1,4.4,2.8c0.4-0.4,1-0.6,1.5-0.6c1.3,0,2.4,1,2.4,2.3c0,0.4-0.1,0.9-0.4,1.2c1.6,0.4,2.8,1.7,2.8,3.3
			C-276.1,401.6-277.7,403.2-279.7,403.2z M-284.5,401v-1.8h2.1c0.2,0,0.3-0.1,0.3-0.3c0-0.1,0-0.2-0.1-0.2l-3.3-3.1
			c-0.1-0.1-0.1-0.1-0.2-0.1c-0.1,0-0.2,0-0.2,0.1l-3.3,3.1c-0.1,0.1-0.1,0.1-0.1,0.2c0,0.2,0.1,0.3,0.3,0.3h2.1v1.8"/>
		<rect x="-286.9" y="399.2" class="st1" width="2.4" height="4.4"/>
	</g>
</g>
</svg>
