<svg xmlns="http://www.w3.org/2000/svg" viewBox="0 0 123.78 123.78"><defs><style>.cls-1,.cls-3,.cls-4{fill:none;stroke-miterlimit:10;}.cls-1{stroke:#ec7f00;}.cls-2{fill:#e87d1e;}.cls-3,.cls-4{stroke:#e87d1e;}.cls-4{stroke-width:2px;}</style></defs><title>iconConstruction</title><g id="Layer_2" data-name="Layer 2"><g id="Layer_4" data-name="Layer 4"><circle class="cls-1" cx="61.89" cy="61.89" r="61.39"/><rect class="cls-2" x="33.4" y="70.13" width="52.23" height="11.68"/><rect class="cls-2" x="50.76" y="81.82" width="17.51" height="4.22"/><circle class="cls-2" cx="31.13" cy="91.33" r="5.48"/><circle class="cls-2" cx="89.3" cy="91.33" r="5.48"/><rect class="cls-2" x="30.58" y="86.04" width="59.37" height="10.73"/><polygon class="cls-3" points="69.29 70.69 69.29 59.8 77.17 59.8 84.47 68.14 84.47 70.69 69.29 70.69"/><polygon class="cls-4" points="35.1 71.48 35.1 49.25 87.6 28.18 90.11 28.18 48.31 71.48 35.1 71.48"/><path class="cls-4" d="M91.36,51.89v4.52s4.17,1.05,4.17,3.83a4.25,4.25,0,0,1-2.08,3.82S87.88,66.38,87,60.24"/><line class="cls-4" x1="91.36" y1="27.67" x2="91.36" y2="44.39"/><circle class="cls-4" cx="91.36" cy="48.18" r="3.71"/><polyline class="cls-4" points="35.1 49.25 39.8 58.49 46 70.69"/></g></g></svg>