<?xml version="1.0" encoding="utf-8"?>
<!-- Generator: Adobe Illustrator 19.1.0, SVG Export Plug-In . SVG Version: 6.00 Build 0)  -->
<svg version="1.1" id="Layer_1" xmlns="http://www.w3.org/2000/svg" xmlns:xlink="http://www.w3.org/1999/xlink" x="0px" y="0px"
	 viewBox="0 0 32 32" style="enable-background:new 0 0 32 32;" xml:space="preserve">
<style type="text/css">
	.st0{fill:none;stroke:#05417C;stroke-width:2;stroke-miterlimit:10;}
</style>
<g>
	<path class="st0" d="M25.2,13.2l-0.1,0L24.6,12l0.1-0.1c1.4-3.3,1.3-3.4,1.1-3.6l-1.9-1.9c-0.1-0.1-0.2-0.1-0.3-0.1
		c-0.1,0-0.4,0-3.2,1.3l-0.1,0l-1.1-0.5l0-0.1c-1.3-3.3-1.4-3.3-1.8-3.3h-2.7c-0.3,0-0.5,0-1.7,3.3l0,0.1l-1.1,0.5l-0.1,0
		c-1.9-0.8-3-1.2-3.3-1.2c-0.1,0-0.3,0.1-0.3,0.1L6.2,8.4c-0.2,0.2-0.3,0.3,1.1,3.5l0.1,0.1l-0.5,1.1l-0.1,0
		c-3.3,1.3-3.3,1.4-3.3,1.8v2.7c0,0.3,0,0.5,3.3,1.7l0.1,0l0.5,1.1l0,0.1C5.9,23.9,6,24,6.3,24.2l1.9,1.9c0.1,0.1,0.2,0.1,0.3,0.1
		c0.1,0,0.4,0,3.2-1.3l0.1-0.1l1.1,0.5l0,0.1c1.3,3.3,1.4,3.3,1.8,3.3h2.7c0.3,0,0.5,0,1.7-3.3l0-0.1l1.1-0.5l0.1,0
		c1.9,0.8,3,1.2,3.3,1.2c0.1,0,0.2-0.1,0.3-0.1l1.9-1.9c0.2-0.2,0.3-0.3-1.1-3.5l-0.1-0.1l0.5-1.1l0.1,0c3.3-1.3,3.3-1.4,3.3-1.8
		v-2.6C28.5,14.5,28.5,14.4,25.2,13.2L25.2,13.2z M16,20.6c-2.4,0-4.3-1.9-4.3-4.3c0-2.4,1.9-4.3,4.3-4.3c2.4,0,4.3,1.9,4.3,4.3
		C20.3,18.6,18.4,20.6,16,20.6L16,20.6z M16,20.6"/>
</g>
</svg>
