<svg xmlns="http://www.w3.org/2000/svg" viewBox="0 0 204.31 195.23"><defs><style>.cls-1{fill:#ec7f00;}.cls-2{fill:#fff;}</style></defs><title>iconAddMMAUser</title><g id="Layer_2" data-name="Layer 2"><g id="content"><g id="layer1"><g id="g4305"><g id="g4345"><g id="text2994"><path id="path17" class="cls-1" d="M100.49,77.18H168v4.54H96L81.79,95.43c36.17,0,73-.09,108.89-.09v27.24c-43.24-.11-91.58,0-134.88,0-.21,0-.42,0-.64,0a11.89,11.89,0,0,1-1.56,0H35.87l-.45-27.24h6.13V92.49H22.7v34.63a9.06,9.06,0,0,0,9.08,9.08h4.09v4.54H31.78a9.06,9.06,0,0,0-9.08,9.08v36.32a9.06,9.06,0,0,0,9.08,9.08H195.23a9.06,9.06,0,0,0,9.08-9.08V149.82a9.06,9.06,0,0,0-9.08-9.08h-4.54V136.2h4.54a9.06,9.06,0,0,0,9.08-9.08V90.8a9.06,9.06,0,0,0-9.08-9.08h-4.54V77.18h4.54a9.06,9.06,0,0,0,9.08-9.08V31.78a9.06,9.06,0,0,0-9.08-9.08H91.44l13.62,13.17h85.62V63.56c-22.86-.05-52.71-.05-75.74,0m75.74,118.09H35.87V154.36c48.18.2,106.7,0,154.82,0ZM168,140.74H59V136.2H168Z"/><path id="path2991-1" class="cls-1" d="M0,28.92a3.41,3.41,0,0,1,3.41-3.41H51.08V3.39A3.49,3.49,0,0,1,53.18.25,3.49,3.49,0,0,1,56.89,1L108,52.06a3.41,3.41,0,0,1,0,4.81L56.89,107.94a3.41,3.41,0,0,1-5.81-2.4V83.41H3.41A3.41,3.41,0,0,1,0,80Z"/></g></g></g><path class="cls-2" d="M20.67,61.61V50.24H24a4.32,4.32,0,0,1,2.75.78,2.78,2.78,0,0,1,1,2.33,2.85,2.85,0,0,1-.36,1.44,2.2,2.2,0,0,1-1.08.94,2,2,0,0,1,1.33.91,3.09,3.09,0,0,1,.43,1.65,3.17,3.17,0,0,1-.93,2.48,3.85,3.85,0,0,1-2.68.84ZM22.89,55h1.23a1.42,1.42,0,0,0,1-.4,1.52,1.52,0,0,0,.36-1.09,1.59,1.59,0,0,0-.37-1.17A1.55,1.55,0,0,0,24,52H22.89Zm0,1.55v3.24h1.57a1.33,1.33,0,0,0,1.05-.39,1.7,1.7,0,0,0,.35-1.16,2.21,2.21,0,0,0-.3-1.25,1.07,1.07,0,0,0-1-.44Z"/><path class="cls-2" d="M35.19,56.62H31.37v3.22h4.49v1.77H29.14V50.24h6.7V52H31.37v2.84h3.82Z"/><path class="cls-2" d="M44.15,59.92a4.1,4.1,0,0,1-1.38,1.29,4.44,4.44,0,0,1-2.34.56,3.76,3.76,0,0,1-4-4.12V54.19a4.14,4.14,0,0,1,1.07-3,3.79,3.79,0,0,1,2.82-1.08,3.91,3.91,0,0,1,2.84.92,3.67,3.67,0,0,1,1,2.65l0,0H42a2.13,2.13,0,0,0-.43-1.41,1.59,1.59,0,0,0-1.23-.44,1.54,1.54,0,0,0-1.27.58,2.75,2.75,0,0,0-.46,1.75v3.49a2.79,2.79,0,0,0,.46,1.77,1.64,1.64,0,0,0,1.36.57,2.06,2.06,0,0,0,1-.18,1.4,1.4,0,0,0,.52-.53v-2h-1.5V55.69h3.72Z"/><path class="cls-2" d="M47.76,61.61H45.54V50.24h2.21Z"/><path class="cls-2" d="M57.16,61.61H54.95l-3.48-7.27,0,0v7.26H49.2V50.24h2.23L54.9,57.5l0,0V50.24h2.21Z"/></g></g></g></svg>