<?xml version="1.0" encoding="utf-8"?>
<!-- Generator: Adobe Illustrator 19.1.0, SVG Export Plug-In . SVG Version: 6.00 Build 0)  -->
<svg version="1.1" id="Layer_1" xmlns="http://www.w3.org/2000/svg" xmlns:xlink="http://www.w3.org/1999/xlink" x="0px" y="0px"
	 viewBox="0 0 48.3 36" style="enable-background:new 0 0 48.3 36;" xml:space="preserve">
<style type="text/css">
	.st0{fill:none;stroke:#F3F5F4;stroke-miterlimit:10;}
	.st1{fill:#F3F5F4;}
</style>
<g>
	<polygon class="st0" points="7.8,12.7 24,0.7 39.7,12.7 	"/>
	<g>
		<rect x="11" y="14.4" class="st1" width="0.9" height="14.3"/>
		<rect x="14.2" y="14.4" class="st1" width="0.9" height="14.3"/>
		<rect x="11" y="27.6" class="st1" width="4.1" height="1.1"/>
	</g>
	<g>
		<rect x="18.1" y="14.4" class="st1" width="0.9" height="14.3"/>
		<rect x="21.3" y="14.4" class="st1" width="0.9" height="14.3"/>
		<rect x="18.1" y="27.6" class="st1" width="4.1" height="1.1"/>
	</g>
	<g>
		<rect x="25.8" y="14.4" class="st1" width="0.9" height="14.3"/>
		<rect x="29" y="14.4" class="st1" width="0.9" height="14.3"/>
		<rect x="25.8" y="27.6" class="st1" width="4.1" height="1.1"/>
	</g>
	<g>
		<rect x="33" y="14.4" class="st1" width="0.9" height="14.3"/>
		<rect x="36.2" y="14.4" class="st1" width="0.9" height="14.3"/>
		<rect x="33" y="27.6" class="st1" width="4.1" height="1.1"/>
	</g>
	<rect x="9.9" y="30" class="st1" width="28.5" height="0.8"/>
	<rect x="8.6" y="32.1" class="st1" width="31.2" height="0.8"/>
	<rect x="6.6" y="34.5" class="st1" width="35.1" height="0.8"/>
	<polyline class="st0" points="18.1,8.9 23.8,5 29.4,8.9 	"/>
</g>
</svg>
