<svg xmlns="http://www.w3.org/2000/svg" xmlns:xlink="http://www.w3.org/1999/xlink" viewBox="0 0 123.42 123.42"><defs><style>.cls-1{fill:none;stroke:#ec7f00;stroke-miterlimit:10;}.cls-2{clip-path:url(#clip-path);}.cls-3{fill:#05417c;}</style><clipPath id="clip-path"><path class="cls-1" d="M61.71.5h0a61.21,61.21,0,0,0,0,122.42h0A61.21,61.21,0,0,0,61.71.5Z"/></clipPath></defs><title>iconRCA-CPPI</title><g id="Layer_2" data-name="Layer 2"><g id="Layer_3" data-name="Layer 3"><g class="cls-2"><path class="cls-1" d="M61.71.5h0a61.21,61.21,0,0,0,0,122.42h0A61.21,61.21,0,0,0,61.71.5Z"/><path class="cls-3" d="M36.66,43.68V54.05H31.58V28h8.51a8.55,8.55,0,0,1,6,2,7.32,7.32,0,0,1,2.19,5.65,6.56,6.56,0,0,1-.91,3.52,6.41,6.41,0,0,1-2.67,2.36,5,5,0,0,1,2.89,2.26,8,8,0,0,1,.89,3.94v1.84a11.49,11.49,0,0,0,.25,2.3,3.15,3.15,0,0,0,.88,1.78v.38H44.38a2.94,2.94,0,0,1-.79-1.86,21.21,21.21,0,0,1-.16-2.63V47.78a5,5,0,0,0-.8-3,2.67,2.67,0,0,0-2.28-1.07Zm0-4.07h3.4a2.93,2.93,0,0,0,2.36-.95,4.06,4.06,0,0,0,.81-2.7,4.58,4.58,0,0,0-.81-2.85,2.77,2.77,0,0,0-2.35-1.06H36.66Z"/><path class="cls-3" d="M68.73,45.65l.05.11q0,4.3-2,6.48t-6.13,2.19a8.62,8.62,0,0,1-6.47-2.48q-2.42-2.48-2.42-7V37.13a9.9,9.9,0,0,1,2.34-7,8.16,8.16,0,0,1,6.26-2.5q4.15,0,6.28,2.22t2.19,6.57l-.05.11H63.84a6.09,6.09,0,0,0-.7-3.7,3.22,3.22,0,0,0-2.81-1.13A3,3,0,0,0,57.69,33a7.31,7.31,0,0,0-.91,4.07v7.83a7,7,0,0,0,1,4.11,3.31,3.31,0,0,0,2.86,1.34,2.89,2.89,0,0,0,2.57-1.07,6.37,6.37,0,0,0,.64-3.64Z"/><path class="cls-3" d="M83.59,48.48H76.71l-1.4,5.57H70.18L77.52,28h5.3l7.33,26.08H85Zm-5.84-4.07h4.8l-2.35-9.22H80.1Z"/><path class="cls-3" d="M33.4,84.9l.05.11q0,4.3-2,6.48t-6.13,2.19a8.62,8.62,0,0,1-6.47-2.48q-2.42-2.48-2.42-7V76.38a9.9,9.9,0,0,1,2.34-7A8.16,8.16,0,0,1,25,66.85q4.16,0,6.28,2.22t2.19,6.57l-.05.11H28.51a6.09,6.09,0,0,0-.7-3.7A3.22,3.22,0,0,0,25,70.91a3,3,0,0,0-2.63,1.34,7.3,7.3,0,0,0-.91,4.07v7.83a7,7,0,0,0,1,4.11,3.31,3.31,0,0,0,2.86,1.34,2.89,2.89,0,0,0,2.57-1.07,6.37,6.37,0,0,0,.64-3.64Z"/><path class="cls-3" d="M41.64,83.93V93.3h-5.1V67.22h9.06a8.36,8.36,0,1,1,0,16.71Zm0-4.07h4a2.87,2.87,0,0,0,2.49-1.2,5.12,5.12,0,0,0,.86-3.05,5.32,5.32,0,0,0-.85-3.1,2.84,2.84,0,0,0-2.5-1.23h-4Z"/><path class="cls-3" d="M62.38,83.93V93.3h-5.1V67.22h9.06a8.36,8.36,0,1,1,0,16.71Zm0-4.07h4a2.87,2.87,0,0,0,2.49-1.2,5.12,5.12,0,0,0,.86-3.05,5.32,5.32,0,0,0-.85-3.1,2.84,2.84,0,0,0-2.5-1.23h-4Z"/><path class="cls-3" d="M83.35,93.3H78.28V67.22h5.07Z"/><path class="cls-3" d="M94.65,70.32H92.18v9.26H90V70.32H87.58V68.61h7.07Z"/><path class="cls-3" d="M98.53,68.61l2,8.05h0l2-8.05h2.8v11h-2.13V76.39l.18-4.26h0l-2.09,7.46H99.81l-2.07-7.4h0l.19,4.2v3.19H95.75v-11Z"/></g><path class="cls-1" d="M61.71.5h0a61.21,61.21,0,0,0,0,122.42h0A61.21,61.21,0,0,0,61.71.5Z"/></g></g></svg>