<svg xmlns="http://www.w3.org/2000/svg" viewBox="0 0 50.76 43.7"><defs><style>.cls-1{fill:#eef0f2;}.cls-2{fill:#fcfcfc;stroke:#d3d3d3;stroke-miterlimit:10;}.cls-3{fill:#05417c;}</style></defs><title>iconPeerFinder</title><g id="Layer_2" data-name="Layer 2"><g id="Layer_2-2" data-name="Layer 2"><rect class="cls-1" width="50.76" height="43.7" rx="7.36" ry="7.36"/><rect class="cls-2" x="4.44" y="3.55" width="43" height="36" rx="5.17" ry="5.17"/><path class="cls-3" d="M16.65,16.41a3.92,3.92,0,0,1-3.25-1.63H11a2.54,2.54,0,0,1-1.62-.56,2.29,2.29,0,0,1-.88-1.91,2.42,2.42,0,0,1,2.46-2.44H13.4a3.9,3.9,0,0,1,3.25-1.66,4,4,0,0,1,3.27,1.66h20a2.71,2.71,0,0,1,1.82.64,2.25,2.25,0,0,1,.78,1.81,2.61,2.61,0,0,1-.71,1.76,2.2,2.2,0,0,1-1.75.71H19.92A3.94,3.94,0,0,1,16.65,16.41Zm17.7,9a4,4,0,0,1-3.17-1.5.34.34,0,0,0-.26-.13h-20a2.39,2.39,0,0,1-1.76-.74,2.29,2.29,0,0,1-.71-1.73,2.57,2.57,0,0,1,.71-1.73,2.29,2.29,0,0,1,1.76-.74h20a.34.34,0,0,0,.26-.13,4.1,4.1,0,0,1,6.34,0,.34.34,0,0,0,.26.13h2.3a2.39,2.39,0,0,1,1.75.74,2.29,2.29,0,0,1,.71,1.73,2.57,2.57,0,0,1-.71,1.73,2.28,2.28,0,0,1-1.75.74h-2.3a.34.34,0,0,0-.26.13A3.92,3.92,0,0,1,34.35,25.45Zm-11,9A3.88,3.88,0,0,1,20.2,33a.34.34,0,0,0-.27-.13H11a2.51,2.51,0,0,1-1.6-.56,2.27,2.27,0,0,1-.87-1.88,2.61,2.61,0,0,1,.71-1.76,2.21,2.21,0,0,1,1.76-.71h9a.34.34,0,0,0,.27-.13,3.88,3.88,0,0,1,3.15-1.52,3.94,3.94,0,0,1,3.17,1.53.34.34,0,0,0,.26.13H39.93a2.74,2.74,0,0,1,1.83.64,2.28,2.28,0,0,1,.79,1.84,2.42,2.42,0,0,1-2.46,2.44H26.78a.34.34,0,0,0-.27.13A3.9,3.9,0,0,1,23.34,34.49ZM12.67,13.15a3.5,3.5,0,0,1-.1-.84,3.19,3.19,0,0,1,.1-.81H10.94a.81.81,0,0,0-.6.24.7.7,0,0,0-.21.58,1.19,1.19,0,0,0,.21.6.63.63,0,0,0,.6.24Zm17.7,9a3.25,3.25,0,0,1,0-1.63H10.94a.81.81,0,0,0-.6.24.7.7,0,0,0-.21.58,1,1,0,0,0,.21.58.71.71,0,0,0,.6.24Zm-11,9a3.4,3.4,0,0,1-.1-.81,3.73,3.73,0,0,1,.1-.84H10.94a.81.81,0,0,0-.6.24.74.74,0,0,0-.21.6,1,1,0,0,0,.21.58.83.83,0,0,0,.6.24ZM16.65,14.78a2.44,2.44,0,0,0,.68-.11l.16-.05a1.79,1.79,0,0,0,.6-.32,1.84,1.84,0,0,0,.55-.5,1.74,1.74,0,0,0,.31-.66,2.38,2.38,0,0,0,.16-.84A2.17,2.17,0,0,0,19,11.5a2.07,2.07,0,0,0-.33-.67,2.34,2.34,0,0,0-.51-.51,2.11,2.11,0,0,0-.63-.32.41.41,0,0,1-.16-.05,3.29,3.29,0,0,0-.68-.08,2.94,2.94,0,0,0-.66.08l-.16.05a2.13,2.13,0,0,0-.63.32,2.39,2.39,0,0,0-.51.51,2.09,2.09,0,0,0-.33.67,2.31,2.31,0,0,0-.16.81,2.53,2.53,0,0,0,.16.84,2.32,2.32,0,0,0,.33.66,1.72,1.72,0,0,0,.54.5,1.82,1.82,0,0,0,.6.32l.16.05a2.45,2.45,0,0,0,.68.11Zm6.69,18.06a3.28,3.28,0,0,0,.68-.08l.16-.05a2.05,2.05,0,0,0,.63-.32,2.46,2.46,0,0,0,.52-.53,1.74,1.74,0,0,0,.31-.66,2.31,2.31,0,0,0,.16-.81,2.53,2.53,0,0,0-.16-.84,2.31,2.31,0,0,0-.33-.66,1.71,1.71,0,0,0-.54-.5,1.79,1.79,0,0,0-.6-.32L24,28a2.52,2.52,0,0,0-.68-.11,2.26,2.26,0,0,0-.66.11.38.38,0,0,1-.16.05,1.82,1.82,0,0,0-.6.32,1.87,1.87,0,0,0-.55.5,1.75,1.75,0,0,0-.31.66,2.38,2.38,0,0,0-.16.84,2.17,2.17,0,0,0,.16.81,1.81,1.81,0,0,0,.33.64,4,4,0,0,0,.54.54,1.77,1.77,0,0,0,.6.32l.16.05a3.3,3.3,0,0,0,.68.08ZM40.09,13.15a.81.81,0,0,0,.84-.84.74.74,0,0,0-.24-.58,1,1,0,0,0-.6-.24H20.66a3.35,3.35,0,0,1,.11.81,3.67,3.67,0,0,1-.11.84Zm0,18.06a.81.81,0,0,0,.6-.24.79.79,0,0,0,.24-.58.88.88,0,0,0-.24-.6.7.7,0,0,0-.6-.24H27.35a3.46,3.46,0,0,1,.11.84,3.14,3.14,0,0,1-.11.81Zm-5.74-7.38a2.48,2.48,0,0,0,.68-.11l.16-.05a2.11,2.11,0,0,0,.63-.32,2.77,2.77,0,0,0,.52-.5,1.53,1.53,0,0,0,.31-.68,2.19,2.19,0,0,0,0-1.63,2.07,2.07,0,0,0-.33-.67,2.37,2.37,0,0,0-.51-.51,2.11,2.11,0,0,0-.63-.32A.4.4,0,0,1,35,19a2.48,2.48,0,0,0-.68-.11,2.22,2.22,0,0,0-.66.11l-.16.05a2.13,2.13,0,0,0-.63.32,2.29,2.29,0,0,0-.5.5,1.58,1.58,0,0,0-.34.68,2.19,2.19,0,0,0,0,1.63,1.58,1.58,0,0,0,.34.68,5,5,0,0,0,.52.5,1.82,1.82,0,0,0,.6.32l.16.05A2.42,2.42,0,0,0,34.35,23.82Zm5.74-1.66a.81.81,0,0,0,.6-.24.83.83,0,0,0,0-1.16.81.81,0,0,0-.6-.24H38.36a3.21,3.21,0,0,1,0,1.63Z"/></g></g></svg>